M48
; DRILL file KiCad 10.0.6-1.fc43 date 2026-09-07T00:45:25
; FORMAT={-:-/ absolute / metric / decimal}
; #@! TF.CreationDate,2026-09-07T00:45:25+05:30
; #@! TF.GenerationSoftware,Kicad,Pcbnew,10.0.6-1.fc43
; #@! TF.FileFunction,MixedPlating,1,2
FMAT,2
METRIC
; #@! TA.AperFunction,Plated,PTH,ComponentDrill
T1C0.800
; #@! TA.AperFunction,Plated,PTH,ComponentDrill
T2C0.900
; #@! TA.AperFunction,Plated,PTH,ComponentDrill
T3C1.000
; #@! TA.AperFunction,Plated,PTH,ComponentDrill
T4C1.200
; #@! TA.AperFunction,Plated,PTH,ComponentDrill
T5C1.300
; #@! TA.AperFunction,Plated,PTH,ComponentDrill
T6C1.400
; #@! TA.AperFunction,Plated,PTH,ComponentDrill
T7C1.500
; #@! TA.AperFunction,NonPlated,NPTH,ComponentDrill
T8C3.200
%
G90
G05
T1
X80.73Y-82.0
X82.0Y-82.0
X83.27Y-82.0
T2
X103.5Y-168.0
X103.5Y-180.0
X108.5Y-168.0
X108.5Y-180.0
X119.5Y-168.0
X119.5Y-180.0
X124.5Y-168.0
X124.5Y-180.0
X135.5Y-168.0
X135.5Y-180.0
X140.5Y-168.0
X140.5Y-180.0
X151.5Y-168.0
X151.5Y-180.0
X156.5Y-168.0
X156.5Y-180.0
X167.5Y-168.0
X167.5Y-180.0
X172.5Y-168.0
X172.5Y-180.0
X183.5Y-168.0
X183.5Y-180.0
X188.5Y-168.0
X188.5Y-180.0
T3
X56.25Y-148.0
X63.75Y-148.0
X117.46Y-72.0
X120.0Y-72.0
X122.54Y-72.0
X142.0Y-71.19
X142.0Y-76.27
X142.0Y-78.81
X142.0Y-81.35
X142.0Y-83.89
X142.0Y-86.43
X142.0Y-88.97
X238.0Y-72.0
X238.0Y-74.54
X238.0Y-77.08
X238.0Y-79.62
X238.0Y-90.54
X238.0Y-93.08
X238.0Y-98.19
X238.0Y-103.27
X238.0Y-105.81
T4
X100.0Y-72.0
X105.0Y-75.5
X110.0Y-72.0
T5
X202.0Y-146.0
X214.0Y-146.0
T6
X54.92Y-185.0
X60.0Y-185.0
X65.08Y-185.0
X76.25Y-112.0
X76.25Y-138.0
X83.75Y-112.0
X83.75Y-138.0
X235.46Y-130.0
X235.46Y-142.0
X235.46Y-154.0
X235.46Y-166.0
X235.46Y-178.0
X235.46Y-190.0
X240.54Y-130.0
X240.54Y-142.0
X240.54Y-154.0
X240.54Y-166.0
X240.54Y-178.0
X240.54Y-190.0
T7
X48.7Y-165.0
X71.3Y-165.0
X80.0Y-157.38
X80.0Y-162.46
X80.0Y-167.54
X80.0Y-172.62
X202.0Y-134.0
X214.0Y-134.0
T8
X56.0Y-56.0
X56.0Y-194.0
X244.0Y-56.0
X244.0Y-194.0
M30
