%TF.GenerationSoftware,KiCad,Pcbnew,10.0.6-1.fc43*%
%TF.CreationDate,2026-09-07T01:25:58+05:30*%
%TF.ProjectId,sony-5.1-revival,736f6e79-2d35-42e3-912d-726576697661,2.0*%
%TF.SameCoordinates,Original*%
%TF.FileFunction,AssemblyDrawing,Top*%
%FSLAX46Y46*%
G04 Gerber Fmt 4.6, Leading zero omitted, Abs format (unit mm)*
G04 Created by KiCad (PCBNEW 10.0.6-1.fc43) date 2026-09-07 01:25:58*
%MOMM*%
%LPD*%
G01*
G04 APERTURE LIST*
%ADD10C,0.112500*%
%ADD11C,0.100000*%
%ADD12C,0.087500*%
%ADD13C,0.125000*%
G04 APERTURE END LIST*
D10*
X56292857Y-181596221D02*
X56335714Y-181553364D01*
X56335714Y-181553364D02*
X56421429Y-181510507D01*
X56421429Y-181510507D02*
X56635714Y-181510507D01*
X56635714Y-181510507D02*
X56721429Y-181553364D01*
X56721429Y-181553364D02*
X56764286Y-181596221D01*
X56764286Y-181596221D02*
X56807143Y-181681935D01*
X56807143Y-181681935D02*
X56807143Y-181767650D01*
X56807143Y-181767650D02*
X56764286Y-181896221D01*
X56764286Y-181896221D02*
X56250000Y-182410507D01*
X56250000Y-182410507D02*
X56807143Y-182410507D01*
X57107143Y-181510507D02*
X57664286Y-181510507D01*
X57664286Y-181510507D02*
X57364286Y-181853364D01*
X57364286Y-181853364D02*
X57492857Y-181853364D01*
X57492857Y-181853364D02*
X57578572Y-181896221D01*
X57578572Y-181896221D02*
X57621429Y-181939078D01*
X57621429Y-181939078D02*
X57664286Y-182024792D01*
X57664286Y-182024792D02*
X57664286Y-182239078D01*
X57664286Y-182239078D02*
X57621429Y-182324792D01*
X57621429Y-182324792D02*
X57578572Y-182367650D01*
X57578572Y-182367650D02*
X57492857Y-182410507D01*
X57492857Y-182410507D02*
X57235714Y-182410507D01*
X57235714Y-182410507D02*
X57150000Y-182367650D01*
X57150000Y-182367650D02*
X57107143Y-182324792D01*
X58221429Y-181510507D02*
X58307143Y-181510507D01*
X58307143Y-181510507D02*
X58392857Y-181553364D01*
X58392857Y-181553364D02*
X58435715Y-181596221D01*
X58435715Y-181596221D02*
X58478572Y-181681935D01*
X58478572Y-181681935D02*
X58521429Y-181853364D01*
X58521429Y-181853364D02*
X58521429Y-182067650D01*
X58521429Y-182067650D02*
X58478572Y-182239078D01*
X58478572Y-182239078D02*
X58435715Y-182324792D01*
X58435715Y-182324792D02*
X58392857Y-182367650D01*
X58392857Y-182367650D02*
X58307143Y-182410507D01*
X58307143Y-182410507D02*
X58221429Y-182410507D01*
X58221429Y-182410507D02*
X58135715Y-182367650D01*
X58135715Y-182367650D02*
X58092857Y-182324792D01*
X58092857Y-182324792D02*
X58050000Y-182239078D01*
X58050000Y-182239078D02*
X58007143Y-182067650D01*
X58007143Y-182067650D02*
X58007143Y-181853364D01*
X58007143Y-181853364D02*
X58050000Y-181681935D01*
X58050000Y-181681935D02*
X58092857Y-181596221D01*
X58092857Y-181596221D02*
X58135715Y-181553364D01*
X58135715Y-181553364D02*
X58221429Y-181510507D01*
X58778572Y-181510507D02*
X59078572Y-182410507D01*
X59078572Y-182410507D02*
X59378572Y-181510507D01*
X59464287Y-182496221D02*
X60150001Y-182496221D01*
X60321429Y-182153364D02*
X60750001Y-182153364D01*
X60235715Y-182410507D02*
X60535715Y-181510507D01*
X60535715Y-181510507D02*
X60835715Y-182410507D01*
X61650001Y-182324792D02*
X61607144Y-182367650D01*
X61607144Y-182367650D02*
X61478572Y-182410507D01*
X61478572Y-182410507D02*
X61392858Y-182410507D01*
X61392858Y-182410507D02*
X61264287Y-182367650D01*
X61264287Y-182367650D02*
X61178572Y-182281935D01*
X61178572Y-182281935D02*
X61135715Y-182196221D01*
X61135715Y-182196221D02*
X61092858Y-182024792D01*
X61092858Y-182024792D02*
X61092858Y-181896221D01*
X61092858Y-181896221D02*
X61135715Y-181724792D01*
X61135715Y-181724792D02*
X61178572Y-181639078D01*
X61178572Y-181639078D02*
X61264287Y-181553364D01*
X61264287Y-181553364D02*
X61392858Y-181510507D01*
X61392858Y-181510507D02*
X61478572Y-181510507D01*
X61478572Y-181510507D02*
X61607144Y-181553364D01*
X61607144Y-181553364D02*
X61650001Y-181596221D01*
X61821430Y-182496221D02*
X62507144Y-182496221D01*
X62721429Y-182410507D02*
X62721429Y-181510507D01*
X63150000Y-182410507D02*
X63150000Y-181510507D01*
X63150000Y-181510507D02*
X63664286Y-182410507D01*
X63664286Y-182410507D02*
X63664286Y-181510507D01*
D11*
X57564895Y-166400000D02*
X57564895Y-165904762D01*
X57564895Y-165904762D02*
X57869657Y-166171428D01*
X57869657Y-166171428D02*
X57869657Y-166057143D01*
X57869657Y-166057143D02*
X57907752Y-165980952D01*
X57907752Y-165980952D02*
X57945847Y-165942857D01*
X57945847Y-165942857D02*
X58022038Y-165904762D01*
X58022038Y-165904762D02*
X58212514Y-165904762D01*
X58212514Y-165904762D02*
X58288704Y-165942857D01*
X58288704Y-165942857D02*
X58326800Y-165980952D01*
X58326800Y-165980952D02*
X58364895Y-166057143D01*
X58364895Y-166057143D02*
X58364895Y-166285714D01*
X58364895Y-166285714D02*
X58326800Y-166361905D01*
X58326800Y-166361905D02*
X58288704Y-166400000D01*
X58136323Y-165600000D02*
X58136323Y-165219047D01*
X58364895Y-165676190D02*
X57564895Y-165409523D01*
X57564895Y-165409523D02*
X58364895Y-165142857D01*
X58441085Y-165066667D02*
X58441085Y-164457143D01*
X57641085Y-164304762D02*
X57602990Y-164266666D01*
X57602990Y-164266666D02*
X57564895Y-164190476D01*
X57564895Y-164190476D02*
X57564895Y-164000000D01*
X57564895Y-164000000D02*
X57602990Y-163923809D01*
X57602990Y-163923809D02*
X57641085Y-163885714D01*
X57641085Y-163885714D02*
X57717276Y-163847619D01*
X57717276Y-163847619D02*
X57793466Y-163847619D01*
X57793466Y-163847619D02*
X57907752Y-163885714D01*
X57907752Y-163885714D02*
X58364895Y-164342857D01*
X58364895Y-164342857D02*
X58364895Y-163847619D01*
X57564895Y-163123809D02*
X57564895Y-163504761D01*
X57564895Y-163504761D02*
X57945847Y-163542857D01*
X57945847Y-163542857D02*
X57907752Y-163504761D01*
X57907752Y-163504761D02*
X57869657Y-163428571D01*
X57869657Y-163428571D02*
X57869657Y-163238095D01*
X57869657Y-163238095D02*
X57907752Y-163161904D01*
X57907752Y-163161904D02*
X57945847Y-163123809D01*
X57945847Y-163123809D02*
X58022038Y-163085714D01*
X58022038Y-163085714D02*
X58212514Y-163085714D01*
X58212514Y-163085714D02*
X58288704Y-163123809D01*
X58288704Y-163123809D02*
X58326800Y-163161904D01*
X58326800Y-163161904D02*
X58364895Y-163238095D01*
X58364895Y-163238095D02*
X58364895Y-163428571D01*
X58364895Y-163428571D02*
X58326800Y-163504761D01*
X58326800Y-163504761D02*
X58288704Y-163542857D01*
X57564895Y-162590475D02*
X57564895Y-162514285D01*
X57564895Y-162514285D02*
X57602990Y-162438094D01*
X57602990Y-162438094D02*
X57641085Y-162399999D01*
X57641085Y-162399999D02*
X57717276Y-162361904D01*
X57717276Y-162361904D02*
X57869657Y-162323809D01*
X57869657Y-162323809D02*
X58060133Y-162323809D01*
X58060133Y-162323809D02*
X58212514Y-162361904D01*
X58212514Y-162361904D02*
X58288704Y-162399999D01*
X58288704Y-162399999D02*
X58326800Y-162438094D01*
X58326800Y-162438094D02*
X58364895Y-162514285D01*
X58364895Y-162514285D02*
X58364895Y-162590475D01*
X58364895Y-162590475D02*
X58326800Y-162666666D01*
X58326800Y-162666666D02*
X58288704Y-162704761D01*
X58288704Y-162704761D02*
X58212514Y-162742856D01*
X58212514Y-162742856D02*
X58060133Y-162780952D01*
X58060133Y-162780952D02*
X57869657Y-162780952D01*
X57869657Y-162780952D02*
X57717276Y-162742856D01*
X57717276Y-162742856D02*
X57641085Y-162704761D01*
X57641085Y-162704761D02*
X57602990Y-162666666D01*
X57602990Y-162666666D02*
X57564895Y-162590475D01*
X57564895Y-162095237D02*
X58364895Y-161828570D01*
X58364895Y-161828570D02*
X57564895Y-161561904D01*
X69904761Y-172364895D02*
X69447618Y-172364895D01*
X69676190Y-172364895D02*
X69676190Y-171564895D01*
X69676190Y-171564895D02*
X69599999Y-171679180D01*
X69599999Y-171679180D02*
X69523809Y-171755371D01*
X69523809Y-171755371D02*
X69447618Y-171793466D01*
X70590476Y-171831561D02*
X70590476Y-172364895D01*
X70400000Y-171526800D02*
X70209523Y-172098228D01*
X70209523Y-172098228D02*
X70704762Y-172098228D01*
X71009524Y-172364895D02*
X71009524Y-171564895D01*
X71009524Y-171564895D02*
X71200000Y-171564895D01*
X71200000Y-171564895D02*
X71314286Y-171602990D01*
X71314286Y-171602990D02*
X71390476Y-171679180D01*
X71390476Y-171679180D02*
X71428571Y-171755371D01*
X71428571Y-171755371D02*
X71466667Y-171907752D01*
X71466667Y-171907752D02*
X71466667Y-172022038D01*
X71466667Y-172022038D02*
X71428571Y-172174419D01*
X71428571Y-172174419D02*
X71390476Y-172250609D01*
X71390476Y-172250609D02*
X71314286Y-172326800D01*
X71314286Y-172326800D02*
X71200000Y-172364895D01*
X71200000Y-172364895D02*
X71009524Y-172364895D01*
X72152381Y-171831561D02*
X72152381Y-172364895D01*
X71961905Y-171526800D02*
X71771428Y-172098228D01*
X71771428Y-172098228D02*
X72266667Y-172098228D01*
X72495238Y-171564895D02*
X72990476Y-171564895D01*
X72990476Y-171564895D02*
X72723810Y-171869657D01*
X72723810Y-171869657D02*
X72838095Y-171869657D01*
X72838095Y-171869657D02*
X72914286Y-171907752D01*
X72914286Y-171907752D02*
X72952381Y-171945847D01*
X72952381Y-171945847D02*
X72990476Y-172022038D01*
X72990476Y-172022038D02*
X72990476Y-172212514D01*
X72990476Y-172212514D02*
X72952381Y-172288704D01*
X72952381Y-172288704D02*
X72914286Y-172326800D01*
X72914286Y-172326800D02*
X72838095Y-172364895D01*
X72838095Y-172364895D02*
X72609524Y-172364895D01*
X72609524Y-172364895D02*
X72533333Y-172326800D01*
X72533333Y-172326800D02*
X72495238Y-172288704D01*
X73752381Y-172364895D02*
X73295238Y-172364895D01*
X73523810Y-172364895D02*
X73523810Y-171564895D01*
X73523810Y-171564895D02*
X73447619Y-171679180D01*
X73447619Y-171679180D02*
X73371429Y-171755371D01*
X73371429Y-171755371D02*
X73295238Y-171793466D01*
X74095239Y-172364895D02*
X74095239Y-171564895D01*
X74552382Y-172364895D02*
X74209524Y-171907752D01*
X74552382Y-171564895D02*
X74095239Y-172022038D01*
D10*
X84399999Y-152410507D02*
X84399999Y-151510507D01*
X84914285Y-152410507D02*
X84528571Y-151896221D01*
X84914285Y-151510507D02*
X84399999Y-152024792D01*
X85599999Y-151939078D02*
X85728571Y-151981935D01*
X85728571Y-151981935D02*
X85771428Y-152024792D01*
X85771428Y-152024792D02*
X85814285Y-152110507D01*
X85814285Y-152110507D02*
X85814285Y-152239078D01*
X85814285Y-152239078D02*
X85771428Y-152324792D01*
X85771428Y-152324792D02*
X85728571Y-152367650D01*
X85728571Y-152367650D02*
X85642856Y-152410507D01*
X85642856Y-152410507D02*
X85299999Y-152410507D01*
X85299999Y-152410507D02*
X85299999Y-151510507D01*
X85299999Y-151510507D02*
X85599999Y-151510507D01*
X85599999Y-151510507D02*
X85685714Y-151553364D01*
X85685714Y-151553364D02*
X85728571Y-151596221D01*
X85728571Y-151596221D02*
X85771428Y-151681935D01*
X85771428Y-151681935D02*
X85771428Y-151767650D01*
X85771428Y-151767650D02*
X85728571Y-151853364D01*
X85728571Y-151853364D02*
X85685714Y-151896221D01*
X85685714Y-151896221D02*
X85599999Y-151939078D01*
X85599999Y-151939078D02*
X85299999Y-151939078D01*
X86199999Y-151510507D02*
X86199999Y-152239078D01*
X86199999Y-152239078D02*
X86242856Y-152324792D01*
X86242856Y-152324792D02*
X86285714Y-152367650D01*
X86285714Y-152367650D02*
X86371428Y-152410507D01*
X86371428Y-152410507D02*
X86542856Y-152410507D01*
X86542856Y-152410507D02*
X86628571Y-152367650D01*
X86628571Y-152367650D02*
X86671428Y-152324792D01*
X86671428Y-152324792D02*
X86714285Y-152239078D01*
X86714285Y-152239078D02*
X86714285Y-151510507D01*
X87271428Y-151896221D02*
X87185713Y-151853364D01*
X87185713Y-151853364D02*
X87142856Y-151810507D01*
X87142856Y-151810507D02*
X87099999Y-151724792D01*
X87099999Y-151724792D02*
X87099999Y-151681935D01*
X87099999Y-151681935D02*
X87142856Y-151596221D01*
X87142856Y-151596221D02*
X87185713Y-151553364D01*
X87185713Y-151553364D02*
X87271428Y-151510507D01*
X87271428Y-151510507D02*
X87442856Y-151510507D01*
X87442856Y-151510507D02*
X87528571Y-151553364D01*
X87528571Y-151553364D02*
X87571428Y-151596221D01*
X87571428Y-151596221D02*
X87614285Y-151681935D01*
X87614285Y-151681935D02*
X87614285Y-151724792D01*
X87614285Y-151724792D02*
X87571428Y-151810507D01*
X87571428Y-151810507D02*
X87528571Y-151853364D01*
X87528571Y-151853364D02*
X87442856Y-151896221D01*
X87442856Y-151896221D02*
X87271428Y-151896221D01*
X87271428Y-151896221D02*
X87185713Y-151939078D01*
X87185713Y-151939078D02*
X87142856Y-151981935D01*
X87142856Y-151981935D02*
X87099999Y-152067650D01*
X87099999Y-152067650D02*
X87099999Y-152239078D01*
X87099999Y-152239078D02*
X87142856Y-152324792D01*
X87142856Y-152324792D02*
X87185713Y-152367650D01*
X87185713Y-152367650D02*
X87271428Y-152410507D01*
X87271428Y-152410507D02*
X87442856Y-152410507D01*
X87442856Y-152410507D02*
X87528571Y-152367650D01*
X87528571Y-152367650D02*
X87571428Y-152324792D01*
X87571428Y-152324792D02*
X87614285Y-152239078D01*
X87614285Y-152239078D02*
X87614285Y-152067650D01*
X87614285Y-152067650D02*
X87571428Y-151981935D01*
X87571428Y-151981935D02*
X87528571Y-151939078D01*
X87528571Y-151939078D02*
X87442856Y-151896221D01*
X88471428Y-152410507D02*
X87957142Y-152410507D01*
X88214285Y-152410507D02*
X88214285Y-151510507D01*
X88214285Y-151510507D02*
X88128571Y-151639078D01*
X88128571Y-151639078D02*
X88042856Y-151724792D01*
X88042856Y-151724792D02*
X87957142Y-151767650D01*
X89028571Y-151510507D02*
X89114285Y-151510507D01*
X89114285Y-151510507D02*
X89199999Y-151553364D01*
X89199999Y-151553364D02*
X89242857Y-151596221D01*
X89242857Y-151596221D02*
X89285714Y-151681935D01*
X89285714Y-151681935D02*
X89328571Y-151853364D01*
X89328571Y-151853364D02*
X89328571Y-152067650D01*
X89328571Y-152067650D02*
X89285714Y-152239078D01*
X89285714Y-152239078D02*
X89242857Y-152324792D01*
X89242857Y-152324792D02*
X89199999Y-152367650D01*
X89199999Y-152367650D02*
X89114285Y-152410507D01*
X89114285Y-152410507D02*
X89028571Y-152410507D01*
X89028571Y-152410507D02*
X88942857Y-152367650D01*
X88942857Y-152367650D02*
X88899999Y-152324792D01*
X88899999Y-152324792D02*
X88857142Y-152239078D01*
X88857142Y-152239078D02*
X88814285Y-152067650D01*
X88814285Y-152067650D02*
X88814285Y-151853364D01*
X88814285Y-151853364D02*
X88857142Y-151681935D01*
X88857142Y-151681935D02*
X88899999Y-151596221D01*
X88899999Y-151596221D02*
X88942857Y-151553364D01*
X88942857Y-151553364D02*
X89028571Y-151510507D01*
X89500000Y-152496221D02*
X90185714Y-152496221D01*
X90528571Y-151896221D02*
X90442856Y-151853364D01*
X90442856Y-151853364D02*
X90399999Y-151810507D01*
X90399999Y-151810507D02*
X90357142Y-151724792D01*
X90357142Y-151724792D02*
X90357142Y-151681935D01*
X90357142Y-151681935D02*
X90399999Y-151596221D01*
X90399999Y-151596221D02*
X90442856Y-151553364D01*
X90442856Y-151553364D02*
X90528571Y-151510507D01*
X90528571Y-151510507D02*
X90699999Y-151510507D01*
X90699999Y-151510507D02*
X90785714Y-151553364D01*
X90785714Y-151553364D02*
X90828571Y-151596221D01*
X90828571Y-151596221D02*
X90871428Y-151681935D01*
X90871428Y-151681935D02*
X90871428Y-151724792D01*
X90871428Y-151724792D02*
X90828571Y-151810507D01*
X90828571Y-151810507D02*
X90785714Y-151853364D01*
X90785714Y-151853364D02*
X90699999Y-151896221D01*
X90699999Y-151896221D02*
X90528571Y-151896221D01*
X90528571Y-151896221D02*
X90442856Y-151939078D01*
X90442856Y-151939078D02*
X90399999Y-151981935D01*
X90399999Y-151981935D02*
X90357142Y-152067650D01*
X90357142Y-152067650D02*
X90357142Y-152239078D01*
X90357142Y-152239078D02*
X90399999Y-152324792D01*
X90399999Y-152324792D02*
X90442856Y-152367650D01*
X90442856Y-152367650D02*
X90528571Y-152410507D01*
X90528571Y-152410507D02*
X90699999Y-152410507D01*
X90699999Y-152410507D02*
X90785714Y-152367650D01*
X90785714Y-152367650D02*
X90828571Y-152324792D01*
X90828571Y-152324792D02*
X90871428Y-152239078D01*
X90871428Y-152239078D02*
X90871428Y-152067650D01*
X90871428Y-152067650D02*
X90828571Y-151981935D01*
X90828571Y-151981935D02*
X90785714Y-151939078D01*
X90785714Y-151939078D02*
X90699999Y-151896221D01*
X91214285Y-152153364D02*
X91642857Y-152153364D01*
X91128571Y-152410507D02*
X91428571Y-151510507D01*
X91428571Y-151510507D02*
X91728571Y-152410507D01*
X71507142Y-138810507D02*
X71507142Y-139410507D01*
X71292856Y-138467650D02*
X71078570Y-139110507D01*
X71078570Y-139110507D02*
X71635713Y-139110507D01*
X71892856Y-138510507D02*
X72492856Y-138510507D01*
X72492856Y-138510507D02*
X72107142Y-139410507D01*
X73007142Y-138510507D02*
X73092856Y-138510507D01*
X73092856Y-138510507D02*
X73178570Y-138553364D01*
X73178570Y-138553364D02*
X73221428Y-138596221D01*
X73221428Y-138596221D02*
X73264285Y-138681935D01*
X73264285Y-138681935D02*
X73307142Y-138853364D01*
X73307142Y-138853364D02*
X73307142Y-139067650D01*
X73307142Y-139067650D02*
X73264285Y-139239078D01*
X73264285Y-139239078D02*
X73221428Y-139324792D01*
X73221428Y-139324792D02*
X73178570Y-139367650D01*
X73178570Y-139367650D02*
X73092856Y-139410507D01*
X73092856Y-139410507D02*
X73007142Y-139410507D01*
X73007142Y-139410507D02*
X72921428Y-139367650D01*
X72921428Y-139367650D02*
X72878570Y-139324792D01*
X72878570Y-139324792D02*
X72835713Y-139239078D01*
X72835713Y-139239078D02*
X72792856Y-139067650D01*
X72792856Y-139067650D02*
X72792856Y-138853364D01*
X72792856Y-138853364D02*
X72835713Y-138681935D01*
X72835713Y-138681935D02*
X72878570Y-138596221D01*
X72878570Y-138596221D02*
X72921428Y-138553364D01*
X72921428Y-138553364D02*
X73007142Y-138510507D01*
X73864285Y-138510507D02*
X73949999Y-138510507D01*
X73949999Y-138510507D02*
X74035713Y-138553364D01*
X74035713Y-138553364D02*
X74078571Y-138596221D01*
X74078571Y-138596221D02*
X74121428Y-138681935D01*
X74121428Y-138681935D02*
X74164285Y-138853364D01*
X74164285Y-138853364D02*
X74164285Y-139067650D01*
X74164285Y-139067650D02*
X74121428Y-139239078D01*
X74121428Y-139239078D02*
X74078571Y-139324792D01*
X74078571Y-139324792D02*
X74035713Y-139367650D01*
X74035713Y-139367650D02*
X73949999Y-139410507D01*
X73949999Y-139410507D02*
X73864285Y-139410507D01*
X73864285Y-139410507D02*
X73778571Y-139367650D01*
X73778571Y-139367650D02*
X73735713Y-139324792D01*
X73735713Y-139324792D02*
X73692856Y-139239078D01*
X73692856Y-139239078D02*
X73649999Y-139067650D01*
X73649999Y-139067650D02*
X73649999Y-138853364D01*
X73649999Y-138853364D02*
X73692856Y-138681935D01*
X73692856Y-138681935D02*
X73735713Y-138596221D01*
X73735713Y-138596221D02*
X73778571Y-138553364D01*
X73778571Y-138553364D02*
X73864285Y-138510507D01*
X74935714Y-138810507D02*
X74935714Y-139410507D01*
X74549999Y-138810507D02*
X74549999Y-139281935D01*
X74549999Y-139281935D02*
X74592856Y-139367650D01*
X74592856Y-139367650D02*
X74678571Y-139410507D01*
X74678571Y-139410507D02*
X74807142Y-139410507D01*
X74807142Y-139410507D02*
X74892856Y-139367650D01*
X74892856Y-139367650D02*
X74935714Y-139324792D01*
X75664285Y-138939078D02*
X75364285Y-138939078D01*
X75364285Y-139410507D02*
X75364285Y-138510507D01*
X75364285Y-138510507D02*
X75792857Y-138510507D01*
X75921429Y-139496221D02*
X76607143Y-139496221D01*
X76735714Y-138510507D02*
X77292857Y-138510507D01*
X77292857Y-138510507D02*
X76992857Y-138853364D01*
X76992857Y-138853364D02*
X77121428Y-138853364D01*
X77121428Y-138853364D02*
X77207143Y-138896221D01*
X77207143Y-138896221D02*
X77250000Y-138939078D01*
X77250000Y-138939078D02*
X77292857Y-139024792D01*
X77292857Y-139024792D02*
X77292857Y-139239078D01*
X77292857Y-139239078D02*
X77250000Y-139324792D01*
X77250000Y-139324792D02*
X77207143Y-139367650D01*
X77207143Y-139367650D02*
X77121428Y-139410507D01*
X77121428Y-139410507D02*
X76864285Y-139410507D01*
X76864285Y-139410507D02*
X76778571Y-139367650D01*
X76778571Y-139367650D02*
X76735714Y-139324792D01*
X78107143Y-138510507D02*
X77678571Y-138510507D01*
X77678571Y-138510507D02*
X77635714Y-138939078D01*
X77635714Y-138939078D02*
X77678571Y-138896221D01*
X77678571Y-138896221D02*
X77764286Y-138853364D01*
X77764286Y-138853364D02*
X77978571Y-138853364D01*
X77978571Y-138853364D02*
X78064286Y-138896221D01*
X78064286Y-138896221D02*
X78107143Y-138939078D01*
X78107143Y-138939078D02*
X78150000Y-139024792D01*
X78150000Y-139024792D02*
X78150000Y-139239078D01*
X78150000Y-139239078D02*
X78107143Y-139324792D01*
X78107143Y-139324792D02*
X78064286Y-139367650D01*
X78064286Y-139367650D02*
X77978571Y-139410507D01*
X77978571Y-139410507D02*
X77764286Y-139410507D01*
X77764286Y-139410507D02*
X77678571Y-139367650D01*
X77678571Y-139367650D02*
X77635714Y-139324792D01*
X78407143Y-138510507D02*
X78707143Y-139410507D01*
X78707143Y-139410507D02*
X79007143Y-138510507D01*
X71507142Y-112810507D02*
X71507142Y-113410507D01*
X71292856Y-112467650D02*
X71078570Y-113110507D01*
X71078570Y-113110507D02*
X71635713Y-113110507D01*
X71892856Y-112510507D02*
X72492856Y-112510507D01*
X72492856Y-112510507D02*
X72107142Y-113410507D01*
X73007142Y-112510507D02*
X73092856Y-112510507D01*
X73092856Y-112510507D02*
X73178570Y-112553364D01*
X73178570Y-112553364D02*
X73221428Y-112596221D01*
X73221428Y-112596221D02*
X73264285Y-112681935D01*
X73264285Y-112681935D02*
X73307142Y-112853364D01*
X73307142Y-112853364D02*
X73307142Y-113067650D01*
X73307142Y-113067650D02*
X73264285Y-113239078D01*
X73264285Y-113239078D02*
X73221428Y-113324792D01*
X73221428Y-113324792D02*
X73178570Y-113367650D01*
X73178570Y-113367650D02*
X73092856Y-113410507D01*
X73092856Y-113410507D02*
X73007142Y-113410507D01*
X73007142Y-113410507D02*
X72921428Y-113367650D01*
X72921428Y-113367650D02*
X72878570Y-113324792D01*
X72878570Y-113324792D02*
X72835713Y-113239078D01*
X72835713Y-113239078D02*
X72792856Y-113067650D01*
X72792856Y-113067650D02*
X72792856Y-112853364D01*
X72792856Y-112853364D02*
X72835713Y-112681935D01*
X72835713Y-112681935D02*
X72878570Y-112596221D01*
X72878570Y-112596221D02*
X72921428Y-112553364D01*
X72921428Y-112553364D02*
X73007142Y-112510507D01*
X73864285Y-112510507D02*
X73949999Y-112510507D01*
X73949999Y-112510507D02*
X74035713Y-112553364D01*
X74035713Y-112553364D02*
X74078571Y-112596221D01*
X74078571Y-112596221D02*
X74121428Y-112681935D01*
X74121428Y-112681935D02*
X74164285Y-112853364D01*
X74164285Y-112853364D02*
X74164285Y-113067650D01*
X74164285Y-113067650D02*
X74121428Y-113239078D01*
X74121428Y-113239078D02*
X74078571Y-113324792D01*
X74078571Y-113324792D02*
X74035713Y-113367650D01*
X74035713Y-113367650D02*
X73949999Y-113410507D01*
X73949999Y-113410507D02*
X73864285Y-113410507D01*
X73864285Y-113410507D02*
X73778571Y-113367650D01*
X73778571Y-113367650D02*
X73735713Y-113324792D01*
X73735713Y-113324792D02*
X73692856Y-113239078D01*
X73692856Y-113239078D02*
X73649999Y-113067650D01*
X73649999Y-113067650D02*
X73649999Y-112853364D01*
X73649999Y-112853364D02*
X73692856Y-112681935D01*
X73692856Y-112681935D02*
X73735713Y-112596221D01*
X73735713Y-112596221D02*
X73778571Y-112553364D01*
X73778571Y-112553364D02*
X73864285Y-112510507D01*
X74935714Y-112810507D02*
X74935714Y-113410507D01*
X74549999Y-112810507D02*
X74549999Y-113281935D01*
X74549999Y-113281935D02*
X74592856Y-113367650D01*
X74592856Y-113367650D02*
X74678571Y-113410507D01*
X74678571Y-113410507D02*
X74807142Y-113410507D01*
X74807142Y-113410507D02*
X74892856Y-113367650D01*
X74892856Y-113367650D02*
X74935714Y-113324792D01*
X75664285Y-112939078D02*
X75364285Y-112939078D01*
X75364285Y-113410507D02*
X75364285Y-112510507D01*
X75364285Y-112510507D02*
X75792857Y-112510507D01*
X75921429Y-113496221D02*
X76607143Y-113496221D01*
X76735714Y-112510507D02*
X77292857Y-112510507D01*
X77292857Y-112510507D02*
X76992857Y-112853364D01*
X76992857Y-112853364D02*
X77121428Y-112853364D01*
X77121428Y-112853364D02*
X77207143Y-112896221D01*
X77207143Y-112896221D02*
X77250000Y-112939078D01*
X77250000Y-112939078D02*
X77292857Y-113024792D01*
X77292857Y-113024792D02*
X77292857Y-113239078D01*
X77292857Y-113239078D02*
X77250000Y-113324792D01*
X77250000Y-113324792D02*
X77207143Y-113367650D01*
X77207143Y-113367650D02*
X77121428Y-113410507D01*
X77121428Y-113410507D02*
X76864285Y-113410507D01*
X76864285Y-113410507D02*
X76778571Y-113367650D01*
X76778571Y-113367650D02*
X76735714Y-113324792D01*
X78107143Y-112510507D02*
X77678571Y-112510507D01*
X77678571Y-112510507D02*
X77635714Y-112939078D01*
X77635714Y-112939078D02*
X77678571Y-112896221D01*
X77678571Y-112896221D02*
X77764286Y-112853364D01*
X77764286Y-112853364D02*
X77978571Y-112853364D01*
X77978571Y-112853364D02*
X78064286Y-112896221D01*
X78064286Y-112896221D02*
X78107143Y-112939078D01*
X78107143Y-112939078D02*
X78150000Y-113024792D01*
X78150000Y-113024792D02*
X78150000Y-113239078D01*
X78150000Y-113239078D02*
X78107143Y-113324792D01*
X78107143Y-113324792D02*
X78064286Y-113367650D01*
X78064286Y-113367650D02*
X77978571Y-113410507D01*
X77978571Y-113410507D02*
X77764286Y-113410507D01*
X77764286Y-113410507D02*
X77678571Y-113367650D01*
X77678571Y-113367650D02*
X77635714Y-113324792D01*
X78407143Y-112510507D02*
X78707143Y-113410507D01*
X78707143Y-113410507D02*
X79007143Y-112510507D01*
D11*
X64819047Y-78364895D02*
X64438095Y-78364895D01*
X64438095Y-78364895D02*
X64438095Y-77564895D01*
X65085714Y-78364895D02*
X65085714Y-77564895D01*
X65085714Y-77564895D02*
X65352380Y-78136323D01*
X65352380Y-78136323D02*
X65619047Y-77564895D01*
X65619047Y-77564895D02*
X65619047Y-78364895D01*
X65961904Y-77641085D02*
X66000000Y-77602990D01*
X66000000Y-77602990D02*
X66076190Y-77564895D01*
X66076190Y-77564895D02*
X66266666Y-77564895D01*
X66266666Y-77564895D02*
X66342857Y-77602990D01*
X66342857Y-77602990D02*
X66380952Y-77641085D01*
X66380952Y-77641085D02*
X66419047Y-77717276D01*
X66419047Y-77717276D02*
X66419047Y-77793466D01*
X66419047Y-77793466D02*
X66380952Y-77907752D01*
X66380952Y-77907752D02*
X65923809Y-78364895D01*
X65923809Y-78364895D02*
X66419047Y-78364895D01*
X67142857Y-77564895D02*
X66761905Y-77564895D01*
X66761905Y-77564895D02*
X66723809Y-77945847D01*
X66723809Y-77945847D02*
X66761905Y-77907752D01*
X66761905Y-77907752D02*
X66838095Y-77869657D01*
X66838095Y-77869657D02*
X67028571Y-77869657D01*
X67028571Y-77869657D02*
X67104762Y-77907752D01*
X67104762Y-77907752D02*
X67142857Y-77945847D01*
X67142857Y-77945847D02*
X67180952Y-78022038D01*
X67180952Y-78022038D02*
X67180952Y-78212514D01*
X67180952Y-78212514D02*
X67142857Y-78288704D01*
X67142857Y-78288704D02*
X67104762Y-78326800D01*
X67104762Y-78326800D02*
X67028571Y-78364895D01*
X67028571Y-78364895D02*
X66838095Y-78364895D01*
X66838095Y-78364895D02*
X66761905Y-78326800D01*
X66761905Y-78326800D02*
X66723809Y-78288704D01*
X67561905Y-78364895D02*
X67714286Y-78364895D01*
X67714286Y-78364895D02*
X67790476Y-78326800D01*
X67790476Y-78326800D02*
X67828572Y-78288704D01*
X67828572Y-78288704D02*
X67904762Y-78174419D01*
X67904762Y-78174419D02*
X67942857Y-78022038D01*
X67942857Y-78022038D02*
X67942857Y-77717276D01*
X67942857Y-77717276D02*
X67904762Y-77641085D01*
X67904762Y-77641085D02*
X67866667Y-77602990D01*
X67866667Y-77602990D02*
X67790476Y-77564895D01*
X67790476Y-77564895D02*
X67638095Y-77564895D01*
X67638095Y-77564895D02*
X67561905Y-77602990D01*
X67561905Y-77602990D02*
X67523810Y-77641085D01*
X67523810Y-77641085D02*
X67485714Y-77717276D01*
X67485714Y-77717276D02*
X67485714Y-77907752D01*
X67485714Y-77907752D02*
X67523810Y-77983942D01*
X67523810Y-77983942D02*
X67561905Y-78022038D01*
X67561905Y-78022038D02*
X67638095Y-78060133D01*
X67638095Y-78060133D02*
X67790476Y-78060133D01*
X67790476Y-78060133D02*
X67866667Y-78022038D01*
X67866667Y-78022038D02*
X67904762Y-77983942D01*
X67904762Y-77983942D02*
X67942857Y-77907752D01*
X68628572Y-77564895D02*
X68476191Y-77564895D01*
X68476191Y-77564895D02*
X68400000Y-77602990D01*
X68400000Y-77602990D02*
X68361905Y-77641085D01*
X68361905Y-77641085D02*
X68285715Y-77755371D01*
X68285715Y-77755371D02*
X68247619Y-77907752D01*
X68247619Y-77907752D02*
X68247619Y-78212514D01*
X68247619Y-78212514D02*
X68285715Y-78288704D01*
X68285715Y-78288704D02*
X68323810Y-78326800D01*
X68323810Y-78326800D02*
X68400000Y-78364895D01*
X68400000Y-78364895D02*
X68552381Y-78364895D01*
X68552381Y-78364895D02*
X68628572Y-78326800D01*
X68628572Y-78326800D02*
X68666667Y-78288704D01*
X68666667Y-78288704D02*
X68704762Y-78212514D01*
X68704762Y-78212514D02*
X68704762Y-78022038D01*
X68704762Y-78022038D02*
X68666667Y-77945847D01*
X68666667Y-77945847D02*
X68628572Y-77907752D01*
X68628572Y-77907752D02*
X68552381Y-77869657D01*
X68552381Y-77869657D02*
X68400000Y-77869657D01*
X68400000Y-77869657D02*
X68323810Y-77907752D01*
X68323810Y-77907752D02*
X68285715Y-77945847D01*
X68285715Y-77945847D02*
X68247619Y-78022038D01*
X69047620Y-78060133D02*
X69657144Y-78060133D01*
X70419048Y-77564895D02*
X70038096Y-77564895D01*
X70038096Y-77564895D02*
X70000000Y-77945847D01*
X70000000Y-77945847D02*
X70038096Y-77907752D01*
X70038096Y-77907752D02*
X70114286Y-77869657D01*
X70114286Y-77869657D02*
X70304762Y-77869657D01*
X70304762Y-77869657D02*
X70380953Y-77907752D01*
X70380953Y-77907752D02*
X70419048Y-77945847D01*
X70419048Y-77945847D02*
X70457143Y-78022038D01*
X70457143Y-78022038D02*
X70457143Y-78212514D01*
X70457143Y-78212514D02*
X70419048Y-78288704D01*
X70419048Y-78288704D02*
X70380953Y-78326800D01*
X70380953Y-78326800D02*
X70304762Y-78364895D01*
X70304762Y-78364895D02*
X70114286Y-78364895D01*
X70114286Y-78364895D02*
X70038096Y-78326800D01*
X70038096Y-78326800D02*
X70000000Y-78288704D01*
X70800001Y-78288704D02*
X70838096Y-78326800D01*
X70838096Y-78326800D02*
X70800001Y-78364895D01*
X70800001Y-78364895D02*
X70761905Y-78326800D01*
X70761905Y-78326800D02*
X70800001Y-78288704D01*
X70800001Y-78288704D02*
X70800001Y-78364895D01*
X71333334Y-77564895D02*
X71409524Y-77564895D01*
X71409524Y-77564895D02*
X71485715Y-77602990D01*
X71485715Y-77602990D02*
X71523810Y-77641085D01*
X71523810Y-77641085D02*
X71561905Y-77717276D01*
X71561905Y-77717276D02*
X71600000Y-77869657D01*
X71600000Y-77869657D02*
X71600000Y-78060133D01*
X71600000Y-78060133D02*
X71561905Y-78212514D01*
X71561905Y-78212514D02*
X71523810Y-78288704D01*
X71523810Y-78288704D02*
X71485715Y-78326800D01*
X71485715Y-78326800D02*
X71409524Y-78364895D01*
X71409524Y-78364895D02*
X71333334Y-78364895D01*
X71333334Y-78364895D02*
X71257143Y-78326800D01*
X71257143Y-78326800D02*
X71219048Y-78288704D01*
X71219048Y-78288704D02*
X71180953Y-78212514D01*
X71180953Y-78212514D02*
X71142857Y-78060133D01*
X71142857Y-78060133D02*
X71142857Y-77869657D01*
X71142857Y-77869657D02*
X71180953Y-77717276D01*
X71180953Y-77717276D02*
X71219048Y-77641085D01*
X71219048Y-77641085D02*
X71257143Y-77602990D01*
X71257143Y-77602990D02*
X71333334Y-77564895D01*
X75542856Y-84564895D02*
X76038094Y-84564895D01*
X76038094Y-84564895D02*
X75771428Y-84869657D01*
X75771428Y-84869657D02*
X75885713Y-84869657D01*
X75885713Y-84869657D02*
X75961904Y-84907752D01*
X75961904Y-84907752D02*
X75999999Y-84945847D01*
X75999999Y-84945847D02*
X76038094Y-85022038D01*
X76038094Y-85022038D02*
X76038094Y-85212514D01*
X76038094Y-85212514D02*
X75999999Y-85288704D01*
X75999999Y-85288704D02*
X75961904Y-85326800D01*
X75961904Y-85326800D02*
X75885713Y-85364895D01*
X75885713Y-85364895D02*
X75657142Y-85364895D01*
X75657142Y-85364895D02*
X75580951Y-85326800D01*
X75580951Y-85326800D02*
X75542856Y-85288704D01*
X76304761Y-84564895D02*
X76799999Y-84564895D01*
X76799999Y-84564895D02*
X76533333Y-84869657D01*
X76533333Y-84869657D02*
X76647618Y-84869657D01*
X76647618Y-84869657D02*
X76723809Y-84907752D01*
X76723809Y-84907752D02*
X76761904Y-84945847D01*
X76761904Y-84945847D02*
X76799999Y-85022038D01*
X76799999Y-85022038D02*
X76799999Y-85212514D01*
X76799999Y-85212514D02*
X76761904Y-85288704D01*
X76761904Y-85288704D02*
X76723809Y-85326800D01*
X76723809Y-85326800D02*
X76647618Y-85364895D01*
X76647618Y-85364895D02*
X76419047Y-85364895D01*
X76419047Y-85364895D02*
X76342856Y-85326800D01*
X76342856Y-85326800D02*
X76304761Y-85288704D01*
X77485714Y-84831561D02*
X77485714Y-85364895D01*
X77142857Y-84831561D02*
X77142857Y-85250609D01*
X77142857Y-85250609D02*
X77180952Y-85326800D01*
X77180952Y-85326800D02*
X77257142Y-85364895D01*
X77257142Y-85364895D02*
X77371428Y-85364895D01*
X77371428Y-85364895D02*
X77447619Y-85326800D01*
X77447619Y-85326800D02*
X77485714Y-85288704D01*
X77866667Y-85364895D02*
X77866667Y-84564895D01*
X77866667Y-84945847D02*
X78323810Y-84945847D01*
X78323810Y-85364895D02*
X78323810Y-84564895D01*
X78514286Y-85441085D02*
X79123809Y-85441085D01*
X79238095Y-84564895D02*
X79733333Y-84564895D01*
X79733333Y-84564895D02*
X79466667Y-84869657D01*
X79466667Y-84869657D02*
X79580952Y-84869657D01*
X79580952Y-84869657D02*
X79657143Y-84907752D01*
X79657143Y-84907752D02*
X79695238Y-84945847D01*
X79695238Y-84945847D02*
X79733333Y-85022038D01*
X79733333Y-85022038D02*
X79733333Y-85212514D01*
X79733333Y-85212514D02*
X79695238Y-85288704D01*
X79695238Y-85288704D02*
X79657143Y-85326800D01*
X79657143Y-85326800D02*
X79580952Y-85364895D01*
X79580952Y-85364895D02*
X79352381Y-85364895D01*
X79352381Y-85364895D02*
X79276190Y-85326800D01*
X79276190Y-85326800D02*
X79238095Y-85288704D01*
X80038095Y-85136323D02*
X80419048Y-85136323D01*
X79961905Y-85364895D02*
X80228572Y-84564895D01*
X80228572Y-84564895D02*
X80495238Y-85364895D01*
X55999999Y-64136323D02*
X56380952Y-64136323D01*
X55923809Y-64364895D02*
X56190476Y-63564895D01*
X56190476Y-63564895D02*
X56457142Y-64364895D01*
X56723809Y-64364895D02*
X56723809Y-63564895D01*
X56723809Y-63564895D02*
X56990475Y-64136323D01*
X56990475Y-64136323D02*
X57257142Y-63564895D01*
X57257142Y-63564895D02*
X57257142Y-64364895D01*
X57599999Y-64326800D02*
X57714285Y-64364895D01*
X57714285Y-64364895D02*
X57904761Y-64364895D01*
X57904761Y-64364895D02*
X57980952Y-64326800D01*
X57980952Y-64326800D02*
X58019047Y-64288704D01*
X58019047Y-64288704D02*
X58057142Y-64212514D01*
X58057142Y-64212514D02*
X58057142Y-64136323D01*
X58057142Y-64136323D02*
X58019047Y-64060133D01*
X58019047Y-64060133D02*
X57980952Y-64022038D01*
X57980952Y-64022038D02*
X57904761Y-63983942D01*
X57904761Y-63983942D02*
X57752380Y-63945847D01*
X57752380Y-63945847D02*
X57676190Y-63907752D01*
X57676190Y-63907752D02*
X57638095Y-63869657D01*
X57638095Y-63869657D02*
X57599999Y-63793466D01*
X57599999Y-63793466D02*
X57599999Y-63717276D01*
X57599999Y-63717276D02*
X57638095Y-63641085D01*
X57638095Y-63641085D02*
X57676190Y-63602990D01*
X57676190Y-63602990D02*
X57752380Y-63564895D01*
X57752380Y-63564895D02*
X57942857Y-63564895D01*
X57942857Y-63564895D02*
X58057142Y-63602990D01*
X58819047Y-64364895D02*
X58361904Y-64364895D01*
X58590476Y-64364895D02*
X58590476Y-63564895D01*
X58590476Y-63564895D02*
X58514285Y-63679180D01*
X58514285Y-63679180D02*
X58438095Y-63755371D01*
X58438095Y-63755371D02*
X58361904Y-63793466D01*
X59580952Y-64364895D02*
X59123809Y-64364895D01*
X59352381Y-64364895D02*
X59352381Y-63564895D01*
X59352381Y-63564895D02*
X59276190Y-63679180D01*
X59276190Y-63679180D02*
X59200000Y-63755371D01*
X59200000Y-63755371D02*
X59123809Y-63793466D01*
X60342857Y-64364895D02*
X59885714Y-64364895D01*
X60114286Y-64364895D02*
X60114286Y-63564895D01*
X60114286Y-63564895D02*
X60038095Y-63679180D01*
X60038095Y-63679180D02*
X59961905Y-63755371D01*
X59961905Y-63755371D02*
X59885714Y-63793466D01*
X60609524Y-63564895D02*
X61142858Y-63564895D01*
X61142858Y-63564895D02*
X60800000Y-64364895D01*
X61447620Y-64060133D02*
X62057144Y-64060133D01*
X62361905Y-63564895D02*
X62857143Y-63564895D01*
X62857143Y-63564895D02*
X62590477Y-63869657D01*
X62590477Y-63869657D02*
X62704762Y-63869657D01*
X62704762Y-63869657D02*
X62780953Y-63907752D01*
X62780953Y-63907752D02*
X62819048Y-63945847D01*
X62819048Y-63945847D02*
X62857143Y-64022038D01*
X62857143Y-64022038D02*
X62857143Y-64212514D01*
X62857143Y-64212514D02*
X62819048Y-64288704D01*
X62819048Y-64288704D02*
X62780953Y-64326800D01*
X62780953Y-64326800D02*
X62704762Y-64364895D01*
X62704762Y-64364895D02*
X62476191Y-64364895D01*
X62476191Y-64364895D02*
X62400000Y-64326800D01*
X62400000Y-64326800D02*
X62361905Y-64288704D01*
X63200001Y-64288704D02*
X63238096Y-64326800D01*
X63238096Y-64326800D02*
X63200001Y-64364895D01*
X63200001Y-64364895D02*
X63161905Y-64326800D01*
X63161905Y-64326800D02*
X63200001Y-64288704D01*
X63200001Y-64288704D02*
X63200001Y-64364895D01*
X63504762Y-63564895D02*
X64000000Y-63564895D01*
X64000000Y-63564895D02*
X63733334Y-63869657D01*
X63733334Y-63869657D02*
X63847619Y-63869657D01*
X63847619Y-63869657D02*
X63923810Y-63907752D01*
X63923810Y-63907752D02*
X63961905Y-63945847D01*
X63961905Y-63945847D02*
X64000000Y-64022038D01*
X64000000Y-64022038D02*
X64000000Y-64212514D01*
X64000000Y-64212514D02*
X63961905Y-64288704D01*
X63961905Y-64288704D02*
X63923810Y-64326800D01*
X63923810Y-64326800D02*
X63847619Y-64364895D01*
X63847619Y-64364895D02*
X63619048Y-64364895D01*
X63619048Y-64364895D02*
X63542857Y-64326800D01*
X63542857Y-64326800D02*
X63504762Y-64288704D01*
X75561904Y-63064895D02*
X76019047Y-63064895D01*
X75790475Y-63864895D02*
X75790475Y-63064895D01*
X76666666Y-63864895D02*
X76285714Y-63864895D01*
X76285714Y-63864895D02*
X76285714Y-63064895D01*
X76933333Y-63445847D02*
X77199999Y-63445847D01*
X77314285Y-63864895D02*
X76933333Y-63864895D01*
X76933333Y-63864895D02*
X76933333Y-63064895D01*
X76933333Y-63064895D02*
X77314285Y-63064895D01*
X77619047Y-63141085D02*
X77657143Y-63102990D01*
X77657143Y-63102990D02*
X77733333Y-63064895D01*
X77733333Y-63064895D02*
X77923809Y-63064895D01*
X77923809Y-63064895D02*
X78000000Y-63102990D01*
X78000000Y-63102990D02*
X78038095Y-63141085D01*
X78038095Y-63141085D02*
X78076190Y-63217276D01*
X78076190Y-63217276D02*
X78076190Y-63293466D01*
X78076190Y-63293466D02*
X78038095Y-63407752D01*
X78038095Y-63407752D02*
X77580952Y-63864895D01*
X77580952Y-63864895D02*
X78076190Y-63864895D01*
X78761905Y-63331561D02*
X78761905Y-63864895D01*
X78571429Y-63026800D02*
X78380952Y-63598228D01*
X78380952Y-63598228D02*
X78876191Y-63598228D01*
X79142857Y-63141085D02*
X79180953Y-63102990D01*
X79180953Y-63102990D02*
X79257143Y-63064895D01*
X79257143Y-63064895D02*
X79447619Y-63064895D01*
X79447619Y-63064895D02*
X79523810Y-63102990D01*
X79523810Y-63102990D02*
X79561905Y-63141085D01*
X79561905Y-63141085D02*
X79600000Y-63217276D01*
X79600000Y-63217276D02*
X79600000Y-63293466D01*
X79600000Y-63293466D02*
X79561905Y-63407752D01*
X79561905Y-63407752D02*
X79104762Y-63864895D01*
X79104762Y-63864895D02*
X79600000Y-63864895D01*
X80285715Y-63064895D02*
X80133334Y-63064895D01*
X80133334Y-63064895D02*
X80057143Y-63102990D01*
X80057143Y-63102990D02*
X80019048Y-63141085D01*
X80019048Y-63141085D02*
X79942858Y-63255371D01*
X79942858Y-63255371D02*
X79904762Y-63407752D01*
X79904762Y-63407752D02*
X79904762Y-63712514D01*
X79904762Y-63712514D02*
X79942858Y-63788704D01*
X79942858Y-63788704D02*
X79980953Y-63826800D01*
X79980953Y-63826800D02*
X80057143Y-63864895D01*
X80057143Y-63864895D02*
X80209524Y-63864895D01*
X80209524Y-63864895D02*
X80285715Y-63826800D01*
X80285715Y-63826800D02*
X80323810Y-63788704D01*
X80323810Y-63788704D02*
X80361905Y-63712514D01*
X80361905Y-63712514D02*
X80361905Y-63522038D01*
X80361905Y-63522038D02*
X80323810Y-63445847D01*
X80323810Y-63445847D02*
X80285715Y-63407752D01*
X80285715Y-63407752D02*
X80209524Y-63369657D01*
X80209524Y-63369657D02*
X80057143Y-63369657D01*
X80057143Y-63369657D02*
X79980953Y-63407752D01*
X79980953Y-63407752D02*
X79942858Y-63445847D01*
X79942858Y-63445847D02*
X79904762Y-63522038D01*
X104685713Y-64136323D02*
X105066666Y-64136323D01*
X104609523Y-64364895D02*
X104876190Y-63564895D01*
X104876190Y-63564895D02*
X105142856Y-64364895D01*
X105409523Y-63564895D02*
X105409523Y-64212514D01*
X105409523Y-64212514D02*
X105447618Y-64288704D01*
X105447618Y-64288704D02*
X105485713Y-64326800D01*
X105485713Y-64326800D02*
X105561904Y-64364895D01*
X105561904Y-64364895D02*
X105714285Y-64364895D01*
X105714285Y-64364895D02*
X105790475Y-64326800D01*
X105790475Y-64326800D02*
X105828570Y-64288704D01*
X105828570Y-64288704D02*
X105866666Y-64212514D01*
X105866666Y-64212514D02*
X105866666Y-63564895D01*
X106171427Y-63564895D02*
X106704761Y-64364895D01*
X106704761Y-63564895D02*
X106171427Y-64364895D01*
X106819047Y-64441085D02*
X107428570Y-64441085D01*
X107542856Y-63564895D02*
X108038094Y-63564895D01*
X108038094Y-63564895D02*
X107771428Y-63869657D01*
X107771428Y-63869657D02*
X107885713Y-63869657D01*
X107885713Y-63869657D02*
X107961904Y-63907752D01*
X107961904Y-63907752D02*
X107999999Y-63945847D01*
X107999999Y-63945847D02*
X108038094Y-64022038D01*
X108038094Y-64022038D02*
X108038094Y-64212514D01*
X108038094Y-64212514D02*
X107999999Y-64288704D01*
X107999999Y-64288704D02*
X107961904Y-64326800D01*
X107961904Y-64326800D02*
X107885713Y-64364895D01*
X107885713Y-64364895D02*
X107657142Y-64364895D01*
X107657142Y-64364895D02*
X107580951Y-64326800D01*
X107580951Y-64326800D02*
X107542856Y-64288704D01*
X108380952Y-64288704D02*
X108419047Y-64326800D01*
X108419047Y-64326800D02*
X108380952Y-64364895D01*
X108380952Y-64364895D02*
X108342856Y-64326800D01*
X108342856Y-64326800D02*
X108380952Y-64288704D01*
X108380952Y-64288704D02*
X108380952Y-64364895D01*
X109142856Y-63564895D02*
X108761904Y-63564895D01*
X108761904Y-63564895D02*
X108723808Y-63945847D01*
X108723808Y-63945847D02*
X108761904Y-63907752D01*
X108761904Y-63907752D02*
X108838094Y-63869657D01*
X108838094Y-63869657D02*
X109028570Y-63869657D01*
X109028570Y-63869657D02*
X109104761Y-63907752D01*
X109104761Y-63907752D02*
X109142856Y-63945847D01*
X109142856Y-63945847D02*
X109180951Y-64022038D01*
X109180951Y-64022038D02*
X109180951Y-64212514D01*
X109180951Y-64212514D02*
X109142856Y-64288704D01*
X109142856Y-64288704D02*
X109104761Y-64326800D01*
X109104761Y-64326800D02*
X109028570Y-64364895D01*
X109028570Y-64364895D02*
X108838094Y-64364895D01*
X108838094Y-64364895D02*
X108761904Y-64326800D01*
X108761904Y-64326800D02*
X108723808Y-64288704D01*
X109523809Y-64364895D02*
X109523809Y-63831561D01*
X109523809Y-63907752D02*
X109561904Y-63869657D01*
X109561904Y-63869657D02*
X109638094Y-63831561D01*
X109638094Y-63831561D02*
X109752380Y-63831561D01*
X109752380Y-63831561D02*
X109828571Y-63869657D01*
X109828571Y-63869657D02*
X109866666Y-63945847D01*
X109866666Y-63945847D02*
X109866666Y-64364895D01*
X109866666Y-63945847D02*
X109904761Y-63869657D01*
X109904761Y-63869657D02*
X109980952Y-63831561D01*
X109980952Y-63831561D02*
X110095237Y-63831561D01*
X110095237Y-63831561D02*
X110171428Y-63869657D01*
X110171428Y-63869657D02*
X110209523Y-63945847D01*
X110209523Y-63945847D02*
X110209523Y-64364895D01*
X110590476Y-64364895D02*
X110590476Y-63831561D01*
X110590476Y-63907752D02*
X110628571Y-63869657D01*
X110628571Y-63869657D02*
X110704761Y-63831561D01*
X110704761Y-63831561D02*
X110819047Y-63831561D01*
X110819047Y-63831561D02*
X110895238Y-63869657D01*
X110895238Y-63869657D02*
X110933333Y-63945847D01*
X110933333Y-63945847D02*
X110933333Y-64364895D01*
X110933333Y-63945847D02*
X110971428Y-63869657D01*
X110971428Y-63869657D02*
X111047619Y-63831561D01*
X111047619Y-63831561D02*
X111161904Y-63831561D01*
X111161904Y-63831561D02*
X111238095Y-63869657D01*
X111238095Y-63869657D02*
X111276190Y-63945847D01*
X111276190Y-63945847D02*
X111276190Y-64364895D01*
D12*
X121033334Y-59619283D02*
X121033334Y-60185950D01*
X121033334Y-60185950D02*
X121066668Y-60252616D01*
X121066668Y-60252616D02*
X121100001Y-60285950D01*
X121100001Y-60285950D02*
X121166668Y-60319283D01*
X121166668Y-60319283D02*
X121300001Y-60319283D01*
X121300001Y-60319283D02*
X121366668Y-60285950D01*
X121366668Y-60285950D02*
X121400001Y-60252616D01*
X121400001Y-60252616D02*
X121433334Y-60185950D01*
X121433334Y-60185950D02*
X121433334Y-59619283D01*
X121733334Y-60285950D02*
X121833334Y-60319283D01*
X121833334Y-60319283D02*
X122000001Y-60319283D01*
X122000001Y-60319283D02*
X122066667Y-60285950D01*
X122066667Y-60285950D02*
X122100001Y-60252616D01*
X122100001Y-60252616D02*
X122133334Y-60185950D01*
X122133334Y-60185950D02*
X122133334Y-60119283D01*
X122133334Y-60119283D02*
X122100001Y-60052616D01*
X122100001Y-60052616D02*
X122066667Y-60019283D01*
X122066667Y-60019283D02*
X122000001Y-59985950D01*
X122000001Y-59985950D02*
X121866667Y-59952616D01*
X121866667Y-59952616D02*
X121800001Y-59919283D01*
X121800001Y-59919283D02*
X121766667Y-59885950D01*
X121766667Y-59885950D02*
X121733334Y-59819283D01*
X121733334Y-59819283D02*
X121733334Y-59752616D01*
X121733334Y-59752616D02*
X121766667Y-59685950D01*
X121766667Y-59685950D02*
X121800001Y-59652616D01*
X121800001Y-59652616D02*
X121866667Y-59619283D01*
X121866667Y-59619283D02*
X122033334Y-59619283D01*
X122033334Y-59619283D02*
X122133334Y-59652616D01*
X122666668Y-59952616D02*
X122766668Y-59985950D01*
X122766668Y-59985950D02*
X122800001Y-60019283D01*
X122800001Y-60019283D02*
X122833334Y-60085950D01*
X122833334Y-60085950D02*
X122833334Y-60185950D01*
X122833334Y-60185950D02*
X122800001Y-60252616D01*
X122800001Y-60252616D02*
X122766668Y-60285950D01*
X122766668Y-60285950D02*
X122700001Y-60319283D01*
X122700001Y-60319283D02*
X122433334Y-60319283D01*
X122433334Y-60319283D02*
X122433334Y-59619283D01*
X122433334Y-59619283D02*
X122666668Y-59619283D01*
X122666668Y-59619283D02*
X122733334Y-59652616D01*
X122733334Y-59652616D02*
X122766668Y-59685950D01*
X122766668Y-59685950D02*
X122800001Y-59752616D01*
X122800001Y-59752616D02*
X122800001Y-59819283D01*
X122800001Y-59819283D02*
X122766668Y-59885950D01*
X122766668Y-59885950D02*
X122733334Y-59919283D01*
X122733334Y-59919283D02*
X122666668Y-59952616D01*
X122666668Y-59952616D02*
X122433334Y-59952616D01*
X122966668Y-60385950D02*
X123500001Y-60385950D01*
X123633334Y-60119283D02*
X123966667Y-60119283D01*
X123566667Y-60319283D02*
X123800001Y-59619283D01*
X123800001Y-59619283D02*
X124033334Y-60319283D01*
X124266667Y-59619283D02*
X124266667Y-60185950D01*
X124266667Y-60185950D02*
X124300001Y-60252616D01*
X124300001Y-60252616D02*
X124333334Y-60285950D01*
X124333334Y-60285950D02*
X124400001Y-60319283D01*
X124400001Y-60319283D02*
X124533334Y-60319283D01*
X124533334Y-60319283D02*
X124600001Y-60285950D01*
X124600001Y-60285950D02*
X124633334Y-60252616D01*
X124633334Y-60252616D02*
X124666667Y-60185950D01*
X124666667Y-60185950D02*
X124666667Y-59619283D01*
X125000000Y-60319283D02*
X125000000Y-59619283D01*
X125000000Y-59619283D02*
X125166667Y-59619283D01*
X125166667Y-59619283D02*
X125266667Y-59652616D01*
X125266667Y-59652616D02*
X125333334Y-59719283D01*
X125333334Y-59719283D02*
X125366667Y-59785950D01*
X125366667Y-59785950D02*
X125400000Y-59919283D01*
X125400000Y-59919283D02*
X125400000Y-60019283D01*
X125400000Y-60019283D02*
X125366667Y-60152616D01*
X125366667Y-60152616D02*
X125333334Y-60219283D01*
X125333334Y-60219283D02*
X125266667Y-60285950D01*
X125266667Y-60285950D02*
X125166667Y-60319283D01*
X125166667Y-60319283D02*
X125000000Y-60319283D01*
X125700000Y-60319283D02*
X125700000Y-59619283D01*
X126166667Y-59619283D02*
X126300000Y-59619283D01*
X126300000Y-59619283D02*
X126366667Y-59652616D01*
X126366667Y-59652616D02*
X126433333Y-59719283D01*
X126433333Y-59719283D02*
X126466667Y-59852616D01*
X126466667Y-59852616D02*
X126466667Y-60085950D01*
X126466667Y-60085950D02*
X126433333Y-60219283D01*
X126433333Y-60219283D02*
X126366667Y-60285950D01*
X126366667Y-60285950D02*
X126300000Y-60319283D01*
X126300000Y-60319283D02*
X126166667Y-60319283D01*
X126166667Y-60319283D02*
X126100000Y-60285950D01*
X126100000Y-60285950D02*
X126033333Y-60219283D01*
X126033333Y-60219283D02*
X126000000Y-60085950D01*
X126000000Y-60085950D02*
X126000000Y-59852616D01*
X126000000Y-59852616D02*
X126033333Y-59719283D01*
X126033333Y-59719283D02*
X126100000Y-59652616D01*
X126100000Y-59652616D02*
X126166667Y-59619283D01*
X126600000Y-60385950D02*
X127133333Y-60385950D01*
X127299999Y-60319283D02*
X127299999Y-59619283D01*
X127299999Y-59619283D02*
X127466666Y-59619283D01*
X127466666Y-59619283D02*
X127566666Y-59652616D01*
X127566666Y-59652616D02*
X127633333Y-59719283D01*
X127633333Y-59719283D02*
X127666666Y-59785950D01*
X127666666Y-59785950D02*
X127699999Y-59919283D01*
X127699999Y-59919283D02*
X127699999Y-60019283D01*
X127699999Y-60019283D02*
X127666666Y-60152616D01*
X127666666Y-60152616D02*
X127633333Y-60219283D01*
X127633333Y-60219283D02*
X127566666Y-60285950D01*
X127566666Y-60285950D02*
X127466666Y-60319283D01*
X127466666Y-60319283D02*
X127299999Y-60319283D01*
X127966666Y-60119283D02*
X128299999Y-60119283D01*
X127899999Y-60319283D02*
X128133333Y-59619283D01*
X128133333Y-59619283D02*
X128366666Y-60319283D01*
X128999999Y-60252616D02*
X128966666Y-60285950D01*
X128966666Y-60285950D02*
X128866666Y-60319283D01*
X128866666Y-60319283D02*
X128799999Y-60319283D01*
X128799999Y-60319283D02*
X128699999Y-60285950D01*
X128699999Y-60285950D02*
X128633333Y-60219283D01*
X128633333Y-60219283D02*
X128599999Y-60152616D01*
X128599999Y-60152616D02*
X128566666Y-60019283D01*
X128566666Y-60019283D02*
X128566666Y-59919283D01*
X128566666Y-59919283D02*
X128599999Y-59785950D01*
X128599999Y-59785950D02*
X128633333Y-59719283D01*
X128633333Y-59719283D02*
X128699999Y-59652616D01*
X128699999Y-59652616D02*
X128799999Y-59619283D01*
X128799999Y-59619283D02*
X128866666Y-59619283D01*
X128866666Y-59619283D02*
X128966666Y-59652616D01*
X128966666Y-59652616D02*
X128999999Y-59685950D01*
D11*
X141519047Y-62441085D02*
X141442857Y-62402990D01*
X141442857Y-62402990D02*
X141366666Y-62326800D01*
X141366666Y-62326800D02*
X141252380Y-62212514D01*
X141252380Y-62212514D02*
X141176190Y-62174419D01*
X141176190Y-62174419D02*
X141099999Y-62174419D01*
X141138095Y-62364895D02*
X141061904Y-62326800D01*
X141061904Y-62326800D02*
X140985714Y-62250609D01*
X140985714Y-62250609D02*
X140947618Y-62098228D01*
X140947618Y-62098228D02*
X140947618Y-61831561D01*
X140947618Y-61831561D02*
X140985714Y-61679180D01*
X140985714Y-61679180D02*
X141061904Y-61602990D01*
X141061904Y-61602990D02*
X141138095Y-61564895D01*
X141138095Y-61564895D02*
X141290476Y-61564895D01*
X141290476Y-61564895D02*
X141366666Y-61602990D01*
X141366666Y-61602990D02*
X141442857Y-61679180D01*
X141442857Y-61679180D02*
X141480952Y-61831561D01*
X141480952Y-61831561D02*
X141480952Y-62098228D01*
X141480952Y-62098228D02*
X141442857Y-62250609D01*
X141442857Y-62250609D02*
X141366666Y-62326800D01*
X141366666Y-62326800D02*
X141290476Y-62364895D01*
X141290476Y-62364895D02*
X141138095Y-62364895D01*
X142280952Y-62288704D02*
X142242856Y-62326800D01*
X142242856Y-62326800D02*
X142128571Y-62364895D01*
X142128571Y-62364895D02*
X142052380Y-62364895D01*
X142052380Y-62364895D02*
X141938094Y-62326800D01*
X141938094Y-62326800D02*
X141861904Y-62250609D01*
X141861904Y-62250609D02*
X141823809Y-62174419D01*
X141823809Y-62174419D02*
X141785713Y-62022038D01*
X141785713Y-62022038D02*
X141785713Y-61907752D01*
X141785713Y-61907752D02*
X141823809Y-61755371D01*
X141823809Y-61755371D02*
X141861904Y-61679180D01*
X141861904Y-61679180D02*
X141938094Y-61602990D01*
X141938094Y-61602990D02*
X142052380Y-61564895D01*
X142052380Y-61564895D02*
X142128571Y-61564895D01*
X142128571Y-61564895D02*
X142242856Y-61602990D01*
X142242856Y-61602990D02*
X142280952Y-61641085D01*
X143080952Y-62288704D02*
X143042856Y-62326800D01*
X143042856Y-62326800D02*
X142928571Y-62364895D01*
X142928571Y-62364895D02*
X142852380Y-62364895D01*
X142852380Y-62364895D02*
X142738094Y-62326800D01*
X142738094Y-62326800D02*
X142661904Y-62250609D01*
X142661904Y-62250609D02*
X142623809Y-62174419D01*
X142623809Y-62174419D02*
X142585713Y-62022038D01*
X142585713Y-62022038D02*
X142585713Y-61907752D01*
X142585713Y-61907752D02*
X142623809Y-61755371D01*
X142623809Y-61755371D02*
X142661904Y-61679180D01*
X142661904Y-61679180D02*
X142738094Y-61602990D01*
X142738094Y-61602990D02*
X142852380Y-61564895D01*
X142852380Y-61564895D02*
X142928571Y-61564895D01*
X142928571Y-61564895D02*
X143042856Y-61602990D01*
X143042856Y-61602990D02*
X143080952Y-61641085D01*
X143347618Y-61564895D02*
X143842856Y-61564895D01*
X143842856Y-61564895D02*
X143576190Y-61869657D01*
X143576190Y-61869657D02*
X143690475Y-61869657D01*
X143690475Y-61869657D02*
X143766666Y-61907752D01*
X143766666Y-61907752D02*
X143804761Y-61945847D01*
X143804761Y-61945847D02*
X143842856Y-62022038D01*
X143842856Y-62022038D02*
X143842856Y-62212514D01*
X143842856Y-62212514D02*
X143804761Y-62288704D01*
X143804761Y-62288704D02*
X143766666Y-62326800D01*
X143766666Y-62326800D02*
X143690475Y-62364895D01*
X143690475Y-62364895D02*
X143461904Y-62364895D01*
X143461904Y-62364895D02*
X143385713Y-62326800D01*
X143385713Y-62326800D02*
X143347618Y-62288704D01*
X144338095Y-61564895D02*
X144414285Y-61564895D01*
X144414285Y-61564895D02*
X144490476Y-61602990D01*
X144490476Y-61602990D02*
X144528571Y-61641085D01*
X144528571Y-61641085D02*
X144566666Y-61717276D01*
X144566666Y-61717276D02*
X144604761Y-61869657D01*
X144604761Y-61869657D02*
X144604761Y-62060133D01*
X144604761Y-62060133D02*
X144566666Y-62212514D01*
X144566666Y-62212514D02*
X144528571Y-62288704D01*
X144528571Y-62288704D02*
X144490476Y-62326800D01*
X144490476Y-62326800D02*
X144414285Y-62364895D01*
X144414285Y-62364895D02*
X144338095Y-62364895D01*
X144338095Y-62364895D02*
X144261904Y-62326800D01*
X144261904Y-62326800D02*
X144223809Y-62288704D01*
X144223809Y-62288704D02*
X144185714Y-62212514D01*
X144185714Y-62212514D02*
X144147618Y-62060133D01*
X144147618Y-62060133D02*
X144147618Y-61869657D01*
X144147618Y-61869657D02*
X144185714Y-61717276D01*
X144185714Y-61717276D02*
X144223809Y-61641085D01*
X144223809Y-61641085D02*
X144261904Y-61602990D01*
X144261904Y-61602990D02*
X144338095Y-61564895D01*
X145100000Y-61564895D02*
X145176190Y-61564895D01*
X145176190Y-61564895D02*
X145252381Y-61602990D01*
X145252381Y-61602990D02*
X145290476Y-61641085D01*
X145290476Y-61641085D02*
X145328571Y-61717276D01*
X145328571Y-61717276D02*
X145366666Y-61869657D01*
X145366666Y-61869657D02*
X145366666Y-62060133D01*
X145366666Y-62060133D02*
X145328571Y-62212514D01*
X145328571Y-62212514D02*
X145290476Y-62288704D01*
X145290476Y-62288704D02*
X145252381Y-62326800D01*
X145252381Y-62326800D02*
X145176190Y-62364895D01*
X145176190Y-62364895D02*
X145100000Y-62364895D01*
X145100000Y-62364895D02*
X145023809Y-62326800D01*
X145023809Y-62326800D02*
X144985714Y-62288704D01*
X144985714Y-62288704D02*
X144947619Y-62212514D01*
X144947619Y-62212514D02*
X144909523Y-62060133D01*
X144909523Y-62060133D02*
X144909523Y-61869657D01*
X144909523Y-61869657D02*
X144947619Y-61717276D01*
X144947619Y-61717276D02*
X144985714Y-61641085D01*
X144985714Y-61641085D02*
X145023809Y-61602990D01*
X145023809Y-61602990D02*
X145100000Y-61564895D01*
X145823809Y-61907752D02*
X145747619Y-61869657D01*
X145747619Y-61869657D02*
X145709524Y-61831561D01*
X145709524Y-61831561D02*
X145671428Y-61755371D01*
X145671428Y-61755371D02*
X145671428Y-61717276D01*
X145671428Y-61717276D02*
X145709524Y-61641085D01*
X145709524Y-61641085D02*
X145747619Y-61602990D01*
X145747619Y-61602990D02*
X145823809Y-61564895D01*
X145823809Y-61564895D02*
X145976190Y-61564895D01*
X145976190Y-61564895D02*
X146052381Y-61602990D01*
X146052381Y-61602990D02*
X146090476Y-61641085D01*
X146090476Y-61641085D02*
X146128571Y-61717276D01*
X146128571Y-61717276D02*
X146128571Y-61755371D01*
X146128571Y-61755371D02*
X146090476Y-61831561D01*
X146090476Y-61831561D02*
X146052381Y-61869657D01*
X146052381Y-61869657D02*
X145976190Y-61907752D01*
X145976190Y-61907752D02*
X145823809Y-61907752D01*
X145823809Y-61907752D02*
X145747619Y-61945847D01*
X145747619Y-61945847D02*
X145709524Y-61983942D01*
X145709524Y-61983942D02*
X145671428Y-62060133D01*
X145671428Y-62060133D02*
X145671428Y-62212514D01*
X145671428Y-62212514D02*
X145709524Y-62288704D01*
X145709524Y-62288704D02*
X145747619Y-62326800D01*
X145747619Y-62326800D02*
X145823809Y-62364895D01*
X145823809Y-62364895D02*
X145976190Y-62364895D01*
X145976190Y-62364895D02*
X146052381Y-62326800D01*
X146052381Y-62326800D02*
X146090476Y-62288704D01*
X146090476Y-62288704D02*
X146128571Y-62212514D01*
X146128571Y-62212514D02*
X146128571Y-62060133D01*
X146128571Y-62060133D02*
X146090476Y-61983942D01*
X146090476Y-61983942D02*
X146052381Y-61945847D01*
X146052381Y-61945847D02*
X145976190Y-61907752D01*
X146280953Y-62441085D02*
X146890476Y-62441085D01*
X147347619Y-61945847D02*
X147461905Y-61983942D01*
X147461905Y-61983942D02*
X147500000Y-62022038D01*
X147500000Y-62022038D02*
X147538096Y-62098228D01*
X147538096Y-62098228D02*
X147538096Y-62212514D01*
X147538096Y-62212514D02*
X147500000Y-62288704D01*
X147500000Y-62288704D02*
X147461905Y-62326800D01*
X147461905Y-62326800D02*
X147385715Y-62364895D01*
X147385715Y-62364895D02*
X147080953Y-62364895D01*
X147080953Y-62364895D02*
X147080953Y-61564895D01*
X147080953Y-61564895D02*
X147347619Y-61564895D01*
X147347619Y-61564895D02*
X147423810Y-61602990D01*
X147423810Y-61602990D02*
X147461905Y-61641085D01*
X147461905Y-61641085D02*
X147500000Y-61717276D01*
X147500000Y-61717276D02*
X147500000Y-61793466D01*
X147500000Y-61793466D02*
X147461905Y-61869657D01*
X147461905Y-61869657D02*
X147423810Y-61907752D01*
X147423810Y-61907752D02*
X147347619Y-61945847D01*
X147347619Y-61945847D02*
X147080953Y-61945847D01*
X147766667Y-61564895D02*
X148223810Y-61564895D01*
X147995238Y-62364895D02*
X147995238Y-61564895D01*
X148871429Y-61564895D02*
X148490477Y-61564895D01*
X148490477Y-61564895D02*
X148452381Y-61945847D01*
X148452381Y-61945847D02*
X148490477Y-61907752D01*
X148490477Y-61907752D02*
X148566667Y-61869657D01*
X148566667Y-61869657D02*
X148757143Y-61869657D01*
X148757143Y-61869657D02*
X148833334Y-61907752D01*
X148833334Y-61907752D02*
X148871429Y-61945847D01*
X148871429Y-61945847D02*
X148909524Y-62022038D01*
X148909524Y-62022038D02*
X148909524Y-62212514D01*
X148909524Y-62212514D02*
X148871429Y-62288704D01*
X148871429Y-62288704D02*
X148833334Y-62326800D01*
X148833334Y-62326800D02*
X148757143Y-62364895D01*
X148757143Y-62364895D02*
X148566667Y-62364895D01*
X148566667Y-62364895D02*
X148490477Y-62326800D01*
X148490477Y-62326800D02*
X148452381Y-62288704D01*
X149252382Y-62288704D02*
X149290477Y-62326800D01*
X149290477Y-62326800D02*
X149252382Y-62364895D01*
X149252382Y-62364895D02*
X149214286Y-62326800D01*
X149214286Y-62326800D02*
X149252382Y-62288704D01*
X149252382Y-62288704D02*
X149252382Y-62364895D01*
X149785715Y-61564895D02*
X149861905Y-61564895D01*
X149861905Y-61564895D02*
X149938096Y-61602990D01*
X149938096Y-61602990D02*
X149976191Y-61641085D01*
X149976191Y-61641085D02*
X150014286Y-61717276D01*
X150014286Y-61717276D02*
X150052381Y-61869657D01*
X150052381Y-61869657D02*
X150052381Y-62060133D01*
X150052381Y-62060133D02*
X150014286Y-62212514D01*
X150014286Y-62212514D02*
X149976191Y-62288704D01*
X149976191Y-62288704D02*
X149938096Y-62326800D01*
X149938096Y-62326800D02*
X149861905Y-62364895D01*
X149861905Y-62364895D02*
X149785715Y-62364895D01*
X149785715Y-62364895D02*
X149709524Y-62326800D01*
X149709524Y-62326800D02*
X149671429Y-62288704D01*
X149671429Y-62288704D02*
X149633334Y-62212514D01*
X149633334Y-62212514D02*
X149595238Y-62060133D01*
X149595238Y-62060133D02*
X149595238Y-61869657D01*
X149595238Y-61869657D02*
X149633334Y-61717276D01*
X149633334Y-61717276D02*
X149671429Y-61641085D01*
X149671429Y-61641085D02*
X149709524Y-61602990D01*
X149709524Y-61602990D02*
X149785715Y-61564895D01*
X108761904Y-88788704D02*
X108723808Y-88826800D01*
X108723808Y-88826800D02*
X108609523Y-88864895D01*
X108609523Y-88864895D02*
X108533332Y-88864895D01*
X108533332Y-88864895D02*
X108419046Y-88826800D01*
X108419046Y-88826800D02*
X108342856Y-88750609D01*
X108342856Y-88750609D02*
X108304761Y-88674419D01*
X108304761Y-88674419D02*
X108266665Y-88522038D01*
X108266665Y-88522038D02*
X108266665Y-88407752D01*
X108266665Y-88407752D02*
X108304761Y-88255371D01*
X108304761Y-88255371D02*
X108342856Y-88179180D01*
X108342856Y-88179180D02*
X108419046Y-88102990D01*
X108419046Y-88102990D02*
X108533332Y-88064895D01*
X108533332Y-88064895D02*
X108609523Y-88064895D01*
X108609523Y-88064895D02*
X108723808Y-88102990D01*
X108723808Y-88102990D02*
X108761904Y-88141085D01*
X109104761Y-88864895D02*
X109104761Y-88064895D01*
X109104761Y-88064895D02*
X109295237Y-88064895D01*
X109295237Y-88064895D02*
X109409523Y-88102990D01*
X109409523Y-88102990D02*
X109485713Y-88179180D01*
X109485713Y-88179180D02*
X109523808Y-88255371D01*
X109523808Y-88255371D02*
X109561904Y-88407752D01*
X109561904Y-88407752D02*
X109561904Y-88522038D01*
X109561904Y-88522038D02*
X109523808Y-88674419D01*
X109523808Y-88674419D02*
X109485713Y-88750609D01*
X109485713Y-88750609D02*
X109409523Y-88826800D01*
X109409523Y-88826800D02*
X109295237Y-88864895D01*
X109295237Y-88864895D02*
X109104761Y-88864895D01*
X110247618Y-88331561D02*
X110247618Y-88864895D01*
X110057142Y-88026800D02*
X109866665Y-88598228D01*
X109866665Y-88598228D02*
X110361904Y-88598228D01*
X110819047Y-88064895D02*
X110895237Y-88064895D01*
X110895237Y-88064895D02*
X110971428Y-88102990D01*
X110971428Y-88102990D02*
X111009523Y-88141085D01*
X111009523Y-88141085D02*
X111047618Y-88217276D01*
X111047618Y-88217276D02*
X111085713Y-88369657D01*
X111085713Y-88369657D02*
X111085713Y-88560133D01*
X111085713Y-88560133D02*
X111047618Y-88712514D01*
X111047618Y-88712514D02*
X111009523Y-88788704D01*
X111009523Y-88788704D02*
X110971428Y-88826800D01*
X110971428Y-88826800D02*
X110895237Y-88864895D01*
X110895237Y-88864895D02*
X110819047Y-88864895D01*
X110819047Y-88864895D02*
X110742856Y-88826800D01*
X110742856Y-88826800D02*
X110704761Y-88788704D01*
X110704761Y-88788704D02*
X110666666Y-88712514D01*
X110666666Y-88712514D02*
X110628570Y-88560133D01*
X110628570Y-88560133D02*
X110628570Y-88369657D01*
X110628570Y-88369657D02*
X110666666Y-88217276D01*
X110666666Y-88217276D02*
X110704761Y-88141085D01*
X110704761Y-88141085D02*
X110742856Y-88102990D01*
X110742856Y-88102990D02*
X110819047Y-88064895D01*
X111809523Y-88064895D02*
X111428571Y-88064895D01*
X111428571Y-88064895D02*
X111390475Y-88445847D01*
X111390475Y-88445847D02*
X111428571Y-88407752D01*
X111428571Y-88407752D02*
X111504761Y-88369657D01*
X111504761Y-88369657D02*
X111695237Y-88369657D01*
X111695237Y-88369657D02*
X111771428Y-88407752D01*
X111771428Y-88407752D02*
X111809523Y-88445847D01*
X111809523Y-88445847D02*
X111847618Y-88522038D01*
X111847618Y-88522038D02*
X111847618Y-88712514D01*
X111847618Y-88712514D02*
X111809523Y-88788704D01*
X111809523Y-88788704D02*
X111771428Y-88826800D01*
X111771428Y-88826800D02*
X111695237Y-88864895D01*
X111695237Y-88864895D02*
X111504761Y-88864895D01*
X111504761Y-88864895D02*
X111428571Y-88826800D01*
X111428571Y-88826800D02*
X111390475Y-88788704D01*
X112152380Y-88141085D02*
X112190476Y-88102990D01*
X112190476Y-88102990D02*
X112266666Y-88064895D01*
X112266666Y-88064895D02*
X112457142Y-88064895D01*
X112457142Y-88064895D02*
X112533333Y-88102990D01*
X112533333Y-88102990D02*
X112571428Y-88141085D01*
X112571428Y-88141085D02*
X112609523Y-88217276D01*
X112609523Y-88217276D02*
X112609523Y-88293466D01*
X112609523Y-88293466D02*
X112571428Y-88407752D01*
X112571428Y-88407752D02*
X112114285Y-88864895D01*
X112114285Y-88864895D02*
X112609523Y-88864895D01*
X112761905Y-88941085D02*
X113371428Y-88941085D01*
X113561905Y-88864895D02*
X113561905Y-88064895D01*
X113561905Y-88064895D02*
X113828571Y-88636323D01*
X113828571Y-88636323D02*
X114095238Y-88064895D01*
X114095238Y-88064895D02*
X114095238Y-88864895D01*
X114476191Y-88064895D02*
X114476191Y-88712514D01*
X114476191Y-88712514D02*
X114514286Y-88788704D01*
X114514286Y-88788704D02*
X114552381Y-88826800D01*
X114552381Y-88826800D02*
X114628572Y-88864895D01*
X114628572Y-88864895D02*
X114780953Y-88864895D01*
X114780953Y-88864895D02*
X114857143Y-88826800D01*
X114857143Y-88826800D02*
X114895238Y-88788704D01*
X114895238Y-88788704D02*
X114933334Y-88712514D01*
X114933334Y-88712514D02*
X114933334Y-88064895D01*
X115238095Y-88064895D02*
X115771429Y-88864895D01*
X115771429Y-88064895D02*
X115238095Y-88864895D01*
X127980952Y-88864895D02*
X127980952Y-88064895D01*
X127980952Y-88064895D02*
X128247618Y-88636323D01*
X128247618Y-88636323D02*
X128514285Y-88064895D01*
X128514285Y-88064895D02*
X128514285Y-88864895D01*
X129352381Y-88788704D02*
X129314285Y-88826800D01*
X129314285Y-88826800D02*
X129200000Y-88864895D01*
X129200000Y-88864895D02*
X129123809Y-88864895D01*
X129123809Y-88864895D02*
X129009523Y-88826800D01*
X129009523Y-88826800D02*
X128933333Y-88750609D01*
X128933333Y-88750609D02*
X128895238Y-88674419D01*
X128895238Y-88674419D02*
X128857142Y-88522038D01*
X128857142Y-88522038D02*
X128857142Y-88407752D01*
X128857142Y-88407752D02*
X128895238Y-88255371D01*
X128895238Y-88255371D02*
X128933333Y-88179180D01*
X128933333Y-88179180D02*
X129009523Y-88102990D01*
X129009523Y-88102990D02*
X129123809Y-88064895D01*
X129123809Y-88064895D02*
X129200000Y-88064895D01*
X129200000Y-88064895D02*
X129314285Y-88102990D01*
X129314285Y-88102990D02*
X129352381Y-88141085D01*
X129695238Y-88864895D02*
X129695238Y-88064895D01*
X129695238Y-88064895D02*
X130000000Y-88064895D01*
X130000000Y-88064895D02*
X130076190Y-88102990D01*
X130076190Y-88102990D02*
X130114285Y-88141085D01*
X130114285Y-88141085D02*
X130152381Y-88217276D01*
X130152381Y-88217276D02*
X130152381Y-88331561D01*
X130152381Y-88331561D02*
X130114285Y-88407752D01*
X130114285Y-88407752D02*
X130076190Y-88445847D01*
X130076190Y-88445847D02*
X130000000Y-88483942D01*
X130000000Y-88483942D02*
X129695238Y-88483942D01*
X130838095Y-88331561D02*
X130838095Y-88864895D01*
X130647619Y-88026800D02*
X130457142Y-88598228D01*
X130457142Y-88598228D02*
X130952381Y-88598228D01*
X131219047Y-88141085D02*
X131257143Y-88102990D01*
X131257143Y-88102990D02*
X131333333Y-88064895D01*
X131333333Y-88064895D02*
X131523809Y-88064895D01*
X131523809Y-88064895D02*
X131600000Y-88102990D01*
X131600000Y-88102990D02*
X131638095Y-88141085D01*
X131638095Y-88141085D02*
X131676190Y-88217276D01*
X131676190Y-88217276D02*
X131676190Y-88293466D01*
X131676190Y-88293466D02*
X131638095Y-88407752D01*
X131638095Y-88407752D02*
X131180952Y-88864895D01*
X131180952Y-88864895D02*
X131676190Y-88864895D01*
X132400000Y-88064895D02*
X132019048Y-88064895D01*
X132019048Y-88064895D02*
X131980952Y-88445847D01*
X131980952Y-88445847D02*
X132019048Y-88407752D01*
X132019048Y-88407752D02*
X132095238Y-88369657D01*
X132095238Y-88369657D02*
X132285714Y-88369657D01*
X132285714Y-88369657D02*
X132361905Y-88407752D01*
X132361905Y-88407752D02*
X132400000Y-88445847D01*
X132400000Y-88445847D02*
X132438095Y-88522038D01*
X132438095Y-88522038D02*
X132438095Y-88712514D01*
X132438095Y-88712514D02*
X132400000Y-88788704D01*
X132400000Y-88788704D02*
X132361905Y-88826800D01*
X132361905Y-88826800D02*
X132285714Y-88864895D01*
X132285714Y-88864895D02*
X132095238Y-88864895D01*
X132095238Y-88864895D02*
X132019048Y-88826800D01*
X132019048Y-88826800D02*
X131980952Y-88788704D01*
X132742857Y-88141085D02*
X132780953Y-88102990D01*
X132780953Y-88102990D02*
X132857143Y-88064895D01*
X132857143Y-88064895D02*
X133047619Y-88064895D01*
X133047619Y-88064895D02*
X133123810Y-88102990D01*
X133123810Y-88102990D02*
X133161905Y-88141085D01*
X133161905Y-88141085D02*
X133200000Y-88217276D01*
X133200000Y-88217276D02*
X133200000Y-88293466D01*
X133200000Y-88293466D02*
X133161905Y-88407752D01*
X133161905Y-88407752D02*
X132704762Y-88864895D01*
X132704762Y-88864895D02*
X133200000Y-88864895D01*
X133352382Y-88941085D02*
X133961905Y-88941085D01*
X134152382Y-88864895D02*
X134152382Y-88064895D01*
X134152382Y-88064895D02*
X134457144Y-88064895D01*
X134457144Y-88064895D02*
X134533334Y-88102990D01*
X134533334Y-88102990D02*
X134571429Y-88141085D01*
X134571429Y-88141085D02*
X134609525Y-88217276D01*
X134609525Y-88217276D02*
X134609525Y-88331561D01*
X134609525Y-88331561D02*
X134571429Y-88407752D01*
X134571429Y-88407752D02*
X134533334Y-88445847D01*
X134533334Y-88445847D02*
X134457144Y-88483942D01*
X134457144Y-88483942D02*
X134152382Y-88483942D01*
X135104763Y-88064895D02*
X135257144Y-88064895D01*
X135257144Y-88064895D02*
X135333334Y-88102990D01*
X135333334Y-88102990D02*
X135409525Y-88179180D01*
X135409525Y-88179180D02*
X135447620Y-88331561D01*
X135447620Y-88331561D02*
X135447620Y-88598228D01*
X135447620Y-88598228D02*
X135409525Y-88750609D01*
X135409525Y-88750609D02*
X135333334Y-88826800D01*
X135333334Y-88826800D02*
X135257144Y-88864895D01*
X135257144Y-88864895D02*
X135104763Y-88864895D01*
X135104763Y-88864895D02*
X135028572Y-88826800D01*
X135028572Y-88826800D02*
X134952382Y-88750609D01*
X134952382Y-88750609D02*
X134914286Y-88598228D01*
X134914286Y-88598228D02*
X134914286Y-88331561D01*
X134914286Y-88331561D02*
X134952382Y-88179180D01*
X134952382Y-88179180D02*
X135028572Y-88102990D01*
X135028572Y-88102990D02*
X135104763Y-88064895D01*
X135676191Y-88064895D02*
X136133334Y-88064895D01*
X135904762Y-88864895D02*
X135904762Y-88064895D01*
X148419047Y-88864895D02*
X148419047Y-88064895D01*
X148419047Y-88064895D02*
X148876190Y-88864895D01*
X148876190Y-88864895D02*
X148876190Y-88064895D01*
X149257142Y-88445847D02*
X149523808Y-88445847D01*
X149638094Y-88864895D02*
X149257142Y-88864895D01*
X149257142Y-88864895D02*
X149257142Y-88064895D01*
X149257142Y-88064895D02*
X149638094Y-88064895D01*
X150361904Y-88064895D02*
X149980952Y-88064895D01*
X149980952Y-88064895D02*
X149942856Y-88445847D01*
X149942856Y-88445847D02*
X149980952Y-88407752D01*
X149980952Y-88407752D02*
X150057142Y-88369657D01*
X150057142Y-88369657D02*
X150247618Y-88369657D01*
X150247618Y-88369657D02*
X150323809Y-88407752D01*
X150323809Y-88407752D02*
X150361904Y-88445847D01*
X150361904Y-88445847D02*
X150399999Y-88522038D01*
X150399999Y-88522038D02*
X150399999Y-88712514D01*
X150399999Y-88712514D02*
X150361904Y-88788704D01*
X150361904Y-88788704D02*
X150323809Y-88826800D01*
X150323809Y-88826800D02*
X150247618Y-88864895D01*
X150247618Y-88864895D02*
X150057142Y-88864895D01*
X150057142Y-88864895D02*
X149980952Y-88826800D01*
X149980952Y-88826800D02*
X149942856Y-88788704D01*
X151123809Y-88064895D02*
X150742857Y-88064895D01*
X150742857Y-88064895D02*
X150704761Y-88445847D01*
X150704761Y-88445847D02*
X150742857Y-88407752D01*
X150742857Y-88407752D02*
X150819047Y-88369657D01*
X150819047Y-88369657D02*
X151009523Y-88369657D01*
X151009523Y-88369657D02*
X151085714Y-88407752D01*
X151085714Y-88407752D02*
X151123809Y-88445847D01*
X151123809Y-88445847D02*
X151161904Y-88522038D01*
X151161904Y-88522038D02*
X151161904Y-88712514D01*
X151161904Y-88712514D02*
X151123809Y-88788704D01*
X151123809Y-88788704D02*
X151085714Y-88826800D01*
X151085714Y-88826800D02*
X151009523Y-88864895D01*
X151009523Y-88864895D02*
X150819047Y-88864895D01*
X150819047Y-88864895D02*
X150742857Y-88826800D01*
X150742857Y-88826800D02*
X150704761Y-88788704D01*
X151428571Y-88064895D02*
X151923809Y-88064895D01*
X151923809Y-88064895D02*
X151657143Y-88369657D01*
X151657143Y-88369657D02*
X151771428Y-88369657D01*
X151771428Y-88369657D02*
X151847619Y-88407752D01*
X151847619Y-88407752D02*
X151885714Y-88445847D01*
X151885714Y-88445847D02*
X151923809Y-88522038D01*
X151923809Y-88522038D02*
X151923809Y-88712514D01*
X151923809Y-88712514D02*
X151885714Y-88788704D01*
X151885714Y-88788704D02*
X151847619Y-88826800D01*
X151847619Y-88826800D02*
X151771428Y-88864895D01*
X151771428Y-88864895D02*
X151542857Y-88864895D01*
X151542857Y-88864895D02*
X151466666Y-88826800D01*
X151466666Y-88826800D02*
X151428571Y-88788704D01*
X152228571Y-88141085D02*
X152266667Y-88102990D01*
X152266667Y-88102990D02*
X152342857Y-88064895D01*
X152342857Y-88064895D02*
X152533333Y-88064895D01*
X152533333Y-88064895D02*
X152609524Y-88102990D01*
X152609524Y-88102990D02*
X152647619Y-88141085D01*
X152647619Y-88141085D02*
X152685714Y-88217276D01*
X152685714Y-88217276D02*
X152685714Y-88293466D01*
X152685714Y-88293466D02*
X152647619Y-88407752D01*
X152647619Y-88407752D02*
X152190476Y-88864895D01*
X152190476Y-88864895D02*
X152685714Y-88864895D01*
X152838096Y-88941085D02*
X153447619Y-88941085D01*
X153638096Y-88864895D02*
X153638096Y-88064895D01*
X153638096Y-88445847D02*
X154095239Y-88445847D01*
X154095239Y-88864895D02*
X154095239Y-88064895D01*
X154476191Y-88864895D02*
X154476191Y-88064895D01*
X154476191Y-88064895D02*
X154780953Y-88064895D01*
X154780953Y-88064895D02*
X154857143Y-88102990D01*
X154857143Y-88102990D02*
X154895238Y-88141085D01*
X154895238Y-88141085D02*
X154933334Y-88217276D01*
X154933334Y-88217276D02*
X154933334Y-88331561D01*
X154933334Y-88331561D02*
X154895238Y-88407752D01*
X154895238Y-88407752D02*
X154857143Y-88445847D01*
X154857143Y-88445847D02*
X154780953Y-88483942D01*
X154780953Y-88483942D02*
X154476191Y-88483942D01*
X155542857Y-88445847D02*
X155276191Y-88445847D01*
X155276191Y-88864895D02*
X155276191Y-88064895D01*
X155276191Y-88064895D02*
X155657143Y-88064895D01*
X164323809Y-88864895D02*
X164323809Y-88064895D01*
X164323809Y-88064895D02*
X164780952Y-88864895D01*
X164780952Y-88864895D02*
X164780952Y-88064895D01*
X165161904Y-88445847D02*
X165428570Y-88445847D01*
X165542856Y-88864895D02*
X165161904Y-88864895D01*
X165161904Y-88864895D02*
X165161904Y-88064895D01*
X165161904Y-88064895D02*
X165542856Y-88064895D01*
X166266666Y-88064895D02*
X165885714Y-88064895D01*
X165885714Y-88064895D02*
X165847618Y-88445847D01*
X165847618Y-88445847D02*
X165885714Y-88407752D01*
X165885714Y-88407752D02*
X165961904Y-88369657D01*
X165961904Y-88369657D02*
X166152380Y-88369657D01*
X166152380Y-88369657D02*
X166228571Y-88407752D01*
X166228571Y-88407752D02*
X166266666Y-88445847D01*
X166266666Y-88445847D02*
X166304761Y-88522038D01*
X166304761Y-88522038D02*
X166304761Y-88712514D01*
X166304761Y-88712514D02*
X166266666Y-88788704D01*
X166266666Y-88788704D02*
X166228571Y-88826800D01*
X166228571Y-88826800D02*
X166152380Y-88864895D01*
X166152380Y-88864895D02*
X165961904Y-88864895D01*
X165961904Y-88864895D02*
X165885714Y-88826800D01*
X165885714Y-88826800D02*
X165847618Y-88788704D01*
X167028571Y-88064895D02*
X166647619Y-88064895D01*
X166647619Y-88064895D02*
X166609523Y-88445847D01*
X166609523Y-88445847D02*
X166647619Y-88407752D01*
X166647619Y-88407752D02*
X166723809Y-88369657D01*
X166723809Y-88369657D02*
X166914285Y-88369657D01*
X166914285Y-88369657D02*
X166990476Y-88407752D01*
X166990476Y-88407752D02*
X167028571Y-88445847D01*
X167028571Y-88445847D02*
X167066666Y-88522038D01*
X167066666Y-88522038D02*
X167066666Y-88712514D01*
X167066666Y-88712514D02*
X167028571Y-88788704D01*
X167028571Y-88788704D02*
X166990476Y-88826800D01*
X166990476Y-88826800D02*
X166914285Y-88864895D01*
X166914285Y-88864895D02*
X166723809Y-88864895D01*
X166723809Y-88864895D02*
X166647619Y-88826800D01*
X166647619Y-88826800D02*
X166609523Y-88788704D01*
X167333333Y-88064895D02*
X167828571Y-88064895D01*
X167828571Y-88064895D02*
X167561905Y-88369657D01*
X167561905Y-88369657D02*
X167676190Y-88369657D01*
X167676190Y-88369657D02*
X167752381Y-88407752D01*
X167752381Y-88407752D02*
X167790476Y-88445847D01*
X167790476Y-88445847D02*
X167828571Y-88522038D01*
X167828571Y-88522038D02*
X167828571Y-88712514D01*
X167828571Y-88712514D02*
X167790476Y-88788704D01*
X167790476Y-88788704D02*
X167752381Y-88826800D01*
X167752381Y-88826800D02*
X167676190Y-88864895D01*
X167676190Y-88864895D02*
X167447619Y-88864895D01*
X167447619Y-88864895D02*
X167371428Y-88826800D01*
X167371428Y-88826800D02*
X167333333Y-88788704D01*
X168133333Y-88141085D02*
X168171429Y-88102990D01*
X168171429Y-88102990D02*
X168247619Y-88064895D01*
X168247619Y-88064895D02*
X168438095Y-88064895D01*
X168438095Y-88064895D02*
X168514286Y-88102990D01*
X168514286Y-88102990D02*
X168552381Y-88141085D01*
X168552381Y-88141085D02*
X168590476Y-88217276D01*
X168590476Y-88217276D02*
X168590476Y-88293466D01*
X168590476Y-88293466D02*
X168552381Y-88407752D01*
X168552381Y-88407752D02*
X168095238Y-88864895D01*
X168095238Y-88864895D02*
X168590476Y-88864895D01*
X168742858Y-88941085D02*
X169352381Y-88941085D01*
X169504762Y-88826800D02*
X169619048Y-88864895D01*
X169619048Y-88864895D02*
X169809524Y-88864895D01*
X169809524Y-88864895D02*
X169885715Y-88826800D01*
X169885715Y-88826800D02*
X169923810Y-88788704D01*
X169923810Y-88788704D02*
X169961905Y-88712514D01*
X169961905Y-88712514D02*
X169961905Y-88636323D01*
X169961905Y-88636323D02*
X169923810Y-88560133D01*
X169923810Y-88560133D02*
X169885715Y-88522038D01*
X169885715Y-88522038D02*
X169809524Y-88483942D01*
X169809524Y-88483942D02*
X169657143Y-88445847D01*
X169657143Y-88445847D02*
X169580953Y-88407752D01*
X169580953Y-88407752D02*
X169542858Y-88369657D01*
X169542858Y-88369657D02*
X169504762Y-88293466D01*
X169504762Y-88293466D02*
X169504762Y-88217276D01*
X169504762Y-88217276D02*
X169542858Y-88141085D01*
X169542858Y-88141085D02*
X169580953Y-88102990D01*
X169580953Y-88102990D02*
X169657143Y-88064895D01*
X169657143Y-88064895D02*
X169847620Y-88064895D01*
X169847620Y-88064895D02*
X169961905Y-88102990D01*
X170304763Y-88064895D02*
X170304763Y-88712514D01*
X170304763Y-88712514D02*
X170342858Y-88788704D01*
X170342858Y-88788704D02*
X170380953Y-88826800D01*
X170380953Y-88826800D02*
X170457144Y-88864895D01*
X170457144Y-88864895D02*
X170609525Y-88864895D01*
X170609525Y-88864895D02*
X170685715Y-88826800D01*
X170685715Y-88826800D02*
X170723810Y-88788704D01*
X170723810Y-88788704D02*
X170761906Y-88712514D01*
X170761906Y-88712514D02*
X170761906Y-88064895D01*
X171142858Y-88864895D02*
X171142858Y-88064895D01*
X171142858Y-88064895D02*
X171409524Y-88636323D01*
X171409524Y-88636323D02*
X171676191Y-88064895D01*
X171676191Y-88064895D02*
X171676191Y-88864895D01*
X179809523Y-88864895D02*
X179809523Y-88064895D01*
X179809523Y-88064895D02*
X180266666Y-88864895D01*
X180266666Y-88864895D02*
X180266666Y-88064895D01*
X180647618Y-88445847D02*
X180914284Y-88445847D01*
X181028570Y-88864895D02*
X180647618Y-88864895D01*
X180647618Y-88864895D02*
X180647618Y-88064895D01*
X180647618Y-88064895D02*
X181028570Y-88064895D01*
X181752380Y-88064895D02*
X181371428Y-88064895D01*
X181371428Y-88064895D02*
X181333332Y-88445847D01*
X181333332Y-88445847D02*
X181371428Y-88407752D01*
X181371428Y-88407752D02*
X181447618Y-88369657D01*
X181447618Y-88369657D02*
X181638094Y-88369657D01*
X181638094Y-88369657D02*
X181714285Y-88407752D01*
X181714285Y-88407752D02*
X181752380Y-88445847D01*
X181752380Y-88445847D02*
X181790475Y-88522038D01*
X181790475Y-88522038D02*
X181790475Y-88712514D01*
X181790475Y-88712514D02*
X181752380Y-88788704D01*
X181752380Y-88788704D02*
X181714285Y-88826800D01*
X181714285Y-88826800D02*
X181638094Y-88864895D01*
X181638094Y-88864895D02*
X181447618Y-88864895D01*
X181447618Y-88864895D02*
X181371428Y-88826800D01*
X181371428Y-88826800D02*
X181333332Y-88788704D01*
X182514285Y-88064895D02*
X182133333Y-88064895D01*
X182133333Y-88064895D02*
X182095237Y-88445847D01*
X182095237Y-88445847D02*
X182133333Y-88407752D01*
X182133333Y-88407752D02*
X182209523Y-88369657D01*
X182209523Y-88369657D02*
X182399999Y-88369657D01*
X182399999Y-88369657D02*
X182476190Y-88407752D01*
X182476190Y-88407752D02*
X182514285Y-88445847D01*
X182514285Y-88445847D02*
X182552380Y-88522038D01*
X182552380Y-88522038D02*
X182552380Y-88712514D01*
X182552380Y-88712514D02*
X182514285Y-88788704D01*
X182514285Y-88788704D02*
X182476190Y-88826800D01*
X182476190Y-88826800D02*
X182399999Y-88864895D01*
X182399999Y-88864895D02*
X182209523Y-88864895D01*
X182209523Y-88864895D02*
X182133333Y-88826800D01*
X182133333Y-88826800D02*
X182095237Y-88788704D01*
X182819047Y-88064895D02*
X183314285Y-88064895D01*
X183314285Y-88064895D02*
X183047619Y-88369657D01*
X183047619Y-88369657D02*
X183161904Y-88369657D01*
X183161904Y-88369657D02*
X183238095Y-88407752D01*
X183238095Y-88407752D02*
X183276190Y-88445847D01*
X183276190Y-88445847D02*
X183314285Y-88522038D01*
X183314285Y-88522038D02*
X183314285Y-88712514D01*
X183314285Y-88712514D02*
X183276190Y-88788704D01*
X183276190Y-88788704D02*
X183238095Y-88826800D01*
X183238095Y-88826800D02*
X183161904Y-88864895D01*
X183161904Y-88864895D02*
X182933333Y-88864895D01*
X182933333Y-88864895D02*
X182857142Y-88826800D01*
X182857142Y-88826800D02*
X182819047Y-88788704D01*
X183619047Y-88141085D02*
X183657143Y-88102990D01*
X183657143Y-88102990D02*
X183733333Y-88064895D01*
X183733333Y-88064895D02*
X183923809Y-88064895D01*
X183923809Y-88064895D02*
X184000000Y-88102990D01*
X184000000Y-88102990D02*
X184038095Y-88141085D01*
X184038095Y-88141085D02*
X184076190Y-88217276D01*
X184076190Y-88217276D02*
X184076190Y-88293466D01*
X184076190Y-88293466D02*
X184038095Y-88407752D01*
X184038095Y-88407752D02*
X183580952Y-88864895D01*
X183580952Y-88864895D02*
X184076190Y-88864895D01*
X184228572Y-88941085D02*
X184838095Y-88941085D01*
X185409524Y-88864895D02*
X185028572Y-88864895D01*
X185028572Y-88864895D02*
X185028572Y-88064895D01*
X185676191Y-88864895D02*
X185676191Y-88064895D01*
X185676191Y-88064895D02*
X185980953Y-88064895D01*
X185980953Y-88064895D02*
X186057143Y-88102990D01*
X186057143Y-88102990D02*
X186095238Y-88141085D01*
X186095238Y-88141085D02*
X186133334Y-88217276D01*
X186133334Y-88217276D02*
X186133334Y-88331561D01*
X186133334Y-88331561D02*
X186095238Y-88407752D01*
X186095238Y-88407752D02*
X186057143Y-88445847D01*
X186057143Y-88445847D02*
X185980953Y-88483942D01*
X185980953Y-88483942D02*
X185676191Y-88483942D01*
X186742857Y-88445847D02*
X186476191Y-88445847D01*
X186476191Y-88864895D02*
X186476191Y-88064895D01*
X186476191Y-88064895D02*
X186857143Y-88064895D01*
X186971429Y-88941085D02*
X187580952Y-88941085D01*
X188228572Y-88788704D02*
X188190476Y-88826800D01*
X188190476Y-88826800D02*
X188076191Y-88864895D01*
X188076191Y-88864895D02*
X188000000Y-88864895D01*
X188000000Y-88864895D02*
X187885714Y-88826800D01*
X187885714Y-88826800D02*
X187809524Y-88750609D01*
X187809524Y-88750609D02*
X187771429Y-88674419D01*
X187771429Y-88674419D02*
X187733333Y-88522038D01*
X187733333Y-88522038D02*
X187733333Y-88407752D01*
X187733333Y-88407752D02*
X187771429Y-88255371D01*
X187771429Y-88255371D02*
X187809524Y-88179180D01*
X187809524Y-88179180D02*
X187885714Y-88102990D01*
X187885714Y-88102990D02*
X188000000Y-88064895D01*
X188000000Y-88064895D02*
X188076191Y-88064895D01*
X188076191Y-88064895D02*
X188190476Y-88102990D01*
X188190476Y-88102990D02*
X188228572Y-88141085D01*
D13*
X204976191Y-87932309D02*
X205309524Y-87932309D01*
X205452381Y-88456119D02*
X204976191Y-88456119D01*
X204976191Y-88456119D02*
X204976191Y-87456119D01*
X204976191Y-87456119D02*
X205452381Y-87456119D01*
X205833334Y-88408500D02*
X205976191Y-88456119D01*
X205976191Y-88456119D02*
X206214286Y-88456119D01*
X206214286Y-88456119D02*
X206309524Y-88408500D01*
X206309524Y-88408500D02*
X206357143Y-88360880D01*
X206357143Y-88360880D02*
X206404762Y-88265642D01*
X206404762Y-88265642D02*
X206404762Y-88170404D01*
X206404762Y-88170404D02*
X206357143Y-88075166D01*
X206357143Y-88075166D02*
X206309524Y-88027547D01*
X206309524Y-88027547D02*
X206214286Y-87979928D01*
X206214286Y-87979928D02*
X206023810Y-87932309D01*
X206023810Y-87932309D02*
X205928572Y-87884690D01*
X205928572Y-87884690D02*
X205880953Y-87837071D01*
X205880953Y-87837071D02*
X205833334Y-87741833D01*
X205833334Y-87741833D02*
X205833334Y-87646595D01*
X205833334Y-87646595D02*
X205880953Y-87551357D01*
X205880953Y-87551357D02*
X205928572Y-87503738D01*
X205928572Y-87503738D02*
X206023810Y-87456119D01*
X206023810Y-87456119D02*
X206261905Y-87456119D01*
X206261905Y-87456119D02*
X206404762Y-87503738D01*
X206833334Y-88456119D02*
X206833334Y-87456119D01*
X206833334Y-87456119D02*
X207214286Y-87456119D01*
X207214286Y-87456119D02*
X207309524Y-87503738D01*
X207309524Y-87503738D02*
X207357143Y-87551357D01*
X207357143Y-87551357D02*
X207404762Y-87646595D01*
X207404762Y-87646595D02*
X207404762Y-87789452D01*
X207404762Y-87789452D02*
X207357143Y-87884690D01*
X207357143Y-87884690D02*
X207309524Y-87932309D01*
X207309524Y-87932309D02*
X207214286Y-87979928D01*
X207214286Y-87979928D02*
X206833334Y-87979928D01*
X207738096Y-87456119D02*
X208357143Y-87456119D01*
X208357143Y-87456119D02*
X208023810Y-87837071D01*
X208023810Y-87837071D02*
X208166667Y-87837071D01*
X208166667Y-87837071D02*
X208261905Y-87884690D01*
X208261905Y-87884690D02*
X208309524Y-87932309D01*
X208309524Y-87932309D02*
X208357143Y-88027547D01*
X208357143Y-88027547D02*
X208357143Y-88265642D01*
X208357143Y-88265642D02*
X208309524Y-88360880D01*
X208309524Y-88360880D02*
X208261905Y-88408500D01*
X208261905Y-88408500D02*
X208166667Y-88456119D01*
X208166667Y-88456119D02*
X207880953Y-88456119D01*
X207880953Y-88456119D02*
X207785715Y-88408500D01*
X207785715Y-88408500D02*
X207738096Y-88360880D01*
X208738096Y-87551357D02*
X208785715Y-87503738D01*
X208785715Y-87503738D02*
X208880953Y-87456119D01*
X208880953Y-87456119D02*
X209119048Y-87456119D01*
X209119048Y-87456119D02*
X209214286Y-87503738D01*
X209214286Y-87503738D02*
X209261905Y-87551357D01*
X209261905Y-87551357D02*
X209309524Y-87646595D01*
X209309524Y-87646595D02*
X209309524Y-87741833D01*
X209309524Y-87741833D02*
X209261905Y-87884690D01*
X209261905Y-87884690D02*
X208690477Y-88456119D01*
X208690477Y-88456119D02*
X209309524Y-88456119D01*
X209738096Y-88075166D02*
X210500001Y-88075166D01*
X210880953Y-87456119D02*
X211119048Y-88456119D01*
X211119048Y-88456119D02*
X211309524Y-87741833D01*
X211309524Y-87741833D02*
X211500000Y-88456119D01*
X211500000Y-88456119D02*
X211738096Y-87456119D01*
X212690476Y-88456119D02*
X212357143Y-87979928D01*
X212119048Y-88456119D02*
X212119048Y-87456119D01*
X212119048Y-87456119D02*
X212500000Y-87456119D01*
X212500000Y-87456119D02*
X212595238Y-87503738D01*
X212595238Y-87503738D02*
X212642857Y-87551357D01*
X212642857Y-87551357D02*
X212690476Y-87646595D01*
X212690476Y-87646595D02*
X212690476Y-87789452D01*
X212690476Y-87789452D02*
X212642857Y-87884690D01*
X212642857Y-87884690D02*
X212595238Y-87932309D01*
X212595238Y-87932309D02*
X212500000Y-87979928D01*
X212500000Y-87979928D02*
X212119048Y-87979928D01*
X213309524Y-87456119D02*
X213500000Y-87456119D01*
X213500000Y-87456119D02*
X213595238Y-87503738D01*
X213595238Y-87503738D02*
X213690476Y-87598976D01*
X213690476Y-87598976D02*
X213738095Y-87789452D01*
X213738095Y-87789452D02*
X213738095Y-88122785D01*
X213738095Y-88122785D02*
X213690476Y-88313261D01*
X213690476Y-88313261D02*
X213595238Y-88408500D01*
X213595238Y-88408500D02*
X213500000Y-88456119D01*
X213500000Y-88456119D02*
X213309524Y-88456119D01*
X213309524Y-88456119D02*
X213214286Y-88408500D01*
X213214286Y-88408500D02*
X213119048Y-88313261D01*
X213119048Y-88313261D02*
X213071429Y-88122785D01*
X213071429Y-88122785D02*
X213071429Y-87789452D01*
X213071429Y-87789452D02*
X213119048Y-87598976D01*
X213119048Y-87598976D02*
X213214286Y-87503738D01*
X213214286Y-87503738D02*
X213309524Y-87456119D01*
X214357143Y-87456119D02*
X214547619Y-87456119D01*
X214547619Y-87456119D02*
X214642857Y-87503738D01*
X214642857Y-87503738D02*
X214738095Y-87598976D01*
X214738095Y-87598976D02*
X214785714Y-87789452D01*
X214785714Y-87789452D02*
X214785714Y-88122785D01*
X214785714Y-88122785D02*
X214738095Y-88313261D01*
X214738095Y-88313261D02*
X214642857Y-88408500D01*
X214642857Y-88408500D02*
X214547619Y-88456119D01*
X214547619Y-88456119D02*
X214357143Y-88456119D01*
X214357143Y-88456119D02*
X214261905Y-88408500D01*
X214261905Y-88408500D02*
X214166667Y-88313261D01*
X214166667Y-88313261D02*
X214119048Y-88122785D01*
X214119048Y-88122785D02*
X214119048Y-87789452D01*
X214119048Y-87789452D02*
X214166667Y-87598976D01*
X214166667Y-87598976D02*
X214261905Y-87503738D01*
X214261905Y-87503738D02*
X214357143Y-87456119D01*
X215214286Y-88456119D02*
X215214286Y-87456119D01*
X215214286Y-87456119D02*
X215547619Y-88170404D01*
X215547619Y-88170404D02*
X215880952Y-87456119D01*
X215880952Y-87456119D02*
X215880952Y-88456119D01*
X216357143Y-88075166D02*
X217119048Y-88075166D01*
X217500000Y-87456119D02*
X218119047Y-87456119D01*
X218119047Y-87456119D02*
X217785714Y-87837071D01*
X217785714Y-87837071D02*
X217928571Y-87837071D01*
X217928571Y-87837071D02*
X218023809Y-87884690D01*
X218023809Y-87884690D02*
X218071428Y-87932309D01*
X218071428Y-87932309D02*
X218119047Y-88027547D01*
X218119047Y-88027547D02*
X218119047Y-88265642D01*
X218119047Y-88265642D02*
X218071428Y-88360880D01*
X218071428Y-88360880D02*
X218023809Y-88408500D01*
X218023809Y-88408500D02*
X217928571Y-88456119D01*
X217928571Y-88456119D02*
X217642857Y-88456119D01*
X217642857Y-88456119D02*
X217547619Y-88408500D01*
X217547619Y-88408500D02*
X217500000Y-88360880D01*
X218500000Y-87551357D02*
X218547619Y-87503738D01*
X218547619Y-87503738D02*
X218642857Y-87456119D01*
X218642857Y-87456119D02*
X218880952Y-87456119D01*
X218880952Y-87456119D02*
X218976190Y-87503738D01*
X218976190Y-87503738D02*
X219023809Y-87551357D01*
X219023809Y-87551357D02*
X219071428Y-87646595D01*
X219071428Y-87646595D02*
X219071428Y-87741833D01*
X219071428Y-87741833D02*
X219023809Y-87884690D01*
X219023809Y-87884690D02*
X218452381Y-88456119D01*
X218452381Y-88456119D02*
X219071428Y-88456119D01*
D11*
X238052379Y-57641085D02*
X238090475Y-57602990D01*
X238090475Y-57602990D02*
X238166665Y-57564895D01*
X238166665Y-57564895D02*
X238357141Y-57564895D01*
X238357141Y-57564895D02*
X238433332Y-57602990D01*
X238433332Y-57602990D02*
X238471427Y-57641085D01*
X238471427Y-57641085D02*
X238509522Y-57717276D01*
X238509522Y-57717276D02*
X238509522Y-57793466D01*
X238509522Y-57793466D02*
X238471427Y-57907752D01*
X238471427Y-57907752D02*
X238014284Y-58364895D01*
X238014284Y-58364895D02*
X238509522Y-58364895D01*
X238852380Y-58288704D02*
X238890475Y-58326800D01*
X238890475Y-58326800D02*
X238852380Y-58364895D01*
X238852380Y-58364895D02*
X238814284Y-58326800D01*
X238814284Y-58326800D02*
X238852380Y-58288704D01*
X238852380Y-58288704D02*
X238852380Y-58364895D01*
X239576189Y-57831561D02*
X239576189Y-58364895D01*
X239385713Y-57526800D02*
X239195236Y-58098228D01*
X239195236Y-58098228D02*
X239690475Y-58098228D01*
X239957141Y-57641085D02*
X239995237Y-57602990D01*
X239995237Y-57602990D02*
X240071427Y-57564895D01*
X240071427Y-57564895D02*
X240261903Y-57564895D01*
X240261903Y-57564895D02*
X240338094Y-57602990D01*
X240338094Y-57602990D02*
X240376189Y-57641085D01*
X240376189Y-57641085D02*
X240414284Y-57717276D01*
X240414284Y-57717276D02*
X240414284Y-57793466D01*
X240414284Y-57793466D02*
X240376189Y-57907752D01*
X240376189Y-57907752D02*
X239919046Y-58364895D01*
X239919046Y-58364895D02*
X240414284Y-58364895D01*
X240566666Y-58441085D02*
X241176189Y-58441085D01*
X241328570Y-58326800D02*
X241442856Y-58364895D01*
X241442856Y-58364895D02*
X241633332Y-58364895D01*
X241633332Y-58364895D02*
X241709523Y-58326800D01*
X241709523Y-58326800D02*
X241747618Y-58288704D01*
X241747618Y-58288704D02*
X241785713Y-58212514D01*
X241785713Y-58212514D02*
X241785713Y-58136323D01*
X241785713Y-58136323D02*
X241747618Y-58060133D01*
X241747618Y-58060133D02*
X241709523Y-58022038D01*
X241709523Y-58022038D02*
X241633332Y-57983942D01*
X241633332Y-57983942D02*
X241480951Y-57945847D01*
X241480951Y-57945847D02*
X241404761Y-57907752D01*
X241404761Y-57907752D02*
X241366666Y-57869657D01*
X241366666Y-57869657D02*
X241328570Y-57793466D01*
X241328570Y-57793466D02*
X241328570Y-57717276D01*
X241328570Y-57717276D02*
X241366666Y-57641085D01*
X241366666Y-57641085D02*
X241404761Y-57602990D01*
X241404761Y-57602990D02*
X241480951Y-57564895D01*
X241480951Y-57564895D02*
X241671428Y-57564895D01*
X241671428Y-57564895D02*
X241785713Y-57602990D01*
X242090475Y-58326800D02*
X242204761Y-58364895D01*
X242204761Y-58364895D02*
X242395237Y-58364895D01*
X242395237Y-58364895D02*
X242471428Y-58326800D01*
X242471428Y-58326800D02*
X242509523Y-58288704D01*
X242509523Y-58288704D02*
X242547618Y-58212514D01*
X242547618Y-58212514D02*
X242547618Y-58136323D01*
X242547618Y-58136323D02*
X242509523Y-58060133D01*
X242509523Y-58060133D02*
X242471428Y-58022038D01*
X242471428Y-58022038D02*
X242395237Y-57983942D01*
X242395237Y-57983942D02*
X242242856Y-57945847D01*
X242242856Y-57945847D02*
X242166666Y-57907752D01*
X242166666Y-57907752D02*
X242128571Y-57869657D01*
X242128571Y-57869657D02*
X242090475Y-57793466D01*
X242090475Y-57793466D02*
X242090475Y-57717276D01*
X242090475Y-57717276D02*
X242128571Y-57641085D01*
X242128571Y-57641085D02*
X242166666Y-57602990D01*
X242166666Y-57602990D02*
X242242856Y-57564895D01*
X242242856Y-57564895D02*
X242433333Y-57564895D01*
X242433333Y-57564895D02*
X242547618Y-57602990D01*
X242890476Y-58364895D02*
X242890476Y-57564895D01*
X242890476Y-57564895D02*
X243080952Y-57564895D01*
X243080952Y-57564895D02*
X243195238Y-57602990D01*
X243195238Y-57602990D02*
X243271428Y-57679180D01*
X243271428Y-57679180D02*
X243309523Y-57755371D01*
X243309523Y-57755371D02*
X243347619Y-57907752D01*
X243347619Y-57907752D02*
X243347619Y-58022038D01*
X243347619Y-58022038D02*
X243309523Y-58174419D01*
X243309523Y-58174419D02*
X243271428Y-58250609D01*
X243271428Y-58250609D02*
X243195238Y-58326800D01*
X243195238Y-58326800D02*
X243080952Y-58364895D01*
X243080952Y-58364895D02*
X242890476Y-58364895D01*
X244109523Y-58364895D02*
X243652380Y-58364895D01*
X243880952Y-58364895D02*
X243880952Y-57564895D01*
X243880952Y-57564895D02*
X243804761Y-57679180D01*
X243804761Y-57679180D02*
X243728571Y-57755371D01*
X243728571Y-57755371D02*
X243652380Y-57793466D01*
X244376190Y-57564895D02*
X244871428Y-57564895D01*
X244871428Y-57564895D02*
X244604762Y-57869657D01*
X244604762Y-57869657D02*
X244719047Y-57869657D01*
X244719047Y-57869657D02*
X244795238Y-57907752D01*
X244795238Y-57907752D02*
X244833333Y-57945847D01*
X244833333Y-57945847D02*
X244871428Y-58022038D01*
X244871428Y-58022038D02*
X244871428Y-58212514D01*
X244871428Y-58212514D02*
X244833333Y-58288704D01*
X244833333Y-58288704D02*
X244795238Y-58326800D01*
X244795238Y-58326800D02*
X244719047Y-58364895D01*
X244719047Y-58364895D02*
X244490476Y-58364895D01*
X244490476Y-58364895D02*
X244414285Y-58326800D01*
X244414285Y-58326800D02*
X244376190Y-58288704D01*
X245366667Y-57564895D02*
X245442857Y-57564895D01*
X245442857Y-57564895D02*
X245519048Y-57602990D01*
X245519048Y-57602990D02*
X245557143Y-57641085D01*
X245557143Y-57641085D02*
X245595238Y-57717276D01*
X245595238Y-57717276D02*
X245633333Y-57869657D01*
X245633333Y-57869657D02*
X245633333Y-58060133D01*
X245633333Y-58060133D02*
X245595238Y-58212514D01*
X245595238Y-58212514D02*
X245557143Y-58288704D01*
X245557143Y-58288704D02*
X245519048Y-58326800D01*
X245519048Y-58326800D02*
X245442857Y-58364895D01*
X245442857Y-58364895D02*
X245366667Y-58364895D01*
X245366667Y-58364895D02*
X245290476Y-58326800D01*
X245290476Y-58326800D02*
X245252381Y-58288704D01*
X245252381Y-58288704D02*
X245214286Y-58212514D01*
X245214286Y-58212514D02*
X245176190Y-58060133D01*
X245176190Y-58060133D02*
X245176190Y-57869657D01*
X245176190Y-57869657D02*
X245214286Y-57717276D01*
X245214286Y-57717276D02*
X245252381Y-57641085D01*
X245252381Y-57641085D02*
X245290476Y-57602990D01*
X245290476Y-57602990D02*
X245366667Y-57564895D01*
X246014286Y-58364895D02*
X246166667Y-58364895D01*
X246166667Y-58364895D02*
X246242857Y-58326800D01*
X246242857Y-58326800D02*
X246280953Y-58288704D01*
X246280953Y-58288704D02*
X246357143Y-58174419D01*
X246357143Y-58174419D02*
X246395238Y-58022038D01*
X246395238Y-58022038D02*
X246395238Y-57717276D01*
X246395238Y-57717276D02*
X246357143Y-57641085D01*
X246357143Y-57641085D02*
X246319048Y-57602990D01*
X246319048Y-57602990D02*
X246242857Y-57564895D01*
X246242857Y-57564895D02*
X246090476Y-57564895D01*
X246090476Y-57564895D02*
X246014286Y-57602990D01*
X246014286Y-57602990D02*
X245976191Y-57641085D01*
X245976191Y-57641085D02*
X245938095Y-57717276D01*
X245938095Y-57717276D02*
X245938095Y-57907752D01*
X245938095Y-57907752D02*
X245976191Y-57983942D01*
X245976191Y-57983942D02*
X246014286Y-58022038D01*
X246014286Y-58022038D02*
X246090476Y-58060133D01*
X246090476Y-58060133D02*
X246242857Y-58060133D01*
X246242857Y-58060133D02*
X246319048Y-58022038D01*
X246319048Y-58022038D02*
X246357143Y-57983942D01*
X246357143Y-57983942D02*
X246395238Y-57907752D01*
X246547620Y-58441085D02*
X247157143Y-58441085D01*
X247309524Y-58326800D02*
X247423810Y-58364895D01*
X247423810Y-58364895D02*
X247614286Y-58364895D01*
X247614286Y-58364895D02*
X247690477Y-58326800D01*
X247690477Y-58326800D02*
X247728572Y-58288704D01*
X247728572Y-58288704D02*
X247766667Y-58212514D01*
X247766667Y-58212514D02*
X247766667Y-58136323D01*
X247766667Y-58136323D02*
X247728572Y-58060133D01*
X247728572Y-58060133D02*
X247690477Y-58022038D01*
X247690477Y-58022038D02*
X247614286Y-57983942D01*
X247614286Y-57983942D02*
X247461905Y-57945847D01*
X247461905Y-57945847D02*
X247385715Y-57907752D01*
X247385715Y-57907752D02*
X247347620Y-57869657D01*
X247347620Y-57869657D02*
X247309524Y-57793466D01*
X247309524Y-57793466D02*
X247309524Y-57717276D01*
X247309524Y-57717276D02*
X247347620Y-57641085D01*
X247347620Y-57641085D02*
X247385715Y-57602990D01*
X247385715Y-57602990D02*
X247461905Y-57564895D01*
X247461905Y-57564895D02*
X247652382Y-57564895D01*
X247652382Y-57564895D02*
X247766667Y-57602990D01*
X248109525Y-58364895D02*
X248109525Y-57564895D01*
X248109525Y-57564895D02*
X248414287Y-57564895D01*
X248414287Y-57564895D02*
X248490477Y-57602990D01*
X248490477Y-57602990D02*
X248528572Y-57641085D01*
X248528572Y-57641085D02*
X248566668Y-57717276D01*
X248566668Y-57717276D02*
X248566668Y-57831561D01*
X248566668Y-57831561D02*
X248528572Y-57907752D01*
X248528572Y-57907752D02*
X248490477Y-57945847D01*
X248490477Y-57945847D02*
X248414287Y-57983942D01*
X248414287Y-57983942D02*
X248109525Y-57983942D01*
X248909525Y-58364895D02*
X248909525Y-57564895D01*
X238371429Y-75364895D02*
X238104762Y-74983942D01*
X237914286Y-75364895D02*
X237914286Y-74564895D01*
X237914286Y-74564895D02*
X238219048Y-74564895D01*
X238219048Y-74564895D02*
X238295238Y-74602990D01*
X238295238Y-74602990D02*
X238333333Y-74641085D01*
X238333333Y-74641085D02*
X238371429Y-74717276D01*
X238371429Y-74717276D02*
X238371429Y-74831561D01*
X238371429Y-74831561D02*
X238333333Y-74907752D01*
X238333333Y-74907752D02*
X238295238Y-74945847D01*
X238295238Y-74945847D02*
X238219048Y-74983942D01*
X238219048Y-74983942D02*
X237914286Y-74983942D01*
X238866667Y-74564895D02*
X239019048Y-74564895D01*
X239019048Y-74564895D02*
X239095238Y-74602990D01*
X239095238Y-74602990D02*
X239171429Y-74679180D01*
X239171429Y-74679180D02*
X239209524Y-74831561D01*
X239209524Y-74831561D02*
X239209524Y-75098228D01*
X239209524Y-75098228D02*
X239171429Y-75250609D01*
X239171429Y-75250609D02*
X239095238Y-75326800D01*
X239095238Y-75326800D02*
X239019048Y-75364895D01*
X239019048Y-75364895D02*
X238866667Y-75364895D01*
X238866667Y-75364895D02*
X238790476Y-75326800D01*
X238790476Y-75326800D02*
X238714286Y-75250609D01*
X238714286Y-75250609D02*
X238676190Y-75098228D01*
X238676190Y-75098228D02*
X238676190Y-74831561D01*
X238676190Y-74831561D02*
X238714286Y-74679180D01*
X238714286Y-74679180D02*
X238790476Y-74602990D01*
X238790476Y-74602990D02*
X238866667Y-74564895D01*
X239438095Y-74564895D02*
X239895238Y-74564895D01*
X239666666Y-75364895D02*
X239666666Y-74564895D01*
X240123809Y-75136323D02*
X240504762Y-75136323D01*
X240047619Y-75364895D02*
X240314286Y-74564895D01*
X240314286Y-74564895D02*
X240580952Y-75364895D01*
X241304762Y-75364895D02*
X241038095Y-74983942D01*
X240847619Y-75364895D02*
X240847619Y-74564895D01*
X240847619Y-74564895D02*
X241152381Y-74564895D01*
X241152381Y-74564895D02*
X241228571Y-74602990D01*
X241228571Y-74602990D02*
X241266666Y-74641085D01*
X241266666Y-74641085D02*
X241304762Y-74717276D01*
X241304762Y-74717276D02*
X241304762Y-74831561D01*
X241304762Y-74831561D02*
X241266666Y-74907752D01*
X241266666Y-74907752D02*
X241228571Y-74945847D01*
X241228571Y-74945847D02*
X241152381Y-74983942D01*
X241152381Y-74983942D02*
X240847619Y-74983942D01*
X241800000Y-74983942D02*
X241800000Y-75364895D01*
X241533333Y-74564895D02*
X241800000Y-74983942D01*
X241800000Y-74983942D02*
X242066666Y-74564895D01*
X242142857Y-75441085D02*
X242752380Y-75441085D01*
X242942857Y-74945847D02*
X243209523Y-74945847D01*
X243323809Y-75364895D02*
X242942857Y-75364895D01*
X242942857Y-75364895D02*
X242942857Y-74564895D01*
X242942857Y-74564895D02*
X243323809Y-74564895D01*
X243666667Y-75364895D02*
X243666667Y-74564895D01*
X243666667Y-74564895D02*
X244123810Y-75364895D01*
X244123810Y-75364895D02*
X244123810Y-74564895D01*
X244961905Y-75288704D02*
X244923809Y-75326800D01*
X244923809Y-75326800D02*
X244809524Y-75364895D01*
X244809524Y-75364895D02*
X244733333Y-75364895D01*
X244733333Y-75364895D02*
X244619047Y-75326800D01*
X244619047Y-75326800D02*
X244542857Y-75250609D01*
X244542857Y-75250609D02*
X244504762Y-75174419D01*
X244504762Y-75174419D02*
X244466666Y-75022038D01*
X244466666Y-75022038D02*
X244466666Y-74907752D01*
X244466666Y-74907752D02*
X244504762Y-74755371D01*
X244504762Y-74755371D02*
X244542857Y-74679180D01*
X244542857Y-74679180D02*
X244619047Y-74602990D01*
X244619047Y-74602990D02*
X244733333Y-74564895D01*
X244733333Y-74564895D02*
X244809524Y-74564895D01*
X244809524Y-74564895D02*
X244923809Y-74602990D01*
X244923809Y-74602990D02*
X244961905Y-74641085D01*
X245457143Y-74564895D02*
X245609524Y-74564895D01*
X245609524Y-74564895D02*
X245685714Y-74602990D01*
X245685714Y-74602990D02*
X245761905Y-74679180D01*
X245761905Y-74679180D02*
X245800000Y-74831561D01*
X245800000Y-74831561D02*
X245800000Y-75098228D01*
X245800000Y-75098228D02*
X245761905Y-75250609D01*
X245761905Y-75250609D02*
X245685714Y-75326800D01*
X245685714Y-75326800D02*
X245609524Y-75364895D01*
X245609524Y-75364895D02*
X245457143Y-75364895D01*
X245457143Y-75364895D02*
X245380952Y-75326800D01*
X245380952Y-75326800D02*
X245304762Y-75250609D01*
X245304762Y-75250609D02*
X245266666Y-75098228D01*
X245266666Y-75098228D02*
X245266666Y-74831561D01*
X245266666Y-74831561D02*
X245304762Y-74679180D01*
X245304762Y-74679180D02*
X245380952Y-74602990D01*
X245380952Y-74602990D02*
X245457143Y-74564895D01*
X246142857Y-75364895D02*
X246142857Y-74564895D01*
X246142857Y-74564895D02*
X246333333Y-74564895D01*
X246333333Y-74564895D02*
X246447619Y-74602990D01*
X246447619Y-74602990D02*
X246523809Y-74679180D01*
X246523809Y-74679180D02*
X246561904Y-74755371D01*
X246561904Y-74755371D02*
X246600000Y-74907752D01*
X246600000Y-74907752D02*
X246600000Y-75022038D01*
X246600000Y-75022038D02*
X246561904Y-75174419D01*
X246561904Y-75174419D02*
X246523809Y-75250609D01*
X246523809Y-75250609D02*
X246447619Y-75326800D01*
X246447619Y-75326800D02*
X246333333Y-75364895D01*
X246333333Y-75364895D02*
X246142857Y-75364895D01*
X246942857Y-74945847D02*
X247209523Y-74945847D01*
X247323809Y-75364895D02*
X246942857Y-75364895D01*
X246942857Y-75364895D02*
X246942857Y-74564895D01*
X246942857Y-74564895D02*
X247323809Y-74564895D01*
X248123810Y-75364895D02*
X247857143Y-74983942D01*
X247666667Y-75364895D02*
X247666667Y-74564895D01*
X247666667Y-74564895D02*
X247971429Y-74564895D01*
X247971429Y-74564895D02*
X248047619Y-74602990D01*
X248047619Y-74602990D02*
X248085714Y-74641085D01*
X248085714Y-74641085D02*
X248123810Y-74717276D01*
X248123810Y-74717276D02*
X248123810Y-74831561D01*
X248123810Y-74831561D02*
X248085714Y-74907752D01*
X248085714Y-74907752D02*
X248047619Y-74945847D01*
X248047619Y-74945847D02*
X247971429Y-74983942D01*
X247971429Y-74983942D02*
X247666667Y-74983942D01*
X238733334Y-91564895D02*
X238733334Y-92212514D01*
X238733334Y-92212514D02*
X238771429Y-92288704D01*
X238771429Y-92288704D02*
X238809524Y-92326800D01*
X238809524Y-92326800D02*
X238885715Y-92364895D01*
X238885715Y-92364895D02*
X239038096Y-92364895D01*
X239038096Y-92364895D02*
X239114286Y-92326800D01*
X239114286Y-92326800D02*
X239152381Y-92288704D01*
X239152381Y-92288704D02*
X239190477Y-92212514D01*
X239190477Y-92212514D02*
X239190477Y-91564895D01*
X239533333Y-92136323D02*
X239914286Y-92136323D01*
X239457143Y-92364895D02*
X239723810Y-91564895D01*
X239723810Y-91564895D02*
X239990476Y-92364895D01*
X240714286Y-92364895D02*
X240447619Y-91983942D01*
X240257143Y-92364895D02*
X240257143Y-91564895D01*
X240257143Y-91564895D02*
X240561905Y-91564895D01*
X240561905Y-91564895D02*
X240638095Y-91602990D01*
X240638095Y-91602990D02*
X240676190Y-91641085D01*
X240676190Y-91641085D02*
X240714286Y-91717276D01*
X240714286Y-91717276D02*
X240714286Y-91831561D01*
X240714286Y-91831561D02*
X240676190Y-91907752D01*
X240676190Y-91907752D02*
X240638095Y-91945847D01*
X240638095Y-91945847D02*
X240561905Y-91983942D01*
X240561905Y-91983942D02*
X240257143Y-91983942D01*
X240942857Y-91564895D02*
X241400000Y-91564895D01*
X241171428Y-92364895D02*
X241171428Y-91564895D01*
X241476191Y-92441085D02*
X242085714Y-92441085D01*
X242733334Y-92288704D02*
X242695238Y-92326800D01*
X242695238Y-92326800D02*
X242580953Y-92364895D01*
X242580953Y-92364895D02*
X242504762Y-92364895D01*
X242504762Y-92364895D02*
X242390476Y-92326800D01*
X242390476Y-92326800D02*
X242314286Y-92250609D01*
X242314286Y-92250609D02*
X242276191Y-92174419D01*
X242276191Y-92174419D02*
X242238095Y-92022038D01*
X242238095Y-92022038D02*
X242238095Y-91907752D01*
X242238095Y-91907752D02*
X242276191Y-91755371D01*
X242276191Y-91755371D02*
X242314286Y-91679180D01*
X242314286Y-91679180D02*
X242390476Y-91602990D01*
X242390476Y-91602990D02*
X242504762Y-91564895D01*
X242504762Y-91564895D02*
X242580953Y-91564895D01*
X242580953Y-91564895D02*
X242695238Y-91602990D01*
X242695238Y-91602990D02*
X242733334Y-91641085D01*
X243228572Y-91564895D02*
X243380953Y-91564895D01*
X243380953Y-91564895D02*
X243457143Y-91602990D01*
X243457143Y-91602990D02*
X243533334Y-91679180D01*
X243533334Y-91679180D02*
X243571429Y-91831561D01*
X243571429Y-91831561D02*
X243571429Y-92098228D01*
X243571429Y-92098228D02*
X243533334Y-92250609D01*
X243533334Y-92250609D02*
X243457143Y-92326800D01*
X243457143Y-92326800D02*
X243380953Y-92364895D01*
X243380953Y-92364895D02*
X243228572Y-92364895D01*
X243228572Y-92364895D02*
X243152381Y-92326800D01*
X243152381Y-92326800D02*
X243076191Y-92250609D01*
X243076191Y-92250609D02*
X243038095Y-92098228D01*
X243038095Y-92098228D02*
X243038095Y-91831561D01*
X243038095Y-91831561D02*
X243076191Y-91679180D01*
X243076191Y-91679180D02*
X243152381Y-91602990D01*
X243152381Y-91602990D02*
X243228572Y-91564895D01*
X243914286Y-92364895D02*
X243914286Y-91564895D01*
X243914286Y-91564895D02*
X244371429Y-92364895D01*
X244371429Y-92364895D02*
X244371429Y-91564895D01*
X244638095Y-91564895D02*
X245095238Y-91564895D01*
X244866666Y-92364895D02*
X244866666Y-91564895D01*
X245819048Y-92364895D02*
X245552381Y-91983942D01*
X245361905Y-92364895D02*
X245361905Y-91564895D01*
X245361905Y-91564895D02*
X245666667Y-91564895D01*
X245666667Y-91564895D02*
X245742857Y-91602990D01*
X245742857Y-91602990D02*
X245780952Y-91641085D01*
X245780952Y-91641085D02*
X245819048Y-91717276D01*
X245819048Y-91717276D02*
X245819048Y-91831561D01*
X245819048Y-91831561D02*
X245780952Y-91907752D01*
X245780952Y-91907752D02*
X245742857Y-91945847D01*
X245742857Y-91945847D02*
X245666667Y-91983942D01*
X245666667Y-91983942D02*
X245361905Y-91983942D01*
X246314286Y-91564895D02*
X246466667Y-91564895D01*
X246466667Y-91564895D02*
X246542857Y-91602990D01*
X246542857Y-91602990D02*
X246619048Y-91679180D01*
X246619048Y-91679180D02*
X246657143Y-91831561D01*
X246657143Y-91831561D02*
X246657143Y-92098228D01*
X246657143Y-92098228D02*
X246619048Y-92250609D01*
X246619048Y-92250609D02*
X246542857Y-92326800D01*
X246542857Y-92326800D02*
X246466667Y-92364895D01*
X246466667Y-92364895D02*
X246314286Y-92364895D01*
X246314286Y-92364895D02*
X246238095Y-92326800D01*
X246238095Y-92326800D02*
X246161905Y-92250609D01*
X246161905Y-92250609D02*
X246123809Y-92098228D01*
X246123809Y-92098228D02*
X246123809Y-91831561D01*
X246123809Y-91831561D02*
X246161905Y-91679180D01*
X246161905Y-91679180D02*
X246238095Y-91602990D01*
X246238095Y-91602990D02*
X246314286Y-91564895D01*
X247380952Y-92364895D02*
X247000000Y-92364895D01*
X247000000Y-92364895D02*
X247000000Y-91564895D01*
D10*
X114921428Y-134510507D02*
X115435714Y-134510507D01*
X115178571Y-135410507D02*
X115178571Y-134510507D01*
X115735713Y-135410507D02*
X115735713Y-134510507D01*
X115735713Y-134510507D02*
X116078570Y-134510507D01*
X116078570Y-134510507D02*
X116164285Y-134553364D01*
X116164285Y-134553364D02*
X116207142Y-134596221D01*
X116207142Y-134596221D02*
X116249999Y-134681935D01*
X116249999Y-134681935D02*
X116249999Y-134810507D01*
X116249999Y-134810507D02*
X116207142Y-134896221D01*
X116207142Y-134896221D02*
X116164285Y-134939078D01*
X116164285Y-134939078D02*
X116078570Y-134981935D01*
X116078570Y-134981935D02*
X115735713Y-134981935D01*
X116592856Y-135153364D02*
X117021428Y-135153364D01*
X116507142Y-135410507D02*
X116807142Y-134510507D01*
X116807142Y-134510507D02*
X117107142Y-135410507D01*
X117321428Y-134510507D02*
X117878571Y-134510507D01*
X117878571Y-134510507D02*
X117578571Y-134853364D01*
X117578571Y-134853364D02*
X117707142Y-134853364D01*
X117707142Y-134853364D02*
X117792857Y-134896221D01*
X117792857Y-134896221D02*
X117835714Y-134939078D01*
X117835714Y-134939078D02*
X117878571Y-135024792D01*
X117878571Y-135024792D02*
X117878571Y-135239078D01*
X117878571Y-135239078D02*
X117835714Y-135324792D01*
X117835714Y-135324792D02*
X117792857Y-135367650D01*
X117792857Y-135367650D02*
X117707142Y-135410507D01*
X117707142Y-135410507D02*
X117449999Y-135410507D01*
X117449999Y-135410507D02*
X117364285Y-135367650D01*
X117364285Y-135367650D02*
X117321428Y-135324792D01*
X118735714Y-135410507D02*
X118221428Y-135410507D01*
X118478571Y-135410507D02*
X118478571Y-134510507D01*
X118478571Y-134510507D02*
X118392857Y-134639078D01*
X118392857Y-134639078D02*
X118307142Y-134724792D01*
X118307142Y-134724792D02*
X118221428Y-134767650D01*
X119592857Y-135410507D02*
X119078571Y-135410507D01*
X119335714Y-135410507D02*
X119335714Y-134510507D01*
X119335714Y-134510507D02*
X119250000Y-134639078D01*
X119250000Y-134639078D02*
X119164285Y-134724792D01*
X119164285Y-134724792D02*
X119078571Y-134767650D01*
X120364286Y-134510507D02*
X120192857Y-134510507D01*
X120192857Y-134510507D02*
X120107143Y-134553364D01*
X120107143Y-134553364D02*
X120064286Y-134596221D01*
X120064286Y-134596221D02*
X119978571Y-134724792D01*
X119978571Y-134724792D02*
X119935714Y-134896221D01*
X119935714Y-134896221D02*
X119935714Y-135239078D01*
X119935714Y-135239078D02*
X119978571Y-135324792D01*
X119978571Y-135324792D02*
X120021428Y-135367650D01*
X120021428Y-135367650D02*
X120107143Y-135410507D01*
X120107143Y-135410507D02*
X120278571Y-135410507D01*
X120278571Y-135410507D02*
X120364286Y-135367650D01*
X120364286Y-135367650D02*
X120407143Y-135324792D01*
X120407143Y-135324792D02*
X120450000Y-135239078D01*
X120450000Y-135239078D02*
X120450000Y-135024792D01*
X120450000Y-135024792D02*
X120407143Y-134939078D01*
X120407143Y-134939078D02*
X120364286Y-134896221D01*
X120364286Y-134896221D02*
X120278571Y-134853364D01*
X120278571Y-134853364D02*
X120107143Y-134853364D01*
X120107143Y-134853364D02*
X120021428Y-134896221D01*
X120021428Y-134896221D02*
X119978571Y-134939078D01*
X119978571Y-134939078D02*
X119935714Y-135024792D01*
X120621429Y-135496221D02*
X121307143Y-135496221D01*
X121821428Y-134939078D02*
X121521428Y-134939078D01*
X121521428Y-135410507D02*
X121521428Y-134510507D01*
X121521428Y-134510507D02*
X121950000Y-134510507D01*
X122721429Y-135410507D02*
X122292857Y-135410507D01*
X122292857Y-135410507D02*
X122292857Y-134510507D01*
X122807143Y-135496221D02*
X123492857Y-135496221D01*
X124007142Y-134939078D02*
X123707142Y-134939078D01*
X123707142Y-135410507D02*
X123707142Y-134510507D01*
X123707142Y-134510507D02*
X124135714Y-134510507D01*
X124992857Y-135410507D02*
X124692857Y-134981935D01*
X124478571Y-135410507D02*
X124478571Y-134510507D01*
X124478571Y-134510507D02*
X124821428Y-134510507D01*
X124821428Y-134510507D02*
X124907143Y-134553364D01*
X124907143Y-134553364D02*
X124950000Y-134596221D01*
X124950000Y-134596221D02*
X124992857Y-134681935D01*
X124992857Y-134681935D02*
X124992857Y-134810507D01*
X124992857Y-134810507D02*
X124950000Y-134896221D01*
X124950000Y-134896221D02*
X124907143Y-134939078D01*
X124907143Y-134939078D02*
X124821428Y-134981935D01*
X124821428Y-134981935D02*
X124478571Y-134981935D01*
X144835714Y-134510507D02*
X145350000Y-134510507D01*
X145092857Y-135410507D02*
X145092857Y-134510507D01*
X145649999Y-135410507D02*
X145649999Y-134510507D01*
X145649999Y-134510507D02*
X145992856Y-134510507D01*
X145992856Y-134510507D02*
X146078571Y-134553364D01*
X146078571Y-134553364D02*
X146121428Y-134596221D01*
X146121428Y-134596221D02*
X146164285Y-134681935D01*
X146164285Y-134681935D02*
X146164285Y-134810507D01*
X146164285Y-134810507D02*
X146121428Y-134896221D01*
X146121428Y-134896221D02*
X146078571Y-134939078D01*
X146078571Y-134939078D02*
X145992856Y-134981935D01*
X145992856Y-134981935D02*
X145649999Y-134981935D01*
X146507142Y-135153364D02*
X146935714Y-135153364D01*
X146421428Y-135410507D02*
X146721428Y-134510507D01*
X146721428Y-134510507D02*
X147021428Y-135410507D01*
X147235714Y-134510507D02*
X147792857Y-134510507D01*
X147792857Y-134510507D02*
X147492857Y-134853364D01*
X147492857Y-134853364D02*
X147621428Y-134853364D01*
X147621428Y-134853364D02*
X147707143Y-134896221D01*
X147707143Y-134896221D02*
X147750000Y-134939078D01*
X147750000Y-134939078D02*
X147792857Y-135024792D01*
X147792857Y-135024792D02*
X147792857Y-135239078D01*
X147792857Y-135239078D02*
X147750000Y-135324792D01*
X147750000Y-135324792D02*
X147707143Y-135367650D01*
X147707143Y-135367650D02*
X147621428Y-135410507D01*
X147621428Y-135410507D02*
X147364285Y-135410507D01*
X147364285Y-135410507D02*
X147278571Y-135367650D01*
X147278571Y-135367650D02*
X147235714Y-135324792D01*
X148650000Y-135410507D02*
X148135714Y-135410507D01*
X148392857Y-135410507D02*
X148392857Y-134510507D01*
X148392857Y-134510507D02*
X148307143Y-134639078D01*
X148307143Y-134639078D02*
X148221428Y-134724792D01*
X148221428Y-134724792D02*
X148135714Y-134767650D01*
X149507143Y-135410507D02*
X148992857Y-135410507D01*
X149250000Y-135410507D02*
X149250000Y-134510507D01*
X149250000Y-134510507D02*
X149164286Y-134639078D01*
X149164286Y-134639078D02*
X149078571Y-134724792D01*
X149078571Y-134724792D02*
X148992857Y-134767650D01*
X150278572Y-134510507D02*
X150107143Y-134510507D01*
X150107143Y-134510507D02*
X150021429Y-134553364D01*
X150021429Y-134553364D02*
X149978572Y-134596221D01*
X149978572Y-134596221D02*
X149892857Y-134724792D01*
X149892857Y-134724792D02*
X149850000Y-134896221D01*
X149850000Y-134896221D02*
X149850000Y-135239078D01*
X149850000Y-135239078D02*
X149892857Y-135324792D01*
X149892857Y-135324792D02*
X149935714Y-135367650D01*
X149935714Y-135367650D02*
X150021429Y-135410507D01*
X150021429Y-135410507D02*
X150192857Y-135410507D01*
X150192857Y-135410507D02*
X150278572Y-135367650D01*
X150278572Y-135367650D02*
X150321429Y-135324792D01*
X150321429Y-135324792D02*
X150364286Y-135239078D01*
X150364286Y-135239078D02*
X150364286Y-135024792D01*
X150364286Y-135024792D02*
X150321429Y-134939078D01*
X150321429Y-134939078D02*
X150278572Y-134896221D01*
X150278572Y-134896221D02*
X150192857Y-134853364D01*
X150192857Y-134853364D02*
X150021429Y-134853364D01*
X150021429Y-134853364D02*
X149935714Y-134896221D01*
X149935714Y-134896221D02*
X149892857Y-134939078D01*
X149892857Y-134939078D02*
X149850000Y-135024792D01*
X150535715Y-135496221D02*
X151221429Y-135496221D01*
X151392857Y-135367650D02*
X151521429Y-135410507D01*
X151521429Y-135410507D02*
X151735714Y-135410507D01*
X151735714Y-135410507D02*
X151821429Y-135367650D01*
X151821429Y-135367650D02*
X151864286Y-135324792D01*
X151864286Y-135324792D02*
X151907143Y-135239078D01*
X151907143Y-135239078D02*
X151907143Y-135153364D01*
X151907143Y-135153364D02*
X151864286Y-135067650D01*
X151864286Y-135067650D02*
X151821429Y-135024792D01*
X151821429Y-135024792D02*
X151735714Y-134981935D01*
X151735714Y-134981935D02*
X151564286Y-134939078D01*
X151564286Y-134939078D02*
X151478571Y-134896221D01*
X151478571Y-134896221D02*
X151435714Y-134853364D01*
X151435714Y-134853364D02*
X151392857Y-134767650D01*
X151392857Y-134767650D02*
X151392857Y-134681935D01*
X151392857Y-134681935D02*
X151435714Y-134596221D01*
X151435714Y-134596221D02*
X151478571Y-134553364D01*
X151478571Y-134553364D02*
X151564286Y-134510507D01*
X151564286Y-134510507D02*
X151778571Y-134510507D01*
X151778571Y-134510507D02*
X151907143Y-134553364D01*
X152721429Y-135410507D02*
X152292857Y-135410507D01*
X152292857Y-135410507D02*
X152292857Y-134510507D01*
X152807143Y-135496221D02*
X153492857Y-135496221D01*
X153664285Y-135367650D02*
X153792857Y-135410507D01*
X153792857Y-135410507D02*
X154007142Y-135410507D01*
X154007142Y-135410507D02*
X154092857Y-135367650D01*
X154092857Y-135367650D02*
X154135714Y-135324792D01*
X154135714Y-135324792D02*
X154178571Y-135239078D01*
X154178571Y-135239078D02*
X154178571Y-135153364D01*
X154178571Y-135153364D02*
X154135714Y-135067650D01*
X154135714Y-135067650D02*
X154092857Y-135024792D01*
X154092857Y-135024792D02*
X154007142Y-134981935D01*
X154007142Y-134981935D02*
X153835714Y-134939078D01*
X153835714Y-134939078D02*
X153749999Y-134896221D01*
X153749999Y-134896221D02*
X153707142Y-134853364D01*
X153707142Y-134853364D02*
X153664285Y-134767650D01*
X153664285Y-134767650D02*
X153664285Y-134681935D01*
X153664285Y-134681935D02*
X153707142Y-134596221D01*
X153707142Y-134596221D02*
X153749999Y-134553364D01*
X153749999Y-134553364D02*
X153835714Y-134510507D01*
X153835714Y-134510507D02*
X154049999Y-134510507D01*
X154049999Y-134510507D02*
X154178571Y-134553364D01*
X155078571Y-135410507D02*
X154778571Y-134981935D01*
X154564285Y-135410507D02*
X154564285Y-134510507D01*
X154564285Y-134510507D02*
X154907142Y-134510507D01*
X154907142Y-134510507D02*
X154992857Y-134553364D01*
X154992857Y-134553364D02*
X155035714Y-134596221D01*
X155035714Y-134596221D02*
X155078571Y-134681935D01*
X155078571Y-134681935D02*
X155078571Y-134810507D01*
X155078571Y-134810507D02*
X155035714Y-134896221D01*
X155035714Y-134896221D02*
X154992857Y-134939078D01*
X154992857Y-134939078D02*
X154907142Y-134981935D01*
X154907142Y-134981935D02*
X154564285Y-134981935D01*
X174707143Y-134510507D02*
X175221429Y-134510507D01*
X174964286Y-135410507D02*
X174964286Y-134510507D01*
X175521428Y-135410507D02*
X175521428Y-134510507D01*
X175521428Y-134510507D02*
X175864285Y-134510507D01*
X175864285Y-134510507D02*
X175950000Y-134553364D01*
X175950000Y-134553364D02*
X175992857Y-134596221D01*
X175992857Y-134596221D02*
X176035714Y-134681935D01*
X176035714Y-134681935D02*
X176035714Y-134810507D01*
X176035714Y-134810507D02*
X175992857Y-134896221D01*
X175992857Y-134896221D02*
X175950000Y-134939078D01*
X175950000Y-134939078D02*
X175864285Y-134981935D01*
X175864285Y-134981935D02*
X175521428Y-134981935D01*
X176378571Y-135153364D02*
X176807143Y-135153364D01*
X176292857Y-135410507D02*
X176592857Y-134510507D01*
X176592857Y-134510507D02*
X176892857Y-135410507D01*
X177107143Y-134510507D02*
X177664286Y-134510507D01*
X177664286Y-134510507D02*
X177364286Y-134853364D01*
X177364286Y-134853364D02*
X177492857Y-134853364D01*
X177492857Y-134853364D02*
X177578572Y-134896221D01*
X177578572Y-134896221D02*
X177621429Y-134939078D01*
X177621429Y-134939078D02*
X177664286Y-135024792D01*
X177664286Y-135024792D02*
X177664286Y-135239078D01*
X177664286Y-135239078D02*
X177621429Y-135324792D01*
X177621429Y-135324792D02*
X177578572Y-135367650D01*
X177578572Y-135367650D02*
X177492857Y-135410507D01*
X177492857Y-135410507D02*
X177235714Y-135410507D01*
X177235714Y-135410507D02*
X177150000Y-135367650D01*
X177150000Y-135367650D02*
X177107143Y-135324792D01*
X178521429Y-135410507D02*
X178007143Y-135410507D01*
X178264286Y-135410507D02*
X178264286Y-134510507D01*
X178264286Y-134510507D02*
X178178572Y-134639078D01*
X178178572Y-134639078D02*
X178092857Y-134724792D01*
X178092857Y-134724792D02*
X178007143Y-134767650D01*
X179378572Y-135410507D02*
X178864286Y-135410507D01*
X179121429Y-135410507D02*
X179121429Y-134510507D01*
X179121429Y-134510507D02*
X179035715Y-134639078D01*
X179035715Y-134639078D02*
X178950000Y-134724792D01*
X178950000Y-134724792D02*
X178864286Y-134767650D01*
X180150001Y-134510507D02*
X179978572Y-134510507D01*
X179978572Y-134510507D02*
X179892858Y-134553364D01*
X179892858Y-134553364D02*
X179850001Y-134596221D01*
X179850001Y-134596221D02*
X179764286Y-134724792D01*
X179764286Y-134724792D02*
X179721429Y-134896221D01*
X179721429Y-134896221D02*
X179721429Y-135239078D01*
X179721429Y-135239078D02*
X179764286Y-135324792D01*
X179764286Y-135324792D02*
X179807143Y-135367650D01*
X179807143Y-135367650D02*
X179892858Y-135410507D01*
X179892858Y-135410507D02*
X180064286Y-135410507D01*
X180064286Y-135410507D02*
X180150001Y-135367650D01*
X180150001Y-135367650D02*
X180192858Y-135324792D01*
X180192858Y-135324792D02*
X180235715Y-135239078D01*
X180235715Y-135239078D02*
X180235715Y-135024792D01*
X180235715Y-135024792D02*
X180192858Y-134939078D01*
X180192858Y-134939078D02*
X180150001Y-134896221D01*
X180150001Y-134896221D02*
X180064286Y-134853364D01*
X180064286Y-134853364D02*
X179892858Y-134853364D01*
X179892858Y-134853364D02*
X179807143Y-134896221D01*
X179807143Y-134896221D02*
X179764286Y-134939078D01*
X179764286Y-134939078D02*
X179721429Y-135024792D01*
X180407144Y-135496221D02*
X181092858Y-135496221D01*
X181821429Y-135324792D02*
X181778572Y-135367650D01*
X181778572Y-135367650D02*
X181650000Y-135410507D01*
X181650000Y-135410507D02*
X181564286Y-135410507D01*
X181564286Y-135410507D02*
X181435715Y-135367650D01*
X181435715Y-135367650D02*
X181350000Y-135281935D01*
X181350000Y-135281935D02*
X181307143Y-135196221D01*
X181307143Y-135196221D02*
X181264286Y-135024792D01*
X181264286Y-135024792D02*
X181264286Y-134896221D01*
X181264286Y-134896221D02*
X181307143Y-134724792D01*
X181307143Y-134724792D02*
X181350000Y-134639078D01*
X181350000Y-134639078D02*
X181435715Y-134553364D01*
X181435715Y-134553364D02*
X181564286Y-134510507D01*
X181564286Y-134510507D02*
X181650000Y-134510507D01*
X181650000Y-134510507D02*
X181778572Y-134553364D01*
X181778572Y-134553364D02*
X181821429Y-134596221D01*
X181992858Y-135496221D02*
X182678572Y-135496221D01*
X182850000Y-135367650D02*
X182978572Y-135410507D01*
X182978572Y-135410507D02*
X183192857Y-135410507D01*
X183192857Y-135410507D02*
X183278572Y-135367650D01*
X183278572Y-135367650D02*
X183321429Y-135324792D01*
X183321429Y-135324792D02*
X183364286Y-135239078D01*
X183364286Y-135239078D02*
X183364286Y-135153364D01*
X183364286Y-135153364D02*
X183321429Y-135067650D01*
X183321429Y-135067650D02*
X183278572Y-135024792D01*
X183278572Y-135024792D02*
X183192857Y-134981935D01*
X183192857Y-134981935D02*
X183021429Y-134939078D01*
X183021429Y-134939078D02*
X182935714Y-134896221D01*
X182935714Y-134896221D02*
X182892857Y-134853364D01*
X182892857Y-134853364D02*
X182850000Y-134767650D01*
X182850000Y-134767650D02*
X182850000Y-134681935D01*
X182850000Y-134681935D02*
X182892857Y-134596221D01*
X182892857Y-134596221D02*
X182935714Y-134553364D01*
X182935714Y-134553364D02*
X183021429Y-134510507D01*
X183021429Y-134510507D02*
X183235714Y-134510507D01*
X183235714Y-134510507D02*
X183364286Y-134553364D01*
X183750000Y-134510507D02*
X183750000Y-135239078D01*
X183750000Y-135239078D02*
X183792857Y-135324792D01*
X183792857Y-135324792D02*
X183835715Y-135367650D01*
X183835715Y-135367650D02*
X183921429Y-135410507D01*
X183921429Y-135410507D02*
X184092857Y-135410507D01*
X184092857Y-135410507D02*
X184178572Y-135367650D01*
X184178572Y-135367650D02*
X184221429Y-135324792D01*
X184221429Y-135324792D02*
X184264286Y-135239078D01*
X184264286Y-135239078D02*
X184264286Y-134510507D01*
X184992857Y-134939078D02*
X185121429Y-134981935D01*
X185121429Y-134981935D02*
X185164286Y-135024792D01*
X185164286Y-135024792D02*
X185207143Y-135110507D01*
X185207143Y-135110507D02*
X185207143Y-135239078D01*
X185207143Y-135239078D02*
X185164286Y-135324792D01*
X185164286Y-135324792D02*
X185121429Y-135367650D01*
X185121429Y-135367650D02*
X185035714Y-135410507D01*
X185035714Y-135410507D02*
X184692857Y-135410507D01*
X184692857Y-135410507D02*
X184692857Y-134510507D01*
X184692857Y-134510507D02*
X184992857Y-134510507D01*
X184992857Y-134510507D02*
X185078572Y-134553364D01*
X185078572Y-134553364D02*
X185121429Y-134596221D01*
X185121429Y-134596221D02*
X185164286Y-134681935D01*
X185164286Y-134681935D02*
X185164286Y-134767650D01*
X185164286Y-134767650D02*
X185121429Y-134853364D01*
X185121429Y-134853364D02*
X185078572Y-134896221D01*
X185078572Y-134896221D02*
X184992857Y-134939078D01*
X184992857Y-134939078D02*
X184692857Y-134939078D01*
X203564285Y-128410507D02*
X203264285Y-127981935D01*
X203049999Y-128410507D02*
X203049999Y-127510507D01*
X203049999Y-127510507D02*
X203392856Y-127510507D01*
X203392856Y-127510507D02*
X203478571Y-127553364D01*
X203478571Y-127553364D02*
X203521428Y-127596221D01*
X203521428Y-127596221D02*
X203564285Y-127681935D01*
X203564285Y-127681935D02*
X203564285Y-127810507D01*
X203564285Y-127810507D02*
X203521428Y-127896221D01*
X203521428Y-127896221D02*
X203478571Y-127939078D01*
X203478571Y-127939078D02*
X203392856Y-127981935D01*
X203392856Y-127981935D02*
X203049999Y-127981935D01*
X203949999Y-127939078D02*
X204249999Y-127939078D01*
X204378571Y-128410507D02*
X203949999Y-128410507D01*
X203949999Y-128410507D02*
X203949999Y-127510507D01*
X203949999Y-127510507D02*
X204378571Y-127510507D01*
X205192857Y-128410507D02*
X204764285Y-128410507D01*
X204764285Y-128410507D02*
X204764285Y-127510507D01*
X205449999Y-128153364D02*
X205878571Y-128153364D01*
X205364285Y-128410507D02*
X205664285Y-127510507D01*
X205664285Y-127510507D02*
X205964285Y-128410507D01*
X206435714Y-127981935D02*
X206435714Y-128410507D01*
X206135714Y-127510507D02*
X206435714Y-127981935D01*
X206435714Y-127981935D02*
X206735714Y-127510507D01*
X206821429Y-128496221D02*
X207507143Y-128496221D01*
X208192857Y-128410507D02*
X207678571Y-128410507D01*
X207935714Y-128410507D02*
X207935714Y-127510507D01*
X207935714Y-127510507D02*
X207850000Y-127639078D01*
X207850000Y-127639078D02*
X207764285Y-127724792D01*
X207764285Y-127724792D02*
X207678571Y-127767650D01*
X208750000Y-127510507D02*
X208835714Y-127510507D01*
X208835714Y-127510507D02*
X208921428Y-127553364D01*
X208921428Y-127553364D02*
X208964286Y-127596221D01*
X208964286Y-127596221D02*
X209007143Y-127681935D01*
X209007143Y-127681935D02*
X209050000Y-127853364D01*
X209050000Y-127853364D02*
X209050000Y-128067650D01*
X209050000Y-128067650D02*
X209007143Y-128239078D01*
X209007143Y-128239078D02*
X208964286Y-128324792D01*
X208964286Y-128324792D02*
X208921428Y-128367650D01*
X208921428Y-128367650D02*
X208835714Y-128410507D01*
X208835714Y-128410507D02*
X208750000Y-128410507D01*
X208750000Y-128410507D02*
X208664286Y-128367650D01*
X208664286Y-128367650D02*
X208621428Y-128324792D01*
X208621428Y-128324792D02*
X208578571Y-128239078D01*
X208578571Y-128239078D02*
X208535714Y-128067650D01*
X208535714Y-128067650D02*
X208535714Y-127853364D01*
X208535714Y-127853364D02*
X208578571Y-127681935D01*
X208578571Y-127681935D02*
X208621428Y-127596221D01*
X208621428Y-127596221D02*
X208664286Y-127553364D01*
X208664286Y-127553364D02*
X208750000Y-127510507D01*
X209392857Y-128153364D02*
X209821429Y-128153364D01*
X209307143Y-128410507D02*
X209607143Y-127510507D01*
X209607143Y-127510507D02*
X209907143Y-128410507D01*
X209992858Y-128496221D02*
X210678572Y-128496221D01*
X210850000Y-127596221D02*
X210892857Y-127553364D01*
X210892857Y-127553364D02*
X210978572Y-127510507D01*
X210978572Y-127510507D02*
X211192857Y-127510507D01*
X211192857Y-127510507D02*
X211278572Y-127553364D01*
X211278572Y-127553364D02*
X211321429Y-127596221D01*
X211321429Y-127596221D02*
X211364286Y-127681935D01*
X211364286Y-127681935D02*
X211364286Y-127767650D01*
X211364286Y-127767650D02*
X211321429Y-127896221D01*
X211321429Y-127896221D02*
X210807143Y-128410507D01*
X210807143Y-128410507D02*
X211364286Y-128410507D01*
X212135715Y-127810507D02*
X212135715Y-128410507D01*
X211921429Y-127467650D02*
X211707143Y-128110507D01*
X211707143Y-128110507D02*
X212264286Y-128110507D01*
X212478572Y-127510507D02*
X212778572Y-128410507D01*
X212778572Y-128410507D02*
X213078572Y-127510507D01*
D11*
X234933333Y-127445847D02*
X234666667Y-127445847D01*
X234666667Y-127864895D02*
X234666667Y-127064895D01*
X234666667Y-127064895D02*
X235047619Y-127064895D01*
X235809524Y-127864895D02*
X235542857Y-127483942D01*
X235352381Y-127864895D02*
X235352381Y-127064895D01*
X235352381Y-127064895D02*
X235657143Y-127064895D01*
X235657143Y-127064895D02*
X235733333Y-127102990D01*
X235733333Y-127102990D02*
X235771428Y-127141085D01*
X235771428Y-127141085D02*
X235809524Y-127217276D01*
X235809524Y-127217276D02*
X235809524Y-127331561D01*
X235809524Y-127331561D02*
X235771428Y-127407752D01*
X235771428Y-127407752D02*
X235733333Y-127445847D01*
X235733333Y-127445847D02*
X235657143Y-127483942D01*
X235657143Y-127483942D02*
X235352381Y-127483942D01*
X236304762Y-127064895D02*
X236457143Y-127064895D01*
X236457143Y-127064895D02*
X236533333Y-127102990D01*
X236533333Y-127102990D02*
X236609524Y-127179180D01*
X236609524Y-127179180D02*
X236647619Y-127331561D01*
X236647619Y-127331561D02*
X236647619Y-127598228D01*
X236647619Y-127598228D02*
X236609524Y-127750609D01*
X236609524Y-127750609D02*
X236533333Y-127826800D01*
X236533333Y-127826800D02*
X236457143Y-127864895D01*
X236457143Y-127864895D02*
X236304762Y-127864895D01*
X236304762Y-127864895D02*
X236228571Y-127826800D01*
X236228571Y-127826800D02*
X236152381Y-127750609D01*
X236152381Y-127750609D02*
X236114285Y-127598228D01*
X236114285Y-127598228D02*
X236114285Y-127331561D01*
X236114285Y-127331561D02*
X236152381Y-127179180D01*
X236152381Y-127179180D02*
X236228571Y-127102990D01*
X236228571Y-127102990D02*
X236304762Y-127064895D01*
X236990476Y-127864895D02*
X236990476Y-127064895D01*
X236990476Y-127064895D02*
X237447619Y-127864895D01*
X237447619Y-127864895D02*
X237447619Y-127064895D01*
X237714285Y-127064895D02*
X238171428Y-127064895D01*
X237942856Y-127864895D02*
X237942856Y-127064895D01*
X238247619Y-127941085D02*
X238857142Y-127941085D01*
X239428571Y-127864895D02*
X239047619Y-127864895D01*
X239047619Y-127864895D02*
X239047619Y-127064895D01*
X239695238Y-127445847D02*
X239961904Y-127445847D01*
X240076190Y-127864895D02*
X239695238Y-127864895D01*
X239695238Y-127864895D02*
X239695238Y-127064895D01*
X239695238Y-127064895D02*
X240076190Y-127064895D01*
X240685714Y-127445847D02*
X240419048Y-127445847D01*
X240419048Y-127864895D02*
X240419048Y-127064895D01*
X240419048Y-127064895D02*
X240800000Y-127064895D01*
X240990476Y-127064895D02*
X241447619Y-127064895D01*
X241219047Y-127864895D02*
X241219047Y-127064895D01*
X234552381Y-139445847D02*
X234285715Y-139445847D01*
X234285715Y-139864895D02*
X234285715Y-139064895D01*
X234285715Y-139064895D02*
X234666667Y-139064895D01*
X235428572Y-139864895D02*
X235161905Y-139483942D01*
X234971429Y-139864895D02*
X234971429Y-139064895D01*
X234971429Y-139064895D02*
X235276191Y-139064895D01*
X235276191Y-139064895D02*
X235352381Y-139102990D01*
X235352381Y-139102990D02*
X235390476Y-139141085D01*
X235390476Y-139141085D02*
X235428572Y-139217276D01*
X235428572Y-139217276D02*
X235428572Y-139331561D01*
X235428572Y-139331561D02*
X235390476Y-139407752D01*
X235390476Y-139407752D02*
X235352381Y-139445847D01*
X235352381Y-139445847D02*
X235276191Y-139483942D01*
X235276191Y-139483942D02*
X234971429Y-139483942D01*
X235923810Y-139064895D02*
X236076191Y-139064895D01*
X236076191Y-139064895D02*
X236152381Y-139102990D01*
X236152381Y-139102990D02*
X236228572Y-139179180D01*
X236228572Y-139179180D02*
X236266667Y-139331561D01*
X236266667Y-139331561D02*
X236266667Y-139598228D01*
X236266667Y-139598228D02*
X236228572Y-139750609D01*
X236228572Y-139750609D02*
X236152381Y-139826800D01*
X236152381Y-139826800D02*
X236076191Y-139864895D01*
X236076191Y-139864895D02*
X235923810Y-139864895D01*
X235923810Y-139864895D02*
X235847619Y-139826800D01*
X235847619Y-139826800D02*
X235771429Y-139750609D01*
X235771429Y-139750609D02*
X235733333Y-139598228D01*
X235733333Y-139598228D02*
X235733333Y-139331561D01*
X235733333Y-139331561D02*
X235771429Y-139179180D01*
X235771429Y-139179180D02*
X235847619Y-139102990D01*
X235847619Y-139102990D02*
X235923810Y-139064895D01*
X236609524Y-139864895D02*
X236609524Y-139064895D01*
X236609524Y-139064895D02*
X237066667Y-139864895D01*
X237066667Y-139864895D02*
X237066667Y-139064895D01*
X237333333Y-139064895D02*
X237790476Y-139064895D01*
X237561904Y-139864895D02*
X237561904Y-139064895D01*
X237866667Y-139941085D02*
X238476190Y-139941085D01*
X239123810Y-139864895D02*
X238857143Y-139483942D01*
X238666667Y-139864895D02*
X238666667Y-139064895D01*
X238666667Y-139064895D02*
X238971429Y-139064895D01*
X238971429Y-139064895D02*
X239047619Y-139102990D01*
X239047619Y-139102990D02*
X239085714Y-139141085D01*
X239085714Y-139141085D02*
X239123810Y-139217276D01*
X239123810Y-139217276D02*
X239123810Y-139331561D01*
X239123810Y-139331561D02*
X239085714Y-139407752D01*
X239085714Y-139407752D02*
X239047619Y-139445847D01*
X239047619Y-139445847D02*
X238971429Y-139483942D01*
X238971429Y-139483942D02*
X238666667Y-139483942D01*
X239466667Y-139864895D02*
X239466667Y-139064895D01*
X240266666Y-139102990D02*
X240190476Y-139064895D01*
X240190476Y-139064895D02*
X240076190Y-139064895D01*
X240076190Y-139064895D02*
X239961904Y-139102990D01*
X239961904Y-139102990D02*
X239885714Y-139179180D01*
X239885714Y-139179180D02*
X239847619Y-139255371D01*
X239847619Y-139255371D02*
X239809523Y-139407752D01*
X239809523Y-139407752D02*
X239809523Y-139522038D01*
X239809523Y-139522038D02*
X239847619Y-139674419D01*
X239847619Y-139674419D02*
X239885714Y-139750609D01*
X239885714Y-139750609D02*
X239961904Y-139826800D01*
X239961904Y-139826800D02*
X240076190Y-139864895D01*
X240076190Y-139864895D02*
X240152381Y-139864895D01*
X240152381Y-139864895D02*
X240266666Y-139826800D01*
X240266666Y-139826800D02*
X240304762Y-139788704D01*
X240304762Y-139788704D02*
X240304762Y-139522038D01*
X240304762Y-139522038D02*
X240152381Y-139522038D01*
X240647619Y-139864895D02*
X240647619Y-139064895D01*
X240647619Y-139445847D02*
X241104762Y-139445847D01*
X241104762Y-139864895D02*
X241104762Y-139064895D01*
X241371428Y-139064895D02*
X241828571Y-139064895D01*
X241599999Y-139864895D02*
X241599999Y-139064895D01*
X233257142Y-151826800D02*
X233371428Y-151864895D01*
X233371428Y-151864895D02*
X233561904Y-151864895D01*
X233561904Y-151864895D02*
X233638095Y-151826800D01*
X233638095Y-151826800D02*
X233676190Y-151788704D01*
X233676190Y-151788704D02*
X233714285Y-151712514D01*
X233714285Y-151712514D02*
X233714285Y-151636323D01*
X233714285Y-151636323D02*
X233676190Y-151560133D01*
X233676190Y-151560133D02*
X233638095Y-151522038D01*
X233638095Y-151522038D02*
X233561904Y-151483942D01*
X233561904Y-151483942D02*
X233409523Y-151445847D01*
X233409523Y-151445847D02*
X233333333Y-151407752D01*
X233333333Y-151407752D02*
X233295238Y-151369657D01*
X233295238Y-151369657D02*
X233257142Y-151293466D01*
X233257142Y-151293466D02*
X233257142Y-151217276D01*
X233257142Y-151217276D02*
X233295238Y-151141085D01*
X233295238Y-151141085D02*
X233333333Y-151102990D01*
X233333333Y-151102990D02*
X233409523Y-151064895D01*
X233409523Y-151064895D02*
X233600000Y-151064895D01*
X233600000Y-151064895D02*
X233714285Y-151102990D01*
X234057143Y-151064895D02*
X234057143Y-151712514D01*
X234057143Y-151712514D02*
X234095238Y-151788704D01*
X234095238Y-151788704D02*
X234133333Y-151826800D01*
X234133333Y-151826800D02*
X234209524Y-151864895D01*
X234209524Y-151864895D02*
X234361905Y-151864895D01*
X234361905Y-151864895D02*
X234438095Y-151826800D01*
X234438095Y-151826800D02*
X234476190Y-151788704D01*
X234476190Y-151788704D02*
X234514286Y-151712514D01*
X234514286Y-151712514D02*
X234514286Y-151064895D01*
X235352381Y-151864895D02*
X235085714Y-151483942D01*
X234895238Y-151864895D02*
X234895238Y-151064895D01*
X234895238Y-151064895D02*
X235200000Y-151064895D01*
X235200000Y-151064895D02*
X235276190Y-151102990D01*
X235276190Y-151102990D02*
X235314285Y-151141085D01*
X235314285Y-151141085D02*
X235352381Y-151217276D01*
X235352381Y-151217276D02*
X235352381Y-151331561D01*
X235352381Y-151331561D02*
X235314285Y-151407752D01*
X235314285Y-151407752D02*
X235276190Y-151445847D01*
X235276190Y-151445847D02*
X235200000Y-151483942D01*
X235200000Y-151483942D02*
X234895238Y-151483942D01*
X236152381Y-151864895D02*
X235885714Y-151483942D01*
X235695238Y-151864895D02*
X235695238Y-151064895D01*
X235695238Y-151064895D02*
X236000000Y-151064895D01*
X236000000Y-151064895D02*
X236076190Y-151102990D01*
X236076190Y-151102990D02*
X236114285Y-151141085D01*
X236114285Y-151141085D02*
X236152381Y-151217276D01*
X236152381Y-151217276D02*
X236152381Y-151331561D01*
X236152381Y-151331561D02*
X236114285Y-151407752D01*
X236114285Y-151407752D02*
X236076190Y-151445847D01*
X236076190Y-151445847D02*
X236000000Y-151483942D01*
X236000000Y-151483942D02*
X235695238Y-151483942D01*
X236647619Y-151064895D02*
X236800000Y-151064895D01*
X236800000Y-151064895D02*
X236876190Y-151102990D01*
X236876190Y-151102990D02*
X236952381Y-151179180D01*
X236952381Y-151179180D02*
X236990476Y-151331561D01*
X236990476Y-151331561D02*
X236990476Y-151598228D01*
X236990476Y-151598228D02*
X236952381Y-151750609D01*
X236952381Y-151750609D02*
X236876190Y-151826800D01*
X236876190Y-151826800D02*
X236800000Y-151864895D01*
X236800000Y-151864895D02*
X236647619Y-151864895D01*
X236647619Y-151864895D02*
X236571428Y-151826800D01*
X236571428Y-151826800D02*
X236495238Y-151750609D01*
X236495238Y-151750609D02*
X236457142Y-151598228D01*
X236457142Y-151598228D02*
X236457142Y-151331561D01*
X236457142Y-151331561D02*
X236495238Y-151179180D01*
X236495238Y-151179180D02*
X236571428Y-151102990D01*
X236571428Y-151102990D02*
X236647619Y-151064895D01*
X237333333Y-151064895D02*
X237333333Y-151712514D01*
X237333333Y-151712514D02*
X237371428Y-151788704D01*
X237371428Y-151788704D02*
X237409523Y-151826800D01*
X237409523Y-151826800D02*
X237485714Y-151864895D01*
X237485714Y-151864895D02*
X237638095Y-151864895D01*
X237638095Y-151864895D02*
X237714285Y-151826800D01*
X237714285Y-151826800D02*
X237752380Y-151788704D01*
X237752380Y-151788704D02*
X237790476Y-151712514D01*
X237790476Y-151712514D02*
X237790476Y-151064895D01*
X238171428Y-151864895D02*
X238171428Y-151064895D01*
X238171428Y-151064895D02*
X238628571Y-151864895D01*
X238628571Y-151864895D02*
X238628571Y-151064895D01*
X239009523Y-151864895D02*
X239009523Y-151064895D01*
X239009523Y-151064895D02*
X239199999Y-151064895D01*
X239199999Y-151064895D02*
X239314285Y-151102990D01*
X239314285Y-151102990D02*
X239390475Y-151179180D01*
X239390475Y-151179180D02*
X239428570Y-151255371D01*
X239428570Y-151255371D02*
X239466666Y-151407752D01*
X239466666Y-151407752D02*
X239466666Y-151522038D01*
X239466666Y-151522038D02*
X239428570Y-151674419D01*
X239428570Y-151674419D02*
X239390475Y-151750609D01*
X239390475Y-151750609D02*
X239314285Y-151826800D01*
X239314285Y-151826800D02*
X239199999Y-151864895D01*
X239199999Y-151864895D02*
X239009523Y-151864895D01*
X239619047Y-151941085D02*
X240228570Y-151941085D01*
X240799999Y-151864895D02*
X240419047Y-151864895D01*
X240419047Y-151864895D02*
X240419047Y-151064895D01*
X241066666Y-151445847D02*
X241333332Y-151445847D01*
X241447618Y-151864895D02*
X241066666Y-151864895D01*
X241066666Y-151864895D02*
X241066666Y-151064895D01*
X241066666Y-151064895D02*
X241447618Y-151064895D01*
X242057142Y-151445847D02*
X241790476Y-151445847D01*
X241790476Y-151864895D02*
X241790476Y-151064895D01*
X241790476Y-151064895D02*
X242171428Y-151064895D01*
X242361904Y-151064895D02*
X242819047Y-151064895D01*
X242590475Y-151864895D02*
X242590475Y-151064895D01*
X232876190Y-163826800D02*
X232990476Y-163864895D01*
X232990476Y-163864895D02*
X233180952Y-163864895D01*
X233180952Y-163864895D02*
X233257143Y-163826800D01*
X233257143Y-163826800D02*
X233295238Y-163788704D01*
X233295238Y-163788704D02*
X233333333Y-163712514D01*
X233333333Y-163712514D02*
X233333333Y-163636323D01*
X233333333Y-163636323D02*
X233295238Y-163560133D01*
X233295238Y-163560133D02*
X233257143Y-163522038D01*
X233257143Y-163522038D02*
X233180952Y-163483942D01*
X233180952Y-163483942D02*
X233028571Y-163445847D01*
X233028571Y-163445847D02*
X232952381Y-163407752D01*
X232952381Y-163407752D02*
X232914286Y-163369657D01*
X232914286Y-163369657D02*
X232876190Y-163293466D01*
X232876190Y-163293466D02*
X232876190Y-163217276D01*
X232876190Y-163217276D02*
X232914286Y-163141085D01*
X232914286Y-163141085D02*
X232952381Y-163102990D01*
X232952381Y-163102990D02*
X233028571Y-163064895D01*
X233028571Y-163064895D02*
X233219048Y-163064895D01*
X233219048Y-163064895D02*
X233333333Y-163102990D01*
X233676191Y-163064895D02*
X233676191Y-163712514D01*
X233676191Y-163712514D02*
X233714286Y-163788704D01*
X233714286Y-163788704D02*
X233752381Y-163826800D01*
X233752381Y-163826800D02*
X233828572Y-163864895D01*
X233828572Y-163864895D02*
X233980953Y-163864895D01*
X233980953Y-163864895D02*
X234057143Y-163826800D01*
X234057143Y-163826800D02*
X234095238Y-163788704D01*
X234095238Y-163788704D02*
X234133334Y-163712514D01*
X234133334Y-163712514D02*
X234133334Y-163064895D01*
X234971429Y-163864895D02*
X234704762Y-163483942D01*
X234514286Y-163864895D02*
X234514286Y-163064895D01*
X234514286Y-163064895D02*
X234819048Y-163064895D01*
X234819048Y-163064895D02*
X234895238Y-163102990D01*
X234895238Y-163102990D02*
X234933333Y-163141085D01*
X234933333Y-163141085D02*
X234971429Y-163217276D01*
X234971429Y-163217276D02*
X234971429Y-163331561D01*
X234971429Y-163331561D02*
X234933333Y-163407752D01*
X234933333Y-163407752D02*
X234895238Y-163445847D01*
X234895238Y-163445847D02*
X234819048Y-163483942D01*
X234819048Y-163483942D02*
X234514286Y-163483942D01*
X235771429Y-163864895D02*
X235504762Y-163483942D01*
X235314286Y-163864895D02*
X235314286Y-163064895D01*
X235314286Y-163064895D02*
X235619048Y-163064895D01*
X235619048Y-163064895D02*
X235695238Y-163102990D01*
X235695238Y-163102990D02*
X235733333Y-163141085D01*
X235733333Y-163141085D02*
X235771429Y-163217276D01*
X235771429Y-163217276D02*
X235771429Y-163331561D01*
X235771429Y-163331561D02*
X235733333Y-163407752D01*
X235733333Y-163407752D02*
X235695238Y-163445847D01*
X235695238Y-163445847D02*
X235619048Y-163483942D01*
X235619048Y-163483942D02*
X235314286Y-163483942D01*
X236266667Y-163064895D02*
X236419048Y-163064895D01*
X236419048Y-163064895D02*
X236495238Y-163102990D01*
X236495238Y-163102990D02*
X236571429Y-163179180D01*
X236571429Y-163179180D02*
X236609524Y-163331561D01*
X236609524Y-163331561D02*
X236609524Y-163598228D01*
X236609524Y-163598228D02*
X236571429Y-163750609D01*
X236571429Y-163750609D02*
X236495238Y-163826800D01*
X236495238Y-163826800D02*
X236419048Y-163864895D01*
X236419048Y-163864895D02*
X236266667Y-163864895D01*
X236266667Y-163864895D02*
X236190476Y-163826800D01*
X236190476Y-163826800D02*
X236114286Y-163750609D01*
X236114286Y-163750609D02*
X236076190Y-163598228D01*
X236076190Y-163598228D02*
X236076190Y-163331561D01*
X236076190Y-163331561D02*
X236114286Y-163179180D01*
X236114286Y-163179180D02*
X236190476Y-163102990D01*
X236190476Y-163102990D02*
X236266667Y-163064895D01*
X236952381Y-163064895D02*
X236952381Y-163712514D01*
X236952381Y-163712514D02*
X236990476Y-163788704D01*
X236990476Y-163788704D02*
X237028571Y-163826800D01*
X237028571Y-163826800D02*
X237104762Y-163864895D01*
X237104762Y-163864895D02*
X237257143Y-163864895D01*
X237257143Y-163864895D02*
X237333333Y-163826800D01*
X237333333Y-163826800D02*
X237371428Y-163788704D01*
X237371428Y-163788704D02*
X237409524Y-163712514D01*
X237409524Y-163712514D02*
X237409524Y-163064895D01*
X237790476Y-163864895D02*
X237790476Y-163064895D01*
X237790476Y-163064895D02*
X238247619Y-163864895D01*
X238247619Y-163864895D02*
X238247619Y-163064895D01*
X238628571Y-163864895D02*
X238628571Y-163064895D01*
X238628571Y-163064895D02*
X238819047Y-163064895D01*
X238819047Y-163064895D02*
X238933333Y-163102990D01*
X238933333Y-163102990D02*
X239009523Y-163179180D01*
X239009523Y-163179180D02*
X239047618Y-163255371D01*
X239047618Y-163255371D02*
X239085714Y-163407752D01*
X239085714Y-163407752D02*
X239085714Y-163522038D01*
X239085714Y-163522038D02*
X239047618Y-163674419D01*
X239047618Y-163674419D02*
X239009523Y-163750609D01*
X239009523Y-163750609D02*
X238933333Y-163826800D01*
X238933333Y-163826800D02*
X238819047Y-163864895D01*
X238819047Y-163864895D02*
X238628571Y-163864895D01*
X239238095Y-163941085D02*
X239847618Y-163941085D01*
X240495238Y-163864895D02*
X240228571Y-163483942D01*
X240038095Y-163864895D02*
X240038095Y-163064895D01*
X240038095Y-163064895D02*
X240342857Y-163064895D01*
X240342857Y-163064895D02*
X240419047Y-163102990D01*
X240419047Y-163102990D02*
X240457142Y-163141085D01*
X240457142Y-163141085D02*
X240495238Y-163217276D01*
X240495238Y-163217276D02*
X240495238Y-163331561D01*
X240495238Y-163331561D02*
X240457142Y-163407752D01*
X240457142Y-163407752D02*
X240419047Y-163445847D01*
X240419047Y-163445847D02*
X240342857Y-163483942D01*
X240342857Y-163483942D02*
X240038095Y-163483942D01*
X240838095Y-163864895D02*
X240838095Y-163064895D01*
X241638094Y-163102990D02*
X241561904Y-163064895D01*
X241561904Y-163064895D02*
X241447618Y-163064895D01*
X241447618Y-163064895D02*
X241333332Y-163102990D01*
X241333332Y-163102990D02*
X241257142Y-163179180D01*
X241257142Y-163179180D02*
X241219047Y-163255371D01*
X241219047Y-163255371D02*
X241180951Y-163407752D01*
X241180951Y-163407752D02*
X241180951Y-163522038D01*
X241180951Y-163522038D02*
X241219047Y-163674419D01*
X241219047Y-163674419D02*
X241257142Y-163750609D01*
X241257142Y-163750609D02*
X241333332Y-163826800D01*
X241333332Y-163826800D02*
X241447618Y-163864895D01*
X241447618Y-163864895D02*
X241523809Y-163864895D01*
X241523809Y-163864895D02*
X241638094Y-163826800D01*
X241638094Y-163826800D02*
X241676190Y-163788704D01*
X241676190Y-163788704D02*
X241676190Y-163522038D01*
X241676190Y-163522038D02*
X241523809Y-163522038D01*
X242019047Y-163864895D02*
X242019047Y-163064895D01*
X242019047Y-163445847D02*
X242476190Y-163445847D01*
X242476190Y-163864895D02*
X242476190Y-163064895D01*
X242742856Y-163064895D02*
X243199999Y-163064895D01*
X242971427Y-163864895D02*
X242971427Y-163064895D01*
X236400000Y-175788704D02*
X236361904Y-175826800D01*
X236361904Y-175826800D02*
X236247619Y-175864895D01*
X236247619Y-175864895D02*
X236171428Y-175864895D01*
X236171428Y-175864895D02*
X236057142Y-175826800D01*
X236057142Y-175826800D02*
X235980952Y-175750609D01*
X235980952Y-175750609D02*
X235942857Y-175674419D01*
X235942857Y-175674419D02*
X235904761Y-175522038D01*
X235904761Y-175522038D02*
X235904761Y-175407752D01*
X235904761Y-175407752D02*
X235942857Y-175255371D01*
X235942857Y-175255371D02*
X235980952Y-175179180D01*
X235980952Y-175179180D02*
X236057142Y-175102990D01*
X236057142Y-175102990D02*
X236171428Y-175064895D01*
X236171428Y-175064895D02*
X236247619Y-175064895D01*
X236247619Y-175064895D02*
X236361904Y-175102990D01*
X236361904Y-175102990D02*
X236400000Y-175141085D01*
X236742857Y-175445847D02*
X237009523Y-175445847D01*
X237123809Y-175864895D02*
X236742857Y-175864895D01*
X236742857Y-175864895D02*
X236742857Y-175064895D01*
X236742857Y-175064895D02*
X237123809Y-175064895D01*
X237466667Y-175864895D02*
X237466667Y-175064895D01*
X237466667Y-175064895D02*
X237923810Y-175864895D01*
X237923810Y-175864895D02*
X237923810Y-175064895D01*
X238190476Y-175064895D02*
X238647619Y-175064895D01*
X238419047Y-175864895D02*
X238419047Y-175064895D01*
X238914286Y-175445847D02*
X239180952Y-175445847D01*
X239295238Y-175864895D02*
X238914286Y-175864895D01*
X238914286Y-175864895D02*
X238914286Y-175064895D01*
X238914286Y-175064895D02*
X239295238Y-175064895D01*
X240095239Y-175864895D02*
X239828572Y-175483942D01*
X239638096Y-175864895D02*
X239638096Y-175064895D01*
X239638096Y-175064895D02*
X239942858Y-175064895D01*
X239942858Y-175064895D02*
X240019048Y-175102990D01*
X240019048Y-175102990D02*
X240057143Y-175141085D01*
X240057143Y-175141085D02*
X240095239Y-175217276D01*
X240095239Y-175217276D02*
X240095239Y-175331561D01*
X240095239Y-175331561D02*
X240057143Y-175407752D01*
X240057143Y-175407752D02*
X240019048Y-175445847D01*
X240019048Y-175445847D02*
X239942858Y-175483942D01*
X239942858Y-175483942D02*
X239638096Y-175483942D01*
X234552380Y-187826800D02*
X234666666Y-187864895D01*
X234666666Y-187864895D02*
X234857142Y-187864895D01*
X234857142Y-187864895D02*
X234933333Y-187826800D01*
X234933333Y-187826800D02*
X234971428Y-187788704D01*
X234971428Y-187788704D02*
X235009523Y-187712514D01*
X235009523Y-187712514D02*
X235009523Y-187636323D01*
X235009523Y-187636323D02*
X234971428Y-187560133D01*
X234971428Y-187560133D02*
X234933333Y-187522038D01*
X234933333Y-187522038D02*
X234857142Y-187483942D01*
X234857142Y-187483942D02*
X234704761Y-187445847D01*
X234704761Y-187445847D02*
X234628571Y-187407752D01*
X234628571Y-187407752D02*
X234590476Y-187369657D01*
X234590476Y-187369657D02*
X234552380Y-187293466D01*
X234552380Y-187293466D02*
X234552380Y-187217276D01*
X234552380Y-187217276D02*
X234590476Y-187141085D01*
X234590476Y-187141085D02*
X234628571Y-187102990D01*
X234628571Y-187102990D02*
X234704761Y-187064895D01*
X234704761Y-187064895D02*
X234895238Y-187064895D01*
X234895238Y-187064895D02*
X235009523Y-187102990D01*
X235352381Y-187064895D02*
X235352381Y-187712514D01*
X235352381Y-187712514D02*
X235390476Y-187788704D01*
X235390476Y-187788704D02*
X235428571Y-187826800D01*
X235428571Y-187826800D02*
X235504762Y-187864895D01*
X235504762Y-187864895D02*
X235657143Y-187864895D01*
X235657143Y-187864895D02*
X235733333Y-187826800D01*
X235733333Y-187826800D02*
X235771428Y-187788704D01*
X235771428Y-187788704D02*
X235809524Y-187712514D01*
X235809524Y-187712514D02*
X235809524Y-187064895D01*
X236457142Y-187445847D02*
X236571428Y-187483942D01*
X236571428Y-187483942D02*
X236609523Y-187522038D01*
X236609523Y-187522038D02*
X236647619Y-187598228D01*
X236647619Y-187598228D02*
X236647619Y-187712514D01*
X236647619Y-187712514D02*
X236609523Y-187788704D01*
X236609523Y-187788704D02*
X236571428Y-187826800D01*
X236571428Y-187826800D02*
X236495238Y-187864895D01*
X236495238Y-187864895D02*
X236190476Y-187864895D01*
X236190476Y-187864895D02*
X236190476Y-187064895D01*
X236190476Y-187064895D02*
X236457142Y-187064895D01*
X236457142Y-187064895D02*
X236533333Y-187102990D01*
X236533333Y-187102990D02*
X236571428Y-187141085D01*
X236571428Y-187141085D02*
X236609523Y-187217276D01*
X236609523Y-187217276D02*
X236609523Y-187293466D01*
X236609523Y-187293466D02*
X236571428Y-187369657D01*
X236571428Y-187369657D02*
X236533333Y-187407752D01*
X236533333Y-187407752D02*
X236457142Y-187445847D01*
X236457142Y-187445847D02*
X236190476Y-187445847D01*
X236914285Y-187064895D02*
X237104761Y-187864895D01*
X237104761Y-187864895D02*
X237257142Y-187293466D01*
X237257142Y-187293466D02*
X237409523Y-187864895D01*
X237409523Y-187864895D02*
X237600000Y-187064895D01*
X238057143Y-187064895D02*
X238209524Y-187064895D01*
X238209524Y-187064895D02*
X238285714Y-187102990D01*
X238285714Y-187102990D02*
X238361905Y-187179180D01*
X238361905Y-187179180D02*
X238400000Y-187331561D01*
X238400000Y-187331561D02*
X238400000Y-187598228D01*
X238400000Y-187598228D02*
X238361905Y-187750609D01*
X238361905Y-187750609D02*
X238285714Y-187826800D01*
X238285714Y-187826800D02*
X238209524Y-187864895D01*
X238209524Y-187864895D02*
X238057143Y-187864895D01*
X238057143Y-187864895D02*
X237980952Y-187826800D01*
X237980952Y-187826800D02*
X237904762Y-187750609D01*
X237904762Y-187750609D02*
X237866666Y-187598228D01*
X237866666Y-187598228D02*
X237866666Y-187331561D01*
X237866666Y-187331561D02*
X237904762Y-187179180D01*
X237904762Y-187179180D02*
X237980952Y-187102990D01*
X237980952Y-187102990D02*
X238057143Y-187064895D01*
X238895238Y-187064895D02*
X239047619Y-187064895D01*
X239047619Y-187064895D02*
X239123809Y-187102990D01*
X239123809Y-187102990D02*
X239200000Y-187179180D01*
X239200000Y-187179180D02*
X239238095Y-187331561D01*
X239238095Y-187331561D02*
X239238095Y-187598228D01*
X239238095Y-187598228D02*
X239200000Y-187750609D01*
X239200000Y-187750609D02*
X239123809Y-187826800D01*
X239123809Y-187826800D02*
X239047619Y-187864895D01*
X239047619Y-187864895D02*
X238895238Y-187864895D01*
X238895238Y-187864895D02*
X238819047Y-187826800D01*
X238819047Y-187826800D02*
X238742857Y-187750609D01*
X238742857Y-187750609D02*
X238704761Y-187598228D01*
X238704761Y-187598228D02*
X238704761Y-187331561D01*
X238704761Y-187331561D02*
X238742857Y-187179180D01*
X238742857Y-187179180D02*
X238819047Y-187102990D01*
X238819047Y-187102990D02*
X238895238Y-187064895D01*
X239847618Y-187445847D02*
X239580952Y-187445847D01*
X239580952Y-187864895D02*
X239580952Y-187064895D01*
X239580952Y-187064895D02*
X239961904Y-187064895D01*
X240266666Y-187445847D02*
X240533332Y-187445847D01*
X240647618Y-187864895D02*
X240266666Y-187864895D01*
X240266666Y-187864895D02*
X240266666Y-187064895D01*
X240266666Y-187064895D02*
X240647618Y-187064895D01*
X241447619Y-187864895D02*
X241180952Y-187483942D01*
X240990476Y-187864895D02*
X240990476Y-187064895D01*
X240990476Y-187064895D02*
X241295238Y-187064895D01*
X241295238Y-187064895D02*
X241371428Y-187102990D01*
X241371428Y-187102990D02*
X241409523Y-187141085D01*
X241409523Y-187141085D02*
X241447619Y-187217276D01*
X241447619Y-187217276D02*
X241447619Y-187331561D01*
X241447619Y-187331561D02*
X241409523Y-187407752D01*
X241409523Y-187407752D02*
X241371428Y-187445847D01*
X241371428Y-187445847D02*
X241295238Y-187483942D01*
X241295238Y-187483942D02*
X240990476Y-187483942D01*
M02*
