%TF.GenerationSoftware,KiCad,Pcbnew,10.0.6-1.fc43*%
%TF.CreationDate,2026-09-07T00:45:24+05:30*%
%TF.ProjectId,sony-5.1-revival,736f6e79-2d35-42e3-912d-726576697661,1.0*%
%TF.SameCoordinates,Original*%
%TF.FileFunction,AssemblyDrawing,Top*%
%FSLAX46Y46*%
G04 Gerber Fmt 4.6, Leading zero omitted, Abs format (unit mm)*
G04 Created by KiCad (PCBNEW 10.0.6-1.fc43) date 2026-09-07 00:45:24*
%MOMM*%
%LPD*%
G01*
G04 APERTURE LIST*
%ADD10C,0.100000*%
%ADD11C,0.125000*%
G04 APERTURE END LIST*
D10*
X55599999Y-188641085D02*
X55638095Y-188602990D01*
X55638095Y-188602990D02*
X55714285Y-188564895D01*
X55714285Y-188564895D02*
X55904761Y-188564895D01*
X55904761Y-188564895D02*
X55980952Y-188602990D01*
X55980952Y-188602990D02*
X56019047Y-188641085D01*
X56019047Y-188641085D02*
X56057142Y-188717276D01*
X56057142Y-188717276D02*
X56057142Y-188793466D01*
X56057142Y-188793466D02*
X56019047Y-188907752D01*
X56019047Y-188907752D02*
X55561904Y-189364895D01*
X55561904Y-189364895D02*
X56057142Y-189364895D01*
X56323809Y-188564895D02*
X56819047Y-188564895D01*
X56819047Y-188564895D02*
X56552381Y-188869657D01*
X56552381Y-188869657D02*
X56666666Y-188869657D01*
X56666666Y-188869657D02*
X56742857Y-188907752D01*
X56742857Y-188907752D02*
X56780952Y-188945847D01*
X56780952Y-188945847D02*
X56819047Y-189022038D01*
X56819047Y-189022038D02*
X56819047Y-189212514D01*
X56819047Y-189212514D02*
X56780952Y-189288704D01*
X56780952Y-189288704D02*
X56742857Y-189326800D01*
X56742857Y-189326800D02*
X56666666Y-189364895D01*
X56666666Y-189364895D02*
X56438095Y-189364895D01*
X56438095Y-189364895D02*
X56361904Y-189326800D01*
X56361904Y-189326800D02*
X56323809Y-189288704D01*
X57314286Y-188564895D02*
X57390476Y-188564895D01*
X57390476Y-188564895D02*
X57466667Y-188602990D01*
X57466667Y-188602990D02*
X57504762Y-188641085D01*
X57504762Y-188641085D02*
X57542857Y-188717276D01*
X57542857Y-188717276D02*
X57580952Y-188869657D01*
X57580952Y-188869657D02*
X57580952Y-189060133D01*
X57580952Y-189060133D02*
X57542857Y-189212514D01*
X57542857Y-189212514D02*
X57504762Y-189288704D01*
X57504762Y-189288704D02*
X57466667Y-189326800D01*
X57466667Y-189326800D02*
X57390476Y-189364895D01*
X57390476Y-189364895D02*
X57314286Y-189364895D01*
X57314286Y-189364895D02*
X57238095Y-189326800D01*
X57238095Y-189326800D02*
X57200000Y-189288704D01*
X57200000Y-189288704D02*
X57161905Y-189212514D01*
X57161905Y-189212514D02*
X57123809Y-189060133D01*
X57123809Y-189060133D02*
X57123809Y-188869657D01*
X57123809Y-188869657D02*
X57161905Y-188717276D01*
X57161905Y-188717276D02*
X57200000Y-188641085D01*
X57200000Y-188641085D02*
X57238095Y-188602990D01*
X57238095Y-188602990D02*
X57314286Y-188564895D01*
X57809524Y-188564895D02*
X58076191Y-189364895D01*
X58076191Y-189364895D02*
X58342857Y-188564895D01*
X58419048Y-189441085D02*
X59028571Y-189441085D01*
X59180952Y-189136323D02*
X59561905Y-189136323D01*
X59104762Y-189364895D02*
X59371429Y-188564895D01*
X59371429Y-188564895D02*
X59638095Y-189364895D01*
X60361905Y-189288704D02*
X60323809Y-189326800D01*
X60323809Y-189326800D02*
X60209524Y-189364895D01*
X60209524Y-189364895D02*
X60133333Y-189364895D01*
X60133333Y-189364895D02*
X60019047Y-189326800D01*
X60019047Y-189326800D02*
X59942857Y-189250609D01*
X59942857Y-189250609D02*
X59904762Y-189174419D01*
X59904762Y-189174419D02*
X59866666Y-189022038D01*
X59866666Y-189022038D02*
X59866666Y-188907752D01*
X59866666Y-188907752D02*
X59904762Y-188755371D01*
X59904762Y-188755371D02*
X59942857Y-188679180D01*
X59942857Y-188679180D02*
X60019047Y-188602990D01*
X60019047Y-188602990D02*
X60133333Y-188564895D01*
X60133333Y-188564895D02*
X60209524Y-188564895D01*
X60209524Y-188564895D02*
X60323809Y-188602990D01*
X60323809Y-188602990D02*
X60361905Y-188641085D01*
X60514286Y-189441085D02*
X61123809Y-189441085D01*
X61695238Y-189364895D02*
X61314286Y-189364895D01*
X61314286Y-189364895D02*
X61314286Y-188564895D01*
X61771429Y-189441085D02*
X62380952Y-189441085D01*
X62571429Y-189364895D02*
X62571429Y-188564895D01*
X62571429Y-188564895D02*
X63028572Y-189364895D01*
X63028572Y-189364895D02*
X63028572Y-188564895D01*
X63219048Y-189441085D02*
X63828571Y-189441085D01*
X64019048Y-188945847D02*
X64285714Y-188945847D01*
X64400000Y-189364895D02*
X64019048Y-189364895D01*
X64019048Y-189364895D02*
X64019048Y-188564895D01*
X64019048Y-188564895D02*
X64400000Y-188564895D01*
X56133332Y-167945847D02*
X55866666Y-167945847D01*
X55866666Y-168364895D02*
X55866666Y-167564895D01*
X55866666Y-167564895D02*
X56247618Y-167564895D01*
X56552380Y-167564895D02*
X56552380Y-168212514D01*
X56552380Y-168212514D02*
X56590475Y-168288704D01*
X56590475Y-168288704D02*
X56628570Y-168326800D01*
X56628570Y-168326800D02*
X56704761Y-168364895D01*
X56704761Y-168364895D02*
X56857142Y-168364895D01*
X56857142Y-168364895D02*
X56933332Y-168326800D01*
X56933332Y-168326800D02*
X56971427Y-168288704D01*
X56971427Y-168288704D02*
X57009523Y-168212514D01*
X57009523Y-168212514D02*
X57009523Y-167564895D01*
X57352379Y-168326800D02*
X57466665Y-168364895D01*
X57466665Y-168364895D02*
X57657141Y-168364895D01*
X57657141Y-168364895D02*
X57733332Y-168326800D01*
X57733332Y-168326800D02*
X57771427Y-168288704D01*
X57771427Y-168288704D02*
X57809522Y-168212514D01*
X57809522Y-168212514D02*
X57809522Y-168136323D01*
X57809522Y-168136323D02*
X57771427Y-168060133D01*
X57771427Y-168060133D02*
X57733332Y-168022038D01*
X57733332Y-168022038D02*
X57657141Y-167983942D01*
X57657141Y-167983942D02*
X57504760Y-167945847D01*
X57504760Y-167945847D02*
X57428570Y-167907752D01*
X57428570Y-167907752D02*
X57390475Y-167869657D01*
X57390475Y-167869657D02*
X57352379Y-167793466D01*
X57352379Y-167793466D02*
X57352379Y-167717276D01*
X57352379Y-167717276D02*
X57390475Y-167641085D01*
X57390475Y-167641085D02*
X57428570Y-167602990D01*
X57428570Y-167602990D02*
X57504760Y-167564895D01*
X57504760Y-167564895D02*
X57695237Y-167564895D01*
X57695237Y-167564895D02*
X57809522Y-167602990D01*
X58152380Y-167945847D02*
X58419046Y-167945847D01*
X58533332Y-168364895D02*
X58152380Y-168364895D01*
X58152380Y-168364895D02*
X58152380Y-167564895D01*
X58152380Y-167564895D02*
X58533332Y-167564895D01*
X58685714Y-168441085D02*
X59295237Y-168441085D01*
X59409523Y-167564895D02*
X59904761Y-167564895D01*
X59904761Y-167564895D02*
X59638095Y-167869657D01*
X59638095Y-167869657D02*
X59752380Y-167869657D01*
X59752380Y-167869657D02*
X59828571Y-167907752D01*
X59828571Y-167907752D02*
X59866666Y-167945847D01*
X59866666Y-167945847D02*
X59904761Y-168022038D01*
X59904761Y-168022038D02*
X59904761Y-168212514D01*
X59904761Y-168212514D02*
X59866666Y-168288704D01*
X59866666Y-168288704D02*
X59828571Y-168326800D01*
X59828571Y-168326800D02*
X59752380Y-168364895D01*
X59752380Y-168364895D02*
X59523809Y-168364895D01*
X59523809Y-168364895D02*
X59447618Y-168326800D01*
X59447618Y-168326800D02*
X59409523Y-168288704D01*
X60209523Y-168136323D02*
X60590476Y-168136323D01*
X60133333Y-168364895D02*
X60400000Y-167564895D01*
X60400000Y-167564895D02*
X60666666Y-168364895D01*
X60742857Y-168441085D02*
X61352380Y-168441085D01*
X61504761Y-167641085D02*
X61542857Y-167602990D01*
X61542857Y-167602990D02*
X61619047Y-167564895D01*
X61619047Y-167564895D02*
X61809523Y-167564895D01*
X61809523Y-167564895D02*
X61885714Y-167602990D01*
X61885714Y-167602990D02*
X61923809Y-167641085D01*
X61923809Y-167641085D02*
X61961904Y-167717276D01*
X61961904Y-167717276D02*
X61961904Y-167793466D01*
X61961904Y-167793466D02*
X61923809Y-167907752D01*
X61923809Y-167907752D02*
X61466666Y-168364895D01*
X61466666Y-168364895D02*
X61961904Y-168364895D01*
X62685714Y-167564895D02*
X62304762Y-167564895D01*
X62304762Y-167564895D02*
X62266666Y-167945847D01*
X62266666Y-167945847D02*
X62304762Y-167907752D01*
X62304762Y-167907752D02*
X62380952Y-167869657D01*
X62380952Y-167869657D02*
X62571428Y-167869657D01*
X62571428Y-167869657D02*
X62647619Y-167907752D01*
X62647619Y-167907752D02*
X62685714Y-167945847D01*
X62685714Y-167945847D02*
X62723809Y-168022038D01*
X62723809Y-168022038D02*
X62723809Y-168212514D01*
X62723809Y-168212514D02*
X62685714Y-168288704D01*
X62685714Y-168288704D02*
X62647619Y-168326800D01*
X62647619Y-168326800D02*
X62571428Y-168364895D01*
X62571428Y-168364895D02*
X62380952Y-168364895D01*
X62380952Y-168364895D02*
X62304762Y-168326800D01*
X62304762Y-168326800D02*
X62266666Y-168288704D01*
X63219048Y-167564895D02*
X63295238Y-167564895D01*
X63295238Y-167564895D02*
X63371429Y-167602990D01*
X63371429Y-167602990D02*
X63409524Y-167641085D01*
X63409524Y-167641085D02*
X63447619Y-167717276D01*
X63447619Y-167717276D02*
X63485714Y-167869657D01*
X63485714Y-167869657D02*
X63485714Y-168060133D01*
X63485714Y-168060133D02*
X63447619Y-168212514D01*
X63447619Y-168212514D02*
X63409524Y-168288704D01*
X63409524Y-168288704D02*
X63371429Y-168326800D01*
X63371429Y-168326800D02*
X63295238Y-168364895D01*
X63295238Y-168364895D02*
X63219048Y-168364895D01*
X63219048Y-168364895D02*
X63142857Y-168326800D01*
X63142857Y-168326800D02*
X63104762Y-168288704D01*
X63104762Y-168288704D02*
X63066667Y-168212514D01*
X63066667Y-168212514D02*
X63028571Y-168060133D01*
X63028571Y-168060133D02*
X63028571Y-167869657D01*
X63028571Y-167869657D02*
X63066667Y-167717276D01*
X63066667Y-167717276D02*
X63104762Y-167641085D01*
X63104762Y-167641085D02*
X63142857Y-167602990D01*
X63142857Y-167602990D02*
X63219048Y-167564895D01*
X63714286Y-167564895D02*
X63980953Y-168364895D01*
X63980953Y-168364895D02*
X64247619Y-167564895D01*
X57904761Y-151364895D02*
X57447618Y-151364895D01*
X57676190Y-151364895D02*
X57676190Y-150564895D01*
X57676190Y-150564895D02*
X57599999Y-150679180D01*
X57599999Y-150679180D02*
X57523809Y-150755371D01*
X57523809Y-150755371D02*
X57447618Y-150793466D01*
X58590476Y-150831561D02*
X58590476Y-151364895D01*
X58400000Y-150526800D02*
X58209523Y-151098228D01*
X58209523Y-151098228D02*
X58704762Y-151098228D01*
X59009524Y-151364895D02*
X59009524Y-150564895D01*
X59009524Y-150564895D02*
X59200000Y-150564895D01*
X59200000Y-150564895D02*
X59314286Y-150602990D01*
X59314286Y-150602990D02*
X59390476Y-150679180D01*
X59390476Y-150679180D02*
X59428571Y-150755371D01*
X59428571Y-150755371D02*
X59466667Y-150907752D01*
X59466667Y-150907752D02*
X59466667Y-151022038D01*
X59466667Y-151022038D02*
X59428571Y-151174419D01*
X59428571Y-151174419D02*
X59390476Y-151250609D01*
X59390476Y-151250609D02*
X59314286Y-151326800D01*
X59314286Y-151326800D02*
X59200000Y-151364895D01*
X59200000Y-151364895D02*
X59009524Y-151364895D01*
X60152381Y-150831561D02*
X60152381Y-151364895D01*
X59961905Y-150526800D02*
X59771428Y-151098228D01*
X59771428Y-151098228D02*
X60266667Y-151098228D01*
X60495238Y-150564895D02*
X60990476Y-150564895D01*
X60990476Y-150564895D02*
X60723810Y-150869657D01*
X60723810Y-150869657D02*
X60838095Y-150869657D01*
X60838095Y-150869657D02*
X60914286Y-150907752D01*
X60914286Y-150907752D02*
X60952381Y-150945847D01*
X60952381Y-150945847D02*
X60990476Y-151022038D01*
X60990476Y-151022038D02*
X60990476Y-151212514D01*
X60990476Y-151212514D02*
X60952381Y-151288704D01*
X60952381Y-151288704D02*
X60914286Y-151326800D01*
X60914286Y-151326800D02*
X60838095Y-151364895D01*
X60838095Y-151364895D02*
X60609524Y-151364895D01*
X60609524Y-151364895D02*
X60533333Y-151326800D01*
X60533333Y-151326800D02*
X60495238Y-151288704D01*
X61752381Y-151364895D02*
X61295238Y-151364895D01*
X61523810Y-151364895D02*
X61523810Y-150564895D01*
X61523810Y-150564895D02*
X61447619Y-150679180D01*
X61447619Y-150679180D02*
X61371429Y-150755371D01*
X61371429Y-150755371D02*
X61295238Y-150793466D01*
X62095239Y-151364895D02*
X62095239Y-150564895D01*
X62552382Y-151364895D02*
X62209524Y-150907752D01*
X62552382Y-150564895D02*
X62095239Y-151022038D01*
X82800000Y-165364895D02*
X82800000Y-164564895D01*
X83257143Y-165364895D02*
X82914285Y-164907752D01*
X83257143Y-164564895D02*
X82800000Y-165022038D01*
X83866666Y-164945847D02*
X83980952Y-164983942D01*
X83980952Y-164983942D02*
X84019047Y-165022038D01*
X84019047Y-165022038D02*
X84057143Y-165098228D01*
X84057143Y-165098228D02*
X84057143Y-165212514D01*
X84057143Y-165212514D02*
X84019047Y-165288704D01*
X84019047Y-165288704D02*
X83980952Y-165326800D01*
X83980952Y-165326800D02*
X83904762Y-165364895D01*
X83904762Y-165364895D02*
X83600000Y-165364895D01*
X83600000Y-165364895D02*
X83600000Y-164564895D01*
X83600000Y-164564895D02*
X83866666Y-164564895D01*
X83866666Y-164564895D02*
X83942857Y-164602990D01*
X83942857Y-164602990D02*
X83980952Y-164641085D01*
X83980952Y-164641085D02*
X84019047Y-164717276D01*
X84019047Y-164717276D02*
X84019047Y-164793466D01*
X84019047Y-164793466D02*
X83980952Y-164869657D01*
X83980952Y-164869657D02*
X83942857Y-164907752D01*
X83942857Y-164907752D02*
X83866666Y-164945847D01*
X83866666Y-164945847D02*
X83600000Y-164945847D01*
X84400000Y-164564895D02*
X84400000Y-165212514D01*
X84400000Y-165212514D02*
X84438095Y-165288704D01*
X84438095Y-165288704D02*
X84476190Y-165326800D01*
X84476190Y-165326800D02*
X84552381Y-165364895D01*
X84552381Y-165364895D02*
X84704762Y-165364895D01*
X84704762Y-165364895D02*
X84780952Y-165326800D01*
X84780952Y-165326800D02*
X84819047Y-165288704D01*
X84819047Y-165288704D02*
X84857143Y-165212514D01*
X84857143Y-165212514D02*
X84857143Y-164564895D01*
X85352380Y-164907752D02*
X85276190Y-164869657D01*
X85276190Y-164869657D02*
X85238095Y-164831561D01*
X85238095Y-164831561D02*
X85199999Y-164755371D01*
X85199999Y-164755371D02*
X85199999Y-164717276D01*
X85199999Y-164717276D02*
X85238095Y-164641085D01*
X85238095Y-164641085D02*
X85276190Y-164602990D01*
X85276190Y-164602990D02*
X85352380Y-164564895D01*
X85352380Y-164564895D02*
X85504761Y-164564895D01*
X85504761Y-164564895D02*
X85580952Y-164602990D01*
X85580952Y-164602990D02*
X85619047Y-164641085D01*
X85619047Y-164641085D02*
X85657142Y-164717276D01*
X85657142Y-164717276D02*
X85657142Y-164755371D01*
X85657142Y-164755371D02*
X85619047Y-164831561D01*
X85619047Y-164831561D02*
X85580952Y-164869657D01*
X85580952Y-164869657D02*
X85504761Y-164907752D01*
X85504761Y-164907752D02*
X85352380Y-164907752D01*
X85352380Y-164907752D02*
X85276190Y-164945847D01*
X85276190Y-164945847D02*
X85238095Y-164983942D01*
X85238095Y-164983942D02*
X85199999Y-165060133D01*
X85199999Y-165060133D02*
X85199999Y-165212514D01*
X85199999Y-165212514D02*
X85238095Y-165288704D01*
X85238095Y-165288704D02*
X85276190Y-165326800D01*
X85276190Y-165326800D02*
X85352380Y-165364895D01*
X85352380Y-165364895D02*
X85504761Y-165364895D01*
X85504761Y-165364895D02*
X85580952Y-165326800D01*
X85580952Y-165326800D02*
X85619047Y-165288704D01*
X85619047Y-165288704D02*
X85657142Y-165212514D01*
X85657142Y-165212514D02*
X85657142Y-165060133D01*
X85657142Y-165060133D02*
X85619047Y-164983942D01*
X85619047Y-164983942D02*
X85580952Y-164945847D01*
X85580952Y-164945847D02*
X85504761Y-164907752D01*
X86419047Y-165364895D02*
X85961904Y-165364895D01*
X86190476Y-165364895D02*
X86190476Y-164564895D01*
X86190476Y-164564895D02*
X86114285Y-164679180D01*
X86114285Y-164679180D02*
X86038095Y-164755371D01*
X86038095Y-164755371D02*
X85961904Y-164793466D01*
X86914286Y-164564895D02*
X86990476Y-164564895D01*
X86990476Y-164564895D02*
X87066667Y-164602990D01*
X87066667Y-164602990D02*
X87104762Y-164641085D01*
X87104762Y-164641085D02*
X87142857Y-164717276D01*
X87142857Y-164717276D02*
X87180952Y-164869657D01*
X87180952Y-164869657D02*
X87180952Y-165060133D01*
X87180952Y-165060133D02*
X87142857Y-165212514D01*
X87142857Y-165212514D02*
X87104762Y-165288704D01*
X87104762Y-165288704D02*
X87066667Y-165326800D01*
X87066667Y-165326800D02*
X86990476Y-165364895D01*
X86990476Y-165364895D02*
X86914286Y-165364895D01*
X86914286Y-165364895D02*
X86838095Y-165326800D01*
X86838095Y-165326800D02*
X86800000Y-165288704D01*
X86800000Y-165288704D02*
X86761905Y-165212514D01*
X86761905Y-165212514D02*
X86723809Y-165060133D01*
X86723809Y-165060133D02*
X86723809Y-164869657D01*
X86723809Y-164869657D02*
X86761905Y-164717276D01*
X86761905Y-164717276D02*
X86800000Y-164641085D01*
X86800000Y-164641085D02*
X86838095Y-164602990D01*
X86838095Y-164602990D02*
X86914286Y-164564895D01*
X87333334Y-165441085D02*
X87942857Y-165441085D01*
X88247619Y-164907752D02*
X88171429Y-164869657D01*
X88171429Y-164869657D02*
X88133334Y-164831561D01*
X88133334Y-164831561D02*
X88095238Y-164755371D01*
X88095238Y-164755371D02*
X88095238Y-164717276D01*
X88095238Y-164717276D02*
X88133334Y-164641085D01*
X88133334Y-164641085D02*
X88171429Y-164602990D01*
X88171429Y-164602990D02*
X88247619Y-164564895D01*
X88247619Y-164564895D02*
X88400000Y-164564895D01*
X88400000Y-164564895D02*
X88476191Y-164602990D01*
X88476191Y-164602990D02*
X88514286Y-164641085D01*
X88514286Y-164641085D02*
X88552381Y-164717276D01*
X88552381Y-164717276D02*
X88552381Y-164755371D01*
X88552381Y-164755371D02*
X88514286Y-164831561D01*
X88514286Y-164831561D02*
X88476191Y-164869657D01*
X88476191Y-164869657D02*
X88400000Y-164907752D01*
X88400000Y-164907752D02*
X88247619Y-164907752D01*
X88247619Y-164907752D02*
X88171429Y-164945847D01*
X88171429Y-164945847D02*
X88133334Y-164983942D01*
X88133334Y-164983942D02*
X88095238Y-165060133D01*
X88095238Y-165060133D02*
X88095238Y-165212514D01*
X88095238Y-165212514D02*
X88133334Y-165288704D01*
X88133334Y-165288704D02*
X88171429Y-165326800D01*
X88171429Y-165326800D02*
X88247619Y-165364895D01*
X88247619Y-165364895D02*
X88400000Y-165364895D01*
X88400000Y-165364895D02*
X88476191Y-165326800D01*
X88476191Y-165326800D02*
X88514286Y-165288704D01*
X88514286Y-165288704D02*
X88552381Y-165212514D01*
X88552381Y-165212514D02*
X88552381Y-165060133D01*
X88552381Y-165060133D02*
X88514286Y-164983942D01*
X88514286Y-164983942D02*
X88476191Y-164945847D01*
X88476191Y-164945847D02*
X88400000Y-164907752D01*
X88857143Y-165136323D02*
X89238096Y-165136323D01*
X88780953Y-165364895D02*
X89047620Y-164564895D01*
X89047620Y-164564895D02*
X89314286Y-165364895D01*
X76895237Y-148831561D02*
X76895237Y-149364895D01*
X76704761Y-148526800D02*
X76514284Y-149098228D01*
X76514284Y-149098228D02*
X77009523Y-149098228D01*
X77238094Y-148564895D02*
X77771428Y-148564895D01*
X77771428Y-148564895D02*
X77428570Y-149364895D01*
X78228571Y-148564895D02*
X78304761Y-148564895D01*
X78304761Y-148564895D02*
X78380952Y-148602990D01*
X78380952Y-148602990D02*
X78419047Y-148641085D01*
X78419047Y-148641085D02*
X78457142Y-148717276D01*
X78457142Y-148717276D02*
X78495237Y-148869657D01*
X78495237Y-148869657D02*
X78495237Y-149060133D01*
X78495237Y-149060133D02*
X78457142Y-149212514D01*
X78457142Y-149212514D02*
X78419047Y-149288704D01*
X78419047Y-149288704D02*
X78380952Y-149326800D01*
X78380952Y-149326800D02*
X78304761Y-149364895D01*
X78304761Y-149364895D02*
X78228571Y-149364895D01*
X78228571Y-149364895D02*
X78152380Y-149326800D01*
X78152380Y-149326800D02*
X78114285Y-149288704D01*
X78114285Y-149288704D02*
X78076190Y-149212514D01*
X78076190Y-149212514D02*
X78038094Y-149060133D01*
X78038094Y-149060133D02*
X78038094Y-148869657D01*
X78038094Y-148869657D02*
X78076190Y-148717276D01*
X78076190Y-148717276D02*
X78114285Y-148641085D01*
X78114285Y-148641085D02*
X78152380Y-148602990D01*
X78152380Y-148602990D02*
X78228571Y-148564895D01*
X78990476Y-148564895D02*
X79066666Y-148564895D01*
X79066666Y-148564895D02*
X79142857Y-148602990D01*
X79142857Y-148602990D02*
X79180952Y-148641085D01*
X79180952Y-148641085D02*
X79219047Y-148717276D01*
X79219047Y-148717276D02*
X79257142Y-148869657D01*
X79257142Y-148869657D02*
X79257142Y-149060133D01*
X79257142Y-149060133D02*
X79219047Y-149212514D01*
X79219047Y-149212514D02*
X79180952Y-149288704D01*
X79180952Y-149288704D02*
X79142857Y-149326800D01*
X79142857Y-149326800D02*
X79066666Y-149364895D01*
X79066666Y-149364895D02*
X78990476Y-149364895D01*
X78990476Y-149364895D02*
X78914285Y-149326800D01*
X78914285Y-149326800D02*
X78876190Y-149288704D01*
X78876190Y-149288704D02*
X78838095Y-149212514D01*
X78838095Y-149212514D02*
X78799999Y-149060133D01*
X78799999Y-149060133D02*
X78799999Y-148869657D01*
X78799999Y-148869657D02*
X78838095Y-148717276D01*
X78838095Y-148717276D02*
X78876190Y-148641085D01*
X78876190Y-148641085D02*
X78914285Y-148602990D01*
X78914285Y-148602990D02*
X78990476Y-148564895D01*
X79942857Y-148831561D02*
X79942857Y-149364895D01*
X79600000Y-148831561D02*
X79600000Y-149250609D01*
X79600000Y-149250609D02*
X79638095Y-149326800D01*
X79638095Y-149326800D02*
X79714285Y-149364895D01*
X79714285Y-149364895D02*
X79828571Y-149364895D01*
X79828571Y-149364895D02*
X79904762Y-149326800D01*
X79904762Y-149326800D02*
X79942857Y-149288704D01*
X80590476Y-148945847D02*
X80323810Y-148945847D01*
X80323810Y-149364895D02*
X80323810Y-148564895D01*
X80323810Y-148564895D02*
X80704762Y-148564895D01*
X80819048Y-149441085D02*
X81428571Y-149441085D01*
X81542857Y-148564895D02*
X82038095Y-148564895D01*
X82038095Y-148564895D02*
X81771429Y-148869657D01*
X81771429Y-148869657D02*
X81885714Y-148869657D01*
X81885714Y-148869657D02*
X81961905Y-148907752D01*
X81961905Y-148907752D02*
X82000000Y-148945847D01*
X82000000Y-148945847D02*
X82038095Y-149022038D01*
X82038095Y-149022038D02*
X82038095Y-149212514D01*
X82038095Y-149212514D02*
X82000000Y-149288704D01*
X82000000Y-149288704D02*
X81961905Y-149326800D01*
X81961905Y-149326800D02*
X81885714Y-149364895D01*
X81885714Y-149364895D02*
X81657143Y-149364895D01*
X81657143Y-149364895D02*
X81580952Y-149326800D01*
X81580952Y-149326800D02*
X81542857Y-149288704D01*
X82761905Y-148564895D02*
X82380953Y-148564895D01*
X82380953Y-148564895D02*
X82342857Y-148945847D01*
X82342857Y-148945847D02*
X82380953Y-148907752D01*
X82380953Y-148907752D02*
X82457143Y-148869657D01*
X82457143Y-148869657D02*
X82647619Y-148869657D01*
X82647619Y-148869657D02*
X82723810Y-148907752D01*
X82723810Y-148907752D02*
X82761905Y-148945847D01*
X82761905Y-148945847D02*
X82800000Y-149022038D01*
X82800000Y-149022038D02*
X82800000Y-149212514D01*
X82800000Y-149212514D02*
X82761905Y-149288704D01*
X82761905Y-149288704D02*
X82723810Y-149326800D01*
X82723810Y-149326800D02*
X82647619Y-149364895D01*
X82647619Y-149364895D02*
X82457143Y-149364895D01*
X82457143Y-149364895D02*
X82380953Y-149326800D01*
X82380953Y-149326800D02*
X82342857Y-149288704D01*
X83028572Y-148564895D02*
X83295239Y-149364895D01*
X83295239Y-149364895D02*
X83561905Y-148564895D01*
X76895237Y-122831561D02*
X76895237Y-123364895D01*
X76704761Y-122526800D02*
X76514284Y-123098228D01*
X76514284Y-123098228D02*
X77009523Y-123098228D01*
X77238094Y-122564895D02*
X77771428Y-122564895D01*
X77771428Y-122564895D02*
X77428570Y-123364895D01*
X78228571Y-122564895D02*
X78304761Y-122564895D01*
X78304761Y-122564895D02*
X78380952Y-122602990D01*
X78380952Y-122602990D02*
X78419047Y-122641085D01*
X78419047Y-122641085D02*
X78457142Y-122717276D01*
X78457142Y-122717276D02*
X78495237Y-122869657D01*
X78495237Y-122869657D02*
X78495237Y-123060133D01*
X78495237Y-123060133D02*
X78457142Y-123212514D01*
X78457142Y-123212514D02*
X78419047Y-123288704D01*
X78419047Y-123288704D02*
X78380952Y-123326800D01*
X78380952Y-123326800D02*
X78304761Y-123364895D01*
X78304761Y-123364895D02*
X78228571Y-123364895D01*
X78228571Y-123364895D02*
X78152380Y-123326800D01*
X78152380Y-123326800D02*
X78114285Y-123288704D01*
X78114285Y-123288704D02*
X78076190Y-123212514D01*
X78076190Y-123212514D02*
X78038094Y-123060133D01*
X78038094Y-123060133D02*
X78038094Y-122869657D01*
X78038094Y-122869657D02*
X78076190Y-122717276D01*
X78076190Y-122717276D02*
X78114285Y-122641085D01*
X78114285Y-122641085D02*
X78152380Y-122602990D01*
X78152380Y-122602990D02*
X78228571Y-122564895D01*
X78990476Y-122564895D02*
X79066666Y-122564895D01*
X79066666Y-122564895D02*
X79142857Y-122602990D01*
X79142857Y-122602990D02*
X79180952Y-122641085D01*
X79180952Y-122641085D02*
X79219047Y-122717276D01*
X79219047Y-122717276D02*
X79257142Y-122869657D01*
X79257142Y-122869657D02*
X79257142Y-123060133D01*
X79257142Y-123060133D02*
X79219047Y-123212514D01*
X79219047Y-123212514D02*
X79180952Y-123288704D01*
X79180952Y-123288704D02*
X79142857Y-123326800D01*
X79142857Y-123326800D02*
X79066666Y-123364895D01*
X79066666Y-123364895D02*
X78990476Y-123364895D01*
X78990476Y-123364895D02*
X78914285Y-123326800D01*
X78914285Y-123326800D02*
X78876190Y-123288704D01*
X78876190Y-123288704D02*
X78838095Y-123212514D01*
X78838095Y-123212514D02*
X78799999Y-123060133D01*
X78799999Y-123060133D02*
X78799999Y-122869657D01*
X78799999Y-122869657D02*
X78838095Y-122717276D01*
X78838095Y-122717276D02*
X78876190Y-122641085D01*
X78876190Y-122641085D02*
X78914285Y-122602990D01*
X78914285Y-122602990D02*
X78990476Y-122564895D01*
X79942857Y-122831561D02*
X79942857Y-123364895D01*
X79600000Y-122831561D02*
X79600000Y-123250609D01*
X79600000Y-123250609D02*
X79638095Y-123326800D01*
X79638095Y-123326800D02*
X79714285Y-123364895D01*
X79714285Y-123364895D02*
X79828571Y-123364895D01*
X79828571Y-123364895D02*
X79904762Y-123326800D01*
X79904762Y-123326800D02*
X79942857Y-123288704D01*
X80590476Y-122945847D02*
X80323810Y-122945847D01*
X80323810Y-123364895D02*
X80323810Y-122564895D01*
X80323810Y-122564895D02*
X80704762Y-122564895D01*
X80819048Y-123441085D02*
X81428571Y-123441085D01*
X81542857Y-122564895D02*
X82038095Y-122564895D01*
X82038095Y-122564895D02*
X81771429Y-122869657D01*
X81771429Y-122869657D02*
X81885714Y-122869657D01*
X81885714Y-122869657D02*
X81961905Y-122907752D01*
X81961905Y-122907752D02*
X82000000Y-122945847D01*
X82000000Y-122945847D02*
X82038095Y-123022038D01*
X82038095Y-123022038D02*
X82038095Y-123212514D01*
X82038095Y-123212514D02*
X82000000Y-123288704D01*
X82000000Y-123288704D02*
X81961905Y-123326800D01*
X81961905Y-123326800D02*
X81885714Y-123364895D01*
X81885714Y-123364895D02*
X81657143Y-123364895D01*
X81657143Y-123364895D02*
X81580952Y-123326800D01*
X81580952Y-123326800D02*
X81542857Y-123288704D01*
X82761905Y-122564895D02*
X82380953Y-122564895D01*
X82380953Y-122564895D02*
X82342857Y-122945847D01*
X82342857Y-122945847D02*
X82380953Y-122907752D01*
X82380953Y-122907752D02*
X82457143Y-122869657D01*
X82457143Y-122869657D02*
X82647619Y-122869657D01*
X82647619Y-122869657D02*
X82723810Y-122907752D01*
X82723810Y-122907752D02*
X82761905Y-122945847D01*
X82761905Y-122945847D02*
X82800000Y-123022038D01*
X82800000Y-123022038D02*
X82800000Y-123212514D01*
X82800000Y-123212514D02*
X82761905Y-123288704D01*
X82761905Y-123288704D02*
X82723810Y-123326800D01*
X82723810Y-123326800D02*
X82647619Y-123364895D01*
X82647619Y-123364895D02*
X82457143Y-123364895D01*
X82457143Y-123364895D02*
X82380953Y-123326800D01*
X82380953Y-123326800D02*
X82342857Y-123288704D01*
X83028572Y-122564895D02*
X83295239Y-123364895D01*
X83295239Y-123364895D02*
X83561905Y-122564895D01*
X58819047Y-116364895D02*
X58438095Y-116364895D01*
X58438095Y-116364895D02*
X58438095Y-115564895D01*
X59085714Y-116364895D02*
X59085714Y-115564895D01*
X59085714Y-115564895D02*
X59352380Y-116136323D01*
X59352380Y-116136323D02*
X59619047Y-115564895D01*
X59619047Y-115564895D02*
X59619047Y-116364895D01*
X59961904Y-115641085D02*
X60000000Y-115602990D01*
X60000000Y-115602990D02*
X60076190Y-115564895D01*
X60076190Y-115564895D02*
X60266666Y-115564895D01*
X60266666Y-115564895D02*
X60342857Y-115602990D01*
X60342857Y-115602990D02*
X60380952Y-115641085D01*
X60380952Y-115641085D02*
X60419047Y-115717276D01*
X60419047Y-115717276D02*
X60419047Y-115793466D01*
X60419047Y-115793466D02*
X60380952Y-115907752D01*
X60380952Y-115907752D02*
X59923809Y-116364895D01*
X59923809Y-116364895D02*
X60419047Y-116364895D01*
X61142857Y-115564895D02*
X60761905Y-115564895D01*
X60761905Y-115564895D02*
X60723809Y-115945847D01*
X60723809Y-115945847D02*
X60761905Y-115907752D01*
X60761905Y-115907752D02*
X60838095Y-115869657D01*
X60838095Y-115869657D02*
X61028571Y-115869657D01*
X61028571Y-115869657D02*
X61104762Y-115907752D01*
X61104762Y-115907752D02*
X61142857Y-115945847D01*
X61142857Y-115945847D02*
X61180952Y-116022038D01*
X61180952Y-116022038D02*
X61180952Y-116212514D01*
X61180952Y-116212514D02*
X61142857Y-116288704D01*
X61142857Y-116288704D02*
X61104762Y-116326800D01*
X61104762Y-116326800D02*
X61028571Y-116364895D01*
X61028571Y-116364895D02*
X60838095Y-116364895D01*
X60838095Y-116364895D02*
X60761905Y-116326800D01*
X60761905Y-116326800D02*
X60723809Y-116288704D01*
X61561905Y-116364895D02*
X61714286Y-116364895D01*
X61714286Y-116364895D02*
X61790476Y-116326800D01*
X61790476Y-116326800D02*
X61828572Y-116288704D01*
X61828572Y-116288704D02*
X61904762Y-116174419D01*
X61904762Y-116174419D02*
X61942857Y-116022038D01*
X61942857Y-116022038D02*
X61942857Y-115717276D01*
X61942857Y-115717276D02*
X61904762Y-115641085D01*
X61904762Y-115641085D02*
X61866667Y-115602990D01*
X61866667Y-115602990D02*
X61790476Y-115564895D01*
X61790476Y-115564895D02*
X61638095Y-115564895D01*
X61638095Y-115564895D02*
X61561905Y-115602990D01*
X61561905Y-115602990D02*
X61523810Y-115641085D01*
X61523810Y-115641085D02*
X61485714Y-115717276D01*
X61485714Y-115717276D02*
X61485714Y-115907752D01*
X61485714Y-115907752D02*
X61523810Y-115983942D01*
X61523810Y-115983942D02*
X61561905Y-116022038D01*
X61561905Y-116022038D02*
X61638095Y-116060133D01*
X61638095Y-116060133D02*
X61790476Y-116060133D01*
X61790476Y-116060133D02*
X61866667Y-116022038D01*
X61866667Y-116022038D02*
X61904762Y-115983942D01*
X61904762Y-115983942D02*
X61942857Y-115907752D01*
X62628572Y-115564895D02*
X62476191Y-115564895D01*
X62476191Y-115564895D02*
X62400000Y-115602990D01*
X62400000Y-115602990D02*
X62361905Y-115641085D01*
X62361905Y-115641085D02*
X62285715Y-115755371D01*
X62285715Y-115755371D02*
X62247619Y-115907752D01*
X62247619Y-115907752D02*
X62247619Y-116212514D01*
X62247619Y-116212514D02*
X62285715Y-116288704D01*
X62285715Y-116288704D02*
X62323810Y-116326800D01*
X62323810Y-116326800D02*
X62400000Y-116364895D01*
X62400000Y-116364895D02*
X62552381Y-116364895D01*
X62552381Y-116364895D02*
X62628572Y-116326800D01*
X62628572Y-116326800D02*
X62666667Y-116288704D01*
X62666667Y-116288704D02*
X62704762Y-116212514D01*
X62704762Y-116212514D02*
X62704762Y-116022038D01*
X62704762Y-116022038D02*
X62666667Y-115945847D01*
X62666667Y-115945847D02*
X62628572Y-115907752D01*
X62628572Y-115907752D02*
X62552381Y-115869657D01*
X62552381Y-115869657D02*
X62400000Y-115869657D01*
X62400000Y-115869657D02*
X62323810Y-115907752D01*
X62323810Y-115907752D02*
X62285715Y-115945847D01*
X62285715Y-115945847D02*
X62247619Y-116022038D01*
X63047620Y-116060133D02*
X63657144Y-116060133D01*
X64419048Y-115564895D02*
X64038096Y-115564895D01*
X64038096Y-115564895D02*
X64000000Y-115945847D01*
X64000000Y-115945847D02*
X64038096Y-115907752D01*
X64038096Y-115907752D02*
X64114286Y-115869657D01*
X64114286Y-115869657D02*
X64304762Y-115869657D01*
X64304762Y-115869657D02*
X64380953Y-115907752D01*
X64380953Y-115907752D02*
X64419048Y-115945847D01*
X64419048Y-115945847D02*
X64457143Y-116022038D01*
X64457143Y-116022038D02*
X64457143Y-116212514D01*
X64457143Y-116212514D02*
X64419048Y-116288704D01*
X64419048Y-116288704D02*
X64380953Y-116326800D01*
X64380953Y-116326800D02*
X64304762Y-116364895D01*
X64304762Y-116364895D02*
X64114286Y-116364895D01*
X64114286Y-116364895D02*
X64038096Y-116326800D01*
X64038096Y-116326800D02*
X64000000Y-116288704D01*
X64800001Y-116288704D02*
X64838096Y-116326800D01*
X64838096Y-116326800D02*
X64800001Y-116364895D01*
X64800001Y-116364895D02*
X64761905Y-116326800D01*
X64761905Y-116326800D02*
X64800001Y-116288704D01*
X64800001Y-116288704D02*
X64800001Y-116364895D01*
X65333334Y-115564895D02*
X65409524Y-115564895D01*
X65409524Y-115564895D02*
X65485715Y-115602990D01*
X65485715Y-115602990D02*
X65523810Y-115641085D01*
X65523810Y-115641085D02*
X65561905Y-115717276D01*
X65561905Y-115717276D02*
X65600000Y-115869657D01*
X65600000Y-115869657D02*
X65600000Y-116060133D01*
X65600000Y-116060133D02*
X65561905Y-116212514D01*
X65561905Y-116212514D02*
X65523810Y-116288704D01*
X65523810Y-116288704D02*
X65485715Y-116326800D01*
X65485715Y-116326800D02*
X65409524Y-116364895D01*
X65409524Y-116364895D02*
X65333334Y-116364895D01*
X65333334Y-116364895D02*
X65257143Y-116326800D01*
X65257143Y-116326800D02*
X65219048Y-116288704D01*
X65219048Y-116288704D02*
X65180953Y-116212514D01*
X65180953Y-116212514D02*
X65142857Y-116060133D01*
X65142857Y-116060133D02*
X65142857Y-115869657D01*
X65142857Y-115869657D02*
X65180953Y-115717276D01*
X65180953Y-115717276D02*
X65219048Y-115641085D01*
X65219048Y-115641085D02*
X65257143Y-115602990D01*
X65257143Y-115602990D02*
X65333334Y-115564895D01*
X57999999Y-86136323D02*
X58380952Y-86136323D01*
X57923809Y-86364895D02*
X58190476Y-85564895D01*
X58190476Y-85564895D02*
X58457142Y-86364895D01*
X58723809Y-86364895D02*
X58723809Y-85564895D01*
X58723809Y-85564895D02*
X58990475Y-86136323D01*
X58990475Y-86136323D02*
X59257142Y-85564895D01*
X59257142Y-85564895D02*
X59257142Y-86364895D01*
X59599999Y-86326800D02*
X59714285Y-86364895D01*
X59714285Y-86364895D02*
X59904761Y-86364895D01*
X59904761Y-86364895D02*
X59980952Y-86326800D01*
X59980952Y-86326800D02*
X60019047Y-86288704D01*
X60019047Y-86288704D02*
X60057142Y-86212514D01*
X60057142Y-86212514D02*
X60057142Y-86136323D01*
X60057142Y-86136323D02*
X60019047Y-86060133D01*
X60019047Y-86060133D02*
X59980952Y-86022038D01*
X59980952Y-86022038D02*
X59904761Y-85983942D01*
X59904761Y-85983942D02*
X59752380Y-85945847D01*
X59752380Y-85945847D02*
X59676190Y-85907752D01*
X59676190Y-85907752D02*
X59638095Y-85869657D01*
X59638095Y-85869657D02*
X59599999Y-85793466D01*
X59599999Y-85793466D02*
X59599999Y-85717276D01*
X59599999Y-85717276D02*
X59638095Y-85641085D01*
X59638095Y-85641085D02*
X59676190Y-85602990D01*
X59676190Y-85602990D02*
X59752380Y-85564895D01*
X59752380Y-85564895D02*
X59942857Y-85564895D01*
X59942857Y-85564895D02*
X60057142Y-85602990D01*
X60819047Y-86364895D02*
X60361904Y-86364895D01*
X60590476Y-86364895D02*
X60590476Y-85564895D01*
X60590476Y-85564895D02*
X60514285Y-85679180D01*
X60514285Y-85679180D02*
X60438095Y-85755371D01*
X60438095Y-85755371D02*
X60361904Y-85793466D01*
X61580952Y-86364895D02*
X61123809Y-86364895D01*
X61352381Y-86364895D02*
X61352381Y-85564895D01*
X61352381Y-85564895D02*
X61276190Y-85679180D01*
X61276190Y-85679180D02*
X61200000Y-85755371D01*
X61200000Y-85755371D02*
X61123809Y-85793466D01*
X62342857Y-86364895D02*
X61885714Y-86364895D01*
X62114286Y-86364895D02*
X62114286Y-85564895D01*
X62114286Y-85564895D02*
X62038095Y-85679180D01*
X62038095Y-85679180D02*
X61961905Y-85755371D01*
X61961905Y-85755371D02*
X61885714Y-85793466D01*
X62609524Y-85564895D02*
X63142858Y-85564895D01*
X63142858Y-85564895D02*
X62800000Y-86364895D01*
X63447620Y-86060133D02*
X64057144Y-86060133D01*
X64361905Y-85564895D02*
X64857143Y-85564895D01*
X64857143Y-85564895D02*
X64590477Y-85869657D01*
X64590477Y-85869657D02*
X64704762Y-85869657D01*
X64704762Y-85869657D02*
X64780953Y-85907752D01*
X64780953Y-85907752D02*
X64819048Y-85945847D01*
X64819048Y-85945847D02*
X64857143Y-86022038D01*
X64857143Y-86022038D02*
X64857143Y-86212514D01*
X64857143Y-86212514D02*
X64819048Y-86288704D01*
X64819048Y-86288704D02*
X64780953Y-86326800D01*
X64780953Y-86326800D02*
X64704762Y-86364895D01*
X64704762Y-86364895D02*
X64476191Y-86364895D01*
X64476191Y-86364895D02*
X64400000Y-86326800D01*
X64400000Y-86326800D02*
X64361905Y-86288704D01*
X65200001Y-86288704D02*
X65238096Y-86326800D01*
X65238096Y-86326800D02*
X65200001Y-86364895D01*
X65200001Y-86364895D02*
X65161905Y-86326800D01*
X65161905Y-86326800D02*
X65200001Y-86288704D01*
X65200001Y-86288704D02*
X65200001Y-86364895D01*
X65504762Y-85564895D02*
X66000000Y-85564895D01*
X66000000Y-85564895D02*
X65733334Y-85869657D01*
X65733334Y-85869657D02*
X65847619Y-85869657D01*
X65847619Y-85869657D02*
X65923810Y-85907752D01*
X65923810Y-85907752D02*
X65961905Y-85945847D01*
X65961905Y-85945847D02*
X66000000Y-86022038D01*
X66000000Y-86022038D02*
X66000000Y-86212514D01*
X66000000Y-86212514D02*
X65961905Y-86288704D01*
X65961905Y-86288704D02*
X65923810Y-86326800D01*
X65923810Y-86326800D02*
X65847619Y-86364895D01*
X65847619Y-86364895D02*
X65619048Y-86364895D01*
X65619048Y-86364895D02*
X65542857Y-86326800D01*
X65542857Y-86326800D02*
X65504762Y-86288704D01*
X79561904Y-84564895D02*
X80019047Y-84564895D01*
X79790475Y-85364895D02*
X79790475Y-84564895D01*
X80666666Y-85364895D02*
X80285714Y-85364895D01*
X80285714Y-85364895D02*
X80285714Y-84564895D01*
X80933333Y-84945847D02*
X81199999Y-84945847D01*
X81314285Y-85364895D02*
X80933333Y-85364895D01*
X80933333Y-85364895D02*
X80933333Y-84564895D01*
X80933333Y-84564895D02*
X81314285Y-84564895D01*
X81619047Y-84641085D02*
X81657143Y-84602990D01*
X81657143Y-84602990D02*
X81733333Y-84564895D01*
X81733333Y-84564895D02*
X81923809Y-84564895D01*
X81923809Y-84564895D02*
X82000000Y-84602990D01*
X82000000Y-84602990D02*
X82038095Y-84641085D01*
X82038095Y-84641085D02*
X82076190Y-84717276D01*
X82076190Y-84717276D02*
X82076190Y-84793466D01*
X82076190Y-84793466D02*
X82038095Y-84907752D01*
X82038095Y-84907752D02*
X81580952Y-85364895D01*
X81580952Y-85364895D02*
X82076190Y-85364895D01*
X82761905Y-84831561D02*
X82761905Y-85364895D01*
X82571429Y-84526800D02*
X82380952Y-85098228D01*
X82380952Y-85098228D02*
X82876191Y-85098228D01*
X83142857Y-84641085D02*
X83180953Y-84602990D01*
X83180953Y-84602990D02*
X83257143Y-84564895D01*
X83257143Y-84564895D02*
X83447619Y-84564895D01*
X83447619Y-84564895D02*
X83523810Y-84602990D01*
X83523810Y-84602990D02*
X83561905Y-84641085D01*
X83561905Y-84641085D02*
X83600000Y-84717276D01*
X83600000Y-84717276D02*
X83600000Y-84793466D01*
X83600000Y-84793466D02*
X83561905Y-84907752D01*
X83561905Y-84907752D02*
X83104762Y-85364895D01*
X83104762Y-85364895D02*
X83600000Y-85364895D01*
X84285715Y-84564895D02*
X84133334Y-84564895D01*
X84133334Y-84564895D02*
X84057143Y-84602990D01*
X84057143Y-84602990D02*
X84019048Y-84641085D01*
X84019048Y-84641085D02*
X83942858Y-84755371D01*
X83942858Y-84755371D02*
X83904762Y-84907752D01*
X83904762Y-84907752D02*
X83904762Y-85212514D01*
X83904762Y-85212514D02*
X83942858Y-85288704D01*
X83942858Y-85288704D02*
X83980953Y-85326800D01*
X83980953Y-85326800D02*
X84057143Y-85364895D01*
X84057143Y-85364895D02*
X84209524Y-85364895D01*
X84209524Y-85364895D02*
X84285715Y-85326800D01*
X84285715Y-85326800D02*
X84323810Y-85288704D01*
X84323810Y-85288704D02*
X84361905Y-85212514D01*
X84361905Y-85212514D02*
X84361905Y-85022038D01*
X84361905Y-85022038D02*
X84323810Y-84945847D01*
X84323810Y-84945847D02*
X84285715Y-84907752D01*
X84285715Y-84907752D02*
X84209524Y-84869657D01*
X84209524Y-84869657D02*
X84057143Y-84869657D01*
X84057143Y-84869657D02*
X83980953Y-84907752D01*
X83980953Y-84907752D02*
X83942858Y-84945847D01*
X83942858Y-84945847D02*
X83904762Y-85022038D01*
X101647618Y-76564895D02*
X102142856Y-76564895D01*
X102142856Y-76564895D02*
X101876190Y-76869657D01*
X101876190Y-76869657D02*
X101990475Y-76869657D01*
X101990475Y-76869657D02*
X102066666Y-76907752D01*
X102066666Y-76907752D02*
X102104761Y-76945847D01*
X102104761Y-76945847D02*
X102142856Y-77022038D01*
X102142856Y-77022038D02*
X102142856Y-77212514D01*
X102142856Y-77212514D02*
X102104761Y-77288704D01*
X102104761Y-77288704D02*
X102066666Y-77326800D01*
X102066666Y-77326800D02*
X101990475Y-77364895D01*
X101990475Y-77364895D02*
X101761904Y-77364895D01*
X101761904Y-77364895D02*
X101685713Y-77326800D01*
X101685713Y-77326800D02*
X101647618Y-77288704D01*
X102485714Y-77288704D02*
X102523809Y-77326800D01*
X102523809Y-77326800D02*
X102485714Y-77364895D01*
X102485714Y-77364895D02*
X102447618Y-77326800D01*
X102447618Y-77326800D02*
X102485714Y-77288704D01*
X102485714Y-77288704D02*
X102485714Y-77364895D01*
X103247618Y-76564895D02*
X102866666Y-76564895D01*
X102866666Y-76564895D02*
X102828570Y-76945847D01*
X102828570Y-76945847D02*
X102866666Y-76907752D01*
X102866666Y-76907752D02*
X102942856Y-76869657D01*
X102942856Y-76869657D02*
X103133332Y-76869657D01*
X103133332Y-76869657D02*
X103209523Y-76907752D01*
X103209523Y-76907752D02*
X103247618Y-76945847D01*
X103247618Y-76945847D02*
X103285713Y-77022038D01*
X103285713Y-77022038D02*
X103285713Y-77212514D01*
X103285713Y-77212514D02*
X103247618Y-77288704D01*
X103247618Y-77288704D02*
X103209523Y-77326800D01*
X103209523Y-77326800D02*
X103133332Y-77364895D01*
X103133332Y-77364895D02*
X102942856Y-77364895D01*
X102942856Y-77364895D02*
X102866666Y-77326800D01*
X102866666Y-77326800D02*
X102828570Y-77288704D01*
X103628571Y-77364895D02*
X103628571Y-76831561D01*
X103628571Y-76907752D02*
X103666666Y-76869657D01*
X103666666Y-76869657D02*
X103742856Y-76831561D01*
X103742856Y-76831561D02*
X103857142Y-76831561D01*
X103857142Y-76831561D02*
X103933333Y-76869657D01*
X103933333Y-76869657D02*
X103971428Y-76945847D01*
X103971428Y-76945847D02*
X103971428Y-77364895D01*
X103971428Y-76945847D02*
X104009523Y-76869657D01*
X104009523Y-76869657D02*
X104085714Y-76831561D01*
X104085714Y-76831561D02*
X104199999Y-76831561D01*
X104199999Y-76831561D02*
X104276190Y-76869657D01*
X104276190Y-76869657D02*
X104314285Y-76945847D01*
X104314285Y-76945847D02*
X104314285Y-77364895D01*
X104695238Y-77364895D02*
X104695238Y-76831561D01*
X104695238Y-76907752D02*
X104733333Y-76869657D01*
X104733333Y-76869657D02*
X104809523Y-76831561D01*
X104809523Y-76831561D02*
X104923809Y-76831561D01*
X104923809Y-76831561D02*
X105000000Y-76869657D01*
X105000000Y-76869657D02*
X105038095Y-76945847D01*
X105038095Y-76945847D02*
X105038095Y-77364895D01*
X105038095Y-76945847D02*
X105076190Y-76869657D01*
X105076190Y-76869657D02*
X105152381Y-76831561D01*
X105152381Y-76831561D02*
X105266666Y-76831561D01*
X105266666Y-76831561D02*
X105342857Y-76869657D01*
X105342857Y-76869657D02*
X105380952Y-76945847D01*
X105380952Y-76945847D02*
X105380952Y-77364895D01*
X105571429Y-77441085D02*
X106180952Y-77441085D01*
X106333333Y-77136323D02*
X106714286Y-77136323D01*
X106257143Y-77364895D02*
X106523810Y-76564895D01*
X106523810Y-76564895D02*
X106790476Y-77364895D01*
X107057143Y-76564895D02*
X107057143Y-77212514D01*
X107057143Y-77212514D02*
X107095238Y-77288704D01*
X107095238Y-77288704D02*
X107133333Y-77326800D01*
X107133333Y-77326800D02*
X107209524Y-77364895D01*
X107209524Y-77364895D02*
X107361905Y-77364895D01*
X107361905Y-77364895D02*
X107438095Y-77326800D01*
X107438095Y-77326800D02*
X107476190Y-77288704D01*
X107476190Y-77288704D02*
X107514286Y-77212514D01*
X107514286Y-77212514D02*
X107514286Y-76564895D01*
X107819047Y-76564895D02*
X108352381Y-77364895D01*
X108352381Y-76564895D02*
X107819047Y-77364895D01*
X115580953Y-74564895D02*
X115580953Y-75212514D01*
X115580953Y-75212514D02*
X115619048Y-75288704D01*
X115619048Y-75288704D02*
X115657143Y-75326800D01*
X115657143Y-75326800D02*
X115733334Y-75364895D01*
X115733334Y-75364895D02*
X115885715Y-75364895D01*
X115885715Y-75364895D02*
X115961905Y-75326800D01*
X115961905Y-75326800D02*
X116000000Y-75288704D01*
X116000000Y-75288704D02*
X116038096Y-75212514D01*
X116038096Y-75212514D02*
X116038096Y-74564895D01*
X116380952Y-75326800D02*
X116495238Y-75364895D01*
X116495238Y-75364895D02*
X116685714Y-75364895D01*
X116685714Y-75364895D02*
X116761905Y-75326800D01*
X116761905Y-75326800D02*
X116800000Y-75288704D01*
X116800000Y-75288704D02*
X116838095Y-75212514D01*
X116838095Y-75212514D02*
X116838095Y-75136323D01*
X116838095Y-75136323D02*
X116800000Y-75060133D01*
X116800000Y-75060133D02*
X116761905Y-75022038D01*
X116761905Y-75022038D02*
X116685714Y-74983942D01*
X116685714Y-74983942D02*
X116533333Y-74945847D01*
X116533333Y-74945847D02*
X116457143Y-74907752D01*
X116457143Y-74907752D02*
X116419048Y-74869657D01*
X116419048Y-74869657D02*
X116380952Y-74793466D01*
X116380952Y-74793466D02*
X116380952Y-74717276D01*
X116380952Y-74717276D02*
X116419048Y-74641085D01*
X116419048Y-74641085D02*
X116457143Y-74602990D01*
X116457143Y-74602990D02*
X116533333Y-74564895D01*
X116533333Y-74564895D02*
X116723810Y-74564895D01*
X116723810Y-74564895D02*
X116838095Y-74602990D01*
X117447619Y-74945847D02*
X117561905Y-74983942D01*
X117561905Y-74983942D02*
X117600000Y-75022038D01*
X117600000Y-75022038D02*
X117638096Y-75098228D01*
X117638096Y-75098228D02*
X117638096Y-75212514D01*
X117638096Y-75212514D02*
X117600000Y-75288704D01*
X117600000Y-75288704D02*
X117561905Y-75326800D01*
X117561905Y-75326800D02*
X117485715Y-75364895D01*
X117485715Y-75364895D02*
X117180953Y-75364895D01*
X117180953Y-75364895D02*
X117180953Y-74564895D01*
X117180953Y-74564895D02*
X117447619Y-74564895D01*
X117447619Y-74564895D02*
X117523810Y-74602990D01*
X117523810Y-74602990D02*
X117561905Y-74641085D01*
X117561905Y-74641085D02*
X117600000Y-74717276D01*
X117600000Y-74717276D02*
X117600000Y-74793466D01*
X117600000Y-74793466D02*
X117561905Y-74869657D01*
X117561905Y-74869657D02*
X117523810Y-74907752D01*
X117523810Y-74907752D02*
X117447619Y-74945847D01*
X117447619Y-74945847D02*
X117180953Y-74945847D01*
X117790477Y-75441085D02*
X118400000Y-75441085D01*
X118552381Y-75136323D02*
X118933334Y-75136323D01*
X118476191Y-75364895D02*
X118742858Y-74564895D01*
X118742858Y-74564895D02*
X119009524Y-75364895D01*
X119276191Y-74564895D02*
X119276191Y-75212514D01*
X119276191Y-75212514D02*
X119314286Y-75288704D01*
X119314286Y-75288704D02*
X119352381Y-75326800D01*
X119352381Y-75326800D02*
X119428572Y-75364895D01*
X119428572Y-75364895D02*
X119580953Y-75364895D01*
X119580953Y-75364895D02*
X119657143Y-75326800D01*
X119657143Y-75326800D02*
X119695238Y-75288704D01*
X119695238Y-75288704D02*
X119733334Y-75212514D01*
X119733334Y-75212514D02*
X119733334Y-74564895D01*
X120114286Y-75364895D02*
X120114286Y-74564895D01*
X120114286Y-74564895D02*
X120304762Y-74564895D01*
X120304762Y-74564895D02*
X120419048Y-74602990D01*
X120419048Y-74602990D02*
X120495238Y-74679180D01*
X120495238Y-74679180D02*
X120533333Y-74755371D01*
X120533333Y-74755371D02*
X120571429Y-74907752D01*
X120571429Y-74907752D02*
X120571429Y-75022038D01*
X120571429Y-75022038D02*
X120533333Y-75174419D01*
X120533333Y-75174419D02*
X120495238Y-75250609D01*
X120495238Y-75250609D02*
X120419048Y-75326800D01*
X120419048Y-75326800D02*
X120304762Y-75364895D01*
X120304762Y-75364895D02*
X120114286Y-75364895D01*
X120914286Y-75364895D02*
X120914286Y-74564895D01*
X121447619Y-74564895D02*
X121600000Y-74564895D01*
X121600000Y-74564895D02*
X121676190Y-74602990D01*
X121676190Y-74602990D02*
X121752381Y-74679180D01*
X121752381Y-74679180D02*
X121790476Y-74831561D01*
X121790476Y-74831561D02*
X121790476Y-75098228D01*
X121790476Y-75098228D02*
X121752381Y-75250609D01*
X121752381Y-75250609D02*
X121676190Y-75326800D01*
X121676190Y-75326800D02*
X121600000Y-75364895D01*
X121600000Y-75364895D02*
X121447619Y-75364895D01*
X121447619Y-75364895D02*
X121371428Y-75326800D01*
X121371428Y-75326800D02*
X121295238Y-75250609D01*
X121295238Y-75250609D02*
X121257142Y-75098228D01*
X121257142Y-75098228D02*
X121257142Y-74831561D01*
X121257142Y-74831561D02*
X121295238Y-74679180D01*
X121295238Y-74679180D02*
X121371428Y-74602990D01*
X121371428Y-74602990D02*
X121447619Y-74564895D01*
X121942857Y-75441085D02*
X122552380Y-75441085D01*
X123123809Y-75364895D02*
X122742857Y-75364895D01*
X122742857Y-75364895D02*
X122742857Y-74564895D01*
X123200000Y-75441085D02*
X123809523Y-75441085D01*
X124457143Y-75364895D02*
X124190476Y-74983942D01*
X124000000Y-75364895D02*
X124000000Y-74564895D01*
X124000000Y-74564895D02*
X124304762Y-74564895D01*
X124304762Y-74564895D02*
X124380952Y-74602990D01*
X124380952Y-74602990D02*
X124419047Y-74641085D01*
X124419047Y-74641085D02*
X124457143Y-74717276D01*
X124457143Y-74717276D02*
X124457143Y-74831561D01*
X124457143Y-74831561D02*
X124419047Y-74907752D01*
X124419047Y-74907752D02*
X124380952Y-74945847D01*
X124380952Y-74945847D02*
X124304762Y-74983942D01*
X124304762Y-74983942D02*
X124000000Y-74983942D01*
X142247618Y-75441085D02*
X142171428Y-75402990D01*
X142171428Y-75402990D02*
X142095237Y-75326800D01*
X142095237Y-75326800D02*
X141980951Y-75212514D01*
X141980951Y-75212514D02*
X141904761Y-75174419D01*
X141904761Y-75174419D02*
X141828570Y-75174419D01*
X141866666Y-75364895D02*
X141790475Y-75326800D01*
X141790475Y-75326800D02*
X141714285Y-75250609D01*
X141714285Y-75250609D02*
X141676189Y-75098228D01*
X141676189Y-75098228D02*
X141676189Y-74831561D01*
X141676189Y-74831561D02*
X141714285Y-74679180D01*
X141714285Y-74679180D02*
X141790475Y-74602990D01*
X141790475Y-74602990D02*
X141866666Y-74564895D01*
X141866666Y-74564895D02*
X142019047Y-74564895D01*
X142019047Y-74564895D02*
X142095237Y-74602990D01*
X142095237Y-74602990D02*
X142171428Y-74679180D01*
X142171428Y-74679180D02*
X142209523Y-74831561D01*
X142209523Y-74831561D02*
X142209523Y-75098228D01*
X142209523Y-75098228D02*
X142171428Y-75250609D01*
X142171428Y-75250609D02*
X142095237Y-75326800D01*
X142095237Y-75326800D02*
X142019047Y-75364895D01*
X142019047Y-75364895D02*
X141866666Y-75364895D01*
X143009523Y-75288704D02*
X142971427Y-75326800D01*
X142971427Y-75326800D02*
X142857142Y-75364895D01*
X142857142Y-75364895D02*
X142780951Y-75364895D01*
X142780951Y-75364895D02*
X142666665Y-75326800D01*
X142666665Y-75326800D02*
X142590475Y-75250609D01*
X142590475Y-75250609D02*
X142552380Y-75174419D01*
X142552380Y-75174419D02*
X142514284Y-75022038D01*
X142514284Y-75022038D02*
X142514284Y-74907752D01*
X142514284Y-74907752D02*
X142552380Y-74755371D01*
X142552380Y-74755371D02*
X142590475Y-74679180D01*
X142590475Y-74679180D02*
X142666665Y-74602990D01*
X142666665Y-74602990D02*
X142780951Y-74564895D01*
X142780951Y-74564895D02*
X142857142Y-74564895D01*
X142857142Y-74564895D02*
X142971427Y-74602990D01*
X142971427Y-74602990D02*
X143009523Y-74641085D01*
X143809523Y-75288704D02*
X143771427Y-75326800D01*
X143771427Y-75326800D02*
X143657142Y-75364895D01*
X143657142Y-75364895D02*
X143580951Y-75364895D01*
X143580951Y-75364895D02*
X143466665Y-75326800D01*
X143466665Y-75326800D02*
X143390475Y-75250609D01*
X143390475Y-75250609D02*
X143352380Y-75174419D01*
X143352380Y-75174419D02*
X143314284Y-75022038D01*
X143314284Y-75022038D02*
X143314284Y-74907752D01*
X143314284Y-74907752D02*
X143352380Y-74755371D01*
X143352380Y-74755371D02*
X143390475Y-74679180D01*
X143390475Y-74679180D02*
X143466665Y-74602990D01*
X143466665Y-74602990D02*
X143580951Y-74564895D01*
X143580951Y-74564895D02*
X143657142Y-74564895D01*
X143657142Y-74564895D02*
X143771427Y-74602990D01*
X143771427Y-74602990D02*
X143809523Y-74641085D01*
X144076189Y-74564895D02*
X144571427Y-74564895D01*
X144571427Y-74564895D02*
X144304761Y-74869657D01*
X144304761Y-74869657D02*
X144419046Y-74869657D01*
X144419046Y-74869657D02*
X144495237Y-74907752D01*
X144495237Y-74907752D02*
X144533332Y-74945847D01*
X144533332Y-74945847D02*
X144571427Y-75022038D01*
X144571427Y-75022038D02*
X144571427Y-75212514D01*
X144571427Y-75212514D02*
X144533332Y-75288704D01*
X144533332Y-75288704D02*
X144495237Y-75326800D01*
X144495237Y-75326800D02*
X144419046Y-75364895D01*
X144419046Y-75364895D02*
X144190475Y-75364895D01*
X144190475Y-75364895D02*
X144114284Y-75326800D01*
X144114284Y-75326800D02*
X144076189Y-75288704D01*
X145066666Y-74564895D02*
X145142856Y-74564895D01*
X145142856Y-74564895D02*
X145219047Y-74602990D01*
X145219047Y-74602990D02*
X145257142Y-74641085D01*
X145257142Y-74641085D02*
X145295237Y-74717276D01*
X145295237Y-74717276D02*
X145333332Y-74869657D01*
X145333332Y-74869657D02*
X145333332Y-75060133D01*
X145333332Y-75060133D02*
X145295237Y-75212514D01*
X145295237Y-75212514D02*
X145257142Y-75288704D01*
X145257142Y-75288704D02*
X145219047Y-75326800D01*
X145219047Y-75326800D02*
X145142856Y-75364895D01*
X145142856Y-75364895D02*
X145066666Y-75364895D01*
X145066666Y-75364895D02*
X144990475Y-75326800D01*
X144990475Y-75326800D02*
X144952380Y-75288704D01*
X144952380Y-75288704D02*
X144914285Y-75212514D01*
X144914285Y-75212514D02*
X144876189Y-75060133D01*
X144876189Y-75060133D02*
X144876189Y-74869657D01*
X144876189Y-74869657D02*
X144914285Y-74717276D01*
X144914285Y-74717276D02*
X144952380Y-74641085D01*
X144952380Y-74641085D02*
X144990475Y-74602990D01*
X144990475Y-74602990D02*
X145066666Y-74564895D01*
X145828571Y-74564895D02*
X145904761Y-74564895D01*
X145904761Y-74564895D02*
X145980952Y-74602990D01*
X145980952Y-74602990D02*
X146019047Y-74641085D01*
X146019047Y-74641085D02*
X146057142Y-74717276D01*
X146057142Y-74717276D02*
X146095237Y-74869657D01*
X146095237Y-74869657D02*
X146095237Y-75060133D01*
X146095237Y-75060133D02*
X146057142Y-75212514D01*
X146057142Y-75212514D02*
X146019047Y-75288704D01*
X146019047Y-75288704D02*
X145980952Y-75326800D01*
X145980952Y-75326800D02*
X145904761Y-75364895D01*
X145904761Y-75364895D02*
X145828571Y-75364895D01*
X145828571Y-75364895D02*
X145752380Y-75326800D01*
X145752380Y-75326800D02*
X145714285Y-75288704D01*
X145714285Y-75288704D02*
X145676190Y-75212514D01*
X145676190Y-75212514D02*
X145638094Y-75060133D01*
X145638094Y-75060133D02*
X145638094Y-74869657D01*
X145638094Y-74869657D02*
X145676190Y-74717276D01*
X145676190Y-74717276D02*
X145714285Y-74641085D01*
X145714285Y-74641085D02*
X145752380Y-74602990D01*
X145752380Y-74602990D02*
X145828571Y-74564895D01*
X146552380Y-74907752D02*
X146476190Y-74869657D01*
X146476190Y-74869657D02*
X146438095Y-74831561D01*
X146438095Y-74831561D02*
X146399999Y-74755371D01*
X146399999Y-74755371D02*
X146399999Y-74717276D01*
X146399999Y-74717276D02*
X146438095Y-74641085D01*
X146438095Y-74641085D02*
X146476190Y-74602990D01*
X146476190Y-74602990D02*
X146552380Y-74564895D01*
X146552380Y-74564895D02*
X146704761Y-74564895D01*
X146704761Y-74564895D02*
X146780952Y-74602990D01*
X146780952Y-74602990D02*
X146819047Y-74641085D01*
X146819047Y-74641085D02*
X146857142Y-74717276D01*
X146857142Y-74717276D02*
X146857142Y-74755371D01*
X146857142Y-74755371D02*
X146819047Y-74831561D01*
X146819047Y-74831561D02*
X146780952Y-74869657D01*
X146780952Y-74869657D02*
X146704761Y-74907752D01*
X146704761Y-74907752D02*
X146552380Y-74907752D01*
X146552380Y-74907752D02*
X146476190Y-74945847D01*
X146476190Y-74945847D02*
X146438095Y-74983942D01*
X146438095Y-74983942D02*
X146399999Y-75060133D01*
X146399999Y-75060133D02*
X146399999Y-75212514D01*
X146399999Y-75212514D02*
X146438095Y-75288704D01*
X146438095Y-75288704D02*
X146476190Y-75326800D01*
X146476190Y-75326800D02*
X146552380Y-75364895D01*
X146552380Y-75364895D02*
X146704761Y-75364895D01*
X146704761Y-75364895D02*
X146780952Y-75326800D01*
X146780952Y-75326800D02*
X146819047Y-75288704D01*
X146819047Y-75288704D02*
X146857142Y-75212514D01*
X146857142Y-75212514D02*
X146857142Y-75060133D01*
X146857142Y-75060133D02*
X146819047Y-74983942D01*
X146819047Y-74983942D02*
X146780952Y-74945847D01*
X146780952Y-74945847D02*
X146704761Y-74907752D01*
X147009524Y-75441085D02*
X147619047Y-75441085D01*
X147771428Y-75136323D02*
X148152381Y-75136323D01*
X147695238Y-75364895D02*
X147961905Y-74564895D01*
X147961905Y-74564895D02*
X148228571Y-75364895D01*
X148495238Y-75364895D02*
X148495238Y-74564895D01*
X148495238Y-74564895D02*
X148800000Y-74564895D01*
X148800000Y-74564895D02*
X148876190Y-74602990D01*
X148876190Y-74602990D02*
X148914285Y-74641085D01*
X148914285Y-74641085D02*
X148952381Y-74717276D01*
X148952381Y-74717276D02*
X148952381Y-74831561D01*
X148952381Y-74831561D02*
X148914285Y-74907752D01*
X148914285Y-74907752D02*
X148876190Y-74945847D01*
X148876190Y-74945847D02*
X148800000Y-74983942D01*
X148800000Y-74983942D02*
X148495238Y-74983942D01*
X149180952Y-74564895D02*
X149638095Y-74564895D01*
X149409523Y-75364895D02*
X149409523Y-74564895D01*
X149828571Y-74564895D02*
X150361905Y-75364895D01*
X150361905Y-74564895D02*
X149828571Y-75364895D01*
X113323809Y-99288704D02*
X113285713Y-99326800D01*
X113285713Y-99326800D02*
X113171428Y-99364895D01*
X113171428Y-99364895D02*
X113095237Y-99364895D01*
X113095237Y-99364895D02*
X112980951Y-99326800D01*
X112980951Y-99326800D02*
X112904761Y-99250609D01*
X112904761Y-99250609D02*
X112866666Y-99174419D01*
X112866666Y-99174419D02*
X112828570Y-99022038D01*
X112828570Y-99022038D02*
X112828570Y-98907752D01*
X112828570Y-98907752D02*
X112866666Y-98755371D01*
X112866666Y-98755371D02*
X112904761Y-98679180D01*
X112904761Y-98679180D02*
X112980951Y-98602990D01*
X112980951Y-98602990D02*
X113095237Y-98564895D01*
X113095237Y-98564895D02*
X113171428Y-98564895D01*
X113171428Y-98564895D02*
X113285713Y-98602990D01*
X113285713Y-98602990D02*
X113323809Y-98641085D01*
X113666666Y-99364895D02*
X113666666Y-98564895D01*
X113666666Y-98564895D02*
X113857142Y-98564895D01*
X113857142Y-98564895D02*
X113971428Y-98602990D01*
X113971428Y-98602990D02*
X114047618Y-98679180D01*
X114047618Y-98679180D02*
X114085713Y-98755371D01*
X114085713Y-98755371D02*
X114123809Y-98907752D01*
X114123809Y-98907752D02*
X114123809Y-99022038D01*
X114123809Y-99022038D02*
X114085713Y-99174419D01*
X114085713Y-99174419D02*
X114047618Y-99250609D01*
X114047618Y-99250609D02*
X113971428Y-99326800D01*
X113971428Y-99326800D02*
X113857142Y-99364895D01*
X113857142Y-99364895D02*
X113666666Y-99364895D01*
X114809523Y-98831561D02*
X114809523Y-99364895D01*
X114619047Y-98526800D02*
X114428570Y-99098228D01*
X114428570Y-99098228D02*
X114923809Y-99098228D01*
X115380952Y-98564895D02*
X115457142Y-98564895D01*
X115457142Y-98564895D02*
X115533333Y-98602990D01*
X115533333Y-98602990D02*
X115571428Y-98641085D01*
X115571428Y-98641085D02*
X115609523Y-98717276D01*
X115609523Y-98717276D02*
X115647618Y-98869657D01*
X115647618Y-98869657D02*
X115647618Y-99060133D01*
X115647618Y-99060133D02*
X115609523Y-99212514D01*
X115609523Y-99212514D02*
X115571428Y-99288704D01*
X115571428Y-99288704D02*
X115533333Y-99326800D01*
X115533333Y-99326800D02*
X115457142Y-99364895D01*
X115457142Y-99364895D02*
X115380952Y-99364895D01*
X115380952Y-99364895D02*
X115304761Y-99326800D01*
X115304761Y-99326800D02*
X115266666Y-99288704D01*
X115266666Y-99288704D02*
X115228571Y-99212514D01*
X115228571Y-99212514D02*
X115190475Y-99060133D01*
X115190475Y-99060133D02*
X115190475Y-98869657D01*
X115190475Y-98869657D02*
X115228571Y-98717276D01*
X115228571Y-98717276D02*
X115266666Y-98641085D01*
X115266666Y-98641085D02*
X115304761Y-98602990D01*
X115304761Y-98602990D02*
X115380952Y-98564895D01*
X116371428Y-98564895D02*
X115990476Y-98564895D01*
X115990476Y-98564895D02*
X115952380Y-98945847D01*
X115952380Y-98945847D02*
X115990476Y-98907752D01*
X115990476Y-98907752D02*
X116066666Y-98869657D01*
X116066666Y-98869657D02*
X116257142Y-98869657D01*
X116257142Y-98869657D02*
X116333333Y-98907752D01*
X116333333Y-98907752D02*
X116371428Y-98945847D01*
X116371428Y-98945847D02*
X116409523Y-99022038D01*
X116409523Y-99022038D02*
X116409523Y-99212514D01*
X116409523Y-99212514D02*
X116371428Y-99288704D01*
X116371428Y-99288704D02*
X116333333Y-99326800D01*
X116333333Y-99326800D02*
X116257142Y-99364895D01*
X116257142Y-99364895D02*
X116066666Y-99364895D01*
X116066666Y-99364895D02*
X115990476Y-99326800D01*
X115990476Y-99326800D02*
X115952380Y-99288704D01*
X116714285Y-98641085D02*
X116752381Y-98602990D01*
X116752381Y-98602990D02*
X116828571Y-98564895D01*
X116828571Y-98564895D02*
X117019047Y-98564895D01*
X117019047Y-98564895D02*
X117095238Y-98602990D01*
X117095238Y-98602990D02*
X117133333Y-98641085D01*
X117133333Y-98641085D02*
X117171428Y-98717276D01*
X117171428Y-98717276D02*
X117171428Y-98793466D01*
X117171428Y-98793466D02*
X117133333Y-98907752D01*
X117133333Y-98907752D02*
X116676190Y-99364895D01*
X116676190Y-99364895D02*
X117171428Y-99364895D01*
X132409523Y-99364895D02*
X132409523Y-98564895D01*
X132409523Y-98564895D02*
X132676189Y-99136323D01*
X132676189Y-99136323D02*
X132942856Y-98564895D01*
X132942856Y-98564895D02*
X132942856Y-99364895D01*
X133780952Y-99288704D02*
X133742856Y-99326800D01*
X133742856Y-99326800D02*
X133628571Y-99364895D01*
X133628571Y-99364895D02*
X133552380Y-99364895D01*
X133552380Y-99364895D02*
X133438094Y-99326800D01*
X133438094Y-99326800D02*
X133361904Y-99250609D01*
X133361904Y-99250609D02*
X133323809Y-99174419D01*
X133323809Y-99174419D02*
X133285713Y-99022038D01*
X133285713Y-99022038D02*
X133285713Y-98907752D01*
X133285713Y-98907752D02*
X133323809Y-98755371D01*
X133323809Y-98755371D02*
X133361904Y-98679180D01*
X133361904Y-98679180D02*
X133438094Y-98602990D01*
X133438094Y-98602990D02*
X133552380Y-98564895D01*
X133552380Y-98564895D02*
X133628571Y-98564895D01*
X133628571Y-98564895D02*
X133742856Y-98602990D01*
X133742856Y-98602990D02*
X133780952Y-98641085D01*
X134123809Y-99364895D02*
X134123809Y-98564895D01*
X134123809Y-98564895D02*
X134428571Y-98564895D01*
X134428571Y-98564895D02*
X134504761Y-98602990D01*
X134504761Y-98602990D02*
X134542856Y-98641085D01*
X134542856Y-98641085D02*
X134580952Y-98717276D01*
X134580952Y-98717276D02*
X134580952Y-98831561D01*
X134580952Y-98831561D02*
X134542856Y-98907752D01*
X134542856Y-98907752D02*
X134504761Y-98945847D01*
X134504761Y-98945847D02*
X134428571Y-98983942D01*
X134428571Y-98983942D02*
X134123809Y-98983942D01*
X135266666Y-98831561D02*
X135266666Y-99364895D01*
X135076190Y-98526800D02*
X134885713Y-99098228D01*
X134885713Y-99098228D02*
X135380952Y-99098228D01*
X135647618Y-98641085D02*
X135685714Y-98602990D01*
X135685714Y-98602990D02*
X135761904Y-98564895D01*
X135761904Y-98564895D02*
X135952380Y-98564895D01*
X135952380Y-98564895D02*
X136028571Y-98602990D01*
X136028571Y-98602990D02*
X136066666Y-98641085D01*
X136066666Y-98641085D02*
X136104761Y-98717276D01*
X136104761Y-98717276D02*
X136104761Y-98793466D01*
X136104761Y-98793466D02*
X136066666Y-98907752D01*
X136066666Y-98907752D02*
X135609523Y-99364895D01*
X135609523Y-99364895D02*
X136104761Y-99364895D01*
X136828571Y-98564895D02*
X136447619Y-98564895D01*
X136447619Y-98564895D02*
X136409523Y-98945847D01*
X136409523Y-98945847D02*
X136447619Y-98907752D01*
X136447619Y-98907752D02*
X136523809Y-98869657D01*
X136523809Y-98869657D02*
X136714285Y-98869657D01*
X136714285Y-98869657D02*
X136790476Y-98907752D01*
X136790476Y-98907752D02*
X136828571Y-98945847D01*
X136828571Y-98945847D02*
X136866666Y-99022038D01*
X136866666Y-99022038D02*
X136866666Y-99212514D01*
X136866666Y-99212514D02*
X136828571Y-99288704D01*
X136828571Y-99288704D02*
X136790476Y-99326800D01*
X136790476Y-99326800D02*
X136714285Y-99364895D01*
X136714285Y-99364895D02*
X136523809Y-99364895D01*
X136523809Y-99364895D02*
X136447619Y-99326800D01*
X136447619Y-99326800D02*
X136409523Y-99288704D01*
X137171428Y-98641085D02*
X137209524Y-98602990D01*
X137209524Y-98602990D02*
X137285714Y-98564895D01*
X137285714Y-98564895D02*
X137476190Y-98564895D01*
X137476190Y-98564895D02*
X137552381Y-98602990D01*
X137552381Y-98602990D02*
X137590476Y-98641085D01*
X137590476Y-98641085D02*
X137628571Y-98717276D01*
X137628571Y-98717276D02*
X137628571Y-98793466D01*
X137628571Y-98793466D02*
X137590476Y-98907752D01*
X137590476Y-98907752D02*
X137133333Y-99364895D01*
X137133333Y-99364895D02*
X137628571Y-99364895D01*
X154419047Y-98864895D02*
X154419047Y-98064895D01*
X154419047Y-98064895D02*
X154876190Y-98864895D01*
X154876190Y-98864895D02*
X154876190Y-98064895D01*
X155257142Y-98445847D02*
X155523808Y-98445847D01*
X155638094Y-98864895D02*
X155257142Y-98864895D01*
X155257142Y-98864895D02*
X155257142Y-98064895D01*
X155257142Y-98064895D02*
X155638094Y-98064895D01*
X156361904Y-98064895D02*
X155980952Y-98064895D01*
X155980952Y-98064895D02*
X155942856Y-98445847D01*
X155942856Y-98445847D02*
X155980952Y-98407752D01*
X155980952Y-98407752D02*
X156057142Y-98369657D01*
X156057142Y-98369657D02*
X156247618Y-98369657D01*
X156247618Y-98369657D02*
X156323809Y-98407752D01*
X156323809Y-98407752D02*
X156361904Y-98445847D01*
X156361904Y-98445847D02*
X156399999Y-98522038D01*
X156399999Y-98522038D02*
X156399999Y-98712514D01*
X156399999Y-98712514D02*
X156361904Y-98788704D01*
X156361904Y-98788704D02*
X156323809Y-98826800D01*
X156323809Y-98826800D02*
X156247618Y-98864895D01*
X156247618Y-98864895D02*
X156057142Y-98864895D01*
X156057142Y-98864895D02*
X155980952Y-98826800D01*
X155980952Y-98826800D02*
X155942856Y-98788704D01*
X157123809Y-98064895D02*
X156742857Y-98064895D01*
X156742857Y-98064895D02*
X156704761Y-98445847D01*
X156704761Y-98445847D02*
X156742857Y-98407752D01*
X156742857Y-98407752D02*
X156819047Y-98369657D01*
X156819047Y-98369657D02*
X157009523Y-98369657D01*
X157009523Y-98369657D02*
X157085714Y-98407752D01*
X157085714Y-98407752D02*
X157123809Y-98445847D01*
X157123809Y-98445847D02*
X157161904Y-98522038D01*
X157161904Y-98522038D02*
X157161904Y-98712514D01*
X157161904Y-98712514D02*
X157123809Y-98788704D01*
X157123809Y-98788704D02*
X157085714Y-98826800D01*
X157085714Y-98826800D02*
X157009523Y-98864895D01*
X157009523Y-98864895D02*
X156819047Y-98864895D01*
X156819047Y-98864895D02*
X156742857Y-98826800D01*
X156742857Y-98826800D02*
X156704761Y-98788704D01*
X157428571Y-98064895D02*
X157923809Y-98064895D01*
X157923809Y-98064895D02*
X157657143Y-98369657D01*
X157657143Y-98369657D02*
X157771428Y-98369657D01*
X157771428Y-98369657D02*
X157847619Y-98407752D01*
X157847619Y-98407752D02*
X157885714Y-98445847D01*
X157885714Y-98445847D02*
X157923809Y-98522038D01*
X157923809Y-98522038D02*
X157923809Y-98712514D01*
X157923809Y-98712514D02*
X157885714Y-98788704D01*
X157885714Y-98788704D02*
X157847619Y-98826800D01*
X157847619Y-98826800D02*
X157771428Y-98864895D01*
X157771428Y-98864895D02*
X157542857Y-98864895D01*
X157542857Y-98864895D02*
X157466666Y-98826800D01*
X157466666Y-98826800D02*
X157428571Y-98788704D01*
X158228571Y-98141085D02*
X158266667Y-98102990D01*
X158266667Y-98102990D02*
X158342857Y-98064895D01*
X158342857Y-98064895D02*
X158533333Y-98064895D01*
X158533333Y-98064895D02*
X158609524Y-98102990D01*
X158609524Y-98102990D02*
X158647619Y-98141085D01*
X158647619Y-98141085D02*
X158685714Y-98217276D01*
X158685714Y-98217276D02*
X158685714Y-98293466D01*
X158685714Y-98293466D02*
X158647619Y-98407752D01*
X158647619Y-98407752D02*
X158190476Y-98864895D01*
X158190476Y-98864895D02*
X158685714Y-98864895D01*
X158838096Y-98941085D02*
X159447619Y-98941085D01*
X159638096Y-98864895D02*
X159638096Y-98064895D01*
X159638096Y-98445847D02*
X160095239Y-98445847D01*
X160095239Y-98864895D02*
X160095239Y-98064895D01*
X160476191Y-98864895D02*
X160476191Y-98064895D01*
X160476191Y-98064895D02*
X160780953Y-98064895D01*
X160780953Y-98064895D02*
X160857143Y-98102990D01*
X160857143Y-98102990D02*
X160895238Y-98141085D01*
X160895238Y-98141085D02*
X160933334Y-98217276D01*
X160933334Y-98217276D02*
X160933334Y-98331561D01*
X160933334Y-98331561D02*
X160895238Y-98407752D01*
X160895238Y-98407752D02*
X160857143Y-98445847D01*
X160857143Y-98445847D02*
X160780953Y-98483942D01*
X160780953Y-98483942D02*
X160476191Y-98483942D01*
X161542857Y-98445847D02*
X161276191Y-98445847D01*
X161276191Y-98864895D02*
X161276191Y-98064895D01*
X161276191Y-98064895D02*
X161657143Y-98064895D01*
X168323809Y-98864895D02*
X168323809Y-98064895D01*
X168323809Y-98064895D02*
X168780952Y-98864895D01*
X168780952Y-98864895D02*
X168780952Y-98064895D01*
X169161904Y-98445847D02*
X169428570Y-98445847D01*
X169542856Y-98864895D02*
X169161904Y-98864895D01*
X169161904Y-98864895D02*
X169161904Y-98064895D01*
X169161904Y-98064895D02*
X169542856Y-98064895D01*
X170266666Y-98064895D02*
X169885714Y-98064895D01*
X169885714Y-98064895D02*
X169847618Y-98445847D01*
X169847618Y-98445847D02*
X169885714Y-98407752D01*
X169885714Y-98407752D02*
X169961904Y-98369657D01*
X169961904Y-98369657D02*
X170152380Y-98369657D01*
X170152380Y-98369657D02*
X170228571Y-98407752D01*
X170228571Y-98407752D02*
X170266666Y-98445847D01*
X170266666Y-98445847D02*
X170304761Y-98522038D01*
X170304761Y-98522038D02*
X170304761Y-98712514D01*
X170304761Y-98712514D02*
X170266666Y-98788704D01*
X170266666Y-98788704D02*
X170228571Y-98826800D01*
X170228571Y-98826800D02*
X170152380Y-98864895D01*
X170152380Y-98864895D02*
X169961904Y-98864895D01*
X169961904Y-98864895D02*
X169885714Y-98826800D01*
X169885714Y-98826800D02*
X169847618Y-98788704D01*
X171028571Y-98064895D02*
X170647619Y-98064895D01*
X170647619Y-98064895D02*
X170609523Y-98445847D01*
X170609523Y-98445847D02*
X170647619Y-98407752D01*
X170647619Y-98407752D02*
X170723809Y-98369657D01*
X170723809Y-98369657D02*
X170914285Y-98369657D01*
X170914285Y-98369657D02*
X170990476Y-98407752D01*
X170990476Y-98407752D02*
X171028571Y-98445847D01*
X171028571Y-98445847D02*
X171066666Y-98522038D01*
X171066666Y-98522038D02*
X171066666Y-98712514D01*
X171066666Y-98712514D02*
X171028571Y-98788704D01*
X171028571Y-98788704D02*
X170990476Y-98826800D01*
X170990476Y-98826800D02*
X170914285Y-98864895D01*
X170914285Y-98864895D02*
X170723809Y-98864895D01*
X170723809Y-98864895D02*
X170647619Y-98826800D01*
X170647619Y-98826800D02*
X170609523Y-98788704D01*
X171333333Y-98064895D02*
X171828571Y-98064895D01*
X171828571Y-98064895D02*
X171561905Y-98369657D01*
X171561905Y-98369657D02*
X171676190Y-98369657D01*
X171676190Y-98369657D02*
X171752381Y-98407752D01*
X171752381Y-98407752D02*
X171790476Y-98445847D01*
X171790476Y-98445847D02*
X171828571Y-98522038D01*
X171828571Y-98522038D02*
X171828571Y-98712514D01*
X171828571Y-98712514D02*
X171790476Y-98788704D01*
X171790476Y-98788704D02*
X171752381Y-98826800D01*
X171752381Y-98826800D02*
X171676190Y-98864895D01*
X171676190Y-98864895D02*
X171447619Y-98864895D01*
X171447619Y-98864895D02*
X171371428Y-98826800D01*
X171371428Y-98826800D02*
X171333333Y-98788704D01*
X172133333Y-98141085D02*
X172171429Y-98102990D01*
X172171429Y-98102990D02*
X172247619Y-98064895D01*
X172247619Y-98064895D02*
X172438095Y-98064895D01*
X172438095Y-98064895D02*
X172514286Y-98102990D01*
X172514286Y-98102990D02*
X172552381Y-98141085D01*
X172552381Y-98141085D02*
X172590476Y-98217276D01*
X172590476Y-98217276D02*
X172590476Y-98293466D01*
X172590476Y-98293466D02*
X172552381Y-98407752D01*
X172552381Y-98407752D02*
X172095238Y-98864895D01*
X172095238Y-98864895D02*
X172590476Y-98864895D01*
X172742858Y-98941085D02*
X173352381Y-98941085D01*
X173504762Y-98826800D02*
X173619048Y-98864895D01*
X173619048Y-98864895D02*
X173809524Y-98864895D01*
X173809524Y-98864895D02*
X173885715Y-98826800D01*
X173885715Y-98826800D02*
X173923810Y-98788704D01*
X173923810Y-98788704D02*
X173961905Y-98712514D01*
X173961905Y-98712514D02*
X173961905Y-98636323D01*
X173961905Y-98636323D02*
X173923810Y-98560133D01*
X173923810Y-98560133D02*
X173885715Y-98522038D01*
X173885715Y-98522038D02*
X173809524Y-98483942D01*
X173809524Y-98483942D02*
X173657143Y-98445847D01*
X173657143Y-98445847D02*
X173580953Y-98407752D01*
X173580953Y-98407752D02*
X173542858Y-98369657D01*
X173542858Y-98369657D02*
X173504762Y-98293466D01*
X173504762Y-98293466D02*
X173504762Y-98217276D01*
X173504762Y-98217276D02*
X173542858Y-98141085D01*
X173542858Y-98141085D02*
X173580953Y-98102990D01*
X173580953Y-98102990D02*
X173657143Y-98064895D01*
X173657143Y-98064895D02*
X173847620Y-98064895D01*
X173847620Y-98064895D02*
X173961905Y-98102990D01*
X174304763Y-98064895D02*
X174304763Y-98712514D01*
X174304763Y-98712514D02*
X174342858Y-98788704D01*
X174342858Y-98788704D02*
X174380953Y-98826800D01*
X174380953Y-98826800D02*
X174457144Y-98864895D01*
X174457144Y-98864895D02*
X174609525Y-98864895D01*
X174609525Y-98864895D02*
X174685715Y-98826800D01*
X174685715Y-98826800D02*
X174723810Y-98788704D01*
X174723810Y-98788704D02*
X174761906Y-98712514D01*
X174761906Y-98712514D02*
X174761906Y-98064895D01*
X175142858Y-98864895D02*
X175142858Y-98064895D01*
X175142858Y-98064895D02*
X175409524Y-98636323D01*
X175409524Y-98636323D02*
X175676191Y-98064895D01*
X175676191Y-98064895D02*
X175676191Y-98864895D01*
X182514285Y-98864895D02*
X182514285Y-98064895D01*
X182514285Y-98064895D02*
X182971428Y-98864895D01*
X182971428Y-98864895D02*
X182971428Y-98064895D01*
X183352380Y-98445847D02*
X183619046Y-98445847D01*
X183733332Y-98864895D02*
X183352380Y-98864895D01*
X183352380Y-98864895D02*
X183352380Y-98064895D01*
X183352380Y-98064895D02*
X183733332Y-98064895D01*
X184457142Y-98064895D02*
X184076190Y-98064895D01*
X184076190Y-98064895D02*
X184038094Y-98445847D01*
X184038094Y-98445847D02*
X184076190Y-98407752D01*
X184076190Y-98407752D02*
X184152380Y-98369657D01*
X184152380Y-98369657D02*
X184342856Y-98369657D01*
X184342856Y-98369657D02*
X184419047Y-98407752D01*
X184419047Y-98407752D02*
X184457142Y-98445847D01*
X184457142Y-98445847D02*
X184495237Y-98522038D01*
X184495237Y-98522038D02*
X184495237Y-98712514D01*
X184495237Y-98712514D02*
X184457142Y-98788704D01*
X184457142Y-98788704D02*
X184419047Y-98826800D01*
X184419047Y-98826800D02*
X184342856Y-98864895D01*
X184342856Y-98864895D02*
X184152380Y-98864895D01*
X184152380Y-98864895D02*
X184076190Y-98826800D01*
X184076190Y-98826800D02*
X184038094Y-98788704D01*
X185219047Y-98064895D02*
X184838095Y-98064895D01*
X184838095Y-98064895D02*
X184799999Y-98445847D01*
X184799999Y-98445847D02*
X184838095Y-98407752D01*
X184838095Y-98407752D02*
X184914285Y-98369657D01*
X184914285Y-98369657D02*
X185104761Y-98369657D01*
X185104761Y-98369657D02*
X185180952Y-98407752D01*
X185180952Y-98407752D02*
X185219047Y-98445847D01*
X185219047Y-98445847D02*
X185257142Y-98522038D01*
X185257142Y-98522038D02*
X185257142Y-98712514D01*
X185257142Y-98712514D02*
X185219047Y-98788704D01*
X185219047Y-98788704D02*
X185180952Y-98826800D01*
X185180952Y-98826800D02*
X185104761Y-98864895D01*
X185104761Y-98864895D02*
X184914285Y-98864895D01*
X184914285Y-98864895D02*
X184838095Y-98826800D01*
X184838095Y-98826800D02*
X184799999Y-98788704D01*
X185523809Y-98064895D02*
X186019047Y-98064895D01*
X186019047Y-98064895D02*
X185752381Y-98369657D01*
X185752381Y-98369657D02*
X185866666Y-98369657D01*
X185866666Y-98369657D02*
X185942857Y-98407752D01*
X185942857Y-98407752D02*
X185980952Y-98445847D01*
X185980952Y-98445847D02*
X186019047Y-98522038D01*
X186019047Y-98522038D02*
X186019047Y-98712514D01*
X186019047Y-98712514D02*
X185980952Y-98788704D01*
X185980952Y-98788704D02*
X185942857Y-98826800D01*
X185942857Y-98826800D02*
X185866666Y-98864895D01*
X185866666Y-98864895D02*
X185638095Y-98864895D01*
X185638095Y-98864895D02*
X185561904Y-98826800D01*
X185561904Y-98826800D02*
X185523809Y-98788704D01*
X186323809Y-98141085D02*
X186361905Y-98102990D01*
X186361905Y-98102990D02*
X186438095Y-98064895D01*
X186438095Y-98064895D02*
X186628571Y-98064895D01*
X186628571Y-98064895D02*
X186704762Y-98102990D01*
X186704762Y-98102990D02*
X186742857Y-98141085D01*
X186742857Y-98141085D02*
X186780952Y-98217276D01*
X186780952Y-98217276D02*
X186780952Y-98293466D01*
X186780952Y-98293466D02*
X186742857Y-98407752D01*
X186742857Y-98407752D02*
X186285714Y-98864895D01*
X186285714Y-98864895D02*
X186780952Y-98864895D01*
X186933334Y-98941085D02*
X187542857Y-98941085D01*
X188114286Y-98864895D02*
X187733334Y-98864895D01*
X187733334Y-98864895D02*
X187733334Y-98064895D01*
X188380953Y-98864895D02*
X188380953Y-98064895D01*
X188380953Y-98064895D02*
X188685715Y-98064895D01*
X188685715Y-98064895D02*
X188761905Y-98102990D01*
X188761905Y-98102990D02*
X188800000Y-98141085D01*
X188800000Y-98141085D02*
X188838096Y-98217276D01*
X188838096Y-98217276D02*
X188838096Y-98331561D01*
X188838096Y-98331561D02*
X188800000Y-98407752D01*
X188800000Y-98407752D02*
X188761905Y-98445847D01*
X188761905Y-98445847D02*
X188685715Y-98483942D01*
X188685715Y-98483942D02*
X188380953Y-98483942D01*
X189447619Y-98445847D02*
X189180953Y-98445847D01*
X189180953Y-98864895D02*
X189180953Y-98064895D01*
X189180953Y-98064895D02*
X189561905Y-98064895D01*
D11*
X204976191Y-100932309D02*
X205309524Y-100932309D01*
X205452381Y-101456119D02*
X204976191Y-101456119D01*
X204976191Y-101456119D02*
X204976191Y-100456119D01*
X204976191Y-100456119D02*
X205452381Y-100456119D01*
X205833334Y-101408500D02*
X205976191Y-101456119D01*
X205976191Y-101456119D02*
X206214286Y-101456119D01*
X206214286Y-101456119D02*
X206309524Y-101408500D01*
X206309524Y-101408500D02*
X206357143Y-101360880D01*
X206357143Y-101360880D02*
X206404762Y-101265642D01*
X206404762Y-101265642D02*
X206404762Y-101170404D01*
X206404762Y-101170404D02*
X206357143Y-101075166D01*
X206357143Y-101075166D02*
X206309524Y-101027547D01*
X206309524Y-101027547D02*
X206214286Y-100979928D01*
X206214286Y-100979928D02*
X206023810Y-100932309D01*
X206023810Y-100932309D02*
X205928572Y-100884690D01*
X205928572Y-100884690D02*
X205880953Y-100837071D01*
X205880953Y-100837071D02*
X205833334Y-100741833D01*
X205833334Y-100741833D02*
X205833334Y-100646595D01*
X205833334Y-100646595D02*
X205880953Y-100551357D01*
X205880953Y-100551357D02*
X205928572Y-100503738D01*
X205928572Y-100503738D02*
X206023810Y-100456119D01*
X206023810Y-100456119D02*
X206261905Y-100456119D01*
X206261905Y-100456119D02*
X206404762Y-100503738D01*
X206833334Y-101456119D02*
X206833334Y-100456119D01*
X206833334Y-100456119D02*
X207214286Y-100456119D01*
X207214286Y-100456119D02*
X207309524Y-100503738D01*
X207309524Y-100503738D02*
X207357143Y-100551357D01*
X207357143Y-100551357D02*
X207404762Y-100646595D01*
X207404762Y-100646595D02*
X207404762Y-100789452D01*
X207404762Y-100789452D02*
X207357143Y-100884690D01*
X207357143Y-100884690D02*
X207309524Y-100932309D01*
X207309524Y-100932309D02*
X207214286Y-100979928D01*
X207214286Y-100979928D02*
X206833334Y-100979928D01*
X207738096Y-100456119D02*
X208357143Y-100456119D01*
X208357143Y-100456119D02*
X208023810Y-100837071D01*
X208023810Y-100837071D02*
X208166667Y-100837071D01*
X208166667Y-100837071D02*
X208261905Y-100884690D01*
X208261905Y-100884690D02*
X208309524Y-100932309D01*
X208309524Y-100932309D02*
X208357143Y-101027547D01*
X208357143Y-101027547D02*
X208357143Y-101265642D01*
X208357143Y-101265642D02*
X208309524Y-101360880D01*
X208309524Y-101360880D02*
X208261905Y-101408500D01*
X208261905Y-101408500D02*
X208166667Y-101456119D01*
X208166667Y-101456119D02*
X207880953Y-101456119D01*
X207880953Y-101456119D02*
X207785715Y-101408500D01*
X207785715Y-101408500D02*
X207738096Y-101360880D01*
X208738096Y-100551357D02*
X208785715Y-100503738D01*
X208785715Y-100503738D02*
X208880953Y-100456119D01*
X208880953Y-100456119D02*
X209119048Y-100456119D01*
X209119048Y-100456119D02*
X209214286Y-100503738D01*
X209214286Y-100503738D02*
X209261905Y-100551357D01*
X209261905Y-100551357D02*
X209309524Y-100646595D01*
X209309524Y-100646595D02*
X209309524Y-100741833D01*
X209309524Y-100741833D02*
X209261905Y-100884690D01*
X209261905Y-100884690D02*
X208690477Y-101456119D01*
X208690477Y-101456119D02*
X209309524Y-101456119D01*
X209738096Y-101075166D02*
X210500001Y-101075166D01*
X210880953Y-100456119D02*
X211119048Y-101456119D01*
X211119048Y-101456119D02*
X211309524Y-100741833D01*
X211309524Y-100741833D02*
X211500000Y-101456119D01*
X211500000Y-101456119D02*
X211738096Y-100456119D01*
X212690476Y-101456119D02*
X212357143Y-100979928D01*
X212119048Y-101456119D02*
X212119048Y-100456119D01*
X212119048Y-100456119D02*
X212500000Y-100456119D01*
X212500000Y-100456119D02*
X212595238Y-100503738D01*
X212595238Y-100503738D02*
X212642857Y-100551357D01*
X212642857Y-100551357D02*
X212690476Y-100646595D01*
X212690476Y-100646595D02*
X212690476Y-100789452D01*
X212690476Y-100789452D02*
X212642857Y-100884690D01*
X212642857Y-100884690D02*
X212595238Y-100932309D01*
X212595238Y-100932309D02*
X212500000Y-100979928D01*
X212500000Y-100979928D02*
X212119048Y-100979928D01*
X213309524Y-100456119D02*
X213500000Y-100456119D01*
X213500000Y-100456119D02*
X213595238Y-100503738D01*
X213595238Y-100503738D02*
X213690476Y-100598976D01*
X213690476Y-100598976D02*
X213738095Y-100789452D01*
X213738095Y-100789452D02*
X213738095Y-101122785D01*
X213738095Y-101122785D02*
X213690476Y-101313261D01*
X213690476Y-101313261D02*
X213595238Y-101408500D01*
X213595238Y-101408500D02*
X213500000Y-101456119D01*
X213500000Y-101456119D02*
X213309524Y-101456119D01*
X213309524Y-101456119D02*
X213214286Y-101408500D01*
X213214286Y-101408500D02*
X213119048Y-101313261D01*
X213119048Y-101313261D02*
X213071429Y-101122785D01*
X213071429Y-101122785D02*
X213071429Y-100789452D01*
X213071429Y-100789452D02*
X213119048Y-100598976D01*
X213119048Y-100598976D02*
X213214286Y-100503738D01*
X213214286Y-100503738D02*
X213309524Y-100456119D01*
X214357143Y-100456119D02*
X214547619Y-100456119D01*
X214547619Y-100456119D02*
X214642857Y-100503738D01*
X214642857Y-100503738D02*
X214738095Y-100598976D01*
X214738095Y-100598976D02*
X214785714Y-100789452D01*
X214785714Y-100789452D02*
X214785714Y-101122785D01*
X214785714Y-101122785D02*
X214738095Y-101313261D01*
X214738095Y-101313261D02*
X214642857Y-101408500D01*
X214642857Y-101408500D02*
X214547619Y-101456119D01*
X214547619Y-101456119D02*
X214357143Y-101456119D01*
X214357143Y-101456119D02*
X214261905Y-101408500D01*
X214261905Y-101408500D02*
X214166667Y-101313261D01*
X214166667Y-101313261D02*
X214119048Y-101122785D01*
X214119048Y-101122785D02*
X214119048Y-100789452D01*
X214119048Y-100789452D02*
X214166667Y-100598976D01*
X214166667Y-100598976D02*
X214261905Y-100503738D01*
X214261905Y-100503738D02*
X214357143Y-100456119D01*
X215214286Y-101456119D02*
X215214286Y-100456119D01*
X215214286Y-100456119D02*
X215547619Y-101170404D01*
X215547619Y-101170404D02*
X215880952Y-100456119D01*
X215880952Y-100456119D02*
X215880952Y-101456119D01*
X216357143Y-101075166D02*
X217119048Y-101075166D01*
X217500000Y-100456119D02*
X218119047Y-100456119D01*
X218119047Y-100456119D02*
X217785714Y-100837071D01*
X217785714Y-100837071D02*
X217928571Y-100837071D01*
X217928571Y-100837071D02*
X218023809Y-100884690D01*
X218023809Y-100884690D02*
X218071428Y-100932309D01*
X218071428Y-100932309D02*
X218119047Y-101027547D01*
X218119047Y-101027547D02*
X218119047Y-101265642D01*
X218119047Y-101265642D02*
X218071428Y-101360880D01*
X218071428Y-101360880D02*
X218023809Y-101408500D01*
X218023809Y-101408500D02*
X217928571Y-101456119D01*
X217928571Y-101456119D02*
X217642857Y-101456119D01*
X217642857Y-101456119D02*
X217547619Y-101408500D01*
X217547619Y-101408500D02*
X217500000Y-101360880D01*
X218500000Y-100551357D02*
X218547619Y-100503738D01*
X218547619Y-100503738D02*
X218642857Y-100456119D01*
X218642857Y-100456119D02*
X218880952Y-100456119D01*
X218880952Y-100456119D02*
X218976190Y-100503738D01*
X218976190Y-100503738D02*
X219023809Y-100551357D01*
X219023809Y-100551357D02*
X219071428Y-100646595D01*
X219071428Y-100646595D02*
X219071428Y-100741833D01*
X219071428Y-100741833D02*
X219023809Y-100884690D01*
X219023809Y-100884690D02*
X218452381Y-101456119D01*
X218452381Y-101456119D02*
X219071428Y-101456119D01*
D10*
X236733332Y-71641085D02*
X236771428Y-71602990D01*
X236771428Y-71602990D02*
X236847618Y-71564895D01*
X236847618Y-71564895D02*
X237038094Y-71564895D01*
X237038094Y-71564895D02*
X237114285Y-71602990D01*
X237114285Y-71602990D02*
X237152380Y-71641085D01*
X237152380Y-71641085D02*
X237190475Y-71717276D01*
X237190475Y-71717276D02*
X237190475Y-71793466D01*
X237190475Y-71793466D02*
X237152380Y-71907752D01*
X237152380Y-71907752D02*
X236695237Y-72364895D01*
X236695237Y-72364895D02*
X237190475Y-72364895D01*
X237533333Y-72288704D02*
X237571428Y-72326800D01*
X237571428Y-72326800D02*
X237533333Y-72364895D01*
X237533333Y-72364895D02*
X237495237Y-72326800D01*
X237495237Y-72326800D02*
X237533333Y-72288704D01*
X237533333Y-72288704D02*
X237533333Y-72364895D01*
X238257142Y-71831561D02*
X238257142Y-72364895D01*
X238066666Y-71526800D02*
X237876189Y-72098228D01*
X237876189Y-72098228D02*
X238371428Y-72098228D01*
X238638094Y-71641085D02*
X238676190Y-71602990D01*
X238676190Y-71602990D02*
X238752380Y-71564895D01*
X238752380Y-71564895D02*
X238942856Y-71564895D01*
X238942856Y-71564895D02*
X239019047Y-71602990D01*
X239019047Y-71602990D02*
X239057142Y-71641085D01*
X239057142Y-71641085D02*
X239095237Y-71717276D01*
X239095237Y-71717276D02*
X239095237Y-71793466D01*
X239095237Y-71793466D02*
X239057142Y-71907752D01*
X239057142Y-71907752D02*
X238599999Y-72364895D01*
X238599999Y-72364895D02*
X239095237Y-72364895D01*
X239247619Y-72441085D02*
X239857142Y-72441085D01*
X240200000Y-71564895D02*
X240352381Y-71564895D01*
X240352381Y-71564895D02*
X240428571Y-71602990D01*
X240428571Y-71602990D02*
X240504762Y-71679180D01*
X240504762Y-71679180D02*
X240542857Y-71831561D01*
X240542857Y-71831561D02*
X240542857Y-72098228D01*
X240542857Y-72098228D02*
X240504762Y-72250609D01*
X240504762Y-72250609D02*
X240428571Y-72326800D01*
X240428571Y-72326800D02*
X240352381Y-72364895D01*
X240352381Y-72364895D02*
X240200000Y-72364895D01*
X240200000Y-72364895D02*
X240123809Y-72326800D01*
X240123809Y-72326800D02*
X240047619Y-72250609D01*
X240047619Y-72250609D02*
X240009523Y-72098228D01*
X240009523Y-72098228D02*
X240009523Y-71831561D01*
X240009523Y-71831561D02*
X240047619Y-71679180D01*
X240047619Y-71679180D02*
X240123809Y-71602990D01*
X240123809Y-71602990D02*
X240200000Y-71564895D01*
X241266666Y-72364895D02*
X240885714Y-72364895D01*
X240885714Y-72364895D02*
X240885714Y-71564895D01*
X241533333Y-71945847D02*
X241799999Y-71945847D01*
X241914285Y-72364895D02*
X241533333Y-72364895D01*
X241533333Y-72364895D02*
X241533333Y-71564895D01*
X241533333Y-71564895D02*
X241914285Y-71564895D01*
X242257143Y-72364895D02*
X242257143Y-71564895D01*
X242257143Y-71564895D02*
X242447619Y-71564895D01*
X242447619Y-71564895D02*
X242561905Y-71602990D01*
X242561905Y-71602990D02*
X242638095Y-71679180D01*
X242638095Y-71679180D02*
X242676190Y-71755371D01*
X242676190Y-71755371D02*
X242714286Y-71907752D01*
X242714286Y-71907752D02*
X242714286Y-72022038D01*
X242714286Y-72022038D02*
X242676190Y-72174419D01*
X242676190Y-72174419D02*
X242638095Y-72250609D01*
X242638095Y-72250609D02*
X242561905Y-72326800D01*
X242561905Y-72326800D02*
X242447619Y-72364895D01*
X242447619Y-72364895D02*
X242257143Y-72364895D01*
X242866667Y-72441085D02*
X243476190Y-72441085D01*
X243628571Y-72326800D02*
X243742857Y-72364895D01*
X243742857Y-72364895D02*
X243933333Y-72364895D01*
X243933333Y-72364895D02*
X244009524Y-72326800D01*
X244009524Y-72326800D02*
X244047619Y-72288704D01*
X244047619Y-72288704D02*
X244085714Y-72212514D01*
X244085714Y-72212514D02*
X244085714Y-72136323D01*
X244085714Y-72136323D02*
X244047619Y-72060133D01*
X244047619Y-72060133D02*
X244009524Y-72022038D01*
X244009524Y-72022038D02*
X243933333Y-71983942D01*
X243933333Y-71983942D02*
X243780952Y-71945847D01*
X243780952Y-71945847D02*
X243704762Y-71907752D01*
X243704762Y-71907752D02*
X243666667Y-71869657D01*
X243666667Y-71869657D02*
X243628571Y-71793466D01*
X243628571Y-71793466D02*
X243628571Y-71717276D01*
X243628571Y-71717276D02*
X243666667Y-71641085D01*
X243666667Y-71641085D02*
X243704762Y-71602990D01*
X243704762Y-71602990D02*
X243780952Y-71564895D01*
X243780952Y-71564895D02*
X243971429Y-71564895D01*
X243971429Y-71564895D02*
X244085714Y-71602990D01*
X244428572Y-72364895D02*
X244428572Y-71564895D01*
X244428572Y-71564895D02*
X244733334Y-71564895D01*
X244733334Y-71564895D02*
X244809524Y-71602990D01*
X244809524Y-71602990D02*
X244847619Y-71641085D01*
X244847619Y-71641085D02*
X244885715Y-71717276D01*
X244885715Y-71717276D02*
X244885715Y-71831561D01*
X244885715Y-71831561D02*
X244847619Y-71907752D01*
X244847619Y-71907752D02*
X244809524Y-71945847D01*
X244809524Y-71945847D02*
X244733334Y-71983942D01*
X244733334Y-71983942D02*
X244428572Y-71983942D01*
X245228572Y-72364895D02*
X245228572Y-71564895D01*
X236371429Y-88364895D02*
X236104762Y-87983942D01*
X235914286Y-88364895D02*
X235914286Y-87564895D01*
X235914286Y-87564895D02*
X236219048Y-87564895D01*
X236219048Y-87564895D02*
X236295238Y-87602990D01*
X236295238Y-87602990D02*
X236333333Y-87641085D01*
X236333333Y-87641085D02*
X236371429Y-87717276D01*
X236371429Y-87717276D02*
X236371429Y-87831561D01*
X236371429Y-87831561D02*
X236333333Y-87907752D01*
X236333333Y-87907752D02*
X236295238Y-87945847D01*
X236295238Y-87945847D02*
X236219048Y-87983942D01*
X236219048Y-87983942D02*
X235914286Y-87983942D01*
X236866667Y-87564895D02*
X237019048Y-87564895D01*
X237019048Y-87564895D02*
X237095238Y-87602990D01*
X237095238Y-87602990D02*
X237171429Y-87679180D01*
X237171429Y-87679180D02*
X237209524Y-87831561D01*
X237209524Y-87831561D02*
X237209524Y-88098228D01*
X237209524Y-88098228D02*
X237171429Y-88250609D01*
X237171429Y-88250609D02*
X237095238Y-88326800D01*
X237095238Y-88326800D02*
X237019048Y-88364895D01*
X237019048Y-88364895D02*
X236866667Y-88364895D01*
X236866667Y-88364895D02*
X236790476Y-88326800D01*
X236790476Y-88326800D02*
X236714286Y-88250609D01*
X236714286Y-88250609D02*
X236676190Y-88098228D01*
X236676190Y-88098228D02*
X236676190Y-87831561D01*
X236676190Y-87831561D02*
X236714286Y-87679180D01*
X236714286Y-87679180D02*
X236790476Y-87602990D01*
X236790476Y-87602990D02*
X236866667Y-87564895D01*
X237438095Y-87564895D02*
X237895238Y-87564895D01*
X237666666Y-88364895D02*
X237666666Y-87564895D01*
X238123809Y-88136323D02*
X238504762Y-88136323D01*
X238047619Y-88364895D02*
X238314286Y-87564895D01*
X238314286Y-87564895D02*
X238580952Y-88364895D01*
X239304762Y-88364895D02*
X239038095Y-87983942D01*
X238847619Y-88364895D02*
X238847619Y-87564895D01*
X238847619Y-87564895D02*
X239152381Y-87564895D01*
X239152381Y-87564895D02*
X239228571Y-87602990D01*
X239228571Y-87602990D02*
X239266666Y-87641085D01*
X239266666Y-87641085D02*
X239304762Y-87717276D01*
X239304762Y-87717276D02*
X239304762Y-87831561D01*
X239304762Y-87831561D02*
X239266666Y-87907752D01*
X239266666Y-87907752D02*
X239228571Y-87945847D01*
X239228571Y-87945847D02*
X239152381Y-87983942D01*
X239152381Y-87983942D02*
X238847619Y-87983942D01*
X239800000Y-87983942D02*
X239800000Y-88364895D01*
X239533333Y-87564895D02*
X239800000Y-87983942D01*
X239800000Y-87983942D02*
X240066666Y-87564895D01*
X240142857Y-88441085D02*
X240752380Y-88441085D01*
X240942857Y-87945847D02*
X241209523Y-87945847D01*
X241323809Y-88364895D02*
X240942857Y-88364895D01*
X240942857Y-88364895D02*
X240942857Y-87564895D01*
X240942857Y-87564895D02*
X241323809Y-87564895D01*
X241666667Y-88364895D02*
X241666667Y-87564895D01*
X241666667Y-87564895D02*
X242123810Y-88364895D01*
X242123810Y-88364895D02*
X242123810Y-87564895D01*
X242961905Y-88288704D02*
X242923809Y-88326800D01*
X242923809Y-88326800D02*
X242809524Y-88364895D01*
X242809524Y-88364895D02*
X242733333Y-88364895D01*
X242733333Y-88364895D02*
X242619047Y-88326800D01*
X242619047Y-88326800D02*
X242542857Y-88250609D01*
X242542857Y-88250609D02*
X242504762Y-88174419D01*
X242504762Y-88174419D02*
X242466666Y-88022038D01*
X242466666Y-88022038D02*
X242466666Y-87907752D01*
X242466666Y-87907752D02*
X242504762Y-87755371D01*
X242504762Y-87755371D02*
X242542857Y-87679180D01*
X242542857Y-87679180D02*
X242619047Y-87602990D01*
X242619047Y-87602990D02*
X242733333Y-87564895D01*
X242733333Y-87564895D02*
X242809524Y-87564895D01*
X242809524Y-87564895D02*
X242923809Y-87602990D01*
X242923809Y-87602990D02*
X242961905Y-87641085D01*
X243457143Y-87564895D02*
X243609524Y-87564895D01*
X243609524Y-87564895D02*
X243685714Y-87602990D01*
X243685714Y-87602990D02*
X243761905Y-87679180D01*
X243761905Y-87679180D02*
X243800000Y-87831561D01*
X243800000Y-87831561D02*
X243800000Y-88098228D01*
X243800000Y-88098228D02*
X243761905Y-88250609D01*
X243761905Y-88250609D02*
X243685714Y-88326800D01*
X243685714Y-88326800D02*
X243609524Y-88364895D01*
X243609524Y-88364895D02*
X243457143Y-88364895D01*
X243457143Y-88364895D02*
X243380952Y-88326800D01*
X243380952Y-88326800D02*
X243304762Y-88250609D01*
X243304762Y-88250609D02*
X243266666Y-88098228D01*
X243266666Y-88098228D02*
X243266666Y-87831561D01*
X243266666Y-87831561D02*
X243304762Y-87679180D01*
X243304762Y-87679180D02*
X243380952Y-87602990D01*
X243380952Y-87602990D02*
X243457143Y-87564895D01*
X244142857Y-88364895D02*
X244142857Y-87564895D01*
X244142857Y-87564895D02*
X244333333Y-87564895D01*
X244333333Y-87564895D02*
X244447619Y-87602990D01*
X244447619Y-87602990D02*
X244523809Y-87679180D01*
X244523809Y-87679180D02*
X244561904Y-87755371D01*
X244561904Y-87755371D02*
X244600000Y-87907752D01*
X244600000Y-87907752D02*
X244600000Y-88022038D01*
X244600000Y-88022038D02*
X244561904Y-88174419D01*
X244561904Y-88174419D02*
X244523809Y-88250609D01*
X244523809Y-88250609D02*
X244447619Y-88326800D01*
X244447619Y-88326800D02*
X244333333Y-88364895D01*
X244333333Y-88364895D02*
X244142857Y-88364895D01*
X244942857Y-87945847D02*
X245209523Y-87945847D01*
X245323809Y-88364895D02*
X244942857Y-88364895D01*
X244942857Y-88364895D02*
X244942857Y-87564895D01*
X244942857Y-87564895D02*
X245323809Y-87564895D01*
X246123810Y-88364895D02*
X245857143Y-87983942D01*
X245666667Y-88364895D02*
X245666667Y-87564895D01*
X245666667Y-87564895D02*
X245971429Y-87564895D01*
X245971429Y-87564895D02*
X246047619Y-87602990D01*
X246047619Y-87602990D02*
X246085714Y-87641085D01*
X246085714Y-87641085D02*
X246123810Y-87717276D01*
X246123810Y-87717276D02*
X246123810Y-87831561D01*
X246123810Y-87831561D02*
X246085714Y-87907752D01*
X246085714Y-87907752D02*
X246047619Y-87945847D01*
X246047619Y-87945847D02*
X245971429Y-87983942D01*
X245971429Y-87983942D02*
X245666667Y-87983942D01*
X236676191Y-101564895D02*
X236676191Y-102212514D01*
X236676191Y-102212514D02*
X236714286Y-102288704D01*
X236714286Y-102288704D02*
X236752381Y-102326800D01*
X236752381Y-102326800D02*
X236828572Y-102364895D01*
X236828572Y-102364895D02*
X236980953Y-102364895D01*
X236980953Y-102364895D02*
X237057143Y-102326800D01*
X237057143Y-102326800D02*
X237095238Y-102288704D01*
X237095238Y-102288704D02*
X237133334Y-102212514D01*
X237133334Y-102212514D02*
X237133334Y-101564895D01*
X237476190Y-102136323D02*
X237857143Y-102136323D01*
X237400000Y-102364895D02*
X237666667Y-101564895D01*
X237666667Y-101564895D02*
X237933333Y-102364895D01*
X238657143Y-102364895D02*
X238390476Y-101983942D01*
X238200000Y-102364895D02*
X238200000Y-101564895D01*
X238200000Y-101564895D02*
X238504762Y-101564895D01*
X238504762Y-101564895D02*
X238580952Y-101602990D01*
X238580952Y-101602990D02*
X238619047Y-101641085D01*
X238619047Y-101641085D02*
X238657143Y-101717276D01*
X238657143Y-101717276D02*
X238657143Y-101831561D01*
X238657143Y-101831561D02*
X238619047Y-101907752D01*
X238619047Y-101907752D02*
X238580952Y-101945847D01*
X238580952Y-101945847D02*
X238504762Y-101983942D01*
X238504762Y-101983942D02*
X238200000Y-101983942D01*
X238885714Y-101564895D02*
X239342857Y-101564895D01*
X239114285Y-102364895D02*
X239114285Y-101564895D01*
X239419048Y-102441085D02*
X240028571Y-102441085D01*
X240676191Y-102288704D02*
X240638095Y-102326800D01*
X240638095Y-102326800D02*
X240523810Y-102364895D01*
X240523810Y-102364895D02*
X240447619Y-102364895D01*
X240447619Y-102364895D02*
X240333333Y-102326800D01*
X240333333Y-102326800D02*
X240257143Y-102250609D01*
X240257143Y-102250609D02*
X240219048Y-102174419D01*
X240219048Y-102174419D02*
X240180952Y-102022038D01*
X240180952Y-102022038D02*
X240180952Y-101907752D01*
X240180952Y-101907752D02*
X240219048Y-101755371D01*
X240219048Y-101755371D02*
X240257143Y-101679180D01*
X240257143Y-101679180D02*
X240333333Y-101602990D01*
X240333333Y-101602990D02*
X240447619Y-101564895D01*
X240447619Y-101564895D02*
X240523810Y-101564895D01*
X240523810Y-101564895D02*
X240638095Y-101602990D01*
X240638095Y-101602990D02*
X240676191Y-101641085D01*
X241400000Y-102364895D02*
X241019048Y-102364895D01*
X241019048Y-102364895D02*
X241019048Y-101564895D01*
X241666667Y-102364895D02*
X241666667Y-101564895D01*
X241857143Y-102441085D02*
X242466666Y-102441085D01*
X242657143Y-102364895D02*
X242657143Y-101564895D01*
X242657143Y-101564895D02*
X242961905Y-101564895D01*
X242961905Y-101564895D02*
X243038095Y-101602990D01*
X243038095Y-101602990D02*
X243076190Y-101641085D01*
X243076190Y-101641085D02*
X243114286Y-101717276D01*
X243114286Y-101717276D02*
X243114286Y-101831561D01*
X243114286Y-101831561D02*
X243076190Y-101907752D01*
X243076190Y-101907752D02*
X243038095Y-101945847D01*
X243038095Y-101945847D02*
X242961905Y-101983942D01*
X242961905Y-101983942D02*
X242657143Y-101983942D01*
X243609524Y-101564895D02*
X243761905Y-101564895D01*
X243761905Y-101564895D02*
X243838095Y-101602990D01*
X243838095Y-101602990D02*
X243914286Y-101679180D01*
X243914286Y-101679180D02*
X243952381Y-101831561D01*
X243952381Y-101831561D02*
X243952381Y-102098228D01*
X243952381Y-102098228D02*
X243914286Y-102250609D01*
X243914286Y-102250609D02*
X243838095Y-102326800D01*
X243838095Y-102326800D02*
X243761905Y-102364895D01*
X243761905Y-102364895D02*
X243609524Y-102364895D01*
X243609524Y-102364895D02*
X243533333Y-102326800D01*
X243533333Y-102326800D02*
X243457143Y-102250609D01*
X243457143Y-102250609D02*
X243419047Y-102098228D01*
X243419047Y-102098228D02*
X243419047Y-101831561D01*
X243419047Y-101831561D02*
X243457143Y-101679180D01*
X243457143Y-101679180D02*
X243533333Y-101602990D01*
X243533333Y-101602990D02*
X243609524Y-101564895D01*
X244752381Y-102364895D02*
X244485714Y-101983942D01*
X244295238Y-102364895D02*
X244295238Y-101564895D01*
X244295238Y-101564895D02*
X244600000Y-101564895D01*
X244600000Y-101564895D02*
X244676190Y-101602990D01*
X244676190Y-101602990D02*
X244714285Y-101641085D01*
X244714285Y-101641085D02*
X244752381Y-101717276D01*
X244752381Y-101717276D02*
X244752381Y-101831561D01*
X244752381Y-101831561D02*
X244714285Y-101907752D01*
X244714285Y-101907752D02*
X244676190Y-101945847D01*
X244676190Y-101945847D02*
X244600000Y-101983942D01*
X244600000Y-101983942D02*
X244295238Y-101983942D01*
X244980952Y-101564895D02*
X245438095Y-101564895D01*
X245209523Y-102364895D02*
X245209523Y-101564895D01*
X114704761Y-146564895D02*
X115161904Y-146564895D01*
X114933332Y-147364895D02*
X114933332Y-146564895D01*
X115428571Y-147364895D02*
X115428571Y-146564895D01*
X115428571Y-146564895D02*
X115733333Y-146564895D01*
X115733333Y-146564895D02*
X115809523Y-146602990D01*
X115809523Y-146602990D02*
X115847618Y-146641085D01*
X115847618Y-146641085D02*
X115885714Y-146717276D01*
X115885714Y-146717276D02*
X115885714Y-146831561D01*
X115885714Y-146831561D02*
X115847618Y-146907752D01*
X115847618Y-146907752D02*
X115809523Y-146945847D01*
X115809523Y-146945847D02*
X115733333Y-146983942D01*
X115733333Y-146983942D02*
X115428571Y-146983942D01*
X116190475Y-147136323D02*
X116571428Y-147136323D01*
X116114285Y-147364895D02*
X116380952Y-146564895D01*
X116380952Y-146564895D02*
X116647618Y-147364895D01*
X116838094Y-146564895D02*
X117333332Y-146564895D01*
X117333332Y-146564895D02*
X117066666Y-146869657D01*
X117066666Y-146869657D02*
X117180951Y-146869657D01*
X117180951Y-146869657D02*
X117257142Y-146907752D01*
X117257142Y-146907752D02*
X117295237Y-146945847D01*
X117295237Y-146945847D02*
X117333332Y-147022038D01*
X117333332Y-147022038D02*
X117333332Y-147212514D01*
X117333332Y-147212514D02*
X117295237Y-147288704D01*
X117295237Y-147288704D02*
X117257142Y-147326800D01*
X117257142Y-147326800D02*
X117180951Y-147364895D01*
X117180951Y-147364895D02*
X116952380Y-147364895D01*
X116952380Y-147364895D02*
X116876189Y-147326800D01*
X116876189Y-147326800D02*
X116838094Y-147288704D01*
X118095237Y-147364895D02*
X117638094Y-147364895D01*
X117866666Y-147364895D02*
X117866666Y-146564895D01*
X117866666Y-146564895D02*
X117790475Y-146679180D01*
X117790475Y-146679180D02*
X117714285Y-146755371D01*
X117714285Y-146755371D02*
X117638094Y-146793466D01*
X118857142Y-147364895D02*
X118399999Y-147364895D01*
X118628571Y-147364895D02*
X118628571Y-146564895D01*
X118628571Y-146564895D02*
X118552380Y-146679180D01*
X118552380Y-146679180D02*
X118476190Y-146755371D01*
X118476190Y-146755371D02*
X118399999Y-146793466D01*
X119542857Y-146564895D02*
X119390476Y-146564895D01*
X119390476Y-146564895D02*
X119314285Y-146602990D01*
X119314285Y-146602990D02*
X119276190Y-146641085D01*
X119276190Y-146641085D02*
X119200000Y-146755371D01*
X119200000Y-146755371D02*
X119161904Y-146907752D01*
X119161904Y-146907752D02*
X119161904Y-147212514D01*
X119161904Y-147212514D02*
X119200000Y-147288704D01*
X119200000Y-147288704D02*
X119238095Y-147326800D01*
X119238095Y-147326800D02*
X119314285Y-147364895D01*
X119314285Y-147364895D02*
X119466666Y-147364895D01*
X119466666Y-147364895D02*
X119542857Y-147326800D01*
X119542857Y-147326800D02*
X119580952Y-147288704D01*
X119580952Y-147288704D02*
X119619047Y-147212514D01*
X119619047Y-147212514D02*
X119619047Y-147022038D01*
X119619047Y-147022038D02*
X119580952Y-146945847D01*
X119580952Y-146945847D02*
X119542857Y-146907752D01*
X119542857Y-146907752D02*
X119466666Y-146869657D01*
X119466666Y-146869657D02*
X119314285Y-146869657D01*
X119314285Y-146869657D02*
X119238095Y-146907752D01*
X119238095Y-146907752D02*
X119200000Y-146945847D01*
X119200000Y-146945847D02*
X119161904Y-147022038D01*
X119961905Y-147364895D02*
X119961905Y-146564895D01*
X119961905Y-146564895D02*
X120152381Y-146564895D01*
X120152381Y-146564895D02*
X120266667Y-146602990D01*
X120266667Y-146602990D02*
X120342857Y-146679180D01*
X120342857Y-146679180D02*
X120380952Y-146755371D01*
X120380952Y-146755371D02*
X120419048Y-146907752D01*
X120419048Y-146907752D02*
X120419048Y-147022038D01*
X120419048Y-147022038D02*
X120380952Y-147174419D01*
X120380952Y-147174419D02*
X120342857Y-147250609D01*
X120342857Y-147250609D02*
X120266667Y-147326800D01*
X120266667Y-147326800D02*
X120152381Y-147364895D01*
X120152381Y-147364895D02*
X119961905Y-147364895D01*
X120723809Y-146641085D02*
X120761905Y-146602990D01*
X120761905Y-146602990D02*
X120838095Y-146564895D01*
X120838095Y-146564895D02*
X121028571Y-146564895D01*
X121028571Y-146564895D02*
X121104762Y-146602990D01*
X121104762Y-146602990D02*
X121142857Y-146641085D01*
X121142857Y-146641085D02*
X121180952Y-146717276D01*
X121180952Y-146717276D02*
X121180952Y-146793466D01*
X121180952Y-146793466D02*
X121142857Y-146907752D01*
X121142857Y-146907752D02*
X120685714Y-147364895D01*
X120685714Y-147364895D02*
X121180952Y-147364895D01*
X121333334Y-147441085D02*
X121942857Y-147441085D01*
X122400000Y-146945847D02*
X122133334Y-146945847D01*
X122133334Y-147364895D02*
X122133334Y-146564895D01*
X122133334Y-146564895D02*
X122514286Y-146564895D01*
X123200000Y-147364895D02*
X122819048Y-147364895D01*
X122819048Y-147364895D02*
X122819048Y-146564895D01*
X123276191Y-147441085D02*
X123885714Y-147441085D01*
X124342857Y-146945847D02*
X124076191Y-146945847D01*
X124076191Y-147364895D02*
X124076191Y-146564895D01*
X124076191Y-146564895D02*
X124457143Y-146564895D01*
X125219048Y-147364895D02*
X124952381Y-146983942D01*
X124761905Y-147364895D02*
X124761905Y-146564895D01*
X124761905Y-146564895D02*
X125066667Y-146564895D01*
X125066667Y-146564895D02*
X125142857Y-146602990D01*
X125142857Y-146602990D02*
X125180952Y-146641085D01*
X125180952Y-146641085D02*
X125219048Y-146717276D01*
X125219048Y-146717276D02*
X125219048Y-146831561D01*
X125219048Y-146831561D02*
X125180952Y-146907752D01*
X125180952Y-146907752D02*
X125142857Y-146945847D01*
X125142857Y-146945847D02*
X125066667Y-146983942D01*
X125066667Y-146983942D02*
X124761905Y-146983942D01*
X147628570Y-146564895D02*
X148085713Y-146564895D01*
X147857141Y-147364895D02*
X147857141Y-146564895D01*
X148352380Y-147364895D02*
X148352380Y-146564895D01*
X148352380Y-146564895D02*
X148657142Y-146564895D01*
X148657142Y-146564895D02*
X148733332Y-146602990D01*
X148733332Y-146602990D02*
X148771427Y-146641085D01*
X148771427Y-146641085D02*
X148809523Y-146717276D01*
X148809523Y-146717276D02*
X148809523Y-146831561D01*
X148809523Y-146831561D02*
X148771427Y-146907752D01*
X148771427Y-146907752D02*
X148733332Y-146945847D01*
X148733332Y-146945847D02*
X148657142Y-146983942D01*
X148657142Y-146983942D02*
X148352380Y-146983942D01*
X149114284Y-147136323D02*
X149495237Y-147136323D01*
X149038094Y-147364895D02*
X149304761Y-146564895D01*
X149304761Y-146564895D02*
X149571427Y-147364895D01*
X149761903Y-146564895D02*
X150257141Y-146564895D01*
X150257141Y-146564895D02*
X149990475Y-146869657D01*
X149990475Y-146869657D02*
X150104760Y-146869657D01*
X150104760Y-146869657D02*
X150180951Y-146907752D01*
X150180951Y-146907752D02*
X150219046Y-146945847D01*
X150219046Y-146945847D02*
X150257141Y-147022038D01*
X150257141Y-147022038D02*
X150257141Y-147212514D01*
X150257141Y-147212514D02*
X150219046Y-147288704D01*
X150219046Y-147288704D02*
X150180951Y-147326800D01*
X150180951Y-147326800D02*
X150104760Y-147364895D01*
X150104760Y-147364895D02*
X149876189Y-147364895D01*
X149876189Y-147364895D02*
X149799998Y-147326800D01*
X149799998Y-147326800D02*
X149761903Y-147288704D01*
X151019046Y-147364895D02*
X150561903Y-147364895D01*
X150790475Y-147364895D02*
X150790475Y-146564895D01*
X150790475Y-146564895D02*
X150714284Y-146679180D01*
X150714284Y-146679180D02*
X150638094Y-146755371D01*
X150638094Y-146755371D02*
X150561903Y-146793466D01*
X151780951Y-147364895D02*
X151323808Y-147364895D01*
X151552380Y-147364895D02*
X151552380Y-146564895D01*
X151552380Y-146564895D02*
X151476189Y-146679180D01*
X151476189Y-146679180D02*
X151399999Y-146755371D01*
X151399999Y-146755371D02*
X151323808Y-146793466D01*
X152466666Y-146564895D02*
X152314285Y-146564895D01*
X152314285Y-146564895D02*
X152238094Y-146602990D01*
X152238094Y-146602990D02*
X152199999Y-146641085D01*
X152199999Y-146641085D02*
X152123809Y-146755371D01*
X152123809Y-146755371D02*
X152085713Y-146907752D01*
X152085713Y-146907752D02*
X152085713Y-147212514D01*
X152085713Y-147212514D02*
X152123809Y-147288704D01*
X152123809Y-147288704D02*
X152161904Y-147326800D01*
X152161904Y-147326800D02*
X152238094Y-147364895D01*
X152238094Y-147364895D02*
X152390475Y-147364895D01*
X152390475Y-147364895D02*
X152466666Y-147326800D01*
X152466666Y-147326800D02*
X152504761Y-147288704D01*
X152504761Y-147288704D02*
X152542856Y-147212514D01*
X152542856Y-147212514D02*
X152542856Y-147022038D01*
X152542856Y-147022038D02*
X152504761Y-146945847D01*
X152504761Y-146945847D02*
X152466666Y-146907752D01*
X152466666Y-146907752D02*
X152390475Y-146869657D01*
X152390475Y-146869657D02*
X152238094Y-146869657D01*
X152238094Y-146869657D02*
X152161904Y-146907752D01*
X152161904Y-146907752D02*
X152123809Y-146945847D01*
X152123809Y-146945847D02*
X152085713Y-147022038D01*
X152885714Y-147364895D02*
X152885714Y-146564895D01*
X152885714Y-146564895D02*
X153076190Y-146564895D01*
X153076190Y-146564895D02*
X153190476Y-146602990D01*
X153190476Y-146602990D02*
X153266666Y-146679180D01*
X153266666Y-146679180D02*
X153304761Y-146755371D01*
X153304761Y-146755371D02*
X153342857Y-146907752D01*
X153342857Y-146907752D02*
X153342857Y-147022038D01*
X153342857Y-147022038D02*
X153304761Y-147174419D01*
X153304761Y-147174419D02*
X153266666Y-147250609D01*
X153266666Y-147250609D02*
X153190476Y-147326800D01*
X153190476Y-147326800D02*
X153076190Y-147364895D01*
X153076190Y-147364895D02*
X152885714Y-147364895D01*
X153647618Y-146641085D02*
X153685714Y-146602990D01*
X153685714Y-146602990D02*
X153761904Y-146564895D01*
X153761904Y-146564895D02*
X153952380Y-146564895D01*
X153952380Y-146564895D02*
X154028571Y-146602990D01*
X154028571Y-146602990D02*
X154066666Y-146641085D01*
X154066666Y-146641085D02*
X154104761Y-146717276D01*
X154104761Y-146717276D02*
X154104761Y-146793466D01*
X154104761Y-146793466D02*
X154066666Y-146907752D01*
X154066666Y-146907752D02*
X153609523Y-147364895D01*
X153609523Y-147364895D02*
X154104761Y-147364895D01*
X154257143Y-147441085D02*
X154866666Y-147441085D01*
X155019047Y-147326800D02*
X155133333Y-147364895D01*
X155133333Y-147364895D02*
X155323809Y-147364895D01*
X155323809Y-147364895D02*
X155400000Y-147326800D01*
X155400000Y-147326800D02*
X155438095Y-147288704D01*
X155438095Y-147288704D02*
X155476190Y-147212514D01*
X155476190Y-147212514D02*
X155476190Y-147136323D01*
X155476190Y-147136323D02*
X155438095Y-147060133D01*
X155438095Y-147060133D02*
X155400000Y-147022038D01*
X155400000Y-147022038D02*
X155323809Y-146983942D01*
X155323809Y-146983942D02*
X155171428Y-146945847D01*
X155171428Y-146945847D02*
X155095238Y-146907752D01*
X155095238Y-146907752D02*
X155057143Y-146869657D01*
X155057143Y-146869657D02*
X155019047Y-146793466D01*
X155019047Y-146793466D02*
X155019047Y-146717276D01*
X155019047Y-146717276D02*
X155057143Y-146641085D01*
X155057143Y-146641085D02*
X155095238Y-146602990D01*
X155095238Y-146602990D02*
X155171428Y-146564895D01*
X155171428Y-146564895D02*
X155361905Y-146564895D01*
X155361905Y-146564895D02*
X155476190Y-146602990D01*
X156200000Y-147364895D02*
X155819048Y-147364895D01*
X155819048Y-147364895D02*
X155819048Y-146564895D01*
X156276191Y-147441085D02*
X156885714Y-147441085D01*
X157038095Y-147326800D02*
X157152381Y-147364895D01*
X157152381Y-147364895D02*
X157342857Y-147364895D01*
X157342857Y-147364895D02*
X157419048Y-147326800D01*
X157419048Y-147326800D02*
X157457143Y-147288704D01*
X157457143Y-147288704D02*
X157495238Y-147212514D01*
X157495238Y-147212514D02*
X157495238Y-147136323D01*
X157495238Y-147136323D02*
X157457143Y-147060133D01*
X157457143Y-147060133D02*
X157419048Y-147022038D01*
X157419048Y-147022038D02*
X157342857Y-146983942D01*
X157342857Y-146983942D02*
X157190476Y-146945847D01*
X157190476Y-146945847D02*
X157114286Y-146907752D01*
X157114286Y-146907752D02*
X157076191Y-146869657D01*
X157076191Y-146869657D02*
X157038095Y-146793466D01*
X157038095Y-146793466D02*
X157038095Y-146717276D01*
X157038095Y-146717276D02*
X157076191Y-146641085D01*
X157076191Y-146641085D02*
X157114286Y-146602990D01*
X157114286Y-146602990D02*
X157190476Y-146564895D01*
X157190476Y-146564895D02*
X157380953Y-146564895D01*
X157380953Y-146564895D02*
X157495238Y-146602990D01*
X158295239Y-147364895D02*
X158028572Y-146983942D01*
X157838096Y-147364895D02*
X157838096Y-146564895D01*
X157838096Y-146564895D02*
X158142858Y-146564895D01*
X158142858Y-146564895D02*
X158219048Y-146602990D01*
X158219048Y-146602990D02*
X158257143Y-146641085D01*
X158257143Y-146641085D02*
X158295239Y-146717276D01*
X158295239Y-146717276D02*
X158295239Y-146831561D01*
X158295239Y-146831561D02*
X158257143Y-146907752D01*
X158257143Y-146907752D02*
X158219048Y-146945847D01*
X158219048Y-146945847D02*
X158142858Y-146983942D01*
X158142858Y-146983942D02*
X157838096Y-146983942D01*
X180514285Y-146564895D02*
X180971428Y-146564895D01*
X180742856Y-147364895D02*
X180742856Y-146564895D01*
X181238095Y-147364895D02*
X181238095Y-146564895D01*
X181238095Y-146564895D02*
X181542857Y-146564895D01*
X181542857Y-146564895D02*
X181619047Y-146602990D01*
X181619047Y-146602990D02*
X181657142Y-146641085D01*
X181657142Y-146641085D02*
X181695238Y-146717276D01*
X181695238Y-146717276D02*
X181695238Y-146831561D01*
X181695238Y-146831561D02*
X181657142Y-146907752D01*
X181657142Y-146907752D02*
X181619047Y-146945847D01*
X181619047Y-146945847D02*
X181542857Y-146983942D01*
X181542857Y-146983942D02*
X181238095Y-146983942D01*
X181999999Y-147136323D02*
X182380952Y-147136323D01*
X181923809Y-147364895D02*
X182190476Y-146564895D01*
X182190476Y-146564895D02*
X182457142Y-147364895D01*
X182647618Y-146564895D02*
X183142856Y-146564895D01*
X183142856Y-146564895D02*
X182876190Y-146869657D01*
X182876190Y-146869657D02*
X182990475Y-146869657D01*
X182990475Y-146869657D02*
X183066666Y-146907752D01*
X183066666Y-146907752D02*
X183104761Y-146945847D01*
X183104761Y-146945847D02*
X183142856Y-147022038D01*
X183142856Y-147022038D02*
X183142856Y-147212514D01*
X183142856Y-147212514D02*
X183104761Y-147288704D01*
X183104761Y-147288704D02*
X183066666Y-147326800D01*
X183066666Y-147326800D02*
X182990475Y-147364895D01*
X182990475Y-147364895D02*
X182761904Y-147364895D01*
X182761904Y-147364895D02*
X182685713Y-147326800D01*
X182685713Y-147326800D02*
X182647618Y-147288704D01*
X183904761Y-147364895D02*
X183447618Y-147364895D01*
X183676190Y-147364895D02*
X183676190Y-146564895D01*
X183676190Y-146564895D02*
X183599999Y-146679180D01*
X183599999Y-146679180D02*
X183523809Y-146755371D01*
X183523809Y-146755371D02*
X183447618Y-146793466D01*
X184666666Y-147364895D02*
X184209523Y-147364895D01*
X184438095Y-147364895D02*
X184438095Y-146564895D01*
X184438095Y-146564895D02*
X184361904Y-146679180D01*
X184361904Y-146679180D02*
X184285714Y-146755371D01*
X184285714Y-146755371D02*
X184209523Y-146793466D01*
X185352381Y-146564895D02*
X185200000Y-146564895D01*
X185200000Y-146564895D02*
X185123809Y-146602990D01*
X185123809Y-146602990D02*
X185085714Y-146641085D01*
X185085714Y-146641085D02*
X185009524Y-146755371D01*
X185009524Y-146755371D02*
X184971428Y-146907752D01*
X184971428Y-146907752D02*
X184971428Y-147212514D01*
X184971428Y-147212514D02*
X185009524Y-147288704D01*
X185009524Y-147288704D02*
X185047619Y-147326800D01*
X185047619Y-147326800D02*
X185123809Y-147364895D01*
X185123809Y-147364895D02*
X185276190Y-147364895D01*
X185276190Y-147364895D02*
X185352381Y-147326800D01*
X185352381Y-147326800D02*
X185390476Y-147288704D01*
X185390476Y-147288704D02*
X185428571Y-147212514D01*
X185428571Y-147212514D02*
X185428571Y-147022038D01*
X185428571Y-147022038D02*
X185390476Y-146945847D01*
X185390476Y-146945847D02*
X185352381Y-146907752D01*
X185352381Y-146907752D02*
X185276190Y-146869657D01*
X185276190Y-146869657D02*
X185123809Y-146869657D01*
X185123809Y-146869657D02*
X185047619Y-146907752D01*
X185047619Y-146907752D02*
X185009524Y-146945847D01*
X185009524Y-146945847D02*
X184971428Y-147022038D01*
X185771429Y-147364895D02*
X185771429Y-146564895D01*
X185771429Y-146564895D02*
X185961905Y-146564895D01*
X185961905Y-146564895D02*
X186076191Y-146602990D01*
X186076191Y-146602990D02*
X186152381Y-146679180D01*
X186152381Y-146679180D02*
X186190476Y-146755371D01*
X186190476Y-146755371D02*
X186228572Y-146907752D01*
X186228572Y-146907752D02*
X186228572Y-147022038D01*
X186228572Y-147022038D02*
X186190476Y-147174419D01*
X186190476Y-147174419D02*
X186152381Y-147250609D01*
X186152381Y-147250609D02*
X186076191Y-147326800D01*
X186076191Y-147326800D02*
X185961905Y-147364895D01*
X185961905Y-147364895D02*
X185771429Y-147364895D01*
X186533333Y-146641085D02*
X186571429Y-146602990D01*
X186571429Y-146602990D02*
X186647619Y-146564895D01*
X186647619Y-146564895D02*
X186838095Y-146564895D01*
X186838095Y-146564895D02*
X186914286Y-146602990D01*
X186914286Y-146602990D02*
X186952381Y-146641085D01*
X186952381Y-146641085D02*
X186990476Y-146717276D01*
X186990476Y-146717276D02*
X186990476Y-146793466D01*
X186990476Y-146793466D02*
X186952381Y-146907752D01*
X186952381Y-146907752D02*
X186495238Y-147364895D01*
X186495238Y-147364895D02*
X186990476Y-147364895D01*
X187142858Y-147441085D02*
X187752381Y-147441085D01*
X188400001Y-147288704D02*
X188361905Y-147326800D01*
X188361905Y-147326800D02*
X188247620Y-147364895D01*
X188247620Y-147364895D02*
X188171429Y-147364895D01*
X188171429Y-147364895D02*
X188057143Y-147326800D01*
X188057143Y-147326800D02*
X187980953Y-147250609D01*
X187980953Y-147250609D02*
X187942858Y-147174419D01*
X187942858Y-147174419D02*
X187904762Y-147022038D01*
X187904762Y-147022038D02*
X187904762Y-146907752D01*
X187904762Y-146907752D02*
X187942858Y-146755371D01*
X187942858Y-146755371D02*
X187980953Y-146679180D01*
X187980953Y-146679180D02*
X188057143Y-146602990D01*
X188057143Y-146602990D02*
X188171429Y-146564895D01*
X188171429Y-146564895D02*
X188247620Y-146564895D01*
X188247620Y-146564895D02*
X188361905Y-146602990D01*
X188361905Y-146602990D02*
X188400001Y-146641085D01*
X188552382Y-147441085D02*
X189161905Y-147441085D01*
X189314286Y-147326800D02*
X189428572Y-147364895D01*
X189428572Y-147364895D02*
X189619048Y-147364895D01*
X189619048Y-147364895D02*
X189695239Y-147326800D01*
X189695239Y-147326800D02*
X189733334Y-147288704D01*
X189733334Y-147288704D02*
X189771429Y-147212514D01*
X189771429Y-147212514D02*
X189771429Y-147136323D01*
X189771429Y-147136323D02*
X189733334Y-147060133D01*
X189733334Y-147060133D02*
X189695239Y-147022038D01*
X189695239Y-147022038D02*
X189619048Y-146983942D01*
X189619048Y-146983942D02*
X189466667Y-146945847D01*
X189466667Y-146945847D02*
X189390477Y-146907752D01*
X189390477Y-146907752D02*
X189352382Y-146869657D01*
X189352382Y-146869657D02*
X189314286Y-146793466D01*
X189314286Y-146793466D02*
X189314286Y-146717276D01*
X189314286Y-146717276D02*
X189352382Y-146641085D01*
X189352382Y-146641085D02*
X189390477Y-146602990D01*
X189390477Y-146602990D02*
X189466667Y-146564895D01*
X189466667Y-146564895D02*
X189657144Y-146564895D01*
X189657144Y-146564895D02*
X189771429Y-146602990D01*
X190114287Y-146564895D02*
X190114287Y-147212514D01*
X190114287Y-147212514D02*
X190152382Y-147288704D01*
X190152382Y-147288704D02*
X190190477Y-147326800D01*
X190190477Y-147326800D02*
X190266668Y-147364895D01*
X190266668Y-147364895D02*
X190419049Y-147364895D01*
X190419049Y-147364895D02*
X190495239Y-147326800D01*
X190495239Y-147326800D02*
X190533334Y-147288704D01*
X190533334Y-147288704D02*
X190571430Y-147212514D01*
X190571430Y-147212514D02*
X190571430Y-146564895D01*
X191219048Y-146945847D02*
X191333334Y-146983942D01*
X191333334Y-146983942D02*
X191371429Y-147022038D01*
X191371429Y-147022038D02*
X191409525Y-147098228D01*
X191409525Y-147098228D02*
X191409525Y-147212514D01*
X191409525Y-147212514D02*
X191371429Y-147288704D01*
X191371429Y-147288704D02*
X191333334Y-147326800D01*
X191333334Y-147326800D02*
X191257144Y-147364895D01*
X191257144Y-147364895D02*
X190952382Y-147364895D01*
X190952382Y-147364895D02*
X190952382Y-146564895D01*
X190952382Y-146564895D02*
X191219048Y-146564895D01*
X191219048Y-146564895D02*
X191295239Y-146602990D01*
X191295239Y-146602990D02*
X191333334Y-146641085D01*
X191333334Y-146641085D02*
X191371429Y-146717276D01*
X191371429Y-146717276D02*
X191371429Y-146793466D01*
X191371429Y-146793466D02*
X191333334Y-146869657D01*
X191333334Y-146869657D02*
X191295239Y-146907752D01*
X191295239Y-146907752D02*
X191219048Y-146945847D01*
X191219048Y-146945847D02*
X190952382Y-146945847D01*
X212057143Y-140364895D02*
X211790476Y-139983942D01*
X211600000Y-140364895D02*
X211600000Y-139564895D01*
X211600000Y-139564895D02*
X211904762Y-139564895D01*
X211904762Y-139564895D02*
X211980952Y-139602990D01*
X211980952Y-139602990D02*
X212019047Y-139641085D01*
X212019047Y-139641085D02*
X212057143Y-139717276D01*
X212057143Y-139717276D02*
X212057143Y-139831561D01*
X212057143Y-139831561D02*
X212019047Y-139907752D01*
X212019047Y-139907752D02*
X211980952Y-139945847D01*
X211980952Y-139945847D02*
X211904762Y-139983942D01*
X211904762Y-139983942D02*
X211600000Y-139983942D01*
X212400000Y-139945847D02*
X212666666Y-139945847D01*
X212780952Y-140364895D02*
X212400000Y-140364895D01*
X212400000Y-140364895D02*
X212400000Y-139564895D01*
X212400000Y-139564895D02*
X212780952Y-139564895D01*
X213504762Y-140364895D02*
X213123810Y-140364895D01*
X213123810Y-140364895D02*
X213123810Y-139564895D01*
X213733333Y-140136323D02*
X214114286Y-140136323D01*
X213657143Y-140364895D02*
X213923810Y-139564895D01*
X213923810Y-139564895D02*
X214190476Y-140364895D01*
X214609524Y-139983942D02*
X214609524Y-140364895D01*
X214342857Y-139564895D02*
X214609524Y-139983942D01*
X214609524Y-139983942D02*
X214876190Y-139564895D01*
X214952381Y-140441085D02*
X215561904Y-140441085D01*
X216171428Y-140364895D02*
X215714285Y-140364895D01*
X215942857Y-140364895D02*
X215942857Y-139564895D01*
X215942857Y-139564895D02*
X215866666Y-139679180D01*
X215866666Y-139679180D02*
X215790476Y-139755371D01*
X215790476Y-139755371D02*
X215714285Y-139793466D01*
X216666667Y-139564895D02*
X216742857Y-139564895D01*
X216742857Y-139564895D02*
X216819048Y-139602990D01*
X216819048Y-139602990D02*
X216857143Y-139641085D01*
X216857143Y-139641085D02*
X216895238Y-139717276D01*
X216895238Y-139717276D02*
X216933333Y-139869657D01*
X216933333Y-139869657D02*
X216933333Y-140060133D01*
X216933333Y-140060133D02*
X216895238Y-140212514D01*
X216895238Y-140212514D02*
X216857143Y-140288704D01*
X216857143Y-140288704D02*
X216819048Y-140326800D01*
X216819048Y-140326800D02*
X216742857Y-140364895D01*
X216742857Y-140364895D02*
X216666667Y-140364895D01*
X216666667Y-140364895D02*
X216590476Y-140326800D01*
X216590476Y-140326800D02*
X216552381Y-140288704D01*
X216552381Y-140288704D02*
X216514286Y-140212514D01*
X216514286Y-140212514D02*
X216476190Y-140060133D01*
X216476190Y-140060133D02*
X216476190Y-139869657D01*
X216476190Y-139869657D02*
X216514286Y-139717276D01*
X216514286Y-139717276D02*
X216552381Y-139641085D01*
X216552381Y-139641085D02*
X216590476Y-139602990D01*
X216590476Y-139602990D02*
X216666667Y-139564895D01*
X217238095Y-140136323D02*
X217619048Y-140136323D01*
X217161905Y-140364895D02*
X217428572Y-139564895D01*
X217428572Y-139564895D02*
X217695238Y-140364895D01*
X217771429Y-140441085D02*
X218380952Y-140441085D01*
X218533333Y-139641085D02*
X218571429Y-139602990D01*
X218571429Y-139602990D02*
X218647619Y-139564895D01*
X218647619Y-139564895D02*
X218838095Y-139564895D01*
X218838095Y-139564895D02*
X218914286Y-139602990D01*
X218914286Y-139602990D02*
X218952381Y-139641085D01*
X218952381Y-139641085D02*
X218990476Y-139717276D01*
X218990476Y-139717276D02*
X218990476Y-139793466D01*
X218990476Y-139793466D02*
X218952381Y-139907752D01*
X218952381Y-139907752D02*
X218495238Y-140364895D01*
X218495238Y-140364895D02*
X218990476Y-140364895D01*
X219676191Y-139831561D02*
X219676191Y-140364895D01*
X219485715Y-139526800D02*
X219295238Y-140098228D01*
X219295238Y-140098228D02*
X219790477Y-140098228D01*
X219980953Y-139564895D02*
X220247620Y-140364895D01*
X220247620Y-140364895D02*
X220514286Y-139564895D01*
X235942857Y-133445847D02*
X235676191Y-133445847D01*
X235676191Y-133864895D02*
X235676191Y-133064895D01*
X235676191Y-133064895D02*
X236057143Y-133064895D01*
X236819048Y-133864895D02*
X236552381Y-133483942D01*
X236361905Y-133864895D02*
X236361905Y-133064895D01*
X236361905Y-133064895D02*
X236666667Y-133064895D01*
X236666667Y-133064895D02*
X236742857Y-133102990D01*
X236742857Y-133102990D02*
X236780952Y-133141085D01*
X236780952Y-133141085D02*
X236819048Y-133217276D01*
X236819048Y-133217276D02*
X236819048Y-133331561D01*
X236819048Y-133331561D02*
X236780952Y-133407752D01*
X236780952Y-133407752D02*
X236742857Y-133445847D01*
X236742857Y-133445847D02*
X236666667Y-133483942D01*
X236666667Y-133483942D02*
X236361905Y-133483942D01*
X237314286Y-133064895D02*
X237466667Y-133064895D01*
X237466667Y-133064895D02*
X237542857Y-133102990D01*
X237542857Y-133102990D02*
X237619048Y-133179180D01*
X237619048Y-133179180D02*
X237657143Y-133331561D01*
X237657143Y-133331561D02*
X237657143Y-133598228D01*
X237657143Y-133598228D02*
X237619048Y-133750609D01*
X237619048Y-133750609D02*
X237542857Y-133826800D01*
X237542857Y-133826800D02*
X237466667Y-133864895D01*
X237466667Y-133864895D02*
X237314286Y-133864895D01*
X237314286Y-133864895D02*
X237238095Y-133826800D01*
X237238095Y-133826800D02*
X237161905Y-133750609D01*
X237161905Y-133750609D02*
X237123809Y-133598228D01*
X237123809Y-133598228D02*
X237123809Y-133331561D01*
X237123809Y-133331561D02*
X237161905Y-133179180D01*
X237161905Y-133179180D02*
X237238095Y-133102990D01*
X237238095Y-133102990D02*
X237314286Y-133064895D01*
X238000000Y-133864895D02*
X238000000Y-133064895D01*
X238000000Y-133064895D02*
X238457143Y-133864895D01*
X238457143Y-133864895D02*
X238457143Y-133064895D01*
X238723809Y-133064895D02*
X239180952Y-133064895D01*
X238952380Y-133864895D02*
X238952380Y-133064895D01*
X239257143Y-133941085D02*
X239866666Y-133941085D01*
X240438095Y-133864895D02*
X240057143Y-133864895D01*
X240057143Y-133864895D02*
X240057143Y-133064895D01*
X235866666Y-145445847D02*
X235600000Y-145445847D01*
X235600000Y-145864895D02*
X235600000Y-145064895D01*
X235600000Y-145064895D02*
X235980952Y-145064895D01*
X236742857Y-145864895D02*
X236476190Y-145483942D01*
X236285714Y-145864895D02*
X236285714Y-145064895D01*
X236285714Y-145064895D02*
X236590476Y-145064895D01*
X236590476Y-145064895D02*
X236666666Y-145102990D01*
X236666666Y-145102990D02*
X236704761Y-145141085D01*
X236704761Y-145141085D02*
X236742857Y-145217276D01*
X236742857Y-145217276D02*
X236742857Y-145331561D01*
X236742857Y-145331561D02*
X236704761Y-145407752D01*
X236704761Y-145407752D02*
X236666666Y-145445847D01*
X236666666Y-145445847D02*
X236590476Y-145483942D01*
X236590476Y-145483942D02*
X236285714Y-145483942D01*
X237238095Y-145064895D02*
X237390476Y-145064895D01*
X237390476Y-145064895D02*
X237466666Y-145102990D01*
X237466666Y-145102990D02*
X237542857Y-145179180D01*
X237542857Y-145179180D02*
X237580952Y-145331561D01*
X237580952Y-145331561D02*
X237580952Y-145598228D01*
X237580952Y-145598228D02*
X237542857Y-145750609D01*
X237542857Y-145750609D02*
X237466666Y-145826800D01*
X237466666Y-145826800D02*
X237390476Y-145864895D01*
X237390476Y-145864895D02*
X237238095Y-145864895D01*
X237238095Y-145864895D02*
X237161904Y-145826800D01*
X237161904Y-145826800D02*
X237085714Y-145750609D01*
X237085714Y-145750609D02*
X237047618Y-145598228D01*
X237047618Y-145598228D02*
X237047618Y-145331561D01*
X237047618Y-145331561D02*
X237085714Y-145179180D01*
X237085714Y-145179180D02*
X237161904Y-145102990D01*
X237161904Y-145102990D02*
X237238095Y-145064895D01*
X237923809Y-145864895D02*
X237923809Y-145064895D01*
X237923809Y-145064895D02*
X238380952Y-145864895D01*
X238380952Y-145864895D02*
X238380952Y-145064895D01*
X238647618Y-145064895D02*
X239104761Y-145064895D01*
X238876189Y-145864895D02*
X238876189Y-145064895D01*
X239180952Y-145941085D02*
X239790475Y-145941085D01*
X240438095Y-145864895D02*
X240171428Y-145483942D01*
X239980952Y-145864895D02*
X239980952Y-145064895D01*
X239980952Y-145064895D02*
X240285714Y-145064895D01*
X240285714Y-145064895D02*
X240361904Y-145102990D01*
X240361904Y-145102990D02*
X240399999Y-145141085D01*
X240399999Y-145141085D02*
X240438095Y-145217276D01*
X240438095Y-145217276D02*
X240438095Y-145331561D01*
X240438095Y-145331561D02*
X240399999Y-145407752D01*
X240399999Y-145407752D02*
X240361904Y-145445847D01*
X240361904Y-145445847D02*
X240285714Y-145483942D01*
X240285714Y-145483942D02*
X239980952Y-145483942D01*
X235923809Y-157826800D02*
X236038095Y-157864895D01*
X236038095Y-157864895D02*
X236228571Y-157864895D01*
X236228571Y-157864895D02*
X236304762Y-157826800D01*
X236304762Y-157826800D02*
X236342857Y-157788704D01*
X236342857Y-157788704D02*
X236380952Y-157712514D01*
X236380952Y-157712514D02*
X236380952Y-157636323D01*
X236380952Y-157636323D02*
X236342857Y-157560133D01*
X236342857Y-157560133D02*
X236304762Y-157522038D01*
X236304762Y-157522038D02*
X236228571Y-157483942D01*
X236228571Y-157483942D02*
X236076190Y-157445847D01*
X236076190Y-157445847D02*
X236000000Y-157407752D01*
X236000000Y-157407752D02*
X235961905Y-157369657D01*
X235961905Y-157369657D02*
X235923809Y-157293466D01*
X235923809Y-157293466D02*
X235923809Y-157217276D01*
X235923809Y-157217276D02*
X235961905Y-157141085D01*
X235961905Y-157141085D02*
X236000000Y-157102990D01*
X236000000Y-157102990D02*
X236076190Y-157064895D01*
X236076190Y-157064895D02*
X236266667Y-157064895D01*
X236266667Y-157064895D02*
X236380952Y-157102990D01*
X236723810Y-157064895D02*
X236723810Y-157712514D01*
X236723810Y-157712514D02*
X236761905Y-157788704D01*
X236761905Y-157788704D02*
X236800000Y-157826800D01*
X236800000Y-157826800D02*
X236876191Y-157864895D01*
X236876191Y-157864895D02*
X237028572Y-157864895D01*
X237028572Y-157864895D02*
X237104762Y-157826800D01*
X237104762Y-157826800D02*
X237142857Y-157788704D01*
X237142857Y-157788704D02*
X237180953Y-157712514D01*
X237180953Y-157712514D02*
X237180953Y-157064895D01*
X238019048Y-157864895D02*
X237752381Y-157483942D01*
X237561905Y-157864895D02*
X237561905Y-157064895D01*
X237561905Y-157064895D02*
X237866667Y-157064895D01*
X237866667Y-157064895D02*
X237942857Y-157102990D01*
X237942857Y-157102990D02*
X237980952Y-157141085D01*
X237980952Y-157141085D02*
X238019048Y-157217276D01*
X238019048Y-157217276D02*
X238019048Y-157331561D01*
X238019048Y-157331561D02*
X237980952Y-157407752D01*
X237980952Y-157407752D02*
X237942857Y-157445847D01*
X237942857Y-157445847D02*
X237866667Y-157483942D01*
X237866667Y-157483942D02*
X237561905Y-157483942D01*
X238819048Y-157864895D02*
X238552381Y-157483942D01*
X238361905Y-157864895D02*
X238361905Y-157064895D01*
X238361905Y-157064895D02*
X238666667Y-157064895D01*
X238666667Y-157064895D02*
X238742857Y-157102990D01*
X238742857Y-157102990D02*
X238780952Y-157141085D01*
X238780952Y-157141085D02*
X238819048Y-157217276D01*
X238819048Y-157217276D02*
X238819048Y-157331561D01*
X238819048Y-157331561D02*
X238780952Y-157407752D01*
X238780952Y-157407752D02*
X238742857Y-157445847D01*
X238742857Y-157445847D02*
X238666667Y-157483942D01*
X238666667Y-157483942D02*
X238361905Y-157483942D01*
X238971429Y-157941085D02*
X239580952Y-157941085D01*
X240152381Y-157864895D02*
X239771429Y-157864895D01*
X239771429Y-157864895D02*
X239771429Y-157064895D01*
X235847618Y-169826800D02*
X235961904Y-169864895D01*
X235961904Y-169864895D02*
X236152380Y-169864895D01*
X236152380Y-169864895D02*
X236228571Y-169826800D01*
X236228571Y-169826800D02*
X236266666Y-169788704D01*
X236266666Y-169788704D02*
X236304761Y-169712514D01*
X236304761Y-169712514D02*
X236304761Y-169636323D01*
X236304761Y-169636323D02*
X236266666Y-169560133D01*
X236266666Y-169560133D02*
X236228571Y-169522038D01*
X236228571Y-169522038D02*
X236152380Y-169483942D01*
X236152380Y-169483942D02*
X235999999Y-169445847D01*
X235999999Y-169445847D02*
X235923809Y-169407752D01*
X235923809Y-169407752D02*
X235885714Y-169369657D01*
X235885714Y-169369657D02*
X235847618Y-169293466D01*
X235847618Y-169293466D02*
X235847618Y-169217276D01*
X235847618Y-169217276D02*
X235885714Y-169141085D01*
X235885714Y-169141085D02*
X235923809Y-169102990D01*
X235923809Y-169102990D02*
X235999999Y-169064895D01*
X235999999Y-169064895D02*
X236190476Y-169064895D01*
X236190476Y-169064895D02*
X236304761Y-169102990D01*
X236647619Y-169064895D02*
X236647619Y-169712514D01*
X236647619Y-169712514D02*
X236685714Y-169788704D01*
X236685714Y-169788704D02*
X236723809Y-169826800D01*
X236723809Y-169826800D02*
X236800000Y-169864895D01*
X236800000Y-169864895D02*
X236952381Y-169864895D01*
X236952381Y-169864895D02*
X237028571Y-169826800D01*
X237028571Y-169826800D02*
X237066666Y-169788704D01*
X237066666Y-169788704D02*
X237104762Y-169712514D01*
X237104762Y-169712514D02*
X237104762Y-169064895D01*
X237942857Y-169864895D02*
X237676190Y-169483942D01*
X237485714Y-169864895D02*
X237485714Y-169064895D01*
X237485714Y-169064895D02*
X237790476Y-169064895D01*
X237790476Y-169064895D02*
X237866666Y-169102990D01*
X237866666Y-169102990D02*
X237904761Y-169141085D01*
X237904761Y-169141085D02*
X237942857Y-169217276D01*
X237942857Y-169217276D02*
X237942857Y-169331561D01*
X237942857Y-169331561D02*
X237904761Y-169407752D01*
X237904761Y-169407752D02*
X237866666Y-169445847D01*
X237866666Y-169445847D02*
X237790476Y-169483942D01*
X237790476Y-169483942D02*
X237485714Y-169483942D01*
X238742857Y-169864895D02*
X238476190Y-169483942D01*
X238285714Y-169864895D02*
X238285714Y-169064895D01*
X238285714Y-169064895D02*
X238590476Y-169064895D01*
X238590476Y-169064895D02*
X238666666Y-169102990D01*
X238666666Y-169102990D02*
X238704761Y-169141085D01*
X238704761Y-169141085D02*
X238742857Y-169217276D01*
X238742857Y-169217276D02*
X238742857Y-169331561D01*
X238742857Y-169331561D02*
X238704761Y-169407752D01*
X238704761Y-169407752D02*
X238666666Y-169445847D01*
X238666666Y-169445847D02*
X238590476Y-169483942D01*
X238590476Y-169483942D02*
X238285714Y-169483942D01*
X238895238Y-169941085D02*
X239504761Y-169941085D01*
X240152381Y-169864895D02*
X239885714Y-169483942D01*
X239695238Y-169864895D02*
X239695238Y-169064895D01*
X239695238Y-169064895D02*
X240000000Y-169064895D01*
X240000000Y-169064895D02*
X240076190Y-169102990D01*
X240076190Y-169102990D02*
X240114285Y-169141085D01*
X240114285Y-169141085D02*
X240152381Y-169217276D01*
X240152381Y-169217276D02*
X240152381Y-169331561D01*
X240152381Y-169331561D02*
X240114285Y-169407752D01*
X240114285Y-169407752D02*
X240076190Y-169445847D01*
X240076190Y-169445847D02*
X240000000Y-169483942D01*
X240000000Y-169483942D02*
X239695238Y-169483942D01*
X236400000Y-181788704D02*
X236361904Y-181826800D01*
X236361904Y-181826800D02*
X236247619Y-181864895D01*
X236247619Y-181864895D02*
X236171428Y-181864895D01*
X236171428Y-181864895D02*
X236057142Y-181826800D01*
X236057142Y-181826800D02*
X235980952Y-181750609D01*
X235980952Y-181750609D02*
X235942857Y-181674419D01*
X235942857Y-181674419D02*
X235904761Y-181522038D01*
X235904761Y-181522038D02*
X235904761Y-181407752D01*
X235904761Y-181407752D02*
X235942857Y-181255371D01*
X235942857Y-181255371D02*
X235980952Y-181179180D01*
X235980952Y-181179180D02*
X236057142Y-181102990D01*
X236057142Y-181102990D02*
X236171428Y-181064895D01*
X236171428Y-181064895D02*
X236247619Y-181064895D01*
X236247619Y-181064895D02*
X236361904Y-181102990D01*
X236361904Y-181102990D02*
X236400000Y-181141085D01*
X236742857Y-181445847D02*
X237009523Y-181445847D01*
X237123809Y-181864895D02*
X236742857Y-181864895D01*
X236742857Y-181864895D02*
X236742857Y-181064895D01*
X236742857Y-181064895D02*
X237123809Y-181064895D01*
X237466667Y-181864895D02*
X237466667Y-181064895D01*
X237466667Y-181064895D02*
X237923810Y-181864895D01*
X237923810Y-181864895D02*
X237923810Y-181064895D01*
X238190476Y-181064895D02*
X238647619Y-181064895D01*
X238419047Y-181864895D02*
X238419047Y-181064895D01*
X238914286Y-181445847D02*
X239180952Y-181445847D01*
X239295238Y-181864895D02*
X238914286Y-181864895D01*
X238914286Y-181864895D02*
X238914286Y-181064895D01*
X238914286Y-181064895D02*
X239295238Y-181064895D01*
X240095239Y-181864895D02*
X239828572Y-181483942D01*
X239638096Y-181864895D02*
X239638096Y-181064895D01*
X239638096Y-181064895D02*
X239942858Y-181064895D01*
X239942858Y-181064895D02*
X240019048Y-181102990D01*
X240019048Y-181102990D02*
X240057143Y-181141085D01*
X240057143Y-181141085D02*
X240095239Y-181217276D01*
X240095239Y-181217276D02*
X240095239Y-181331561D01*
X240095239Y-181331561D02*
X240057143Y-181407752D01*
X240057143Y-181407752D02*
X240019048Y-181445847D01*
X240019048Y-181445847D02*
X239942858Y-181483942D01*
X239942858Y-181483942D02*
X239638096Y-181483942D01*
X234552380Y-193826800D02*
X234666666Y-193864895D01*
X234666666Y-193864895D02*
X234857142Y-193864895D01*
X234857142Y-193864895D02*
X234933333Y-193826800D01*
X234933333Y-193826800D02*
X234971428Y-193788704D01*
X234971428Y-193788704D02*
X235009523Y-193712514D01*
X235009523Y-193712514D02*
X235009523Y-193636323D01*
X235009523Y-193636323D02*
X234971428Y-193560133D01*
X234971428Y-193560133D02*
X234933333Y-193522038D01*
X234933333Y-193522038D02*
X234857142Y-193483942D01*
X234857142Y-193483942D02*
X234704761Y-193445847D01*
X234704761Y-193445847D02*
X234628571Y-193407752D01*
X234628571Y-193407752D02*
X234590476Y-193369657D01*
X234590476Y-193369657D02*
X234552380Y-193293466D01*
X234552380Y-193293466D02*
X234552380Y-193217276D01*
X234552380Y-193217276D02*
X234590476Y-193141085D01*
X234590476Y-193141085D02*
X234628571Y-193102990D01*
X234628571Y-193102990D02*
X234704761Y-193064895D01*
X234704761Y-193064895D02*
X234895238Y-193064895D01*
X234895238Y-193064895D02*
X235009523Y-193102990D01*
X235352381Y-193064895D02*
X235352381Y-193712514D01*
X235352381Y-193712514D02*
X235390476Y-193788704D01*
X235390476Y-193788704D02*
X235428571Y-193826800D01*
X235428571Y-193826800D02*
X235504762Y-193864895D01*
X235504762Y-193864895D02*
X235657143Y-193864895D01*
X235657143Y-193864895D02*
X235733333Y-193826800D01*
X235733333Y-193826800D02*
X235771428Y-193788704D01*
X235771428Y-193788704D02*
X235809524Y-193712514D01*
X235809524Y-193712514D02*
X235809524Y-193064895D01*
X236457142Y-193445847D02*
X236571428Y-193483942D01*
X236571428Y-193483942D02*
X236609523Y-193522038D01*
X236609523Y-193522038D02*
X236647619Y-193598228D01*
X236647619Y-193598228D02*
X236647619Y-193712514D01*
X236647619Y-193712514D02*
X236609523Y-193788704D01*
X236609523Y-193788704D02*
X236571428Y-193826800D01*
X236571428Y-193826800D02*
X236495238Y-193864895D01*
X236495238Y-193864895D02*
X236190476Y-193864895D01*
X236190476Y-193864895D02*
X236190476Y-193064895D01*
X236190476Y-193064895D02*
X236457142Y-193064895D01*
X236457142Y-193064895D02*
X236533333Y-193102990D01*
X236533333Y-193102990D02*
X236571428Y-193141085D01*
X236571428Y-193141085D02*
X236609523Y-193217276D01*
X236609523Y-193217276D02*
X236609523Y-193293466D01*
X236609523Y-193293466D02*
X236571428Y-193369657D01*
X236571428Y-193369657D02*
X236533333Y-193407752D01*
X236533333Y-193407752D02*
X236457142Y-193445847D01*
X236457142Y-193445847D02*
X236190476Y-193445847D01*
X236914285Y-193064895D02*
X237104761Y-193864895D01*
X237104761Y-193864895D02*
X237257142Y-193293466D01*
X237257142Y-193293466D02*
X237409523Y-193864895D01*
X237409523Y-193864895D02*
X237600000Y-193064895D01*
X238057143Y-193064895D02*
X238209524Y-193064895D01*
X238209524Y-193064895D02*
X238285714Y-193102990D01*
X238285714Y-193102990D02*
X238361905Y-193179180D01*
X238361905Y-193179180D02*
X238400000Y-193331561D01*
X238400000Y-193331561D02*
X238400000Y-193598228D01*
X238400000Y-193598228D02*
X238361905Y-193750609D01*
X238361905Y-193750609D02*
X238285714Y-193826800D01*
X238285714Y-193826800D02*
X238209524Y-193864895D01*
X238209524Y-193864895D02*
X238057143Y-193864895D01*
X238057143Y-193864895D02*
X237980952Y-193826800D01*
X237980952Y-193826800D02*
X237904762Y-193750609D01*
X237904762Y-193750609D02*
X237866666Y-193598228D01*
X237866666Y-193598228D02*
X237866666Y-193331561D01*
X237866666Y-193331561D02*
X237904762Y-193179180D01*
X237904762Y-193179180D02*
X237980952Y-193102990D01*
X237980952Y-193102990D02*
X238057143Y-193064895D01*
X238895238Y-193064895D02*
X239047619Y-193064895D01*
X239047619Y-193064895D02*
X239123809Y-193102990D01*
X239123809Y-193102990D02*
X239200000Y-193179180D01*
X239200000Y-193179180D02*
X239238095Y-193331561D01*
X239238095Y-193331561D02*
X239238095Y-193598228D01*
X239238095Y-193598228D02*
X239200000Y-193750609D01*
X239200000Y-193750609D02*
X239123809Y-193826800D01*
X239123809Y-193826800D02*
X239047619Y-193864895D01*
X239047619Y-193864895D02*
X238895238Y-193864895D01*
X238895238Y-193864895D02*
X238819047Y-193826800D01*
X238819047Y-193826800D02*
X238742857Y-193750609D01*
X238742857Y-193750609D02*
X238704761Y-193598228D01*
X238704761Y-193598228D02*
X238704761Y-193331561D01*
X238704761Y-193331561D02*
X238742857Y-193179180D01*
X238742857Y-193179180D02*
X238819047Y-193102990D01*
X238819047Y-193102990D02*
X238895238Y-193064895D01*
X239847618Y-193445847D02*
X239580952Y-193445847D01*
X239580952Y-193864895D02*
X239580952Y-193064895D01*
X239580952Y-193064895D02*
X239961904Y-193064895D01*
X240266666Y-193445847D02*
X240533332Y-193445847D01*
X240647618Y-193864895D02*
X240266666Y-193864895D01*
X240266666Y-193864895D02*
X240266666Y-193064895D01*
X240266666Y-193064895D02*
X240647618Y-193064895D01*
X241447619Y-193864895D02*
X241180952Y-193483942D01*
X240990476Y-193864895D02*
X240990476Y-193064895D01*
X240990476Y-193064895D02*
X241295238Y-193064895D01*
X241295238Y-193064895D02*
X241371428Y-193102990D01*
X241371428Y-193102990D02*
X241409523Y-193141085D01*
X241409523Y-193141085D02*
X241447619Y-193217276D01*
X241447619Y-193217276D02*
X241447619Y-193331561D01*
X241447619Y-193331561D02*
X241409523Y-193407752D01*
X241409523Y-193407752D02*
X241371428Y-193445847D01*
X241371428Y-193445847D02*
X241295238Y-193483942D01*
X241295238Y-193483942D02*
X240990476Y-193483942D01*
M02*
