%TF.GenerationSoftware,KiCad,Pcbnew,10.0.6-1.fc43*%
%TF.CreationDate,2026-09-07T01:25:58+05:30*%
%TF.ProjectId,sony-5.1-revival,736f6e79-2d35-42e3-912d-726576697661,2.0*%
%TF.SameCoordinates,Original*%
%TF.FileFunction,Copper,L2,Bot*%
%TF.FilePolarity,Positive*%
%FSLAX46Y46*%
G04 Gerber Fmt 4.6, Leading zero omitted, Abs format (unit mm)*
G04 Created by KiCad (PCBNEW 10.0.6-1.fc43) date 2026-09-07 01:25:58*
%MOMM*%
%LPD*%
G01*
G04 APERTURE LIST*
%TA.AperFunction,ComponentPad*%
%ADD10C,6.000000*%
%TD*%
%TA.AperFunction,ComponentPad*%
%ADD11R,3.000000X3.000000*%
%TD*%
%TA.AperFunction,ComponentPad*%
%ADD12C,3.000000*%
%TD*%
%TA.AperFunction,ComponentPad*%
%ADD13R,2.800000X2.800000*%
%TD*%
%TA.AperFunction,ComponentPad*%
%ADD14C,2.800000*%
%TD*%
%TA.AperFunction,ComponentPad*%
%ADD15C,2.400000*%
%TD*%
%TA.AperFunction,ComponentPad*%
%ADD16R,3.200000X3.200000*%
%TD*%
%TA.AperFunction,ComponentPad*%
%ADD17C,3.200000*%
%TD*%
%TA.AperFunction,ComponentPad*%
%ADD18R,1.800000X1.800000*%
%TD*%
%TA.AperFunction,ComponentPad*%
%ADD19C,1.800000*%
%TD*%
%TA.AperFunction,ComponentPad*%
%ADD20R,2.200000X2.200000*%
%TD*%
%TA.AperFunction,ComponentPad*%
%ADD21C,2.200000*%
%TD*%
%TA.AperFunction,ComponentPad*%
%ADD22R,1.700000X1.700000*%
%TD*%
%TA.AperFunction,ComponentPad*%
%ADD23C,1.700000*%
%TD*%
%TA.AperFunction,ComponentPad*%
%ADD24R,1.600000X1.600000*%
%TD*%
%TA.AperFunction,ComponentPad*%
%ADD25C,1.600000*%
%TD*%
%TA.AperFunction,ComponentPad*%
%ADD26C,0.600000*%
%TD*%
%TA.AperFunction,ComponentPad*%
%ADD27C,2.500000*%
%TD*%
%TA.AperFunction,ComponentPad*%
%ADD28R,2.500000X2.500000*%
%TD*%
G04 APERTURE END LIST*
D10*
%TO.P,H,1*%
%TO.N,GND*%
X55000000Y-55000000D03*
%TD*%
%TO.P,H,1*%
%TO.N,GND*%
X245000000Y-55000000D03*
%TD*%
%TO.P,H,1*%
%TO.N,GND*%
X55000000Y-195000000D03*
%TD*%
%TO.P,H,1*%
%TO.N,GND*%
X245000000Y-195000000D03*
%TD*%
D11*
%TO.P,J_AC,1*%
%TO.N,AC_LIVE*%
X65080000Y-186000000D03*
D12*
%TO.P,J_AC,2*%
%TO.N,GND*%
X60000000Y-186000000D03*
%TO.P,J_AC,3*%
%TO.N,AC_NEUTRAL*%
X54920000Y-186000000D03*
%TD*%
D13*
%TO.P,F1,1*%
%TO.N,AC_LIVE*%
X46700000Y-168000000D03*
D14*
%TO.P,F1,2*%
X69300000Y-168000000D03*
%TD*%
D15*
%TO.P,RV1,1*%
%TO.N,AC_LIVE*%
X68250000Y-168000000D03*
%TO.P,RV1,2*%
%TO.N,AC_NEUTRAL*%
X75750000Y-168000000D03*
%TD*%
D16*
%TO.P,BR1,1*%
%TO.N,VCC_24V_RAW*%
X80000000Y-159620000D03*
D12*
%TO.P,BR1,2*%
%TO.N,AC_LIVE*%
X80000000Y-154540000D03*
%TO.P,BR1,3*%
%TO.N,AC_NEUTRAL*%
X80000000Y-149460000D03*
%TO.P,BR1,4*%
%TO.N,GND*%
X80000000Y-144380000D03*
%TD*%
D16*
%TO.P,C1,1*%
%TO.N,VCC_24V_RAW*%
X71250000Y-128000000D03*
D17*
%TO.P,C1,2*%
%TO.N,GND*%
X78750000Y-128000000D03*
%TD*%
D16*
%TO.P,C2,1*%
%TO.N,VCC_24V_RAW*%
X71250000Y-102000000D03*
D17*
%TO.P,C2,2*%
%TO.N,GND*%
X78750000Y-102000000D03*
%TD*%
D18*
%TO.P,U_VGND,1*%
%TO.N,VCC_24V*%
X75460000Y-60000000D03*
D19*
%TO.P,U_VGND,2*%
%TO.N,VGND_12V*%
X78000000Y-60000000D03*
%TO.P,U_VGND,3*%
%TO.N,GND*%
X80540000Y-60000000D03*
%TD*%
D20*
%TO.P,J_AUX,1*%
%TO.N,GND*%
X104500000Y-60000000D03*
D21*
%TO.P,J_AUX,2*%
%TO.N,J_AUX_L*%
X108000000Y-62500000D03*
%TO.P,J_AUX,3*%
%TO.N,J_AUX_R*%
X111500000Y-60000000D03*
%TD*%
D22*
%TO.P,J_USB_IN,1*%
%TO.N,VCC_5V*%
X116920000Y-60000000D03*
D23*
%TO.P,J_USB_IN,2*%
%TO.N,GND*%
X119460000Y-60000000D03*
%TO.P,J_USB_IN,3*%
%TO.N,USB_L*%
X122000000Y-60000000D03*
%TO.P,J_USB_IN,4*%
%TO.N,USB_R*%
X124540000Y-60000000D03*
%TO.P,J_USB_IN,5*%
%TO.N,GND*%
X127080000Y-60000000D03*
%TD*%
D18*
%TO.P,U_BT,1*%
%TO.N,VCC_3V3*%
X128030000Y-62000000D03*
D19*
%TO.P,U_BT,2*%
%TO.N,GND*%
X130570000Y-62000000D03*
%TO.P,U_BT,3*%
%TO.N,BT_OUT_L*%
X133110000Y-62000000D03*
%TO.P,U_BT,4*%
%TO.N,BT_OUT_R*%
X135650000Y-62000000D03*
%TO.P,U_BT,5*%
%TO.N,BT_KEY*%
X138190000Y-62000000D03*
%TO.P,U_BT,6*%
%TO.N,GND*%
X140730000Y-62000000D03*
%TO.P,U_BT,7*%
X143270000Y-62000000D03*
%TO.P,U_BT,8*%
X145810000Y-62000000D03*
%TO.P,U_BT,9*%
X148350000Y-62000000D03*
%TO.P,U_BT,10*%
X150890000Y-62000000D03*
%TO.P,U_BT,11*%
X153430000Y-62000000D03*
%TO.P,U_BT,12*%
X155970000Y-62000000D03*
%TD*%
D18*
%TO.P,J_OLED,1*%
%TO.N,GND*%
X232380000Y-58000000D03*
D19*
%TO.P,J_OLED,2*%
%TO.N,VCC_3V3*%
X234920000Y-58000000D03*
%TO.P,J_OLED,3*%
%TO.N,SPI_SCK*%
X237460000Y-58000000D03*
%TO.P,J_OLED,4*%
%TO.N,SPI_MOSI*%
X240000000Y-58000000D03*
%TO.P,J_OLED,5*%
%TO.N,VCC_3V3*%
X242540000Y-58000000D03*
%TO.P,J_OLED,6*%
%TO.N,OLED_DC*%
X245080000Y-58000000D03*
%TO.P,J_OLED,7*%
%TO.N,OLED_CS*%
X247620000Y-58000000D03*
%TD*%
D18*
%TO.P,J_ENC,1*%
%TO.N,GND*%
X234920000Y-75000000D03*
D19*
%TO.P,J_ENC,2*%
%TO.N,VCC_3V3*%
X237460000Y-75000000D03*
%TO.P,J_ENC,3*%
%TO.N,ENC_SW*%
X240000000Y-75000000D03*
%TO.P,J_ENC,4*%
%TO.N,ENC_B*%
X242540000Y-75000000D03*
%TO.P,J_ENC,5*%
%TO.N,ENC_A*%
X245080000Y-75000000D03*
%TD*%
D18*
%TO.P,J_CTRL,1*%
%TO.N,VCC_3V3*%
X236190000Y-92000000D03*
D19*
%TO.P,J_CTRL,2*%
%TO.N,UART_TX*%
X238730000Y-92000000D03*
%TO.P,J_CTRL,3*%
%TO.N,UART_RX*%
X241270000Y-92000000D03*
%TO.P,J_CTRL,4*%
%TO.N,GND*%
X243810000Y-92000000D03*
%TD*%
D24*
%TO.P,U_IR,1*%
%TO.N,IR_RECV*%
X237460000Y-105000000D03*
D25*
%TO.P,U_IR,2*%
%TO.N,GND*%
X240000000Y-105000000D03*
%TO.P,U_IR,3*%
%TO.N,VCC_3V3*%
X242540000Y-105000000D03*
%TD*%
D26*
%TO.P,U_AMP1,*%
%TO.N,GND*%
X118800000Y-127200000D03*
X118800000Y-128800000D03*
X120000000Y-127200000D03*
X120000000Y-128800000D03*
X121200000Y-127200000D03*
X121200000Y-128800000D03*
%TD*%
%TO.P,U_AMP2,*%
%TO.N,GND*%
X148800000Y-127200000D03*
X148800000Y-128800000D03*
X150000000Y-127200000D03*
X150000000Y-128800000D03*
X151200000Y-127200000D03*
X151200000Y-128800000D03*
%TD*%
%TO.P,U_AMP3,*%
%TO.N,GND*%
X178800000Y-127200000D03*
X178800000Y-128800000D03*
X180000000Y-127200000D03*
X180000000Y-128800000D03*
X181200000Y-127200000D03*
X181200000Y-128800000D03*
%TD*%
D27*
%TO.P,K1,1*%
%TO.N,VCC_5V*%
X194000000Y-134000000D03*
%TO.P,K1,2*%
%TO.N,RELAY_CTRL*%
X206000000Y-134000000D03*
D16*
%TO.P,K1,3*%
%TO.N,VCC_24V_RAW*%
X194000000Y-122000000D03*
%TO.P,K1,4*%
%TO.N,VCC_24V*%
X206000000Y-122000000D03*
%TD*%
D28*
%TO.P,C_BULK1,1*%
%TO.N,VCC_24V*%
X117500000Y-142000000D03*
D27*
%TO.P,C_BULK1,2*%
%TO.N,GND*%
X122500000Y-142000000D03*
%TD*%
D28*
%TO.P,C_BULK2,1*%
%TO.N,VCC_24V*%
X147500000Y-142000000D03*
D27*
%TO.P,C_BULK2,2*%
%TO.N,GND*%
X152500000Y-142000000D03*
%TD*%
D28*
%TO.P,C_BULK3,1*%
%TO.N,VCC_24V*%
X177500000Y-142000000D03*
D27*
%TO.P,C_BULK3,2*%
%TO.N,GND*%
X182500000Y-142000000D03*
%TD*%
D24*
%TO.P,C_O1,1*%
%TO.N,OUT_FL_P*%
X105500000Y-165000000D03*
D25*
%TO.P,C_O1,2*%
%TO.N,GND*%
X110500000Y-165000000D03*
%TD*%
D24*
%TO.P,C_O2,1*%
%TO.N,OUT_FL_N*%
X117500000Y-165000000D03*
D25*
%TO.P,C_O2,2*%
%TO.N,GND*%
X122500000Y-165000000D03*
%TD*%
D24*
%TO.P,C_O3,1*%
%TO.N,OUT_FR_P*%
X131500000Y-165000000D03*
D25*
%TO.P,C_O3,2*%
%TO.N,GND*%
X136500000Y-165000000D03*
%TD*%
D24*
%TO.P,C_O4,1*%
%TO.N,OUT_FR_N*%
X143500000Y-165000000D03*
D25*
%TO.P,C_O4,2*%
%TO.N,GND*%
X148500000Y-165000000D03*
%TD*%
D24*
%TO.P,C_O5,1*%
%TO.N,OUT_SL_P*%
X157500000Y-165000000D03*
D25*
%TO.P,C_O5,2*%
%TO.N,GND*%
X162500000Y-165000000D03*
%TD*%
D24*
%TO.P,C_O6,1*%
%TO.N,OUT_SL_N*%
X169500000Y-165000000D03*
D25*
%TO.P,C_O6,2*%
%TO.N,GND*%
X174500000Y-165000000D03*
%TD*%
D24*
%TO.P,C_O7,1*%
%TO.N,OUT_SR_P*%
X105500000Y-181000000D03*
D25*
%TO.P,C_O7,2*%
%TO.N,GND*%
X110500000Y-181000000D03*
%TD*%
D24*
%TO.P,C_O8,1*%
%TO.N,OUT_SR_N*%
X117500000Y-181000000D03*
D25*
%TO.P,C_O8,2*%
%TO.N,GND*%
X122500000Y-181000000D03*
%TD*%
D24*
%TO.P,C_O9,1*%
%TO.N,OUT_C_P*%
X131500000Y-181000000D03*
D25*
%TO.P,C_O9,2*%
%TO.N,GND*%
X136500000Y-181000000D03*
%TD*%
D24*
%TO.P,C_O10,1*%
%TO.N,OUT_C_N*%
X143500000Y-181000000D03*
D25*
%TO.P,C_O10,2*%
%TO.N,GND*%
X148500000Y-181000000D03*
%TD*%
D24*
%TO.P,C_O11,1*%
%TO.N,OUT_SUB_P*%
X157500000Y-181000000D03*
D25*
%TO.P,C_O11,2*%
%TO.N,GND*%
X162500000Y-181000000D03*
%TD*%
D24*
%TO.P,C_O12,1*%
%TO.N,OUT_SUB_N*%
X169500000Y-181000000D03*
D25*
%TO.P,C_O12,2*%
%TO.N,GND*%
X174500000Y-181000000D03*
%TD*%
D13*
%TO.P,J_SPK_FL,1*%
%TO.N,OUT_FL_P*%
X235460000Y-124000000D03*
D14*
%TO.P,J_SPK_FL,2*%
%TO.N,OUT_FL_N*%
X240540000Y-124000000D03*
%TD*%
D13*
%TO.P,J_SPK_FR,1*%
%TO.N,OUT_FR_P*%
X235460000Y-136000000D03*
D14*
%TO.P,J_SPK_FR,2*%
%TO.N,OUT_FR_N*%
X240540000Y-136000000D03*
%TD*%
D13*
%TO.P,J_SPK_SL,1*%
%TO.N,OUT_SL_P*%
X235460000Y-148000000D03*
D14*
%TO.P,J_SPK_SL,2*%
%TO.N,OUT_SL_N*%
X240540000Y-148000000D03*
%TD*%
D13*
%TO.P,J_SPK_SR,1*%
%TO.N,OUT_SR_P*%
X235460000Y-160000000D03*
D14*
%TO.P,J_SPK_SR,2*%
%TO.N,OUT_SR_N*%
X240540000Y-160000000D03*
%TD*%
D13*
%TO.P,J_SPK_C,1*%
%TO.N,OUT_C_P*%
X235460000Y-172000000D03*
D14*
%TO.P,J_SPK_C,2*%
%TO.N,OUT_C_N*%
X240540000Y-172000000D03*
%TD*%
D13*
%TO.P,J_SPK_SUB,1*%
%TO.N,OUT_SUB_P*%
X235460000Y-184000000D03*
D14*
%TO.P,J_SPK_SUB,2*%
%TO.N,OUT_SUB_N*%
X240540000Y-184000000D03*
%TD*%
M02*
