%TF.GenerationSoftware,KiCad,Pcbnew,10.0.6-1.fc43*%
%TF.CreationDate,2026-09-07T01:25:58+05:30*%
%TF.ProjectId,sony-5.1-revival,736f6e79-2d35-42e3-912d-726576697661,2.0*%
%TF.SameCoordinates,Original*%
%TF.FileFunction,Copper,L1,Top*%
%TF.FilePolarity,Positive*%
%FSLAX46Y46*%
G04 Gerber Fmt 4.6, Leading zero omitted, Abs format (unit mm)*
G04 Created by KiCad (PCBNEW 10.0.6-1.fc43) date 2026-09-07 01:25:58*
%MOMM*%
%LPD*%
G01*
G04 APERTURE LIST*
G04 Aperture macros list*
%AMRoundRect*
0 Rectangle with rounded corners*
0 $1 Rounding radius*
0 $2 $3 $4 $5 $6 $7 $8 $9 X,Y pos of 4 corners*
0 Add a 4 corners polygon primitive as box body*
4,1,4,$2,$3,$4,$5,$6,$7,$8,$9,$2,$3,0*
0 Add four circle primitives for the rounded corners*
1,1,$1+$1,$2,$3*
1,1,$1+$1,$4,$5*
1,1,$1+$1,$6,$7*
1,1,$1+$1,$8,$9*
0 Add four rect primitives between the rounded corners*
20,1,$1+$1,$2,$3,$4,$5,0*
20,1,$1+$1,$4,$5,$6,$7,0*
20,1,$1+$1,$6,$7,$8,$9,0*
20,1,$1+$1,$8,$9,$2,$3,0*%
G04 Aperture macros list end*
%TA.AperFunction,ComponentPad*%
%ADD10C,6.000000*%
%TD*%
%TA.AperFunction,ComponentPad*%
%ADD11R,3.000000X3.000000*%
%TD*%
%TA.AperFunction,ComponentPad*%
%ADD12C,3.000000*%
%TD*%
%TA.AperFunction,ComponentPad*%
%ADD13R,2.800000X2.800000*%
%TD*%
%TA.AperFunction,ComponentPad*%
%ADD14C,2.800000*%
%TD*%
%TA.AperFunction,ComponentPad*%
%ADD15C,2.400000*%
%TD*%
%TA.AperFunction,ComponentPad*%
%ADD16R,3.200000X3.200000*%
%TD*%
%TA.AperFunction,ComponentPad*%
%ADD17C,3.200000*%
%TD*%
%TA.AperFunction,SMDPad,CuDef*%
%ADD18R,2.200000X1.000000*%
%TD*%
%TA.AperFunction,SMDPad,CuDef*%
%ADD19R,6.500000X10.000000*%
%TD*%
%TA.AperFunction,SMDPad,CuDef*%
%ADD20R,3.000000X5.000000*%
%TD*%
%TA.AperFunction,SMDPad,CuDef*%
%ADD21R,1.000000X1.800000*%
%TD*%
%TA.AperFunction,SMDPad,CuDef*%
%ADD22R,3.300000X1.800000*%
%TD*%
%TA.AperFunction,ComponentPad*%
%ADD23R,1.800000X1.800000*%
%TD*%
%TA.AperFunction,ComponentPad*%
%ADD24C,1.800000*%
%TD*%
%TA.AperFunction,ComponentPad*%
%ADD25R,2.200000X2.200000*%
%TD*%
%TA.AperFunction,ComponentPad*%
%ADD26C,2.200000*%
%TD*%
%TA.AperFunction,ComponentPad*%
%ADD27R,1.700000X1.700000*%
%TD*%
%TA.AperFunction,ComponentPad*%
%ADD28C,1.700000*%
%TD*%
%TA.AperFunction,SMDPad,CuDef*%
%ADD29R,1.500000X0.600000*%
%TD*%
%TA.AperFunction,SMDPad,CuDef*%
%ADD30RoundRect,0.150000X-0.600000X-0.150000X0.600000X-0.150000X0.600000X0.150000X-0.600000X0.150000X0*%
%TD*%
%TA.AperFunction,SMDPad,CuDef*%
%ADD31R,2.000000X0.900000*%
%TD*%
%TA.AperFunction,SMDPad,CuDef*%
%ADD32R,0.900000X2.000000*%
%TD*%
%TA.AperFunction,SMDPad,CuDef*%
%ADD33R,6.000000X6.000000*%
%TD*%
%TA.AperFunction,ComponentPad*%
%ADD34R,1.600000X1.600000*%
%TD*%
%TA.AperFunction,ComponentPad*%
%ADD35C,1.600000*%
%TD*%
%TA.AperFunction,SMDPad,CuDef*%
%ADD36R,1.400000X0.400000*%
%TD*%
%TA.AperFunction,SMDPad,CuDef*%
%ADD37RoundRect,0.100000X-0.600000X-0.100000X0.600000X-0.100000X0.600000X0.100000X-0.600000X0.100000X0*%
%TD*%
%TA.AperFunction,SMDPad,CuDef*%
%ADD38R,4.500000X3.000000*%
%TD*%
%TA.AperFunction,ComponentPad*%
%ADD39C,0.600000*%
%TD*%
%TA.AperFunction,ComponentPad*%
%ADD40C,2.500000*%
%TD*%
%TA.AperFunction,SMDPad,CuDef*%
%ADD41R,0.800000X0.900000*%
%TD*%
%TA.AperFunction,ComponentPad*%
%ADD42R,2.500000X2.500000*%
%TD*%
%TA.AperFunction,SMDPad,CuDef*%
%ADD43R,2.500000X4.500000*%
%TD*%
%TA.AperFunction,SMDPad,CuDef*%
%ADD44R,1.200000X3.200000*%
%TD*%
%TA.AperFunction,Conductor*%
%ADD45C,2.500000*%
%TD*%
%TA.AperFunction,Conductor*%
%ADD46C,3.000000*%
%TD*%
%TA.AperFunction,Conductor*%
%ADD47C,2.800000*%
%TD*%
%TA.AperFunction,Conductor*%
%ADD48C,1.500000*%
%TD*%
%TA.AperFunction,Conductor*%
%ADD49C,1.200000*%
%TD*%
%TA.AperFunction,Conductor*%
%ADD50C,1.000000*%
%TD*%
%TA.AperFunction,Conductor*%
%ADD51C,0.400000*%
%TD*%
%TA.AperFunction,Conductor*%
%ADD52C,0.500000*%
%TD*%
%TA.AperFunction,Conductor*%
%ADD53C,1.800000*%
%TD*%
G04 APERTURE END LIST*
D10*
%TO.P,H,1*%
%TO.N,GND*%
X55000000Y-55000000D03*
%TD*%
%TO.P,H,1*%
%TO.N,GND*%
X245000000Y-55000000D03*
%TD*%
%TO.P,H,1*%
%TO.N,GND*%
X55000000Y-195000000D03*
%TD*%
%TO.P,H,1*%
%TO.N,GND*%
X245000000Y-195000000D03*
%TD*%
D11*
%TO.P,J_AC,1*%
%TO.N,AC_LIVE*%
X65080000Y-186000000D03*
D12*
%TO.P,J_AC,2*%
%TO.N,GND*%
X60000000Y-186000000D03*
%TO.P,J_AC,3*%
%TO.N,AC_NEUTRAL*%
X54920000Y-186000000D03*
%TD*%
D13*
%TO.P,F1,1*%
%TO.N,AC_LIVE*%
X46700000Y-168000000D03*
D14*
%TO.P,F1,2*%
X69300000Y-168000000D03*
%TD*%
D15*
%TO.P,RV1,1*%
%TO.N,AC_LIVE*%
X68250000Y-168000000D03*
%TO.P,RV1,2*%
%TO.N,AC_NEUTRAL*%
X75750000Y-168000000D03*
%TD*%
D16*
%TO.P,BR1,1*%
%TO.N,VCC_24V_RAW*%
X80000000Y-159620000D03*
D12*
%TO.P,BR1,2*%
%TO.N,AC_LIVE*%
X80000000Y-154540000D03*
%TO.P,BR1,3*%
%TO.N,AC_NEUTRAL*%
X80000000Y-149460000D03*
%TO.P,BR1,4*%
%TO.N,GND*%
X80000000Y-144380000D03*
%TD*%
D16*
%TO.P,C1,1*%
%TO.N,VCC_24V_RAW*%
X71250000Y-128000000D03*
D17*
%TO.P,C1,2*%
%TO.N,GND*%
X78750000Y-128000000D03*
%TD*%
D16*
%TO.P,C2,1*%
%TO.N,VCC_24V_RAW*%
X71250000Y-102000000D03*
D17*
%TO.P,C2,2*%
%TO.N,GND*%
X78750000Y-102000000D03*
%TD*%
D18*
%TO.P,U_BUCK,1*%
%TO.N,VCC_24V*%
X65400000Y-81400000D03*
%TO.P,U_BUCK,2*%
%TO.N,VCC_5V*%
X65400000Y-79700000D03*
%TO.P,U_BUCK,3*%
%TO.N,GND*%
X65400000Y-78000000D03*
%TO.P,U_BUCK,4*%
%TO.N,VCC_5V*%
X65400000Y-76300000D03*
%TO.P,U_BUCK,5*%
%TO.N,GND*%
X65400000Y-74600000D03*
D19*
%TO.P,U_BUCK,6*%
X59500000Y-78000000D03*
%TD*%
D20*
%TO.P,L_BUCK,1*%
%TO.N,VCC_5V*%
X73000000Y-78000000D03*
%TO.P,L_BUCK,2*%
X83000000Y-78000000D03*
%TD*%
D21*
%TO.P,U_LDO,1*%
%TO.N,GND*%
X57700000Y-63100000D03*
%TO.P,U_LDO,2*%
%TO.N,VCC_3V3*%
X60000000Y-63100000D03*
%TO.P,U_LDO,3*%
%TO.N,VCC_5V*%
X62300000Y-63100000D03*
D22*
%TO.P,U_LDO,4*%
%TO.N,VCC_3V3*%
X60000000Y-56900000D03*
%TD*%
D23*
%TO.P,U_VGND,1*%
%TO.N,VCC_24V*%
X75460000Y-60000000D03*
D24*
%TO.P,U_VGND,2*%
%TO.N,VGND_12V*%
X78000000Y-60000000D03*
%TO.P,U_VGND,3*%
%TO.N,GND*%
X80540000Y-60000000D03*
%TD*%
D25*
%TO.P,J_AUX,1*%
%TO.N,GND*%
X104500000Y-60000000D03*
D26*
%TO.P,J_AUX,2*%
%TO.N,J_AUX_L*%
X108000000Y-62500000D03*
%TO.P,J_AUX,3*%
%TO.N,J_AUX_R*%
X111500000Y-60000000D03*
%TD*%
D27*
%TO.P,J_USB_IN,1*%
%TO.N,VCC_5V*%
X116920000Y-60000000D03*
D28*
%TO.P,J_USB_IN,2*%
%TO.N,GND*%
X119460000Y-60000000D03*
%TO.P,J_USB_IN,3*%
%TO.N,USB_L*%
X122000000Y-60000000D03*
%TO.P,J_USB_IN,4*%
%TO.N,USB_R*%
X124540000Y-60000000D03*
%TO.P,J_USB_IN,5*%
%TO.N,GND*%
X127080000Y-60000000D03*
%TD*%
D23*
%TO.P,U_BT,1*%
%TO.N,VCC_3V3*%
X128030000Y-62000000D03*
D24*
%TO.P,U_BT,2*%
%TO.N,GND*%
X130570000Y-62000000D03*
%TO.P,U_BT,3*%
%TO.N,BT_OUT_L*%
X133110000Y-62000000D03*
%TO.P,U_BT,4*%
%TO.N,BT_OUT_R*%
X135650000Y-62000000D03*
%TO.P,U_BT,5*%
%TO.N,BT_KEY*%
X138190000Y-62000000D03*
%TO.P,U_BT,6*%
%TO.N,GND*%
X140730000Y-62000000D03*
%TO.P,U_BT,7*%
X143270000Y-62000000D03*
%TO.P,U_BT,8*%
X145810000Y-62000000D03*
%TO.P,U_BT,9*%
X148350000Y-62000000D03*
%TO.P,U_BT,10*%
X150890000Y-62000000D03*
%TO.P,U_BT,11*%
X153430000Y-62000000D03*
%TO.P,U_BT,12*%
X155970000Y-62000000D03*
%TD*%
D29*
%TO.P,U_MUX,1*%
%TO.N,BT_OUT_R*%
X109400000Y-80555000D03*
D30*
%TO.P,U_MUX,2*%
%TO.N,USB_R*%
X109400000Y-81825000D03*
%TO.P,U_MUX,3*%
%TO.N,AUDIO_R_RAW*%
X109400000Y-83095000D03*
%TO.P,U_MUX,4*%
%TO.N,GND*%
X109400000Y-84365000D03*
%TO.P,U_MUX,5*%
%TO.N,J_AUX_R*%
X109400000Y-85635000D03*
%TO.P,U_MUX,6*%
%TO.N,GND*%
X109400000Y-86905000D03*
%TO.P,U_MUX,7*%
X109400000Y-88175000D03*
%TO.P,U_MUX,8*%
X109400000Y-89445000D03*
%TO.P,U_MUX,16*%
%TO.N,VCC_24V*%
X114600000Y-80555000D03*
%TO.P,U_MUX,15*%
%TO.N,USB_L*%
X114600000Y-81825000D03*
%TO.P,U_MUX,14*%
%TO.N,J_AUX_L*%
X114600000Y-83095000D03*
%TO.P,U_MUX,13*%
%TO.N,AUDIO_L_RAW*%
X114600000Y-84365000D03*
%TO.P,U_MUX,12*%
%TO.N,BT_OUT_L*%
X114600000Y-85635000D03*
%TO.P,U_MUX,11*%
%TO.N,GND*%
X114600000Y-86905000D03*
%TO.P,U_MUX,10*%
%TO.N,MUX_A*%
X114600000Y-88175000D03*
%TO.P,U_MUX,9*%
%TO.N,MUX_B*%
X114600000Y-89445000D03*
%TD*%
D29*
%TO.P,U_VOL,1*%
%TO.N,VOL_CS*%
X129400000Y-81190000D03*
D30*
%TO.P,U_VOL,2*%
%TO.N,SPI_SCK*%
X129400000Y-82460000D03*
%TO.P,U_VOL,3*%
%TO.N,SPI_MOSI*%
X129400000Y-83730000D03*
%TO.P,U_VOL,4*%
%TO.N,GND*%
X129400000Y-85000000D03*
%TO.P,U_VOL,5*%
%TO.N,AUDIO_L_RAW*%
X129400000Y-86270000D03*
%TO.P,U_VOL,6*%
%TO.N,VOL_L*%
X129400000Y-87540000D03*
%TO.P,U_VOL,7*%
%TO.N,VGND_12V*%
X129400000Y-88810000D03*
%TO.P,U_VOL,14*%
%TO.N,VCC_5V*%
X134600000Y-81190000D03*
%TO.P,U_VOL,13*%
%TO.N,SPI_MISO*%
X134600000Y-82460000D03*
%TO.P,U_VOL,12*%
%TO.N,VCC_5V*%
X134600000Y-83730000D03*
%TO.P,U_VOL,11*%
X134600000Y-85000000D03*
%TO.P,U_VOL,10*%
%TO.N,AUDIO_R_RAW*%
X134600000Y-86270000D03*
%TO.P,U_VOL,9*%
%TO.N,VOL_R*%
X134600000Y-87540000D03*
%TO.P,U_VOL,8*%
%TO.N,VGND_12V*%
X134600000Y-88810000D03*
%TD*%
D29*
%TO.P,U_OP1,1*%
%TO.N,HPF_L*%
X149400000Y-83095000D03*
D30*
%TO.P,U_OP1,2*%
X149400000Y-84365000D03*
%TO.P,U_OP1,3*%
%TO.N,VOL_L*%
X149400000Y-85635000D03*
%TO.P,U_OP1,4*%
%TO.N,GND*%
X149400000Y-86905000D03*
%TO.P,U_OP1,8*%
%TO.N,VCC_24V*%
X154600000Y-83095000D03*
%TO.P,U_OP1,7*%
%TO.N,HPF_R*%
X154600000Y-84365000D03*
%TO.P,U_OP1,6*%
X154600000Y-85635000D03*
%TO.P,U_OP1,5*%
%TO.N,VOL_R*%
X154600000Y-86905000D03*
%TD*%
D29*
%TO.P,U_OP2,1*%
%TO.N,SUM_CENTER*%
X165400000Y-83095000D03*
D30*
%TO.P,U_OP2,2*%
%TO.N,HPF_L*%
X165400000Y-84365000D03*
%TO.P,U_OP2,3*%
%TO.N,VGND_12V*%
X165400000Y-85635000D03*
%TO.P,U_OP2,4*%
%TO.N,GND*%
X165400000Y-86905000D03*
%TO.P,U_OP2,8*%
%TO.N,VCC_24V*%
X170600000Y-83095000D03*
%TO.P,U_OP2,7*%
%TO.N,SUM_SUB_RAW*%
X170600000Y-84365000D03*
%TO.P,U_OP2,6*%
%TO.N,VOL_L*%
X170600000Y-85635000D03*
%TO.P,U_OP2,5*%
%TO.N,VGND_12V*%
X170600000Y-86905000D03*
%TD*%
D29*
%TO.P,U_OP3,1*%
%TO.N,OUT_SUB*%
X181400000Y-83095000D03*
D30*
%TO.P,U_OP3,2*%
X181400000Y-84365000D03*
%TO.P,U_OP3,3*%
%TO.N,SUM_SUB_RAW*%
X181400000Y-85635000D03*
%TO.P,U_OP3,4*%
%TO.N,GND*%
X181400000Y-86905000D03*
%TO.P,U_OP3,8*%
%TO.N,VCC_24V*%
X186600000Y-83095000D03*
%TO.P,U_OP3,7*%
%TO.N,OUT_CENTER*%
X186600000Y-84365000D03*
%TO.P,U_OP3,6*%
%TO.N,SUM_CENTER*%
X186600000Y-85635000D03*
%TO.P,U_OP3,5*%
%TO.N,VGND_12V*%
X186600000Y-86905000D03*
%TD*%
D31*
%TO.P,U_MCU,1*%
%TO.N,GND*%
X203000000Y-69500000D03*
%TO.P,U_MCU,2*%
%TO.N,VCC_3V3*%
X203000000Y-70770000D03*
%TO.P,U_MCU,3*%
X203000000Y-72040000D03*
%TO.P,U_MCU,4*%
%TO.N,GND*%
X203000000Y-73310000D03*
%TO.P,U_MCU,5*%
%TO.N,DC_OFFSET_ADC*%
X203000000Y-74580000D03*
%TO.P,U_MCU,6*%
%TO.N,NTC_ADC*%
X203000000Y-75850000D03*
%TO.P,U_MCU,7*%
%TO.N,GND*%
X203000000Y-77120000D03*
%TO.P,U_MCU,8*%
X203000000Y-78390000D03*
%TO.P,U_MCU,9*%
X203000000Y-79660000D03*
%TO.P,U_MCU,10*%
X203000000Y-80930000D03*
%TO.P,U_MCU,11*%
X203000000Y-82200000D03*
%TO.P,U_MCU,12*%
X203000000Y-83470000D03*
%TO.P,U_MCU,13*%
X203000000Y-84740000D03*
%TO.P,U_MCU,14*%
X203000000Y-86010000D03*
%TO.P,U_MCU,25*%
X221000000Y-86000000D03*
%TO.P,U_MCU,26*%
X221000000Y-84730000D03*
%TO.P,U_MCU,27*%
%TO.N,UART_RX*%
X221000000Y-83460000D03*
%TO.P,U_MCU,28*%
%TO.N,UART_TX*%
X221000000Y-82190000D03*
%TO.P,U_MCU,29*%
%TO.N,SPI_MOSI*%
X221000000Y-80920000D03*
%TO.P,U_MCU,30*%
%TO.N,BT_KEY*%
X221000000Y-79650000D03*
%TO.P,U_MCU,31*%
%TO.N,GND*%
X221000000Y-78380000D03*
%TO.P,U_MCU,32*%
%TO.N,SPI_MISO*%
X221000000Y-77110000D03*
%TO.P,U_MCU,33*%
%TO.N,SPI_SCK*%
X221000000Y-75840000D03*
%TO.P,U_MCU,34*%
%TO.N,ENC_SW*%
X221000000Y-74570000D03*
%TO.P,U_MCU,35*%
%TO.N,ENC_B*%
X221000000Y-73300000D03*
%TO.P,U_MCU,36*%
%TO.N,ENC_A*%
X221000000Y-72030000D03*
%TO.P,U_MCU,37*%
%TO.N,IR_RECV*%
X221000000Y-70760000D03*
%TO.P,U_MCU,38*%
%TO.N,MUTE_ALL*%
X221000000Y-69490000D03*
D32*
%TO.P,U_MCU,15*%
%TO.N,RELAY_CTRL*%
X206300000Y-87500000D03*
%TO.P,U_MCU,16*%
%TO.N,GND*%
X207570000Y-87500000D03*
%TO.P,U_MCU,17*%
X208840000Y-87500000D03*
%TO.P,U_MCU,18*%
X210110000Y-87500000D03*
%TO.P,U_MCU,19*%
%TO.N,OLED_DC*%
X211380000Y-87500000D03*
%TO.P,U_MCU,20*%
%TO.N,OLED_CS*%
X212650000Y-87500000D03*
%TO.P,U_MCU,21*%
%TO.N,GND*%
X213920000Y-87500000D03*
%TO.P,U_MCU,22*%
X215190000Y-87500000D03*
%TO.P,U_MCU,23*%
%TO.N,VOL_CS*%
X216460000Y-87500000D03*
%TO.P,U_MCU,24*%
%TO.N,MUX_A*%
X217730000Y-87500000D03*
D33*
%TO.P,U_MCU,39*%
%TO.N,GND*%
X212000000Y-77000000D03*
%TD*%
D23*
%TO.P,J_OLED,1*%
%TO.N,GND*%
X232380000Y-58000000D03*
D24*
%TO.P,J_OLED,2*%
%TO.N,VCC_3V3*%
X234920000Y-58000000D03*
%TO.P,J_OLED,3*%
%TO.N,SPI_SCK*%
X237460000Y-58000000D03*
%TO.P,J_OLED,4*%
%TO.N,SPI_MOSI*%
X240000000Y-58000000D03*
%TO.P,J_OLED,5*%
%TO.N,VCC_3V3*%
X242540000Y-58000000D03*
%TO.P,J_OLED,6*%
%TO.N,OLED_DC*%
X245080000Y-58000000D03*
%TO.P,J_OLED,7*%
%TO.N,OLED_CS*%
X247620000Y-58000000D03*
%TD*%
D23*
%TO.P,J_ENC,1*%
%TO.N,GND*%
X234920000Y-75000000D03*
D24*
%TO.P,J_ENC,2*%
%TO.N,VCC_3V3*%
X237460000Y-75000000D03*
%TO.P,J_ENC,3*%
%TO.N,ENC_SW*%
X240000000Y-75000000D03*
%TO.P,J_ENC,4*%
%TO.N,ENC_B*%
X242540000Y-75000000D03*
%TO.P,J_ENC,5*%
%TO.N,ENC_A*%
X245080000Y-75000000D03*
%TD*%
D23*
%TO.P,J_CTRL,1*%
%TO.N,VCC_3V3*%
X236190000Y-92000000D03*
D24*
%TO.P,J_CTRL,2*%
%TO.N,UART_TX*%
X238730000Y-92000000D03*
%TO.P,J_CTRL,3*%
%TO.N,UART_RX*%
X241270000Y-92000000D03*
%TO.P,J_CTRL,4*%
%TO.N,GND*%
X243810000Y-92000000D03*
%TD*%
D34*
%TO.P,U_IR,1*%
%TO.N,IR_RECV*%
X237460000Y-105000000D03*
D35*
%TO.P,U_IR,2*%
%TO.N,GND*%
X240000000Y-105000000D03*
%TO.P,U_IR,3*%
%TO.N,VCC_3V3*%
X242540000Y-105000000D03*
%TD*%
D36*
%TO.P,U_AMP1,1*%
%TO.N,GND*%
X116800000Y-123125000D03*
D37*
%TO.P,U_AMP1,2*%
%TO.N,VCC_24V*%
X116800000Y-123775000D03*
%TO.P,U_AMP1,3*%
%TO.N,FAULT1*%
X116800000Y-124425000D03*
%TO.P,U_AMP1,4*%
%TO.N,HPF_L*%
X116800000Y-125075000D03*
%TO.P,U_AMP1,5*%
%TO.N,GND*%
X116800000Y-125725000D03*
%TO.P,U_AMP1,6*%
X116800000Y-126375000D03*
%TO.P,U_AMP1,7*%
%TO.N,VCC_3V3*%
X116800000Y-127025000D03*
%TO.P,U_AMP1,8*%
%TO.N,VCC_24V*%
X116800000Y-127675000D03*
%TO.P,U_AMP1,9*%
%TO.N,GND*%
X116800000Y-128325000D03*
%TO.P,U_AMP1,10*%
X116800000Y-128975000D03*
%TO.P,U_AMP1,11*%
X116800000Y-129625000D03*
%TO.P,U_AMP1,12*%
%TO.N,MUTE_ALL*%
X116800000Y-130275000D03*
%TO.P,U_AMP1,13*%
%TO.N,GND*%
X116800000Y-130925000D03*
%TO.P,U_AMP1,14*%
%TO.N,HPF_R*%
X116800000Y-131575000D03*
%TO.P,U_AMP1,15*%
%TO.N,GND*%
X116800000Y-132225000D03*
%TO.P,U_AMP1,16*%
X116800000Y-132875000D03*
%TO.P,U_AMP1,32*%
%TO.N,OUT_FR_N*%
X123200000Y-123125000D03*
%TO.P,U_AMP1,31*%
%TO.N,GND*%
X123200000Y-123775000D03*
%TO.P,U_AMP1,30*%
%TO.N,OUT_FR_P*%
X123200000Y-124425000D03*
%TO.P,U_AMP1,29*%
X123200000Y-125075000D03*
%TO.P,U_AMP1,28*%
%TO.N,VCC_24V*%
X123200000Y-125725000D03*
%TO.P,U_AMP1,27*%
X123200000Y-126375000D03*
%TO.P,U_AMP1,26*%
%TO.N,OUT_FR_N*%
X123200000Y-127025000D03*
%TO.P,U_AMP1,25*%
%TO.N,GND*%
X123200000Y-127675000D03*
%TO.P,U_AMP1,24*%
%TO.N,OUT_FL_N*%
X123200000Y-128325000D03*
%TO.P,U_AMP1,23*%
%TO.N,VCC_24V*%
X123200000Y-128975000D03*
%TO.P,U_AMP1,22*%
X123200000Y-129625000D03*
%TO.P,U_AMP1,21*%
%TO.N,OUT_FL_P*%
X123200000Y-130275000D03*
%TO.P,U_AMP1,20*%
X123200000Y-130925000D03*
%TO.P,U_AMP1,19*%
%TO.N,GND*%
X123200000Y-131575000D03*
%TO.P,U_AMP1,18*%
%TO.N,OUT_FL_N*%
X123200000Y-132225000D03*
%TO.P,U_AMP1,17*%
%TO.N,GND*%
X123200000Y-132875000D03*
D38*
%TO.P,U_AMP1,33*%
X120000000Y-128000000D03*
D39*
%TO.P,U_AMP1,*%
X118800000Y-127200000D03*
X118800000Y-128800000D03*
X120000000Y-127200000D03*
X120000000Y-128800000D03*
X121200000Y-127200000D03*
X121200000Y-128800000D03*
%TD*%
D36*
%TO.P,U_AMP2,1*%
%TO.N,GND*%
X146800000Y-123125000D03*
D37*
%TO.P,U_AMP2,2*%
%TO.N,VCC_24V*%
X146800000Y-123775000D03*
%TO.P,U_AMP2,3*%
%TO.N,FAULT2*%
X146800000Y-124425000D03*
%TO.P,U_AMP2,4*%
%TO.N,OUT_SL*%
X146800000Y-125075000D03*
%TO.P,U_AMP2,5*%
%TO.N,GND*%
X146800000Y-125725000D03*
%TO.P,U_AMP2,6*%
X146800000Y-126375000D03*
%TO.P,U_AMP2,7*%
%TO.N,VCC_3V3*%
X146800000Y-127025000D03*
%TO.P,U_AMP2,8*%
%TO.N,VCC_24V*%
X146800000Y-127675000D03*
%TO.P,U_AMP2,9*%
%TO.N,GND*%
X146800000Y-128325000D03*
%TO.P,U_AMP2,10*%
X146800000Y-128975000D03*
%TO.P,U_AMP2,11*%
X146800000Y-129625000D03*
%TO.P,U_AMP2,12*%
%TO.N,MUTE_ALL*%
X146800000Y-130275000D03*
%TO.P,U_AMP2,13*%
%TO.N,GND*%
X146800000Y-130925000D03*
%TO.P,U_AMP2,14*%
%TO.N,OUT_SR*%
X146800000Y-131575000D03*
%TO.P,U_AMP2,15*%
%TO.N,GND*%
X146800000Y-132225000D03*
%TO.P,U_AMP2,16*%
X146800000Y-132875000D03*
%TO.P,U_AMP2,32*%
%TO.N,OUT_SR_N*%
X153200000Y-123125000D03*
%TO.P,U_AMP2,31*%
%TO.N,GND*%
X153200000Y-123775000D03*
%TO.P,U_AMP2,30*%
%TO.N,OUT_SR_P*%
X153200000Y-124425000D03*
%TO.P,U_AMP2,29*%
X153200000Y-125075000D03*
%TO.P,U_AMP2,28*%
%TO.N,VCC_24V*%
X153200000Y-125725000D03*
%TO.P,U_AMP2,27*%
X153200000Y-126375000D03*
%TO.P,U_AMP2,26*%
%TO.N,OUT_SR_N*%
X153200000Y-127025000D03*
%TO.P,U_AMP2,25*%
%TO.N,GND*%
X153200000Y-127675000D03*
%TO.P,U_AMP2,24*%
%TO.N,OUT_SL_N*%
X153200000Y-128325000D03*
%TO.P,U_AMP2,23*%
%TO.N,VCC_24V*%
X153200000Y-128975000D03*
%TO.P,U_AMP2,22*%
X153200000Y-129625000D03*
%TO.P,U_AMP2,21*%
%TO.N,OUT_SL_P*%
X153200000Y-130275000D03*
%TO.P,U_AMP2,20*%
X153200000Y-130925000D03*
%TO.P,U_AMP2,19*%
%TO.N,GND*%
X153200000Y-131575000D03*
%TO.P,U_AMP2,18*%
%TO.N,OUT_SL_N*%
X153200000Y-132225000D03*
%TO.P,U_AMP2,17*%
%TO.N,GND*%
X153200000Y-132875000D03*
D38*
%TO.P,U_AMP2,33*%
X150000000Y-128000000D03*
D39*
%TO.P,U_AMP2,*%
X148800000Y-127200000D03*
X148800000Y-128800000D03*
X150000000Y-127200000D03*
X150000000Y-128800000D03*
X151200000Y-127200000D03*
X151200000Y-128800000D03*
%TD*%
D36*
%TO.P,U_AMP3,1*%
%TO.N,GND*%
X176800000Y-123125000D03*
D37*
%TO.P,U_AMP3,2*%
%TO.N,VCC_24V*%
X176800000Y-123775000D03*
%TO.P,U_AMP3,3*%
%TO.N,FAULT3*%
X176800000Y-124425000D03*
%TO.P,U_AMP3,4*%
%TO.N,OUT_CENTER*%
X176800000Y-125075000D03*
%TO.P,U_AMP3,5*%
%TO.N,GND*%
X176800000Y-125725000D03*
%TO.P,U_AMP3,6*%
X176800000Y-126375000D03*
%TO.P,U_AMP3,7*%
%TO.N,VCC_3V3*%
X176800000Y-127025000D03*
%TO.P,U_AMP3,8*%
%TO.N,VCC_24V*%
X176800000Y-127675000D03*
%TO.P,U_AMP3,9*%
%TO.N,GND*%
X176800000Y-128325000D03*
%TO.P,U_AMP3,10*%
X176800000Y-128975000D03*
%TO.P,U_AMP3,11*%
X176800000Y-129625000D03*
%TO.P,U_AMP3,12*%
%TO.N,MUTE_ALL*%
X176800000Y-130275000D03*
%TO.P,U_AMP3,13*%
%TO.N,GND*%
X176800000Y-130925000D03*
%TO.P,U_AMP3,14*%
%TO.N,OUT_SUB*%
X176800000Y-131575000D03*
%TO.P,U_AMP3,15*%
%TO.N,GND*%
X176800000Y-132225000D03*
%TO.P,U_AMP3,16*%
X176800000Y-132875000D03*
%TO.P,U_AMP3,32*%
%TO.N,OUT_SUB_N*%
X183200000Y-123125000D03*
%TO.P,U_AMP3,31*%
%TO.N,GND*%
X183200000Y-123775000D03*
%TO.P,U_AMP3,30*%
%TO.N,OUT_SUB_P*%
X183200000Y-124425000D03*
%TO.P,U_AMP3,29*%
X183200000Y-125075000D03*
%TO.P,U_AMP3,28*%
%TO.N,VCC_24V*%
X183200000Y-125725000D03*
%TO.P,U_AMP3,27*%
X183200000Y-126375000D03*
%TO.P,U_AMP3,26*%
%TO.N,OUT_SUB_N*%
X183200000Y-127025000D03*
%TO.P,U_AMP3,25*%
%TO.N,GND*%
X183200000Y-127675000D03*
%TO.P,U_AMP3,24*%
%TO.N,OUT_C_N*%
X183200000Y-128325000D03*
%TO.P,U_AMP3,23*%
%TO.N,VCC_24V*%
X183200000Y-128975000D03*
%TO.P,U_AMP3,22*%
X183200000Y-129625000D03*
%TO.P,U_AMP3,21*%
%TO.N,OUT_C_P*%
X183200000Y-130275000D03*
%TO.P,U_AMP3,20*%
X183200000Y-130925000D03*
%TO.P,U_AMP3,19*%
%TO.N,GND*%
X183200000Y-131575000D03*
%TO.P,U_AMP3,18*%
%TO.N,OUT_C_N*%
X183200000Y-132225000D03*
%TO.P,U_AMP3,17*%
%TO.N,GND*%
X183200000Y-132875000D03*
D38*
%TO.P,U_AMP3,33*%
X180000000Y-128000000D03*
D39*
%TO.P,U_AMP3,*%
X178800000Y-127200000D03*
X178800000Y-128800000D03*
X180000000Y-127200000D03*
X180000000Y-128800000D03*
X181200000Y-127200000D03*
X181200000Y-128800000D03*
%TD*%
D40*
%TO.P,K1,1*%
%TO.N,VCC_5V*%
X194000000Y-134000000D03*
%TO.P,K1,2*%
%TO.N,RELAY_CTRL*%
X206000000Y-134000000D03*
D16*
%TO.P,K1,3*%
%TO.N,VCC_24V_RAW*%
X194000000Y-122000000D03*
%TO.P,K1,4*%
%TO.N,VCC_24V*%
X206000000Y-122000000D03*
%TD*%
D41*
%TO.P,Q1,1*%
%TO.N,RELAY_CTRL*%
X199050000Y-145000000D03*
%TO.P,Q1,2*%
%TO.N,GND*%
X200950000Y-145000000D03*
%TO.P,Q1,3*%
%TO.N,RELAY_CTRL*%
X200000000Y-143000000D03*
%TD*%
D42*
%TO.P,C_BULK1,1*%
%TO.N,VCC_24V*%
X117500000Y-142000000D03*
D40*
%TO.P,C_BULK1,2*%
%TO.N,GND*%
X122500000Y-142000000D03*
%TD*%
D42*
%TO.P,C_BULK2,1*%
%TO.N,VCC_24V*%
X147500000Y-142000000D03*
D40*
%TO.P,C_BULK2,2*%
%TO.N,GND*%
X152500000Y-142000000D03*
%TD*%
D42*
%TO.P,C_BULK3,1*%
%TO.N,VCC_24V*%
X177500000Y-142000000D03*
D40*
%TO.P,C_BULK3,2*%
%TO.N,GND*%
X182500000Y-142000000D03*
%TD*%
D43*
%TO.P,L1,1*%
%TO.N,OUT_FL_P*%
X103800000Y-156000000D03*
%TO.P,L1,2*%
X112200000Y-156000000D03*
%TD*%
D34*
%TO.P,C_O1,1*%
%TO.N,OUT_FL_P*%
X105500000Y-165000000D03*
D35*
%TO.P,C_O1,2*%
%TO.N,GND*%
X110500000Y-165000000D03*
%TD*%
D43*
%TO.P,L2,1*%
%TO.N,OUT_FL_N*%
X115800000Y-156000000D03*
%TO.P,L2,2*%
X124200000Y-156000000D03*
%TD*%
D34*
%TO.P,C_O2,1*%
%TO.N,OUT_FL_N*%
X117500000Y-165000000D03*
D35*
%TO.P,C_O2,2*%
%TO.N,GND*%
X122500000Y-165000000D03*
%TD*%
D43*
%TO.P,L3,1*%
%TO.N,OUT_FR_P*%
X129800000Y-156000000D03*
%TO.P,L3,2*%
X138200000Y-156000000D03*
%TD*%
D34*
%TO.P,C_O3,1*%
%TO.N,OUT_FR_P*%
X131500000Y-165000000D03*
D35*
%TO.P,C_O3,2*%
%TO.N,GND*%
X136500000Y-165000000D03*
%TD*%
D43*
%TO.P,L4,1*%
%TO.N,OUT_FR_N*%
X141800000Y-156000000D03*
%TO.P,L4,2*%
X150200000Y-156000000D03*
%TD*%
D34*
%TO.P,C_O4,1*%
%TO.N,OUT_FR_N*%
X143500000Y-165000000D03*
D35*
%TO.P,C_O4,2*%
%TO.N,GND*%
X148500000Y-165000000D03*
%TD*%
D43*
%TO.P,L5,1*%
%TO.N,OUT_SL_P*%
X155800000Y-156000000D03*
%TO.P,L5,2*%
X164200000Y-156000000D03*
%TD*%
D34*
%TO.P,C_O5,1*%
%TO.N,OUT_SL_P*%
X157500000Y-165000000D03*
D35*
%TO.P,C_O5,2*%
%TO.N,GND*%
X162500000Y-165000000D03*
%TD*%
D43*
%TO.P,L6,1*%
%TO.N,OUT_SL_N*%
X167800000Y-156000000D03*
%TO.P,L6,2*%
X176200000Y-156000000D03*
%TD*%
D34*
%TO.P,C_O6,1*%
%TO.N,OUT_SL_N*%
X169500000Y-165000000D03*
D35*
%TO.P,C_O6,2*%
%TO.N,GND*%
X174500000Y-165000000D03*
%TD*%
D43*
%TO.P,L7,1*%
%TO.N,OUT_SR_P*%
X103800000Y-172000000D03*
%TO.P,L7,2*%
X112200000Y-172000000D03*
%TD*%
D34*
%TO.P,C_O7,1*%
%TO.N,OUT_SR_P*%
X105500000Y-181000000D03*
D35*
%TO.P,C_O7,2*%
%TO.N,GND*%
X110500000Y-181000000D03*
%TD*%
D43*
%TO.P,L8,1*%
%TO.N,OUT_SR_N*%
X115800000Y-172000000D03*
%TO.P,L8,2*%
X124200000Y-172000000D03*
%TD*%
D34*
%TO.P,C_O8,1*%
%TO.N,OUT_SR_N*%
X117500000Y-181000000D03*
D35*
%TO.P,C_O8,2*%
%TO.N,GND*%
X122500000Y-181000000D03*
%TD*%
D43*
%TO.P,L9,1*%
%TO.N,OUT_C_P*%
X129800000Y-172000000D03*
%TO.P,L9,2*%
X138200000Y-172000000D03*
%TD*%
D34*
%TO.P,C_O9,1*%
%TO.N,OUT_C_P*%
X131500000Y-181000000D03*
D35*
%TO.P,C_O9,2*%
%TO.N,GND*%
X136500000Y-181000000D03*
%TD*%
D43*
%TO.P,L10,1*%
%TO.N,OUT_C_N*%
X141800000Y-172000000D03*
%TO.P,L10,2*%
X150200000Y-172000000D03*
%TD*%
D34*
%TO.P,C_O10,1*%
%TO.N,OUT_C_N*%
X143500000Y-181000000D03*
D35*
%TO.P,C_O10,2*%
%TO.N,GND*%
X148500000Y-181000000D03*
%TD*%
D43*
%TO.P,L11,1*%
%TO.N,OUT_SUB_P*%
X155800000Y-172000000D03*
%TO.P,L11,2*%
X164200000Y-172000000D03*
%TD*%
D34*
%TO.P,C_O11,1*%
%TO.N,OUT_SUB_P*%
X157500000Y-181000000D03*
D35*
%TO.P,C_O11,2*%
%TO.N,GND*%
X162500000Y-181000000D03*
%TD*%
D43*
%TO.P,L12,1*%
%TO.N,OUT_SUB_N*%
X167800000Y-172000000D03*
%TO.P,L12,2*%
X176200000Y-172000000D03*
%TD*%
D34*
%TO.P,C_O12,1*%
%TO.N,OUT_SUB_N*%
X169500000Y-181000000D03*
D35*
%TO.P,C_O12,2*%
%TO.N,GND*%
X174500000Y-181000000D03*
%TD*%
D44*
%TO.P,PF_FL,1*%
%TO.N,OUT_FL_P*%
X218000000Y-122500000D03*
%TO.P,PF_FL,2*%
X222000000Y-122500000D03*
%TD*%
D13*
%TO.P,J_SPK_FL,1*%
%TO.N,OUT_FL_P*%
X235460000Y-124000000D03*
D14*
%TO.P,J_SPK_FL,2*%
%TO.N,OUT_FL_N*%
X240540000Y-124000000D03*
%TD*%
D44*
%TO.P,PF_FR,1*%
%TO.N,OUT_FR_P*%
X218000000Y-134500000D03*
%TO.P,PF_FR,2*%
X222000000Y-134500000D03*
%TD*%
D13*
%TO.P,J_SPK_FR,1*%
%TO.N,OUT_FR_P*%
X235460000Y-136000000D03*
D14*
%TO.P,J_SPK_FR,2*%
%TO.N,OUT_FR_N*%
X240540000Y-136000000D03*
%TD*%
D44*
%TO.P,PF_SL,1*%
%TO.N,OUT_SL_P*%
X218000000Y-146500000D03*
%TO.P,PF_SL,2*%
X222000000Y-146500000D03*
%TD*%
D13*
%TO.P,J_SPK_SL,1*%
%TO.N,OUT_SL_P*%
X235460000Y-148000000D03*
D14*
%TO.P,J_SPK_SL,2*%
%TO.N,OUT_SL_N*%
X240540000Y-148000000D03*
%TD*%
D44*
%TO.P,PF_SR,1*%
%TO.N,OUT_SR_P*%
X218000000Y-158500000D03*
%TO.P,PF_SR,2*%
X222000000Y-158500000D03*
%TD*%
D13*
%TO.P,J_SPK_SR,1*%
%TO.N,OUT_SR_P*%
X235460000Y-160000000D03*
D14*
%TO.P,J_SPK_SR,2*%
%TO.N,OUT_SR_N*%
X240540000Y-160000000D03*
%TD*%
D44*
%TO.P,PF_C,1*%
%TO.N,OUT_C_P*%
X218000000Y-170500000D03*
%TO.P,PF_C,2*%
X222000000Y-170500000D03*
%TD*%
D13*
%TO.P,J_SPK_C,1*%
%TO.N,OUT_C_P*%
X235460000Y-172000000D03*
D14*
%TO.P,J_SPK_C,2*%
%TO.N,OUT_C_N*%
X240540000Y-172000000D03*
%TD*%
D44*
%TO.P,PF_SUB,1*%
%TO.N,OUT_SUB_P*%
X218000000Y-182500000D03*
%TO.P,PF_SUB,2*%
X222000000Y-182500000D03*
%TD*%
D13*
%TO.P,J_SPK_SUB,1*%
%TO.N,OUT_SUB_P*%
X235460000Y-184000000D03*
D14*
%TO.P,J_SPK_SUB,2*%
%TO.N,OUT_SUB_N*%
X240540000Y-184000000D03*
%TD*%
%TO.N,AC_NEUTRAL*%
D45*
X54920000Y-186000000D02*
X58000000Y-179300000D01*
%TO.N,AC_LIVE*%
X58000000Y-156700000D02*
X68250000Y-168000000D01*
X68250000Y-168000000D02*
X80000000Y-149460000D01*
%TO.N,AC_NEUTRAL*%
X65080000Y-186000000D02*
X75750000Y-168000000D01*
X75750000Y-168000000D02*
X80000000Y-154540000D01*
%TO.N,VCC_24V_RAW*%
D46*
X80000000Y-144380000D02*
X71250000Y-128000000D01*
X71250000Y-128000000D02*
X71250000Y-102000000D01*
D47*
X71250000Y-102000000D02*
X71250000Y-122000000D01*
X71250000Y-122000000D02*
X206000000Y-122000000D01*
%TO.N,VCC_24V*%
X194000000Y-134000000D02*
X183200000Y-131200000D01*
X183200000Y-131200000D02*
X153200000Y-131200000D01*
X153200000Y-131200000D02*
X123200000Y-131200000D01*
D48*
X123200000Y-131200000D02*
X65400000Y-131200000D01*
X65400000Y-131200000D02*
X65400000Y-78000000D01*
D49*
X123200000Y-131200000D02*
X154600000Y-131200000D01*
X154600000Y-131200000D02*
X154600000Y-83100000D01*
X154600000Y-83100000D02*
X170600000Y-83100000D01*
X170600000Y-83100000D02*
X170600000Y-83100000D01*
X170600000Y-83100000D02*
X186600000Y-83100000D01*
X186600000Y-83100000D02*
X186600000Y-83100000D01*
%TO.N,VCC_5V*%
D48*
X65400000Y-76300000D02*
X73000000Y-78000000D01*
X83000000Y-78000000D02*
X95000000Y-78000000D01*
D49*
X95000000Y-78000000D02*
X62300000Y-78000000D01*
X62300000Y-78000000D02*
X62300000Y-63100000D01*
X95000000Y-78000000D02*
X95000000Y-122000000D01*
X95000000Y-122000000D02*
X194000000Y-122000000D01*
D50*
X95000000Y-78000000D02*
X134600000Y-78000000D01*
X134600000Y-78000000D02*
X134600000Y-83100000D01*
X95000000Y-78000000D02*
X95000000Y-54920000D01*
X95000000Y-54920000D02*
X122000000Y-54920000D01*
%TO.N,VCC_3V3*%
D49*
X60000000Y-56900000D02*
X142000000Y-48030000D01*
X142000000Y-48030000D02*
X203000000Y-48030000D01*
X203000000Y-48030000D02*
X203000000Y-69500000D01*
D50*
X203000000Y-69500000D02*
X203000000Y-52920000D01*
X203000000Y-52920000D02*
X240000000Y-52920000D01*
X240000000Y-52920000D02*
X240000000Y-72460000D01*
X240000000Y-72460000D02*
X240000000Y-72460000D01*
%TO.N,VGND_12V*%
X78000000Y-60000000D02*
X132000000Y-70000000D01*
X132000000Y-70000000D02*
X134600000Y-86900000D01*
X134600000Y-86900000D02*
X154600000Y-86900000D01*
X154600000Y-86900000D02*
X154600000Y-86900000D01*
X154600000Y-86900000D02*
X170600000Y-86900000D01*
X170600000Y-86900000D02*
X170600000Y-86900000D01*
X170600000Y-86900000D02*
X186600000Y-86900000D01*
X186600000Y-86900000D02*
X186600000Y-86900000D01*
%TO.N,J_AUX_L*%
D51*
X108000000Y-62500000D02*
X109400000Y-62500000D01*
X109400000Y-62500000D02*
X109400000Y-86270000D01*
%TO.N,J_AUX_R*%
X111500000Y-60000000D02*
X109400000Y-60000000D01*
X109400000Y-60000000D02*
X109400000Y-87540000D01*
%TO.N,BT_OUT_L*%
X142000000Y-53110000D02*
X109400000Y-53110000D01*
X109400000Y-53110000D02*
X109400000Y-83730000D01*
%TO.N,BT_OUT_R*%
X142000000Y-55650000D02*
X109400000Y-55650000D01*
X109400000Y-55650000D02*
X109400000Y-85000000D01*
%TO.N,USB_L*%
X122000000Y-60000000D02*
X114600000Y-60000000D01*
X114600000Y-60000000D02*
X114600000Y-86270000D01*
%TO.N,USB_R*%
X122000000Y-62540000D02*
X114600000Y-62540000D01*
X114600000Y-62540000D02*
X114600000Y-87540000D01*
%TO.N,AUDIO_L_RAW*%
X114600000Y-85000000D02*
X129400000Y-86270000D01*
%TO.N,AUDIO_R_RAW*%
X109400000Y-83730000D02*
X134600000Y-85000000D01*
%TO.N,VOL_L*%
X129400000Y-87540000D02*
X149400000Y-86270000D01*
%TO.N,VOL_R*%
X134600000Y-86270000D02*
X154600000Y-85000000D01*
%TO.N,HPF_L*%
D52*
X149400000Y-83100000D02*
X116800000Y-126050000D01*
D51*
X149400000Y-83100000D02*
X165400000Y-83100000D01*
X165400000Y-83100000D02*
X165400000Y-84370000D01*
%TO.N,OUT_SL*%
X149400000Y-83100000D02*
X146800000Y-83100000D01*
X146800000Y-83100000D02*
X146800000Y-126050000D01*
%TO.N,HPF_R*%
D52*
X154600000Y-84370000D02*
X123200000Y-126050000D01*
D51*
X154600000Y-84370000D02*
X165400000Y-84370000D01*
X165400000Y-84370000D02*
X165400000Y-85640000D01*
%TO.N,OUT_SR*%
X154600000Y-84370000D02*
X153200000Y-84370000D01*
X153200000Y-84370000D02*
X153200000Y-126050000D01*
%TO.N,SUM_CENTER*%
X165400000Y-83100000D02*
X181400000Y-86900000D01*
%TO.N,SUM_SUB_RAW*%
X170600000Y-84370000D02*
X181400000Y-85000000D01*
%TO.N,OUT_CENTER*%
D52*
X186600000Y-84370000D02*
X176800000Y-126050000D01*
%TO.N,OUT_SUB*%
X181400000Y-83100000D02*
X183200000Y-126050000D01*
%TO.N,OUT_FL_P*%
D53*
X123200000Y-126050000D02*
X103800000Y-156000000D01*
%TO.N,OUT_FL_N*%
X123200000Y-127350000D02*
X115800000Y-156000000D01*
%TO.N,OUT_FR_P*%
X123200000Y-128650000D02*
X129800000Y-156000000D01*
%TO.N,OUT_FR_N*%
X123200000Y-129950000D02*
X141800000Y-156000000D01*
%TO.N,OUT_SL_P*%
X153200000Y-126050000D02*
X155800000Y-156000000D01*
%TO.N,OUT_SL_N*%
X153200000Y-127350000D02*
X167800000Y-156000000D01*
%TO.N,OUT_SR_P*%
X153200000Y-128650000D02*
X103800000Y-172000000D01*
%TO.N,OUT_SR_N*%
X153200000Y-129950000D02*
X115800000Y-172000000D01*
%TO.N,OUT_C_P*%
X183200000Y-126050000D02*
X129800000Y-172000000D01*
%TO.N,OUT_C_N*%
X183200000Y-127350000D02*
X141800000Y-172000000D01*
%TO.N,OUT_SUB_P*%
X183200000Y-128650000D02*
X155800000Y-172000000D01*
%TO.N,OUT_SUB_N*%
X183200000Y-129950000D02*
X167800000Y-172000000D01*
%TO.N,OUT_FL_P*%
D48*
X112200000Y-156000000D02*
X105500000Y-165000000D01*
%TO.N,OUT_FL_N*%
X124200000Y-156000000D02*
X117500000Y-165000000D01*
%TO.N,OUT_FR_P*%
X138200000Y-156000000D02*
X131500000Y-165000000D01*
%TO.N,OUT_FR_N*%
X150200000Y-156000000D02*
X143500000Y-165000000D01*
%TO.N,OUT_SL_P*%
X164200000Y-156000000D02*
X157500000Y-165000000D01*
%TO.N,OUT_SL_N*%
X176200000Y-156000000D02*
X169500000Y-165000000D01*
%TO.N,OUT_SR_P*%
X112200000Y-172000000D02*
X105500000Y-181000000D01*
%TO.N,OUT_SR_N*%
X124200000Y-172000000D02*
X117500000Y-181000000D01*
%TO.N,OUT_C_P*%
X138200000Y-172000000D02*
X131500000Y-181000000D01*
%TO.N,OUT_C_N*%
X150200000Y-172000000D02*
X143500000Y-181000000D01*
%TO.N,OUT_SUB_P*%
X164200000Y-172000000D02*
X157500000Y-181000000D01*
%TO.N,OUT_SUB_N*%
X176200000Y-172000000D02*
X169500000Y-181000000D01*
%TO.N,OUT_FL_P*%
D53*
X112200000Y-156000000D02*
X218000000Y-156000000D01*
X218000000Y-156000000D02*
X218000000Y-122500000D01*
X218000000Y-122500000D02*
X222000000Y-122500000D01*
X222000000Y-122500000D02*
X235460000Y-124000000D01*
%TO.N,OUT_FL_N*%
X124200000Y-156000000D02*
X240540000Y-156000000D01*
X240540000Y-156000000D02*
X240540000Y-126000000D01*
%TO.N,OUT_FR_P*%
X138200000Y-156000000D02*
X218000000Y-156000000D01*
X218000000Y-156000000D02*
X218000000Y-134500000D01*
X218000000Y-134500000D02*
X222000000Y-134500000D01*
X222000000Y-134500000D02*
X235460000Y-136000000D01*
%TO.N,OUT_FR_N*%
X150200000Y-156000000D02*
X240540000Y-156000000D01*
X240540000Y-156000000D02*
X240540000Y-138000000D01*
%TO.N,OUT_SL_P*%
X164200000Y-156000000D02*
X218000000Y-156000000D01*
X218000000Y-156000000D02*
X218000000Y-146500000D01*
X218000000Y-146500000D02*
X222000000Y-146500000D01*
X222000000Y-146500000D02*
X235460000Y-148000000D01*
%TO.N,OUT_SL_N*%
X176200000Y-156000000D02*
X240540000Y-156000000D01*
X240540000Y-156000000D02*
X240540000Y-150000000D01*
%TO.N,OUT_SR_P*%
X112200000Y-172000000D02*
X218000000Y-172000000D01*
X218000000Y-172000000D02*
X218000000Y-158500000D01*
X218000000Y-158500000D02*
X222000000Y-158500000D01*
X222000000Y-158500000D02*
X235460000Y-160000000D01*
%TO.N,OUT_SR_N*%
X124200000Y-172000000D02*
X240540000Y-172000000D01*
X240540000Y-172000000D02*
X240540000Y-162000000D01*
%TO.N,OUT_C_P*%
X138200000Y-172000000D02*
X218000000Y-172000000D01*
X218000000Y-172000000D02*
X218000000Y-170500000D01*
X218000000Y-170500000D02*
X222000000Y-170500000D01*
X222000000Y-170500000D02*
X235460000Y-172000000D01*
%TO.N,OUT_C_N*%
X150200000Y-172000000D02*
X240540000Y-172000000D01*
X240540000Y-172000000D02*
X240540000Y-174000000D01*
%TO.N,OUT_SUB_P*%
X164200000Y-172000000D02*
X218000000Y-172000000D01*
X218000000Y-172000000D02*
X218000000Y-182500000D01*
X218000000Y-182500000D02*
X222000000Y-182500000D01*
X222000000Y-182500000D02*
X235460000Y-184000000D01*
%TO.N,OUT_SUB_N*%
X176200000Y-172000000D02*
X240540000Y-172000000D01*
X240540000Y-172000000D02*
X240540000Y-186000000D01*
%TO.N,SPI_SCK*%
D51*
X221000000Y-78620000D02*
X240000000Y-78620000D01*
X240000000Y-78620000D02*
X240000000Y-55460000D01*
X221000000Y-78620000D02*
X132000000Y-78620000D01*
X132000000Y-78620000D02*
X132000000Y-79920000D01*
%TO.N,SPI_MOSI*%
X221000000Y-81160000D02*
X240000000Y-81160000D01*
X240000000Y-81160000D02*
X240000000Y-58000000D01*
X221000000Y-81160000D02*
X132000000Y-81160000D01*
X132000000Y-81160000D02*
X132000000Y-81190000D01*
%TO.N,SPI_MISO*%
X221000000Y-77350000D02*
X132000000Y-77350000D01*
X132000000Y-77350000D02*
X132000000Y-82460000D01*
%TO.N,VOL_CS*%
X216500000Y-87500000D02*
X129400000Y-87500000D01*
X129400000Y-87500000D02*
X129400000Y-83100000D01*
%TO.N,OLED_DC*%
X211500000Y-87500000D02*
X240000000Y-87500000D01*
X240000000Y-87500000D02*
X240000000Y-63080000D01*
%TO.N,OLED_CS*%
X212770000Y-87500000D02*
X240000000Y-87500000D01*
X240000000Y-87500000D02*
X240000000Y-65620000D01*
%TO.N,MUX_A*%
X217770000Y-87500000D02*
X114600000Y-87500000D01*
X114600000Y-87500000D02*
X114600000Y-83730000D01*
%TO.N,MUX_B*%
X219040000Y-87500000D02*
X114600000Y-87500000D01*
X114600000Y-87500000D02*
X114600000Y-85000000D01*
%TO.N,MUTE_ALL*%
X221000000Y-72270000D02*
X176800000Y-72270000D01*
X176800000Y-72270000D02*
X176800000Y-130280000D01*
X176800000Y-130280000D02*
X146800000Y-130280000D01*
X146800000Y-130280000D02*
X116800000Y-130280000D01*
%TO.N,RELAY_CTRL*%
X206300000Y-87500000D02*
X199050000Y-87500000D01*
X199050000Y-87500000D02*
X199050000Y-145000000D01*
%TO.N,NTC_ADC*%
X203000000Y-70770000D02*
X180000000Y-70770000D01*
X180000000Y-70770000D02*
X180000000Y-115000000D01*
%TO.N,DC_OFFSET_ADC*%
X203000000Y-72040000D02*
X218000000Y-72040000D01*
X218000000Y-72040000D02*
X218000000Y-125000000D01*
%TO.N,IR_RECV*%
X221000000Y-73540000D02*
X240000000Y-73540000D01*
X240000000Y-73540000D02*
X240000000Y-105000000D01*
%TO.N,ENC_A*%
X221000000Y-74810000D02*
X240000000Y-74810000D01*
X240000000Y-74810000D02*
X240000000Y-80080000D01*
%TO.N,ENC_B*%
X221000000Y-76080000D02*
X240000000Y-76080000D01*
X240000000Y-76080000D02*
X240000000Y-77540000D01*
%TO.N,ENC_SW*%
X221000000Y-77350000D02*
X240000000Y-77350000D01*
X240000000Y-77350000D02*
X240000000Y-75000000D01*
%TO.N,UART_TX*%
X221000000Y-82430000D02*
X240000000Y-82430000D01*
X240000000Y-82430000D02*
X240000000Y-90730000D01*
%TO.N,UART_RX*%
X221000000Y-83700000D02*
X240000000Y-83700000D01*
X240000000Y-83700000D02*
X240000000Y-93270000D01*
%TD*%
M02*
