%TF.GenerationSoftware,KiCad,Pcbnew,10.0.6-1.fc43*%
%TF.CreationDate,2026-09-07T01:25:58+05:30*%
%TF.ProjectId,sony-5.1-revival,736f6e79-2d35-42e3-912d-726576697661,2.0*%
%TF.SameCoordinates,Original*%
%TF.FileFunction,Paste,Top*%
%TF.FilePolarity,Positive*%
%FSLAX46Y46*%
G04 Gerber Fmt 4.6, Leading zero omitted, Abs format (unit mm)*
G04 Created by KiCad (PCBNEW 10.0.6-1.fc43) date 2026-09-07 01:25:58*
%MOMM*%
%LPD*%
G01*
G04 APERTURE LIST*
G04 Aperture macros list*
%AMRoundRect*
0 Rectangle with rounded corners*
0 $1 Rounding radius*
0 $2 $3 $4 $5 $6 $7 $8 $9 X,Y pos of 4 corners*
0 Add a 4 corners polygon primitive as box body*
4,1,4,$2,$3,$4,$5,$6,$7,$8,$9,$2,$3,0*
0 Add four circle primitives for the rounded corners*
1,1,$1+$1,$2,$3*
1,1,$1+$1,$4,$5*
1,1,$1+$1,$6,$7*
1,1,$1+$1,$8,$9*
0 Add four rect primitives between the rounded corners*
20,1,$1+$1,$2,$3,$4,$5,0*
20,1,$1+$1,$4,$5,$6,$7,0*
20,1,$1+$1,$6,$7,$8,$9,0*
20,1,$1+$1,$8,$9,$2,$3,0*%
G04 Aperture macros list end*
%ADD10R,2.200000X1.000000*%
%ADD11R,6.500000X10.000000*%
%ADD12R,3.000000X5.000000*%
%ADD13R,1.000000X1.800000*%
%ADD14R,3.300000X1.800000*%
%ADD15R,1.500000X0.600000*%
%ADD16RoundRect,0.150000X-0.600000X-0.150000X0.600000X-0.150000X0.600000X0.150000X-0.600000X0.150000X0*%
%ADD17R,2.000000X0.900000*%
%ADD18R,0.900000X2.000000*%
%ADD19R,6.000000X6.000000*%
%ADD20R,1.400000X0.400000*%
%ADD21RoundRect,0.100000X-0.600000X-0.100000X0.600000X-0.100000X0.600000X0.100000X-0.600000X0.100000X0*%
%ADD22R,4.500000X3.000000*%
%ADD23R,0.800000X0.900000*%
%ADD24R,2.500000X4.500000*%
%ADD25R,1.200000X3.200000*%
G04 APERTURE END LIST*
D10*
%TO.C,U_BUCK*%
X65400000Y-81400000D03*
X65400000Y-79700000D03*
X65400000Y-78000000D03*
X65400000Y-76300000D03*
X65400000Y-74600000D03*
D11*
X59500000Y-78000000D03*
%TD*%
D12*
%TO.C,L_BUCK*%
X73000000Y-78000000D03*
X83000000Y-78000000D03*
%TD*%
D13*
%TO.C,U_LDO*%
X57700000Y-63100000D03*
X60000000Y-63100000D03*
X62300000Y-63100000D03*
D14*
X60000000Y-56900000D03*
%TD*%
D15*
%TO.C,U_MUX*%
X109400000Y-80555000D03*
D16*
X109400000Y-81825000D03*
X109400000Y-83095000D03*
X109400000Y-84365000D03*
X109400000Y-85635000D03*
X109400000Y-86905000D03*
X109400000Y-88175000D03*
X109400000Y-89445000D03*
X114600000Y-80555000D03*
X114600000Y-81825000D03*
X114600000Y-83095000D03*
X114600000Y-84365000D03*
X114600000Y-85635000D03*
X114600000Y-86905000D03*
X114600000Y-88175000D03*
X114600000Y-89445000D03*
%TD*%
D15*
%TO.C,U_VOL*%
X129400000Y-81190000D03*
D16*
X129400000Y-82460000D03*
X129400000Y-83730000D03*
X129400000Y-85000000D03*
X129400000Y-86270000D03*
X129400000Y-87540000D03*
X129400000Y-88810000D03*
X134600000Y-81190000D03*
X134600000Y-82460000D03*
X134600000Y-83730000D03*
X134600000Y-85000000D03*
X134600000Y-86270000D03*
X134600000Y-87540000D03*
X134600000Y-88810000D03*
%TD*%
D15*
%TO.C,U_OP1*%
X149400000Y-83095000D03*
D16*
X149400000Y-84365000D03*
X149400000Y-85635000D03*
X149400000Y-86905000D03*
X154600000Y-83095000D03*
X154600000Y-84365000D03*
X154600000Y-85635000D03*
X154600000Y-86905000D03*
%TD*%
D15*
%TO.C,U_OP2*%
X165400000Y-83095000D03*
D16*
X165400000Y-84365000D03*
X165400000Y-85635000D03*
X165400000Y-86905000D03*
X170600000Y-83095000D03*
X170600000Y-84365000D03*
X170600000Y-85635000D03*
X170600000Y-86905000D03*
%TD*%
D15*
%TO.C,U_OP3*%
X181400000Y-83095000D03*
D16*
X181400000Y-84365000D03*
X181400000Y-85635000D03*
X181400000Y-86905000D03*
X186600000Y-83095000D03*
X186600000Y-84365000D03*
X186600000Y-85635000D03*
X186600000Y-86905000D03*
%TD*%
D17*
%TO.C,U_MCU*%
X203000000Y-69500000D03*
X203000000Y-70770000D03*
X203000000Y-72040000D03*
X203000000Y-73310000D03*
X203000000Y-74580000D03*
X203000000Y-75850000D03*
X203000000Y-77120000D03*
X203000000Y-78390000D03*
X203000000Y-79660000D03*
X203000000Y-80930000D03*
X203000000Y-82200000D03*
X203000000Y-83470000D03*
X203000000Y-84740000D03*
X203000000Y-86010000D03*
X221000000Y-86000000D03*
X221000000Y-84730000D03*
X221000000Y-83460000D03*
X221000000Y-82190000D03*
X221000000Y-80920000D03*
X221000000Y-79650000D03*
X221000000Y-78380000D03*
X221000000Y-77110000D03*
X221000000Y-75840000D03*
X221000000Y-74570000D03*
X221000000Y-73300000D03*
X221000000Y-72030000D03*
X221000000Y-70760000D03*
X221000000Y-69490000D03*
D18*
X206300000Y-87500000D03*
X207570000Y-87500000D03*
X208840000Y-87500000D03*
X210110000Y-87500000D03*
X211380000Y-87500000D03*
X212650000Y-87500000D03*
X213920000Y-87500000D03*
X215190000Y-87500000D03*
X216460000Y-87500000D03*
X217730000Y-87500000D03*
D19*
X212000000Y-77000000D03*
%TD*%
D20*
%TO.C,U_AMP1*%
X116800000Y-123125000D03*
D21*
X116800000Y-123775000D03*
X116800000Y-124425000D03*
X116800000Y-125075000D03*
X116800000Y-125725000D03*
X116800000Y-126375000D03*
X116800000Y-127025000D03*
X116800000Y-127675000D03*
X116800000Y-128325000D03*
X116800000Y-128975000D03*
X116800000Y-129625000D03*
X116800000Y-130275000D03*
X116800000Y-130925000D03*
X116800000Y-131575000D03*
X116800000Y-132225000D03*
X116800000Y-132875000D03*
X123200000Y-123125000D03*
X123200000Y-123775000D03*
X123200000Y-124425000D03*
X123200000Y-125075000D03*
X123200000Y-125725000D03*
X123200000Y-126375000D03*
X123200000Y-127025000D03*
X123200000Y-127675000D03*
X123200000Y-128325000D03*
X123200000Y-128975000D03*
X123200000Y-129625000D03*
X123200000Y-130275000D03*
X123200000Y-130925000D03*
X123200000Y-131575000D03*
X123200000Y-132225000D03*
X123200000Y-132875000D03*
D22*
X120000000Y-128000000D03*
%TD*%
D20*
%TO.C,U_AMP2*%
X146800000Y-123125000D03*
D21*
X146800000Y-123775000D03*
X146800000Y-124425000D03*
X146800000Y-125075000D03*
X146800000Y-125725000D03*
X146800000Y-126375000D03*
X146800000Y-127025000D03*
X146800000Y-127675000D03*
X146800000Y-128325000D03*
X146800000Y-128975000D03*
X146800000Y-129625000D03*
X146800000Y-130275000D03*
X146800000Y-130925000D03*
X146800000Y-131575000D03*
X146800000Y-132225000D03*
X146800000Y-132875000D03*
X153200000Y-123125000D03*
X153200000Y-123775000D03*
X153200000Y-124425000D03*
X153200000Y-125075000D03*
X153200000Y-125725000D03*
X153200000Y-126375000D03*
X153200000Y-127025000D03*
X153200000Y-127675000D03*
X153200000Y-128325000D03*
X153200000Y-128975000D03*
X153200000Y-129625000D03*
X153200000Y-130275000D03*
X153200000Y-130925000D03*
X153200000Y-131575000D03*
X153200000Y-132225000D03*
X153200000Y-132875000D03*
D22*
X150000000Y-128000000D03*
%TD*%
D20*
%TO.C,U_AMP3*%
X176800000Y-123125000D03*
D21*
X176800000Y-123775000D03*
X176800000Y-124425000D03*
X176800000Y-125075000D03*
X176800000Y-125725000D03*
X176800000Y-126375000D03*
X176800000Y-127025000D03*
X176800000Y-127675000D03*
X176800000Y-128325000D03*
X176800000Y-128975000D03*
X176800000Y-129625000D03*
X176800000Y-130275000D03*
X176800000Y-130925000D03*
X176800000Y-131575000D03*
X176800000Y-132225000D03*
X176800000Y-132875000D03*
X183200000Y-123125000D03*
X183200000Y-123775000D03*
X183200000Y-124425000D03*
X183200000Y-125075000D03*
X183200000Y-125725000D03*
X183200000Y-126375000D03*
X183200000Y-127025000D03*
X183200000Y-127675000D03*
X183200000Y-128325000D03*
X183200000Y-128975000D03*
X183200000Y-129625000D03*
X183200000Y-130275000D03*
X183200000Y-130925000D03*
X183200000Y-131575000D03*
X183200000Y-132225000D03*
X183200000Y-132875000D03*
D22*
X180000000Y-128000000D03*
%TD*%
D23*
%TO.C,Q1*%
X199050000Y-145000000D03*
X200950000Y-145000000D03*
X200000000Y-143000000D03*
%TD*%
D24*
%TO.C,L1*%
X103800000Y-156000000D03*
X112200000Y-156000000D03*
%TD*%
%TO.C,L2*%
X115800000Y-156000000D03*
X124200000Y-156000000D03*
%TD*%
%TO.C,L3*%
X129800000Y-156000000D03*
X138200000Y-156000000D03*
%TD*%
%TO.C,L4*%
X141800000Y-156000000D03*
X150200000Y-156000000D03*
%TD*%
%TO.C,L5*%
X155800000Y-156000000D03*
X164200000Y-156000000D03*
%TD*%
%TO.C,L6*%
X167800000Y-156000000D03*
X176200000Y-156000000D03*
%TD*%
%TO.C,L7*%
X103800000Y-172000000D03*
X112200000Y-172000000D03*
%TD*%
%TO.C,L8*%
X115800000Y-172000000D03*
X124200000Y-172000000D03*
%TD*%
%TO.C,L9*%
X129800000Y-172000000D03*
X138200000Y-172000000D03*
%TD*%
%TO.C,L10*%
X141800000Y-172000000D03*
X150200000Y-172000000D03*
%TD*%
%TO.C,L11*%
X155800000Y-172000000D03*
X164200000Y-172000000D03*
%TD*%
%TO.C,L12*%
X167800000Y-172000000D03*
X176200000Y-172000000D03*
%TD*%
D25*
%TO.C,PF_FL*%
X218000000Y-122500000D03*
X222000000Y-122500000D03*
%TD*%
%TO.C,PF_FR*%
X218000000Y-134500000D03*
X222000000Y-134500000D03*
%TD*%
%TO.C,PF_SL*%
X218000000Y-146500000D03*
X222000000Y-146500000D03*
%TD*%
%TO.C,PF_SR*%
X218000000Y-158500000D03*
X222000000Y-158500000D03*
%TD*%
%TO.C,PF_C*%
X218000000Y-170500000D03*
X222000000Y-170500000D03*
%TD*%
%TO.C,PF_SUB*%
X218000000Y-182500000D03*
X222000000Y-182500000D03*
%TD*%
M02*
