%TF.GenerationSoftware,KiCad,Pcbnew,10.0.6-1.fc43*%
%TF.CreationDate,2026-09-07T00:45:24+05:30*%
%TF.ProjectId,sony-5.1-revival,736f6e79-2d35-42e3-912d-726576697661,1.0*%
%TF.SameCoordinates,Original*%
%TF.FileFunction,Copper,L2,Bot*%
%TF.FilePolarity,Positive*%
%FSLAX46Y46*%
G04 Gerber Fmt 4.6, Leading zero omitted, Abs format (unit mm)*
G04 Created by KiCad (PCBNEW 10.0.6-1.fc43) date 2026-09-07 00:45:24*
%MOMM*%
%LPD*%
G01*
G04 APERTURE LIST*
%TA.AperFunction,ComponentPad*%
%ADD10R,2.500000X2.500000*%
%TD*%
%TA.AperFunction,ComponentPad*%
%ADD11C,2.500000*%
%TD*%
%TA.AperFunction,ComponentPad*%
%ADD12C,2.800000*%
%TD*%
%TA.AperFunction,ComponentPad*%
%ADD13C,2.200000*%
%TD*%
%TA.AperFunction,ComponentPad*%
%ADD14R,3.000000X3.000000*%
%TD*%
%TA.AperFunction,ComponentPad*%
%ADD15C,3.000000*%
%TD*%
%TA.AperFunction,ComponentPad*%
%ADD16C,1.800000*%
%TD*%
%TA.AperFunction,ComponentPad*%
%ADD17R,2.200000X2.200000*%
%TD*%
%TA.AperFunction,ComponentPad*%
%ADD18R,1.700000X1.700000*%
%TD*%
%TA.AperFunction,ComponentPad*%
%ADD19C,1.700000*%
%TD*%
%TA.AperFunction,ComponentPad*%
%ADD20R,1.600000X1.600000*%
%TD*%
%TA.AperFunction,ComponentPad*%
%ADD21C,1.600000*%
%TD*%
%TA.AperFunction,ComponentPad*%
%ADD22R,2.800000X2.800000*%
%TD*%
%TA.AperFunction,Conductor*%
%ADD23C,2.500000*%
%TD*%
%TA.AperFunction,Conductor*%
%ADD24C,1.000000*%
%TD*%
%TA.AperFunction,Conductor*%
%ADD25C,1.800000*%
%TD*%
%TA.AperFunction,Conductor*%
%ADD26C,0.500000*%
%TD*%
%TA.AperFunction,Conductor*%
%ADD27C,0.400000*%
%TD*%
%TA.AperFunction,Conductor*%
%ADD28C,0.350000*%
%TD*%
G04 APERTURE END LIST*
D10*
%TO.P,J_AC,1*%
%TO.N,AC_LIVE*%
X54920000Y-185000000D03*
D11*
%TO.P,J_AC,2*%
%TO.N,AC_NEUTRAL*%
X60000000Y-185000000D03*
%TO.P,J_AC,3*%
%TO.N,GND*%
X65080000Y-185000000D03*
%TD*%
D12*
%TO.P,F1,1*%
%TO.N,AC_LIVE*%
X48700000Y-165000000D03*
%TO.P,F1,2*%
X71300000Y-165000000D03*
%TD*%
D13*
%TO.P,RV1,1*%
%TO.N,AC_LIVE*%
X56250000Y-148000000D03*
%TO.P,RV1,2*%
%TO.N,AC_NEUTRAL*%
X63750000Y-148000000D03*
%TD*%
D14*
%TO.P,BR1,1*%
%TO.N,VCC_24V_RAW*%
X80000000Y-172620000D03*
D15*
%TO.P,BR1,2*%
%TO.N,AC_LIVE*%
X80000000Y-167540000D03*
%TO.P,BR1,3*%
%TO.N,AC_NEUTRAL*%
X80000000Y-162460000D03*
%TO.P,BR1,4*%
%TO.N,GND*%
X80000000Y-157380000D03*
%TD*%
D14*
%TO.P,C1,1*%
%TO.N,VCC_24V_RAW*%
X76250000Y-138000000D03*
D15*
%TO.P,C1,2*%
%TO.N,GND*%
X83750000Y-138000000D03*
%TD*%
D14*
%TO.P,C2,1*%
%TO.N,VCC_24V_RAW*%
X76250000Y-112000000D03*
D15*
%TO.P,C2,2*%
%TO.N,GND*%
X83750000Y-112000000D03*
%TD*%
D16*
%TO.P,U_VGND,1*%
%TO.N,VCC_24V*%
X80730000Y-82000000D03*
%TO.P,U_VGND,2*%
%TO.N,VGND_12V*%
X82000000Y-82000000D03*
%TO.P,U_VGND,3*%
%TO.N,GND*%
X83270000Y-82000000D03*
%TD*%
D17*
%TO.P,J_AUX,1*%
%TO.N,GND*%
X100000000Y-72000000D03*
D13*
%TO.P,J_AUX,2*%
%TO.N,HPF_FL*%
X105000000Y-75500000D03*
%TO.P,J_AUX,3*%
%TO.N,HPF_FR*%
X110000000Y-72000000D03*
%TD*%
D18*
%TO.P,J_USB_IN,1*%
%TO.N,HPF_FL*%
X117460000Y-72000000D03*
D19*
%TO.P,J_USB_IN,2*%
%TO.N,GND*%
X120000000Y-72000000D03*
%TO.P,J_USB_IN,3*%
%TO.N,HPF_FR*%
X122540000Y-72000000D03*
%TD*%
D18*
%TO.P,U_BT,1*%
%TO.N,VCC_3V3*%
X142000000Y-88970000D03*
D19*
%TO.P,U_BT,2*%
%TO.N,GND*%
X142000000Y-86430000D03*
%TO.P,U_BT,3*%
%TO.N,HPF_FL*%
X142000000Y-83890000D03*
%TO.P,U_BT,4*%
%TO.N,GND*%
X142000000Y-81350000D03*
%TO.P,U_BT,5*%
%TO.N,HPF_FR*%
X142000000Y-78810000D03*
%TO.P,U_BT,6*%
%TO.N,GND*%
X142000000Y-76270000D03*
%TO.P,U_BT,8*%
%TO.N,BT_KEY*%
X142000000Y-71190000D03*
%TD*%
D18*
%TO.P,J_OLED,1*%
%TO.N,GND*%
X238000000Y-79620000D03*
D19*
%TO.P,J_OLED,2*%
%TO.N,VCC_3V3*%
X238000000Y-77080000D03*
%TO.P,J_OLED,3*%
%TO.N,SPI_SCK*%
X238000000Y-74540000D03*
%TO.P,J_OLED,4*%
%TO.N,SPI_MOSI*%
X238000000Y-72000000D03*
%TD*%
D18*
%TO.P,J_ENC,1*%
%TO.N,VCC_3V3*%
X238000000Y-93080000D03*
D19*
%TO.P,J_ENC,2*%
%TO.N,GND*%
X238000000Y-90540000D03*
%TD*%
D18*
%TO.P,J_CTRL,1*%
%TO.N,VCC_3V3*%
X238000000Y-105810000D03*
D19*
%TO.P,J_CTRL,2*%
%TO.N,STATUS_LED*%
X238000000Y-103270000D03*
%TO.P,J_CTRL,4*%
%TO.N,GND*%
X238000000Y-98190000D03*
%TD*%
D20*
%TO.P,C_O1,1*%
%TO.N,N/C*%
X103500000Y-168000000D03*
D21*
%TO.P,C_O1,2*%
%TO.N,GND*%
X108500000Y-168000000D03*
%TD*%
D20*
%TO.P,C_O2,1*%
%TO.N,N/C*%
X119500000Y-168000000D03*
D21*
%TO.P,C_O2,2*%
%TO.N,GND*%
X124500000Y-168000000D03*
%TD*%
D20*
%TO.P,C_O3,1*%
%TO.N,N/C*%
X135500000Y-168000000D03*
D21*
%TO.P,C_O3,2*%
%TO.N,GND*%
X140500000Y-168000000D03*
%TD*%
D20*
%TO.P,C_O4,1*%
%TO.N,N/C*%
X151500000Y-168000000D03*
D21*
%TO.P,C_O4,2*%
%TO.N,GND*%
X156500000Y-168000000D03*
%TD*%
D20*
%TO.P,C_O5,1*%
%TO.N,N/C*%
X167500000Y-168000000D03*
D21*
%TO.P,C_O5,2*%
%TO.N,GND*%
X172500000Y-168000000D03*
%TD*%
D20*
%TO.P,C_O6,1*%
%TO.N,N/C*%
X183500000Y-168000000D03*
D21*
%TO.P,C_O6,2*%
%TO.N,GND*%
X188500000Y-168000000D03*
%TD*%
D20*
%TO.P,C_O7,1*%
%TO.N,N/C*%
X103500000Y-180000000D03*
D21*
%TO.P,C_O7,2*%
%TO.N,GND*%
X108500000Y-180000000D03*
%TD*%
D20*
%TO.P,C_O8,1*%
%TO.N,N/C*%
X119500000Y-180000000D03*
D21*
%TO.P,C_O8,2*%
%TO.N,GND*%
X124500000Y-180000000D03*
%TD*%
D20*
%TO.P,C_O9,1*%
%TO.N,N/C*%
X135500000Y-180000000D03*
D21*
%TO.P,C_O9,2*%
%TO.N,GND*%
X140500000Y-180000000D03*
%TD*%
D20*
%TO.P,C_O10,1*%
%TO.N,N/C*%
X151500000Y-180000000D03*
D21*
%TO.P,C_O10,2*%
%TO.N,GND*%
X156500000Y-180000000D03*
%TD*%
D20*
%TO.P,C_O11,1*%
%TO.N,N/C*%
X167500000Y-180000000D03*
D21*
%TO.P,C_O11,2*%
%TO.N,GND*%
X172500000Y-180000000D03*
%TD*%
D20*
%TO.P,C_O12,1*%
%TO.N,N/C*%
X183500000Y-180000000D03*
D21*
%TO.P,C_O12,2*%
%TO.N,GND*%
X188500000Y-180000000D03*
%TD*%
D11*
%TO.P,K1,1*%
%TO.N,VCC_5V*%
X202000000Y-146000000D03*
%TO.P,K1,2*%
%TO.N,RELAY_CTRL*%
X214000000Y-146000000D03*
D14*
%TO.P,K1,3*%
%TO.N,VCC_24V_RAW*%
X202000000Y-134000000D03*
%TO.P,K1,4*%
%TO.N,VCC_24V*%
X214000000Y-134000000D03*
%TD*%
D22*
%TO.P,J_SPK_FL,1*%
%TO.N,N/C*%
X235460000Y-130000000D03*
D12*
%TO.P,J_SPK_FL,2*%
X240540000Y-130000000D03*
%TD*%
D22*
%TO.P,J_SPK_FR,1*%
%TO.N,N/C*%
X235460000Y-142000000D03*
D12*
%TO.P,J_SPK_FR,2*%
X240540000Y-142000000D03*
%TD*%
D22*
%TO.P,J_SPK_SL,1*%
%TO.N,N/C*%
X235460000Y-154000000D03*
D12*
%TO.P,J_SPK_SL,2*%
X240540000Y-154000000D03*
%TD*%
D22*
%TO.P,J_SPK_SR,1*%
%TO.N,N/C*%
X235460000Y-166000000D03*
D12*
%TO.P,J_SPK_SR,2*%
X240540000Y-166000000D03*
%TD*%
D22*
%TO.P,J_SPK_C,1*%
%TO.N,N/C*%
X235460000Y-178000000D03*
D12*
%TO.P,J_SPK_C,2*%
X240540000Y-178000000D03*
%TD*%
D22*
%TO.P,J_SPK_SUB,1*%
%TO.N,N/C*%
X235460000Y-190000000D03*
D12*
%TO.P,J_SPK_SUB,2*%
X240540000Y-190000000D03*
%TD*%
%TO.N,VCC_24V_RAW*%
D23*
X76250000Y-138000000D02*
X202000000Y-134000000D01*
%TO.N,VCC_5V*%
D24*
X60300000Y-113500000D02*
X202000000Y-146000000D01*
%TO.N,SPK_FL_N*%
D25*
X200000000Y-132000000D02*
X240540000Y-130000000D01*
%TO.N,SPK_FR_N*%
X200000000Y-144000000D02*
X240540000Y-142000000D01*
%TO.N,SPK_SL_P*%
X200000000Y-156000000D02*
X240540000Y-154000000D01*
%TO.N,SPK_SR_P*%
X200000000Y-168000000D02*
X240540000Y-166000000D01*
%TO.N,SPK_C_P*%
X200000000Y-180000000D02*
X240540000Y-178000000D01*
%TO.N,SPK_SUB_P*%
X200000000Y-192000000D02*
X240540000Y-190000000D01*
%TO.N,RELAY_CTRL*%
D26*
X203500000Y-95710000D02*
X208000000Y-146000000D01*
%TO.N,MUTE_ALL*%
D27*
X203500000Y-96980000D02*
X116200000Y-135130000D01*
%TO.N,SPI_SCK*%
D28*
X220500000Y-90630000D02*
X132400000Y-92460000D01*
X220500000Y-85560000D02*
X132400000Y-93730000D01*
%TD*%
%TA.AperFunction,Conductor*%
%TO.N,GND*%
G36*
X249047835Y-50884515D02*
G01*
X249088388Y-50911612D01*
X249115485Y-50952165D01*
X249125000Y-51000000D01*
X249125000Y-199000000D01*
X249115485Y-199047835D01*
X249088388Y-199088388D01*
X249047835Y-199115485D01*
X249000000Y-199125000D01*
X51000000Y-199125000D01*
X50952165Y-199115485D01*
X50911612Y-199088388D01*
X50884515Y-199047835D01*
X50875000Y-199000000D01*
X50875000Y-51000000D01*
X50884515Y-50952165D01*
X50911612Y-50911612D01*
X50952165Y-50884515D01*
X51000000Y-50875000D01*
X249000000Y-50875000D01*
X249047835Y-50884515D01*
G37*
%TD.AperFunction*%
%TD*%
M02*
