%TF.GenerationSoftware,KiCad,Pcbnew,10.0.6-1.fc43*%
%TF.CreationDate,2026-09-07T00:45:24+05:30*%
%TF.ProjectId,sony-5.1-revival,736f6e79-2d35-42e3-912d-726576697661,1.0*%
%TF.SameCoordinates,Original*%
%TF.FileFunction,Soldermask,Bot*%
%TF.FilePolarity,Negative*%
%FSLAX46Y46*%
G04 Gerber Fmt 4.6, Leading zero omitted, Abs format (unit mm)*
G04 Created by KiCad (PCBNEW 10.0.6-1.fc43) date 2026-09-07 00:45:24*
%MOMM*%
%LPD*%
G01*
G04 APERTURE LIST*
G04 Aperture macros list*
%AMRoundRect*
0 Rectangle with rounded corners*
0 $1 Rounding radius*
0 $2 $3 $4 $5 $6 $7 $8 $9 X,Y pos of 4 corners*
0 Add a 4 corners polygon primitive as box body*
4,1,4,$2,$3,$4,$5,$6,$7,$8,$9,$2,$3,0*
0 Add four circle primitives for the rounded corners*
1,1,$1+$1,$2,$3*
1,1,$1+$1,$4,$5*
1,1,$1+$1,$6,$7*
1,1,$1+$1,$8,$9*
0 Add four rect primitives between the rounded corners*
20,1,$1+$1,$2,$3,$4,$5,0*
20,1,$1+$1,$4,$5,$6,$7,0*
20,1,$1+$1,$6,$7,$8,$9,0*
20,1,$1+$1,$8,$9,$2,$3,0*%
G04 Aperture macros list end*
%ADD10C,3.300000*%
%ADD11RoundRect,0.050000X-1.250000X-1.250000X1.250000X-1.250000X1.250000X1.250000X-1.250000X1.250000X0*%
%ADD12C,2.600000*%
%ADD13C,2.900000*%
%ADD14C,2.300000*%
%ADD15RoundRect,0.050000X1.500000X-1.500000X1.500000X1.500000X-1.500000X1.500000X-1.500000X-1.500000X0*%
%ADD16C,3.100000*%
%ADD17RoundRect,0.050000X-1.500000X-1.500000X1.500000X-1.500000X1.500000X1.500000X-1.500000X1.500000X0*%
%ADD18C,1.900000*%
%ADD19RoundRect,0.050000X-1.100000X-1.100000X1.100000X-1.100000X1.100000X1.100000X-1.100000X1.100000X0*%
%ADD20RoundRect,0.050000X-0.850000X-0.850000X0.850000X-0.850000X0.850000X0.850000X-0.850000X0.850000X0*%
%ADD21C,1.800000*%
%ADD22RoundRect,0.050000X0.850000X-0.850000X0.850000X0.850000X-0.850000X0.850000X-0.850000X-0.850000X0*%
%ADD23RoundRect,0.050000X-0.800000X-0.800000X0.800000X-0.800000X0.800000X0.800000X-0.800000X0.800000X0*%
%ADD24C,1.700000*%
%ADD25RoundRect,0.050000X-1.400000X-1.400000X1.400000X-1.400000X1.400000X1.400000X-1.400000X1.400000X0*%
G04 APERTURE END LIST*
D10*
%TO.C,H1*%
X56000000Y-56000000D03*
%TD*%
%TO.C,H2*%
X244000000Y-56000000D03*
%TD*%
%TO.C,H3*%
X244000000Y-194000000D03*
%TD*%
%TO.C,H4*%
X56000000Y-194000000D03*
%TD*%
D11*
%TO.C,J_AC*%
X54920000Y-185000000D03*
D12*
X60000000Y-185000000D03*
X65080000Y-185000000D03*
%TD*%
D13*
%TO.C,F1*%
X48700000Y-165000000D03*
X71300000Y-165000000D03*
%TD*%
D14*
%TO.C,RV1*%
X56250000Y-148000000D03*
X63750000Y-148000000D03*
%TD*%
D15*
%TO.C,BR1*%
X80000000Y-172620000D03*
D16*
X80000000Y-167540000D03*
X80000000Y-162460000D03*
X80000000Y-157380000D03*
%TD*%
D17*
%TO.C,C1*%
X76250000Y-138000000D03*
D16*
X83750000Y-138000000D03*
%TD*%
D17*
%TO.C,C2*%
X76250000Y-112000000D03*
D16*
X83750000Y-112000000D03*
%TD*%
D18*
%TO.C,U_VGND*%
X80730000Y-82000000D03*
X82000000Y-82000000D03*
X83270000Y-82000000D03*
%TD*%
D19*
%TO.C,J_AUX*%
X100000000Y-72000000D03*
D14*
X105000000Y-75500000D03*
X110000000Y-72000000D03*
%TD*%
D20*
%TO.C,J_USB_IN*%
X117460000Y-72000000D03*
D21*
X120000000Y-72000000D03*
X122540000Y-72000000D03*
%TD*%
D22*
%TO.C,U_BT*%
X142000000Y-88970000D03*
D21*
X142000000Y-86430000D03*
X142000000Y-83890000D03*
X142000000Y-81350000D03*
X142000000Y-78810000D03*
X142000000Y-76270000D03*
X142000000Y-71190000D03*
%TD*%
D22*
%TO.C,J_OLED*%
X238000000Y-79620000D03*
D21*
X238000000Y-77080000D03*
X238000000Y-74540000D03*
X238000000Y-72000000D03*
%TD*%
D22*
%TO.C,J_ENC*%
X238000000Y-93080000D03*
D21*
X238000000Y-90540000D03*
%TD*%
D22*
%TO.C,J_CTRL*%
X238000000Y-105810000D03*
D21*
X238000000Y-103270000D03*
X238000000Y-98190000D03*
%TD*%
D23*
%TO.C,C_O1*%
X103500000Y-168000000D03*
D24*
X108500000Y-168000000D03*
%TD*%
D23*
%TO.C,C_O2*%
X119500000Y-168000000D03*
D24*
X124500000Y-168000000D03*
%TD*%
D23*
%TO.C,C_O3*%
X135500000Y-168000000D03*
D24*
X140500000Y-168000000D03*
%TD*%
D23*
%TO.C,C_O4*%
X151500000Y-168000000D03*
D24*
X156500000Y-168000000D03*
%TD*%
D23*
%TO.C,C_O5*%
X167500000Y-168000000D03*
D24*
X172500000Y-168000000D03*
%TD*%
D23*
%TO.C,C_O6*%
X183500000Y-168000000D03*
D24*
X188500000Y-168000000D03*
%TD*%
D23*
%TO.C,C_O7*%
X103500000Y-180000000D03*
D24*
X108500000Y-180000000D03*
%TD*%
D23*
%TO.C,C_O8*%
X119500000Y-180000000D03*
D24*
X124500000Y-180000000D03*
%TD*%
D23*
%TO.C,C_O9*%
X135500000Y-180000000D03*
D24*
X140500000Y-180000000D03*
%TD*%
D23*
%TO.C,C_O10*%
X151500000Y-180000000D03*
D24*
X156500000Y-180000000D03*
%TD*%
D23*
%TO.C,C_O11*%
X167500000Y-180000000D03*
D24*
X172500000Y-180000000D03*
%TD*%
D23*
%TO.C,C_O12*%
X183500000Y-180000000D03*
D24*
X188500000Y-180000000D03*
%TD*%
D12*
%TO.C,K1*%
X202000000Y-146000000D03*
X214000000Y-146000000D03*
D15*
X202000000Y-134000000D03*
X214000000Y-134000000D03*
%TD*%
D25*
%TO.C,J_SPK_FL*%
X235460000Y-130000000D03*
D13*
X240540000Y-130000000D03*
%TD*%
D25*
%TO.C,J_SPK_FR*%
X235460000Y-142000000D03*
D13*
X240540000Y-142000000D03*
%TD*%
D25*
%TO.C,J_SPK_SL*%
X235460000Y-154000000D03*
D13*
X240540000Y-154000000D03*
%TD*%
D25*
%TO.C,J_SPK_SR*%
X235460000Y-166000000D03*
D13*
X240540000Y-166000000D03*
%TD*%
D25*
%TO.C,J_SPK_C*%
X235460000Y-178000000D03*
D13*
X240540000Y-178000000D03*
%TD*%
D25*
%TO.C,J_SPK_SUB*%
X235460000Y-190000000D03*
D13*
X240540000Y-190000000D03*
%TD*%
M02*
