M48
; DRILL file KiCad 10.0.6-1.fc43 date 2026-09-07T01:25:59
; FORMAT={-:-/ absolute / metric / decimal}
; #@! TF.CreationDate,2026-09-07T01:25:59+05:30
; #@! TF.GenerationSoftware,Kicad,Pcbnew,10.0.6-1.fc43
; #@! TF.FileFunction,MixedPlating,1,2
FMAT,2
METRIC
; #@! TA.AperFunction,Plated,PTH,ComponentDrill
T1C0.300
; #@! TA.AperFunction,Plated,PTH,ComponentDrill
T2C0.900
; #@! TA.AperFunction,Plated,PTH,ComponentDrill
T3C1.000
; #@! TA.AperFunction,Plated,PTH,ComponentDrill
T4C1.200
; #@! TA.AperFunction,Plated,PTH,ComponentDrill
T5C1.300
; #@! TA.AperFunction,Plated,PTH,ComponentDrill
T6C1.400
; #@! TA.AperFunction,Plated,PTH,ComponentDrill
T7C1.500
; #@! TA.AperFunction,Plated,PTH,ComponentDrill
T8C1.600
; #@! TA.AperFunction,Plated,PTH,ComponentDrill
T9C3.200
%
G90
G05
T1
X118.8Y-127.2
X118.8Y-128.8
X120.0Y-127.2
X120.0Y-128.8
X121.2Y-127.2
X121.2Y-128.8
X148.8Y-127.2
X148.8Y-128.8
X150.0Y-127.2
X150.0Y-128.8
X151.2Y-127.2
X151.2Y-128.8
X178.8Y-127.2
X178.8Y-128.8
X180.0Y-127.2
X180.0Y-128.8
X181.2Y-127.2
X181.2Y-128.8
T2
X75.46Y-60.0
X78.0Y-60.0
X80.54Y-60.0
X105.5Y-165.0
X105.5Y-181.0
X110.5Y-165.0
X110.5Y-181.0
X117.5Y-165.0
X117.5Y-181.0
X122.5Y-165.0
X122.5Y-181.0
X131.5Y-165.0
X131.5Y-181.0
X136.5Y-165.0
X136.5Y-181.0
X143.5Y-165.0
X143.5Y-181.0
X148.5Y-165.0
X148.5Y-181.0
X157.5Y-165.0
X157.5Y-181.0
X162.5Y-165.0
X162.5Y-181.0
X169.5Y-165.0
X169.5Y-181.0
X174.5Y-165.0
X174.5Y-181.0
X237.46Y-105.0
X240.0Y-105.0
X242.54Y-105.0
T3
X116.92Y-60.0
X119.46Y-60.0
X122.0Y-60.0
X124.54Y-60.0
X127.08Y-60.0
X128.03Y-62.0
X130.57Y-62.0
X133.11Y-62.0
X135.65Y-62.0
X138.19Y-62.0
X140.73Y-62.0
X143.27Y-62.0
X145.81Y-62.0
X148.35Y-62.0
X150.89Y-62.0
X153.43Y-62.0
X155.97Y-62.0
X232.38Y-58.0
X234.92Y-58.0
X234.92Y-75.0
X236.19Y-92.0
X237.46Y-58.0
X237.46Y-75.0
X238.73Y-92.0
X240.0Y-58.0
X240.0Y-75.0
X241.27Y-92.0
X242.54Y-58.0
X242.54Y-75.0
X243.81Y-92.0
X245.08Y-58.0
X245.08Y-75.0
X247.62Y-58.0
T4
X68.25Y-168.0
X75.75Y-168.0
X104.5Y-60.0
X108.0Y-62.5
X111.5Y-60.0
X117.5Y-142.0
X122.5Y-142.0
X147.5Y-142.0
X152.5Y-142.0
X177.5Y-142.0
X182.5Y-142.0
T5
X194.0Y-134.0
X206.0Y-134.0
T6
X54.92Y-186.0
X60.0Y-186.0
X65.08Y-186.0
X235.46Y-124.0
X235.46Y-136.0
X235.46Y-148.0
X235.46Y-160.0
X235.46Y-172.0
X235.46Y-184.0
X240.54Y-124.0
X240.54Y-136.0
X240.54Y-148.0
X240.54Y-160.0
X240.54Y-172.0
X240.54Y-184.0
T7
X46.7Y-168.0
X69.3Y-168.0
X71.25Y-102.0
X71.25Y-128.0
X78.75Y-102.0
X78.75Y-128.0
X80.0Y-149.46
X80.0Y-154.54
X194.0Y-122.0
X206.0Y-122.0
T8
X80.0Y-144.38
X80.0Y-159.62
T9
X55.0Y-55.0
X55.0Y-195.0
X245.0Y-55.0
X245.0Y-195.0
M30
